
<svg width="1578" height="1144" viewBox="0 0 1578 1144" fill="none" xmlns="http://www.w3.org/2000/svg">
<path d="M1500 749.068C1562.4 884.668 1463.67 1045.57 1406.5 1109.07H73.0006C11.8006 657.868 373.167 624.734 561.5 664.568C406 286.568 821 130.568 1058 269.068C1295 407.568 1134 693.568 1172 664.568C1210 635.568 1422 579.568 1500 749.068Z" fill="#BBDDCE"/>
<path d="M562 619.758C354.427 575.909 -43.8546 612.383 23.5973 1109.07" stroke="#359C6D" stroke-width="5" stroke-linecap="round" stroke-dasharray="20 20"/>
<path d="M1449.25 1114.07C1512.61 1047.2 1622.04 877.775 1552.88 734.988" stroke="#359C6D" stroke-width="5" stroke-linecap="round" stroke-dasharray="20 20"/>
<path d="M1242.5 591.569C1374 224.569 787.5 -18.9316 532.5 321.568" stroke="#359C6D" stroke-width="5" stroke-linecap="round" stroke-dasharray="20 20"/>
<ellipse cx="738" cy="1110.57" rx="738" ry="32.5" fill="#F0F0F0"/>
<path d="M293 1070.57C293 1066.61 288.673 1064.09 287.5 1062.07L214.008 1102.39C215 1110.07 212.934 1113.84 235.635 1108.44C265.309 1101.39 293 1077.07 293 1070.57Z" fill="#EFC036"/>
<path d="M201.991 1105.06C204.789 1103.34 203.466 1097.93 203.361 1096L129.416 1096.28C127.844 1102.55 126.188 1105.34 145.536 1107.57C163.737 1109.66 196.962 1108.17 201.991 1105.06Z" fill="#EFC036"/>
<path d="M236.151 1086.89C243.351 1083.29 245.484 1060.72 245.651 1049.89C250.317 1046.22 261.05 1038.09 266.65 1034.89C273.65 1030.89 276.65 1041.89 287.15 1059.89C297.65 1077.89 236.151 1108.39 219.651 1105.39C203.151 1102.39 227.151 1091.39 236.151 1086.89Z" fill="#FFD37C"/>
<path fill-rule="evenodd" clip-rule="evenodd" d="M267.5 1040.07C272.667 1045.9 282.4 1059.77 280 1068.57C278.613 1073.65 274.984 1077.13 271.482 1080.49C268.381 1083.47 265.379 1086.35 264.12 1090.16C279.962 1080.72 292.336 1068.78 287.15 1059.89C284.642 1055.59 282.562 1051.69 280.752 1048.3C277.18 1041.6 274.665 1036.88 272.001 1034.99L267.5 1040.07Z" fill="#FBCD72"/>
<path d="M151 800.068C149 773.268 197.833 698.235 222.5 664.068C237.167 648.735 272.3 625.168 295.5 653.568C318.7 681.968 241.833 772.735 200.5 814.568C214 819.568 275.5 1022.57 278 1035.07C280.5 1047.57 239 1067.57 237.5 1049.57C236 1031.57 153.5 833.568 151 800.068Z" fill="#2D5C77"/>
<path opacity="0.25" d="M258.5 671.568C233.834 709.902 184.4 790.668 184 807.068C183.6 823.468 236.167 973.235 262.5 1046.07" stroke="#F8E6F8" stroke-width="1.5" stroke-linecap="round"/>
<path fill-rule="evenodd" clip-rule="evenodd" d="M276.897 1030.7C277.471 1032.82 277.846 1034.3 278 1035.07C280.5 1047.57 239 1067.57 237.5 1049.57C236.945 1042.9 225.29 1011.58 210.702 973.057C211.096 973.125 211.527 973.294 211.999 973.568C219.783 978.088 225.55 996.1 231.135 1013.55C236.672 1030.84 242.031 1047.58 249 1050.07C258.323 1053.4 269.911 1040.79 276.897 1030.7Z" fill="#25526C"/>
<path d="M174 1072.57C185.363 1058.43 180.655 1047.85 183.5 1036.57L211 1041.12C209.736 1059.3 207.644 1097.78 202.333 1100.2C195.695 1103.23 138.561 1104.74 130.501 1100.2C115.195 1091.57 166.214 1082.26 174 1072.57Z" fill="#FFD37C"/>
<path fill-rule="evenodd" clip-rule="evenodd" d="M210.465 1049.04C209.143 1068.62 206.959 1098.09 202.333 1100.2C195.695 1103.23 138.561 1104.74 130.501 1100.2C129.246 1099.49 128.437 1098.78 128.013 1098.06C138.957 1096.61 155.547 1096.62 169.903 1096.62C182.839 1096.63 193.96 1096.63 197.5 1095.57C205.5 1093.17 205.167 1062.24 204 1047.07L210.465 1049.04Z" fill="#FBCD72"/>
<path d="M254.215 846.674C262.582 826.448 299.208 725.94 310 676.408C293.729 660.757 255.808 633.996 234.291 652.157C222.124 662.427 190.052 818.296 186.973 846.674C184.958 865.249 183.968 1001.37 180 1056.67C188.966 1062.69 205.004 1064.72 213.372 1063.89C223.831 1062.86 243.328 872.988 254.215 846.674Z" fill="#306787"/>
<path d="M288 656.068C274.653 677.267 236.102 737.631 215.5 848.568C205.488 902.481 201.41 969.364 195 1047.07" stroke="#607F97" stroke-width="2" stroke-linecap="round"/>
<path d="M552.875 421.199C565.906 416.887 594.456 425.898 584.104 414.542C571.673 400.904 562.209 408.639 534.834 410.946C511.575 412.905 477.955 404.309 407.972 396.363C397.827 399.515 378.91 408.456 384.399 419.008C391.259 432.197 540.524 425.287 552.875 421.199Z" fill="#F7DDCD"/>
<path d="M196.219 476.493C197.52 469.563 215.806 453.133 223.756 445.553C231.526 445.553 245.424 447.078 244.99 458.772C244.448 473.39 193.262 520.59 180.253 515.717C167.243 510.845 162.327 411.028 152.804 407.42C137.085 401.465 144.893 386.606 145.265 384.997C146.891 377.959 154.119 377.779 157.732 376.877C158.274 373.628 159.114 364.911 162.611 357.928C165.322 352.514 169.658 359.551 166.406 370.921C164.215 378.577 166.406 388.246 167.49 400.698C172.26 407.628 188.63 454.115 196.219 476.493Z" fill="#F7DDCD"/>
<path fill-rule="evenodd" clip-rule="evenodd" d="M245 458.93C240.926 476.003 192.777 521.611 180.187 516.7C176.943 515.434 174.295 507.985 172.002 497.441C172.676 498.14 173.327 499.051 173.938 500.196C174.47 501.194 174.984 502.226 175.496 503.253C179.389 511.068 183.139 518.596 193.723 508.714C196.036 506.555 200.685 500.684 206.266 493.638C218.189 478.583 234.365 458.159 241.104 457.071C242.809 456.796 244.077 457.521 245 458.93Z" fill="#F3D0BA"/>
<path fill-rule="evenodd" clip-rule="evenodd" d="M296.724 723.994C292.783 716.77 286.619 709.397 280 701.568C270.701 690.57 256.137 689.742 242.508 688.967C234.712 688.523 227.222 688.097 221.198 685.796C225.461 671.123 229.4 659.804 232.496 654.632C241.356 651.692 251.465 649.097 260.639 647.059C279.399 650.804 299.7 665.54 310.5 675.568C307.506 688.832 302.532 705.869 296.724 723.994Z" fill="black" fill-opacity="0.05"/>
<path fill-rule="evenodd" clip-rule="evenodd" d="M572.814 420.282C566.042 419.895 558.175 419.445 552.875 421.199C542.211 424.728 429.48 430.362 394.468 423.345C390.967 422.531 389 421.917 389 421.568C389 418.568 567.652 417.246 572.5 418.568C576.629 419.694 581.697 417.909 584.955 415.538C589.453 421.234 582.179 420.818 572.814 420.282Z" fill="#F3D0BA"/>
<path d="M424 390.568C420.4 385.368 348.167 388.402 312.5 390.568H288C273 390.568 194.5 453.568 204.5 459.568C211.059 463.503 229.289 483.568 236.5 483.568C239 483.568 253 468.568 264 454.568C266 498.568 181.5 680.068 210.5 668.068C239.5 656.068 295 702.568 312.5 702.568C323.578 702.568 336.859 629.443 343.72 553.068C347.699 508.788 352.019 465.415 350.001 432.568C359.201 428.968 396.667 431.068 415.501 432.568C420.501 422.902 427.6 395.768 424 390.568Z" fill="#359C6D"/>
<path d="M283 392.67L292.214 369.068C299.673 369.068 315.294 369.497 318.102 371.214C320.91 372.93 325.037 383.847 326.5 389.568C313 406.687 299 403.568 283 392.67Z" fill="#F0C4A8"/>
<path d="M360.063 329.186C352.487 357.46 322.073 386.581 301.5 381.069C280.927 375.556 272.925 343.842 280.501 315.569C288.077 287.295 315.958 262.499 336.53 268.011C357.103 273.524 367.639 300.913 360.063 329.186Z" fill="#F7DDCD"/>
<path fill-rule="evenodd" clip-rule="evenodd" d="M346.739 273.085C365.126 307.592 336.317 375.479 303.999 377.069C300.54 377.239 297.276 376.693 294.503 376.23C293.509 376.064 292.578 375.908 291.724 375.8C294.573 378.275 297.837 380.087 301.5 381.069C322.073 386.581 352.487 357.46 360.063 329.186C366.257 306.071 360.345 283.547 346.739 273.085Z" fill="#F3D0BA"/>
<path d="M349.775 317.729C351.443 325.299 341.44 342.464 336.23 350.101C336.23 353.089 335.708 359.862 341.96 361.057C345.085 361.655 379.428 338.42 379.993 315.737C380.377 300.316 365.405 286.851 363.842 284.859C362.279 282.867 363.842 263.941 340.397 257.965C320.874 252.988 300.697 247.901 296.634 263.941C292.686 279.529 307.575 284.073 329.978 289.839C343.524 293.325 347.691 308.266 349.775 317.729Z" fill="#2D5C77"/>
<path d="M268.068 476.499C260.482 470.449 275.543 416.201 284.021 389.833C261.971 381.693 252.985 440.098 245.167 467.015C237.349 493.932 277.552 484.061 268.068 476.499Z" fill="white"/>
<path d="M350 432.587C345.625 432.105 336.5 431.527 335 433.068" stroke="#338ABB"/>
<path d="M350.146 432.282C346.6 429.319 338.853 423.749 336.234 425.165" stroke="#338ABB"/>
<path d="M196 477.068C194.833 477.902 189 479.068 188 485.568" stroke="#F3D0BA" stroke-width="1.5" stroke-linecap="round"/>
<path d="M311.174 474.767C317.079 472.511 324.235 417.07 326.506 389.068C355.001 371.568 335.024 485.479 325.938 486.043C316.852 486.607 303.791 477.586 311.174 474.767Z" fill="white"/>
<path fill-rule="evenodd" clip-rule="evenodd" d="M421 416.068C416.848 418.902 409.717 422.689 403.269 422.689C401.662 422.689 399.309 422.566 396.496 422.419C382.406 421.681 356.771 420.339 355.501 430.844C355.483 430.992 355.475 431.137 355.478 431.282C369.669 428.595 400.052 431.159 416.483 433.068C417.916 429.025 419.519 422.922 421 416.068Z" fill="#409ACC"/>
<path fill-rule="evenodd" clip-rule="evenodd" d="M342.901 561.863C332.649 618.062 319.499 678.799 312 677.068C308.435 676.245 301.184 673.731 292.177 670.606C268.341 662.338 232.201 649.802 219.5 653.068C212.326 654.913 208.177 653.985 205.744 651.248C203.226 663.923 204.092 670.72 210.5 668.068C228.79 660.5 257.621 676.201 280.811 688.83C294.391 696.226 306.037 702.568 312.5 702.568C323.152 702.568 335.841 634.96 342.901 561.863Z" fill="#2D845C"/>
<path fill-rule="evenodd" clip-rule="evenodd" d="M222 1035.07C218.326 1039.45 214.018 1046.52 211.08 1055.12C209.6 1059.46 201.9 1056.39 194.139 1053.3C189.031 1051.27 183.896 1049.23 180.492 1049.28C180.333 1051.86 180.169 1054.31 180 1056.62C188.88 1062.46 204.765 1064.42 213.053 1063.62C215.585 1063.38 218.653 1052.2 222 1035.07Z" fill="#2D5C77"/>
<path fill-rule="evenodd" clip-rule="evenodd" d="M340.458 400.632C344.448 427.537 332.421 485.641 325.938 486.043C323.102 486.219 319.879 485.462 317.012 484.25C318.455 484.16 320.053 483.763 321.999 483.068C330.882 479.897 334.732 447.51 337.969 420.287C338.814 413.179 339.618 406.424 340.458 400.632Z" fill="#EEEEEE"/>
<path fill-rule="evenodd" clip-rule="evenodd" d="M296.039 726.125C280.891 773.089 260.488 826.596 254.5 840.568C253.326 843.307 252.053 847.874 250.702 853.846C247.857 845.644 246.363 843.297 246.614 841.155C246.78 839.743 247.704 838.421 249.5 835.568C258 822.068 289.5 729.068 282 699.068L296.039 726.125Z" fill="#306380"/>
<circle cx="196.5" cy="1078.57" r="5.5" fill="#FFF7E8"/>
<circle cx="274.513" cy="1058.58" r="5.5" transform="rotate(-30 274.513 1058.58)" fill="#FFF7E8"/>
<path d="M232.688 1089.88C232.326 1089.54 232.353 1088.96 232.744 1088.65C233.067 1088.4 233.527 1088.43 233.817 1088.72L236.129 1091.03C236.426 1091.33 236.426 1091.81 236.129 1092.11C235.838 1092.4 235.369 1092.4 235.07 1092.12L232.688 1089.88Z" fill="#FFF7E8"/>
<path d="M226.688 1092.88C226.326 1092.54 226.353 1091.96 226.744 1091.65C227.067 1091.4 227.527 1091.43 227.817 1091.72L230.129 1094.03C230.426 1094.33 230.426 1094.81 230.129 1095.11C229.838 1095.4 229.369 1095.4 229.07 1095.12L226.688 1092.88Z" fill="#FFF7E8"/>
<path d="M237.688 1086.88C237.326 1086.54 237.353 1085.96 237.744 1085.65C238.067 1085.4 238.527 1085.43 238.817 1085.72L241.129 1088.03C241.426 1088.33 241.426 1088.81 241.129 1089.11C240.838 1089.4 240.369 1089.4 240.07 1089.12L237.688 1086.88Z" fill="#FFF7E8"/>
<path d="M159.431 1081.64C159.207 1081.18 159.45 1080.63 159.938 1080.49C160.323 1080.39 160.731 1080.57 160.899 1080.94L162.87 1085.19C163.046 1085.57 162.881 1086.02 162.501 1086.2C162.128 1086.37 161.684 1086.21 161.503 1085.84L159.431 1081.64Z" fill="#FFF7E8"/>
<path d="M151.43 1084.63C151.206 1084.18 151.448 1083.63 151.935 1083.49C152.321 1083.38 152.73 1083.57 152.898 1083.93L154.826 1088.09C155.002 1088.47 154.836 1088.92 154.456 1089.1C154.083 1089.27 153.64 1089.12 153.458 1088.75L151.43 1084.63Z" fill="#FFF7E8"/>
<path d="M143.428 1087.63C143.204 1087.17 143.441 1086.63 143.923 1086.49C144.31 1086.37 144.724 1086.56 144.893 1086.92L146.64 1090.69C146.816 1091.07 146.65 1091.52 146.27 1091.7C145.897 1091.87 145.454 1091.72 145.271 1091.35L143.428 1087.63Z" fill="#FFF7E8"/>
<path d="M195.549 1076C195.848 1075.07 197.152 1075.07 197.451 1076L197.51 1076.18C197.644 1076.59 198.028 1076.87 198.461 1076.87H198.653C199.622 1076.87 200.025 1078.11 199.241 1078.68L199.086 1078.79C198.735 1079.05 198.589 1079.5 198.723 1079.91L198.782 1080.09C199.081 1081.01 198.027 1081.78 197.243 1081.21L197.088 1081.1C196.737 1080.84 196.263 1080.84 195.912 1081.1L195.757 1081.21C194.973 1081.78 193.919 1081.01 194.218 1080.09L194.277 1079.91C194.411 1079.5 194.265 1079.05 193.914 1078.79L193.759 1078.68C192.975 1078.11 193.378 1076.87 194.347 1076.87H194.539C194.972 1076.87 195.356 1076.59 195.49 1076.18L195.549 1076Z" fill="#FFD37C" fill-opacity="0.5"/>
<path d="M272.403 1056.83C272.202 1055.88 273.33 1055.23 274.05 1055.88L274.193 1056.01C274.515 1056.3 274.987 1056.35 275.362 1056.13L275.528 1056.03C276.367 1055.55 277.336 1056.42 276.942 1057.31L276.864 1057.48C276.687 1057.88 276.786 1058.34 277.108 1058.63L277.25 1058.76C277.97 1059.41 277.44 1060.6 276.477 1060.5L276.286 1060.48C275.855 1060.43 275.444 1060.67 275.268 1061.06L275.19 1061.24C274.796 1062.12 273.5 1061.99 273.298 1061.04L273.258 1060.85C273.168 1060.43 272.816 1060.11 272.385 1060.07L272.194 1060.05C271.231 1059.95 270.96 1058.67 271.799 1058.19L271.965 1058.09C272.34 1057.87 272.533 1057.44 272.443 1057.02L272.403 1056.83Z" fill="#FFD37C" fill-opacity="0.5"/>
<path fill-rule="evenodd" clip-rule="evenodd" d="M282.853 393.513C275.93 404.968 270.308 422.257 266.5 442.569C265.704 446.816 265.435 451.054 265.178 455.116C264.539 465.223 263.968 474.237 255.5 479.569C253.718 480.691 251.553 480.917 249.563 481.125C248.763 481.208 247.991 481.289 247.284 481.424C255.224 488.844 275.028 482.05 268.068 476.499C260.819 470.719 274.247 420.934 282.853 393.513Z" fill="#EEEEEE"/>
<path d="M157.991 380.068C159.321 386.43 160.385 399.936 154 403.068" stroke="#F3D0BA"/>
<path fill-rule="evenodd" clip-rule="evenodd" d="M168.346 402.13C166.563 400.568 164.759 398.395 164.5 396.068C164 391.568 163.5 380.568 164 378.068C164.108 377.529 164.401 376.387 164.781 374.911C165.662 371.48 167.006 366.249 167.556 362.607C167.628 364.926 167.311 367.755 166.406 370.92C164.777 376.612 165.57 383.417 166.53 391.65C166.861 394.491 167.212 397.503 167.49 400.697C167.743 401.066 168.03 401.546 168.346 402.13Z" fill="#F3D0BA"/>
<g clip-path="url(#clip0_439_224)">
<path d="M1304.74 826.661L1322.29 817.006C1322.75 816.757 1322.57 816.068 1322.05 816.068H1304.5C1304.22 816.068 1304 816.292 1304 816.568V826.223C1304 826.603 1304.41 826.844 1304.74 826.661Z" fill="#D6A253"/>
<rect x="1028" y="790.068" width="279" height="337" rx="8" fill="#E5C595"/>
<path d="M1121.32 976.384C1119.13 976.384 1117.16 976.029 1115.39 975.32C1113.66 974.611 1112.28 973.59 1111.26 972.257C1110.95 971.841 1110.68 971.402 1110.46 970.94C1109.62 969.196 1111.28 967.534 1113.21 967.534C1115.02 967.534 1116.38 969.169 1117.73 970.385C1117.74 970.399 1117.76 970.413 1117.77 970.427C1118.61 971.136 1119.75 971.491 1121.18 971.491C1122.65 971.491 1123.8 971.164 1124.64 970.512C1125.48 969.831 1125.9 968.952 1125.9 967.874C1125.9 966.995 1125.61 966.271 1125.04 965.704C1124.48 965.137 1123.76 964.697 1122.89 964.385C1122.05 964.045 1120.89 963.676 1119.39 963.279C1117.35 962.711 1115.69 962.158 1114.41 961.619C1113.15 961.052 1112.06 960.215 1111.13 959.109C1110.23 957.974 1109.78 956.471 1109.78 954.599C1109.78 952.84 1110.25 951.308 1111.17 950.003C1112.1 948.699 1113.4 947.706 1115.08 947.025C1116.76 946.316 1118.67 945.961 1120.83 945.961C1124.06 945.961 1126.68 946.713 1128.68 948.216C1129.71 948.959 1130.5 949.853 1131.06 950.898C1132 952.651 1130.35 954.428 1128.35 954.428H1128.1C1126.44 954.428 1125.08 952.92 1123.74 951.918C1122.91 951.237 1121.78 950.897 1120.38 950.897C1119.15 950.897 1118.16 951.195 1117.41 951.79C1116.7 952.386 1116.34 953.251 1116.34 954.386C1116.34 955.18 1116.61 955.847 1117.14 956.386C1117.71 956.896 1118.4 957.322 1119.21 957.662C1120.05 957.974 1121.21 958.343 1122.71 958.768C1124.75 959.336 1126.41 959.903 1127.69 960.47C1128.98 961.038 1130.09 961.889 1131.01 963.023C1131.94 964.158 1132.41 965.647 1132.41 967.491C1132.41 969.08 1131.97 970.555 1131.1 971.916C1130.24 973.278 1128.97 974.37 1127.29 975.192C1125.61 975.987 1123.62 976.384 1121.32 976.384Z" fill="#EBD1AB"/>
<path d="M1148.9 976.469C1146.5 976.469 1144.35 975.973 1142.43 974.98C1140.52 973.959 1139.01 972.526 1137.9 970.682C1136.82 968.838 1136.28 966.711 1136.28 964.3C1136.28 961.889 1136.84 959.761 1137.94 957.917C1139.08 956.074 1140.62 954.655 1142.57 953.663C1144.51 952.641 1146.68 952.131 1149.08 952.131C1151.47 952.131 1153.64 952.641 1155.59 953.663C1157.53 954.655 1159.06 956.074 1160.16 957.917C1161.3 959.761 1161.87 961.889 1161.87 964.3C1161.87 966.711 1161.29 968.838 1160.12 970.682C1158.98 972.526 1157.43 973.959 1155.45 974.98C1153.51 975.973 1151.32 976.469 1148.9 976.469ZM1148.9 971.278C1150.03 971.278 1151.1 971.023 1152.08 970.512C1153.1 969.973 1153.91 969.179 1154.51 968.129C1155.11 967.08 1155.41 965.803 1155.41 964.3C1155.41 962.059 1154.78 960.343 1153.52 959.151C1152.29 957.932 1150.78 957.322 1148.99 957.322C1147.19 957.322 1145.68 957.932 1144.45 959.151C1143.26 960.343 1142.66 962.059 1142.66 964.3C1142.66 966.541 1143.24 968.271 1144.41 969.491C1145.61 970.682 1147.1 971.278 1148.9 971.278Z" fill="#EBD1AB"/>
<path d="M1171.74 951.687C1172.14 953.328 1174.58 953.955 1176.09 953.195C1177.52 952.485 1179.15 952.131 1180.98 952.131C1183.1 952.131 1185.02 952.627 1186.72 953.62C1188.46 954.613 1189.82 956.031 1190.81 957.875C1191.83 959.69 1192.33 961.804 1192.33 964.215C1192.33 966.626 1191.83 968.768 1190.81 970.64C1189.82 972.483 1188.8 973.824 1186.72 974.937C1184.77 975.988 1183.34 976.086 1181.09 976.086C1179.24 976.086 1177.81 976.086 1176.09 976.086C1174.36 976.086 1174.36 976.086 1172.76 976.086C1169.29 976.086 1166.48 973.272 1166.48 969.802V947.271C1166.48 945.921 1167.76 944.936 1169.06 945.28C1169.79 945.473 1170.36 946.049 1170.54 946.782L1171.74 951.687ZM1185.92 964.215C1185.92 962.796 1185.6 961.577 1184.97 960.556C1184.37 959.506 1183.57 958.712 1182.55 958.173C1181.56 957.634 1180.48 957.364 1179.32 957.364C1178.18 957.364 1177.1 957.648 1176.09 958.215C1175.1 958.754 1174.29 959.549 1173.66 960.598C1173.06 961.648 1172.76 962.882 1172.76 964.3C1172.76 965.718 1173.06 966.952 1173.66 968.002C1174.29 969.051 1175.1 969.86 1176.09 970.427C1177.1 970.966 1178.18 971.235 1179.32 971.235C1180.48 971.235 1181.56 970.952 1182.55 970.384C1183.57 969.817 1184.37 969.009 1184.97 967.959C1185.6 966.91 1185.92 965.661 1185.92 964.215Z" fill="#EBD1AB"/>
<path d="M1195.29 964.215C1195.29 961.832 1195.78 959.719 1196.77 957.875C1197.78 956.031 1199.15 954.613 1200.85 953.62C1202.59 952.627 1204.52 952.131 1206.64 952.131C1208.5 952.131 1210.11 952.485 1211.49 953.195C1213.37 954.14 1216.04 953.945 1217.53 952.465C1217.84 952.152 1218.17 951.862 1218.5 951.62C1219.66 950.771 1221.19 951.806 1221.19 953.243V969.651C1221.19 973.261 1218.36 976.242 1214.76 976.44L1213.26 976.469C1212.14 976.469 1212.89 976.469 1211.39 976.469C1209.52 976.469 1208.45 976.469 1206.6 976.469C1204.5 976.469 1202.59 975.958 1200.85 974.937C1199.15 973.916 1197.78 972.483 1196.77 970.64C1195.78 968.768 1195.29 966.626 1195.29 964.215ZM1214.86 964.3C1214.86 962.853 1214.56 961.619 1213.96 960.598C1213.36 959.549 1212.55 958.754 1211.53 958.215C1210.52 957.648 1209.42 957.364 1208.26 957.364C1207.09 957.364 1206.01 957.634 1205.03 958.173C1204.04 958.712 1203.23 959.506 1202.6 960.556C1202 961.577 1201.7 962.796 1201.7 964.215C1201.7 965.633 1202 966.881 1202.6 967.959C1203.23 969.009 1204.04 969.817 1205.03 970.384C1206.04 970.952 1207.12 971.235 1208.26 971.235C1209.42 971.235 1210.52 970.966 1211.53 970.427C1212.55 969.86 1213.36 969.065 1213.96 968.044C1214.56 966.995 1214.86 965.747 1214.86 964.3Z" fill="#EBD1AB"/>
<path d="M1236.78 956.638C1235.49 957.099 1234.64 958.315 1234.64 959.678V968.81C1234.64 969.604 1234.83 970.186 1235.22 970.555C1235.64 970.895 1236.33 971.065 1237.29 971.065H1237.7C1239.08 971.065 1240.21 972.189 1240.21 973.576C1240.21 974.962 1239.08 976.086 1237.7 976.086H1236.26C1230.96 976.086 1228.31 973.646 1228.31 968.768V959.232C1228.31 958.14 1227.62 957.168 1226.59 956.811L1225.95 956.592C1225.3 956.367 1224.86 955.753 1224.86 955.063C1224.86 954.241 1225.48 953.55 1226.29 953.457L1226.95 953.383C1227.94 953.27 1228.75 952.544 1228.97 951.572L1229.77 948.102C1229.96 947.272 1230.7 946.685 1231.55 946.685C1232.44 946.685 1233.2 947.325 1233.35 948.201L1233.84 951.065C1234.06 952.327 1235.09 953.294 1236.36 953.439C1237.35 953.551 1238.43 954.174 1238.33 955.166C1238.25 955.882 1237.58 956.351 1236.9 956.594L1236.78 956.638Z" fill="#EBD1AB"/>
<path d="M1109.69 990.886C1109.69 989.629 1110.71 988.61 1111.97 988.61H1143.84C1145.1 988.61 1146.12 989.629 1146.12 990.886C1146.12 992.143 1145.1 993.162 1143.84 993.162H1111.97C1110.71 993.162 1109.69 992.143 1109.69 990.886Z" fill="#EBD1AB"/>
<path d="M1153.47 990.708C1153.47 991.867 1152.5 992.806 1151.31 992.806C1150.12 992.806 1149.15 991.867 1149.15 990.708C1149.15 989.549 1150.12 988.61 1151.31 988.61C1152.5 988.61 1153.47 989.549 1153.47 990.708Z" fill="#EBD1AB"/>
<path d="M1160.82 990.708C1160.82 991.867 1159.85 992.806 1158.66 992.806C1157.47 992.806 1156.5 991.867 1156.5 990.708C1156.5 989.549 1157.47 988.61 1158.66 988.61C1159.85 988.61 1160.82 989.549 1160.82 990.708Z" fill="#EBD1AB"/>
<path d="M1163.85 990.886C1163.85 989.629 1164.87 988.61 1166.13 988.61H1176.75C1178.01 988.61 1179.03 989.629 1179.03 990.886C1179.03 992.143 1178.01 993.162 1176.75 993.162H1166.13C1164.87 993.162 1163.85 992.143 1163.85 990.886Z" fill="#EBD1AB"/>
<path d="M1191.4 997.562C1191.04 997.562 1190.71 997.407 1190.48 997.137L1187.68 993.868C1186.76 992.797 1185.01 993.445 1185.01 994.854V996.326C1185.01 997.009 1184.46 997.562 1183.77 997.562C1183.09 997.562 1182.54 997.009 1182.54 996.326V983.563C1182.54 982.881 1183.09 982.328 1183.77 982.328C1184.46 982.328 1185.01 982.881 1185.01 983.563V985.118C1185.01 986.534 1186.77 987.179 1187.69 986.096L1190.51 982.746C1190.73 982.481 1191.06 982.328 1191.41 982.328C1192.41 982.328 1192.95 983.505 1192.3 984.266L1188.27 988.958C1187.78 989.531 1187.78 990.377 1188.28 990.945L1192.31 995.551C1192.99 996.335 1192.44 997.562 1191.4 997.562Z" fill="#EBD1AB"/>
<path d="M1197.47 982.328C1198.15 982.328 1198.7 982.881 1198.7 983.563V992.038C1198.7 993.193 1199 994.062 1199.59 994.646C1200.2 995.231 1201.03 995.523 1202.1 995.523C1203.19 995.523 1204.02 995.231 1204.62 994.646C1205.22 994.062 1205.53 993.193 1205.53 992.038V983.563C1205.53 982.881 1206.08 982.328 1206.76 982.328C1207.44 982.328 1208 982.881 1208 983.563V991.994C1208 993.236 1207.73 994.288 1207.2 995.151C1206.66 996.013 1205.95 996.656 1205.05 997.079C1204.15 997.503 1203.17 997.715 1202.08 997.715C1201 997.715 1200.01 997.503 1199.11 997.079C1198.23 996.656 1197.53 996.013 1197.01 995.151C1196.49 994.288 1196.23 993.236 1196.23 991.994V983.563C1196.23 982.881 1196.78 982.328 1197.47 982.328Z" fill="#EBD1AB"/>
<path d="M1220.07 997.562C1219.72 997.562 1219.38 997.407 1219.15 997.137L1216.36 993.868C1215.44 992.797 1213.69 993.445 1213.69 994.854V996.326C1213.69 997.009 1213.13 997.562 1212.45 997.562C1211.77 997.562 1211.21 997.009 1211.21 996.326V983.563C1211.21 982.881 1211.77 982.328 1212.45 982.328C1213.13 982.328 1213.69 982.881 1213.69 983.563V985.118C1213.69 986.534 1215.45 987.179 1216.36 986.096L1219.19 982.746C1219.41 982.481 1219.74 982.328 1220.08 982.328C1221.09 982.328 1221.63 983.505 1220.97 984.266L1216.95 988.958C1216.46 989.531 1216.46 990.377 1216.96 990.945L1220.99 995.551C1221.67 996.335 1221.11 997.562 1220.07 997.562Z" fill="#EBD1AB"/>
<path d="M1239.28 982.328C1240.11 982.328 1240.79 983.008 1240.79 983.846V996.326C1240.79 997.009 1240.24 997.562 1239.56 997.562C1238.88 997.562 1238.32 997.009 1238.32 996.326V994.34C1238.32 992.698 1236.08 992.226 1235.42 993.729L1234.07 996.778C1233.86 997.254 1233.39 997.562 1232.87 997.562C1232.35 997.562 1231.88 997.255 1231.67 996.78L1230.31 993.695C1229.64 992.195 1227.4 992.669 1227.4 994.309V996.326C1227.4 997.009 1226.85 997.562 1226.16 997.562C1225.48 997.562 1224.93 997.009 1224.93 996.326V983.846C1224.93 983.008 1225.61 982.328 1226.45 982.328H1226.61C1227.21 982.328 1227.75 982.682 1227.99 983.231L1231.49 991.133C1232.03 992.338 1233.74 992.337 1234.27 991.13L1237.75 983.234C1237.99 982.683 1238.54 982.328 1239.14 982.328H1239.28Z" fill="#EBD1AB"/>
<path fill-rule="evenodd" clip-rule="evenodd" d="M1107.99 921.068C1106.26 921.068 1104.71 921.484 1104.11 922.109L1093.51 933.235C1093.17 933.587 1093 933.955 1093 934.325V938.751C1093 941.254 1098.29 943.285 1104.81 943.285C1111.34 943.285 1116.63 941.254 1116.63 938.751C1116.63 941.255 1121.92 943.285 1128.45 943.285C1134.97 943.285 1140.26 941.254 1140.26 938.751C1140.26 941.255 1145.55 943.285 1152.08 943.285C1158.6 943.285 1163.89 941.257 1163.89 938.754C1163.89 941.257 1169.18 943.285 1175.71 943.285C1182.23 943.285 1187.52 941.254 1187.52 938.751C1187.52 941.255 1192.82 943.285 1199.34 943.285C1205.86 943.285 1211.15 941.257 1211.15 938.754C1211.16 941.257 1216.45 943.285 1222.97 943.285C1229.5 943.285 1234.79 941.254 1234.79 938.751C1234.79 941.255 1240.07 943.285 1246.6 943.285C1253.13 943.285 1258.42 941.254 1258.42 938.751V934.325C1258.42 933.955 1258.25 933.587 1257.91 933.235L1247.31 922.111C1246.71 921.484 1245.16 921.068 1243.42 921.068H1107.99Z" fill="#EBD1AB"/>
<rect x="1098.75" y="936.168" width="3.59602" height="61.548" rx="1.79801" fill="#EBD1AB"/>
<rect x="1249.07" y="936.168" width="3.59602" height="61.548" rx="1.79801" fill="#EBD1AB"/>
<rect x="1028" y="786.068" width="296" height="31" rx="2" fill="#E0BB83"/>
<rect x="900" y="721.068" width="143" height="184" rx="8" fill="#E9CA9C"/>
<path d="M1129.75 923.647L1150.35 912.004C1150.79 911.751 1150.61 911.068 1150.1 911.068H1129.5C1129.22 911.068 1129 911.292 1129 911.568V923.211C1129 923.594 1129.41 923.835 1129.75 923.647Z" fill="#DAAE69"/>
<rect x="900" y="897.068" width="235" height="230" rx="8" fill="#EED7B4"/>
<path d="M978.69 1024.48C977.094 1024.48 975.651 1024.22 974.361 1023.71C973.093 1023.19 972.088 1022.44 971.344 1021.47C971.112 1021.16 970.916 1020.84 970.754 1020.51C970.145 1019.23 971.354 1018.02 972.767 1018.02C974.091 1018.02 975.084 1019.21 976.065 1020.1C976.077 1020.11 976.088 1020.12 976.1 1020.13C976.712 1020.65 977.543 1020.91 978.592 1020.91C979.663 1020.91 980.505 1020.67 981.117 1020.19C981.729 1019.7 982.036 1019.05 982.036 1018.27C982.036 1017.62 981.828 1017.09 981.412 1016.68C980.997 1016.27 980.472 1015.94 979.838 1015.72C979.226 1015.47 978.373 1015.2 977.28 1014.91C975.793 1014.49 974.58 1014.09 973.64 1013.7C972.722 1013.28 971.924 1012.67 971.246 1011.86C970.59 1011.03 970.262 1009.93 970.262 1008.57C970.262 1007.28 970.601 1006.16 971.279 1005.21C971.956 1004.26 972.907 1003.53 974.132 1003.03C975.356 1002.51 976.755 1002.26 978.33 1002.26C980.691 1002.26 982.604 1002.8 984.069 1003.9C984.818 1004.45 985.397 1005.1 985.808 1005.86C986.496 1007.14 985.285 1008.44 983.831 1008.44H983.648C982.429 1008.44 981.435 1007.34 980.461 1006.61C979.849 1006.11 979.029 1005.86 978.002 1005.86C977.105 1005.86 976.384 1006.08 975.837 1006.51C975.312 1006.95 975.05 1007.58 975.05 1008.41C975.05 1008.99 975.247 1009.48 975.64 1009.87C976.056 1010.24 976.559 1010.56 977.149 1010.8C977.761 1011.03 978.614 1011.3 979.707 1011.61C981.194 1012.03 982.407 1012.44 983.347 1012.86C984.288 1013.27 985.097 1013.89 985.774 1014.72C986.452 1015.55 986.791 1016.64 986.791 1017.99C986.791 1019.15 986.474 1020.22 985.84 1021.22C985.206 1022.21 984.277 1023.01 983.052 1023.61C981.828 1024.19 980.374 1024.48 978.69 1024.48Z" fill="#F5E9D6"/>
<path d="M998.839 1024.55C997.09 1024.55 995.516 1024.18 994.117 1023.46C992.717 1022.71 991.613 1021.66 990.804 1020.32C990.017 1018.97 989.624 1017.42 989.624 1015.65C989.624 1013.89 990.028 1012.34 990.837 1010.99C991.668 1009.64 992.794 1008.61 994.215 1007.88C995.636 1007.14 997.221 1006.76 998.971 1006.76C1000.72 1006.76 1002.3 1007.14 1003.73 1007.88C1005.15 1008.61 1006.26 1009.64 1007.07 1010.99C1007.9 1012.34 1008.32 1013.89 1008.32 1015.65C1008.32 1017.42 1007.89 1018.97 1007.04 1020.32C1006.21 1021.66 1005.07 1022.71 1003.63 1023.46C1002.21 1024.18 1000.61 1024.55 998.839 1024.55ZM998.839 1020.75C999.67 1020.75 1000.45 1020.57 1001.17 1020.19C1001.91 1019.8 1002.5 1019.22 1002.94 1018.45C1003.38 1017.69 1003.59 1016.75 1003.59 1015.65C1003.59 1014.02 1003.14 1012.76 1002.22 1011.89C1001.32 1011 1000.22 1010.56 998.905 1010.56C997.593 1010.56 996.489 1011 995.593 1011.89C994.718 1012.76 994.281 1014.02 994.281 1015.65C994.281 1017.29 994.707 1018.56 995.56 1019.45C996.434 1020.32 997.528 1020.75 998.839 1020.75Z" fill="#F5E9D6"/>
<path d="M1015.53 1006.44C1015.82 1007.64 1017.6 1008.1 1018.7 1007.54C1019.75 1007.02 1020.94 1006.76 1022.28 1006.76C1023.83 1006.76 1025.23 1007.13 1026.48 1007.85C1027.74 1008.58 1028.74 1009.61 1029.46 1010.96C1030.2 1012.29 1030.58 1013.83 1030.58 1015.59C1030.58 1017.35 1030.2 1018.92 1029.46 1020.29C1028.74 1021.63 1027.99 1022.61 1026.48 1023.43C1025.05 1024.19 1024 1024.27 1022.36 1024.27C1021.01 1024.27 1019.96 1024.27 1018.7 1024.27C1017.44 1024.27 1017.44 1024.27 1016.28 1024.27C1013.74 1024.27 1011.69 1022.21 1011.69 1019.67V1003.21C1011.69 1002.23 1012.62 1001.51 1013.57 1001.76C1014.11 1001.9 1014.52 1002.32 1014.65 1002.86L1015.53 1006.44ZM1025.89 1015.59C1025.89 1014.56 1025.66 1013.66 1025.2 1012.92C1024.76 1012.15 1024.17 1011.57 1023.43 1011.18C1022.7 1010.78 1021.92 1010.59 1021.06 1010.59C1020.23 1010.59 1019.45 1010.79 1018.7 1011.21C1017.98 1011.6 1017.39 1012.18 1016.93 1012.95C1016.5 1013.72 1016.28 1014.62 1016.28 1015.65C1016.28 1016.69 1016.5 1017.59 1016.93 1018.36C1017.39 1019.13 1017.98 1019.72 1018.7 1020.13C1019.45 1020.52 1020.23 1020.72 1021.06 1020.72C1021.92 1020.72 1022.7 1020.51 1023.43 1020.1C1024.17 1019.69 1024.76 1019.09 1025.2 1018.33C1025.66 1017.56 1025.89 1016.65 1025.89 1015.59Z" fill="#F5E9D6"/>
<path d="M1032.73 1015.59C1032.73 1013.85 1033.09 1012.31 1033.81 1010.96C1034.56 1009.61 1035.55 1008.58 1036.8 1007.85C1038.07 1007.13 1039.48 1006.76 1041.03 1006.76C1042.38 1006.76 1043.57 1007.02 1044.57 1007.54C1045.94 1008.23 1047.89 1008.09 1048.98 1007.01C1049.21 1006.78 1049.45 1006.57 1049.69 1006.39C1050.54 1005.77 1051.65 1006.53 1051.65 1007.58V1019.56C1051.65 1022.2 1049.59 1024.38 1046.96 1024.52L1045.87 1024.55C1045.05 1024.55 1045.59 1024.55 1044.5 1024.55C1043.13 1024.55 1042.35 1024.55 1041 1024.55C1039.47 1024.55 1038.07 1024.17 1036.8 1023.43C1035.55 1022.68 1034.56 1021.63 1033.81 1020.29C1033.09 1018.92 1032.73 1017.35 1032.73 1015.59ZM1047.03 1015.65C1047.03 1014.6 1046.81 1013.7 1046.37 1012.95C1045.94 1012.18 1045.35 1011.6 1044.6 1011.21C1043.86 1010.79 1043.06 1010.59 1042.21 1010.59C1041.36 1010.59 1040.57 1010.78 1039.85 1011.18C1039.13 1011.57 1038.54 1012.15 1038.08 1012.92C1037.64 1013.66 1037.42 1014.56 1037.42 1015.59C1037.42 1016.63 1037.64 1017.54 1038.08 1018.33C1038.54 1019.09 1039.13 1019.69 1039.85 1020.1C1040.59 1020.51 1041.38 1020.72 1042.21 1020.72C1043.06 1020.72 1043.86 1020.52 1044.6 1020.13C1045.35 1019.72 1045.94 1019.14 1046.37 1018.39C1046.81 1017.62 1047.03 1016.71 1047.03 1015.65Z" fill="#F5E9D6"/>
<path d="M1063.05 1010.06C1062.11 1010.39 1061.48 1011.28 1061.48 1012.28V1018.95C1061.48 1019.53 1061.63 1019.95 1061.91 1020.22C1062.22 1020.47 1062.72 1020.6 1063.42 1020.6H1063.72C1064.73 1020.6 1065.55 1021.42 1065.55 1022.43C1065.55 1023.44 1064.73 1024.27 1063.72 1024.27H1062.67C1058.8 1024.27 1056.86 1022.48 1056.86 1018.92V1011.95C1056.86 1011.15 1056.35 1010.44 1055.6 1010.18L1055.14 1010.02C1054.66 1009.86 1054.34 1009.41 1054.34 1008.91C1054.34 1008.31 1054.79 1007.8 1055.39 1007.73L1055.86 1007.68C1056.59 1007.6 1057.18 1007.07 1057.34 1006.36L1057.93 1003.82C1058.07 1003.21 1058.61 1002.78 1059.23 1002.78C1059.88 1002.78 1060.43 1003.25 1060.54 1003.89L1060.9 1005.98C1061.06 1006.91 1061.81 1007.61 1062.74 1007.72C1063.46 1007.8 1064.26 1008.26 1064.18 1008.98C1064.12 1009.5 1063.63 1009.85 1063.14 1010.02L1063.05 1010.06Z" fill="#F5E9D6"/>
<path d="M970.196 1035.08C970.196 1034.16 970.941 1033.42 971.859 1033.42H995.144C996.062 1033.42 996.807 1034.16 996.807 1035.08C996.807 1036 996.062 1036.74 995.144 1036.74H971.859C970.941 1036.74 970.196 1036 970.196 1035.08Z" fill="#F5E9D6"/>
<path d="M1002.18 1034.95C1002.18 1035.8 1001.47 1036.48 1000.6 1036.48C999.73 1036.48 999.025 1035.8 999.025 1034.95C999.025 1034.1 999.73 1033.42 1000.6 1033.42C1001.47 1033.42 1002.18 1034.1 1002.18 1034.95Z" fill="#F5E9D6"/>
<path d="M1007.55 1034.95C1007.55 1035.8 1006.84 1036.48 1005.97 1036.48C1005.1 1036.48 1004.39 1035.8 1004.39 1034.95C1004.39 1034.1 1005.1 1033.42 1005.97 1033.42C1006.84 1033.42 1007.55 1034.1 1007.55 1034.95Z" fill="#F5E9D6"/>
<path d="M1009.77 1035.08C1009.77 1034.16 1010.51 1033.42 1011.43 1033.42H1019.19C1020.11 1033.42 1020.85 1034.16 1020.85 1035.08C1020.85 1036 1020.11 1036.74 1019.19 1036.74H1011.43C1010.51 1036.74 1009.77 1036 1009.77 1035.08Z" fill="#F5E9D6"/>
<path d="M1029.89 1039.96C1029.63 1039.96 1029.39 1039.84 1029.22 1039.65L1027.17 1037.26C1026.5 1036.47 1025.22 1036.95 1025.22 1037.98V1039.05C1025.22 1039.55 1024.82 1039.96 1024.32 1039.96C1023.82 1039.96 1023.42 1039.55 1023.42 1039.05V1029.73C1023.42 1029.23 1023.82 1028.83 1024.32 1028.83C1024.82 1028.83 1025.22 1029.23 1025.22 1029.73V1030.86C1025.22 1031.9 1026.51 1032.37 1027.18 1031.58L1029.24 1029.13C1029.4 1028.94 1029.64 1028.83 1029.9 1028.83C1030.63 1028.83 1031.02 1029.69 1030.55 1030.24L1027.61 1033.67C1027.25 1034.09 1027.25 1034.71 1027.61 1035.12L1030.56 1038.49C1031.06 1039.06 1030.65 1039.96 1029.89 1039.96Z" fill="#F5E9D6"/>
<path d="M1034.32 1028.83C1034.82 1028.83 1035.23 1029.23 1035.23 1029.73V1035.92C1035.23 1036.76 1035.44 1037.4 1035.88 1037.83C1036.32 1038.25 1036.93 1038.47 1037.71 1038.47C1038.5 1038.47 1039.12 1038.25 1039.55 1037.83C1039.99 1037.4 1040.21 1036.76 1040.21 1035.92V1029.73C1040.21 1029.23 1040.62 1028.83 1041.12 1028.83C1041.62 1028.83 1042.02 1029.23 1042.02 1029.73V1035.89C1042.02 1036.8 1041.82 1037.56 1041.43 1038.19C1041.04 1038.82 1040.52 1039.29 1039.87 1039.6C1039.21 1039.91 1038.49 1040.07 1037.7 1040.07C1036.91 1040.07 1036.18 1039.91 1035.53 1039.6C1034.88 1039.29 1034.37 1038.82 1033.99 1038.19C1033.61 1037.56 1033.42 1036.8 1033.42 1035.89V1029.73C1033.42 1029.23 1033.83 1028.83 1034.32 1028.83Z" fill="#F5E9D6"/>
<path d="M1050.84 1039.96C1050.58 1039.96 1050.34 1039.84 1050.17 1039.65L1048.13 1037.26C1047.46 1036.47 1046.18 1036.95 1046.18 1037.98V1039.05C1046.18 1039.55 1045.77 1039.96 1045.27 1039.96C1044.77 1039.96 1044.37 1039.55 1044.37 1039.05V1029.73C1044.37 1029.23 1044.77 1028.83 1045.27 1028.83C1045.77 1028.83 1046.18 1029.23 1046.18 1029.73V1030.86C1046.18 1031.9 1047.47 1032.37 1048.13 1031.58L1050.19 1029.13C1050.36 1028.94 1050.6 1028.83 1050.85 1028.83C1051.58 1028.83 1051.98 1029.69 1051.5 1030.24L1048.56 1033.67C1048.2 1034.09 1048.2 1034.71 1048.57 1035.12L1051.51 1038.49C1052.01 1039.06 1051.6 1039.96 1050.84 1039.96Z" fill="#F5E9D6"/>
<path d="M1064.87 1028.83C1065.48 1028.83 1065.98 1029.32 1065.98 1029.93V1039.05C1065.98 1039.55 1065.58 1039.96 1065.08 1039.96C1064.58 1039.96 1064.18 1039.55 1064.18 1039.05V1037.6C1064.18 1036.4 1062.54 1036.06 1062.05 1037.16L1061.07 1039.38C1060.92 1039.73 1060.57 1039.96 1060.19 1039.96C1059.81 1039.96 1059.47 1039.73 1059.31 1039.38L1058.32 1037.13C1057.83 1036.04 1056.2 1036.38 1056.2 1037.58V1039.05C1056.2 1039.55 1055.79 1039.96 1055.29 1039.96C1054.79 1039.96 1054.39 1039.55 1054.39 1039.05V1029.93C1054.39 1029.32 1054.89 1028.83 1055.5 1028.83H1055.62C1056.05 1028.83 1056.45 1029.08 1056.63 1029.49L1059.19 1035.26C1059.57 1036.14 1060.83 1036.14 1061.21 1035.26L1063.76 1029.49C1063.93 1029.09 1064.33 1028.83 1064.77 1028.83H1064.87Z" fill="#F5E9D6"/>
<path fill-rule="evenodd" clip-rule="evenodd" d="M968.954 984.068C967.685 984.068 966.554 984.372 966.118 984.829L958.369 992.958C958.125 993.215 958 993.484 958 993.754V996.988C958 998.816 961.864 1000.3 966.631 1000.3C971.398 1000.3 975.266 998.816 975.266 996.988C975.266 998.817 979.13 1000.3 983.897 1000.3C988.664 1000.3 992.532 998.816 992.532 996.988C992.532 998.817 996.396 1000.3 1001.16 1000.3C1005.93 1000.3 1009.79 998.818 1009.8 996.99C1009.8 998.818 1013.66 1000.3 1018.43 1000.3C1023.2 1000.3 1027.06 998.816 1027.06 996.988C1027.06 998.817 1030.93 1000.3 1035.69 1000.3C1040.46 1000.3 1044.32 998.818 1044.33 996.99C1044.33 998.818 1048.19 1000.3 1052.96 1000.3C1057.73 1000.3 1061.59 998.816 1061.59 996.988C1061.59 998.817 1065.46 1000.3 1070.23 1000.3C1074.99 1000.3 1078.86 998.816 1078.86 996.988V993.754C1078.86 993.484 1078.73 993.215 1078.49 992.958L1070.74 984.83C1070.3 984.372 1069.17 984.068 1067.9 984.068H968.954Z" fill="#F5E9D6"/>
<rect x="962.203" y="995.1" width="2.62733" height="44.9683" rx="1.31366" fill="#F5E9D6"/>
<rect x="1072.03" y="995.1" width="2.62733" height="44.9683" rx="1.31366" fill="#F5E9D6"/>
<path d="M886.212 831.597C884.73 831.597 883.39 831.356 882.193 830.875C881.015 830.394 880.081 829.701 879.391 828.797C879.176 828.515 878.993 828.217 878.843 827.903C878.277 826.72 879.4 825.592 880.712 825.592C881.942 825.592 882.863 826.702 883.775 827.527C883.785 827.537 883.796 827.546 883.807 827.555C884.375 828.036 885.147 828.277 886.121 828.277C887.116 828.277 887.898 828.056 888.466 827.613C889.034 827.151 889.319 826.555 889.319 825.823C889.319 825.227 889.126 824.736 888.74 824.351C888.354 823.966 887.867 823.668 887.278 823.456C886.71 823.225 885.918 822.975 884.903 822.706C883.522 822.321 882.396 821.946 881.523 821.58C880.67 821.195 879.929 820.627 879.3 819.877C878.691 819.107 878.386 818.087 878.386 816.817C878.386 815.624 878.701 814.585 879.33 813.699C879.959 812.814 880.843 812.14 881.979 811.679C883.116 811.197 884.416 810.957 885.877 810.957C888.07 810.957 889.847 811.467 891.207 812.487C891.902 812.991 892.44 813.597 892.821 814.306C893.461 815.496 892.336 816.701 890.985 816.701H890.816C889.684 816.701 888.761 815.678 887.857 814.998C887.288 814.536 886.527 814.305 885.573 814.305C884.741 814.305 884.071 814.508 883.563 814.912C883.076 815.316 882.832 815.903 882.832 816.673C882.832 817.211 883.015 817.664 883.38 818.029C883.766 818.376 884.233 818.664 884.781 818.895C885.35 819.107 886.141 819.357 887.157 819.646C888.537 820.031 889.664 820.416 890.537 820.8C891.41 821.185 892.161 821.763 892.79 822.532C893.42 823.302 893.734 824.313 893.734 825.564C893.734 826.641 893.44 827.642 892.851 828.566C892.262 829.489 891.4 830.23 890.263 830.788C889.126 831.327 887.776 831.597 886.212 831.597Z" fill="#EDD8BA"/>
<path d="M904.922 831.654C903.298 831.654 901.836 831.318 900.537 830.644C899.238 829.951 898.212 828.979 897.461 827.729C896.73 826.478 896.365 825.034 896.365 823.399C896.365 821.763 896.74 820.319 897.492 819.068C898.263 817.818 899.309 816.855 900.628 816.182C901.948 815.489 903.42 815.143 905.044 815.143C906.668 815.143 908.14 815.489 909.46 816.182C910.779 816.855 911.815 817.818 912.566 819.068C913.337 820.319 913.723 821.763 913.723 823.399C913.723 825.034 913.327 826.478 912.535 827.729C911.764 828.979 910.708 829.951 909.368 830.644C908.049 831.318 906.567 831.654 904.922 831.654ZM904.922 828.133C905.694 828.133 906.414 827.959 907.084 827.613C907.775 827.247 908.323 826.709 908.729 825.997C909.135 825.284 909.338 824.418 909.338 823.399C909.338 821.878 908.912 820.714 908.059 819.906C907.226 819.078 906.201 818.664 904.983 818.664C903.765 818.664 902.74 819.078 901.907 819.906C901.095 820.714 900.689 821.878 900.689 823.399C900.689 824.919 901.085 826.093 901.877 826.92C902.689 827.729 903.704 828.133 904.922 828.133Z" fill="#EDD8BA"/>
<path d="M920.418 814.841C920.691 815.955 922.344 816.38 923.368 815.864C924.342 815.383 925.448 815.143 926.687 815.143C928.128 815.143 929.428 815.479 930.585 816.153C931.762 816.827 932.686 817.789 933.356 819.04C934.046 820.271 934.392 821.705 934.392 823.341C934.392 824.977 934.046 826.43 933.356 827.7C932.686 828.951 931.992 829.86 930.585 830.615C929.257 831.328 928.289 831.395 926.766 831.395C925.507 831.395 924.537 831.395 923.368 831.395C922.198 831.395 922.198 831.395 921.114 831.395C918.759 831.395 916.851 829.486 916.851 827.131V811.846C916.851 810.93 917.717 810.262 918.603 810.495C919.098 810.625 919.482 811.016 919.604 811.514L920.418 814.841ZM930.037 823.341C930.037 822.379 929.824 821.551 929.397 820.858C928.991 820.146 928.443 819.607 927.753 819.242C927.083 818.876 926.352 818.693 925.56 818.693C924.789 818.693 924.058 818.886 923.368 819.271C922.698 819.636 922.149 820.175 921.723 820.887C921.317 821.599 921.114 822.436 921.114 823.399C921.114 824.361 921.317 825.198 921.723 825.91C922.149 826.622 922.698 827.17 923.368 827.555C924.058 827.921 924.789 828.104 925.56 828.104C926.352 828.104 927.083 827.911 927.753 827.526C928.443 827.142 928.991 826.593 929.397 825.881C929.824 825.169 930.037 824.322 930.037 823.341Z" fill="#EDD8BA"/>
<path d="M936.393 823.341C936.393 821.724 936.728 820.291 937.398 819.04C938.089 817.789 939.012 816.827 940.17 816.153C941.347 815.479 942.657 815.143 944.098 815.143C945.357 815.143 946.453 815.383 947.387 815.864C948.66 816.506 950.471 816.374 951.483 815.37C951.697 815.157 951.92 814.96 952.144 814.796C952.93 814.22 953.965 814.922 953.965 815.897V827.029C953.965 829.478 952.051 831.5 949.606 831.635L948.591 831.654C947.829 831.654 948.337 831.654 947.322 831.654C946.053 831.654 945.326 831.654 944.068 831.654C942.646 831.654 941.347 831.308 940.17 830.615C939.012 829.922 938.089 828.951 937.398 827.7C936.728 826.43 936.393 824.977 936.393 823.341ZM949.671 823.399C949.671 822.417 949.468 821.58 949.062 820.887C948.656 820.175 948.108 819.636 947.417 819.271C946.727 818.886 945.986 818.693 945.194 818.693C944.403 818.693 943.672 818.876 943.002 819.242C942.332 819.607 941.784 820.146 941.357 820.858C940.951 821.551 940.748 822.379 940.748 823.341C940.748 824.303 940.951 825.15 941.357 825.881C941.784 826.593 942.332 827.142 943.002 827.526C943.692 827.911 944.423 828.104 945.194 828.104C945.986 828.104 946.727 827.921 947.417 827.555C948.108 827.17 948.656 826.632 949.062 825.939C949.468 825.227 949.671 824.38 949.671 823.399Z" fill="#EDD8BA"/>
<path d="M964.543 818.201C963.673 818.513 963.093 819.338 963.093 820.263V826.458C963.093 826.997 963.225 827.392 963.489 827.642C963.773 827.873 964.24 827.988 964.89 827.988H965.166C966.106 827.988 966.869 828.751 966.869 829.691C966.869 830.632 966.106 831.395 965.166 831.395H964.189C960.596 831.395 958.799 829.74 958.799 826.43V819.96C958.799 819.219 958.329 818.56 957.628 818.318L957.197 818.169C956.755 818.016 956.458 817.6 956.458 817.132C956.458 816.574 956.876 816.105 957.431 816.042L957.873 815.992C958.546 815.915 959.097 815.423 959.249 814.764L959.79 812.409C959.919 811.846 960.42 811.448 960.997 811.448C961.6 811.448 962.116 811.882 962.218 812.476L962.553 814.42C962.701 815.276 963.396 815.932 964.259 816.03C964.931 816.106 965.665 816.529 965.594 817.202C965.542 817.688 965.085 818.006 964.625 818.171L964.543 818.201Z" fill="#EDD8BA"/>
<path d="M878.325 841.435C878.325 840.582 879.016 839.891 879.869 839.891H901.491C902.343 839.891 903.035 840.582 903.035 841.435C903.035 842.288 902.343 842.979 901.491 842.979H879.869C879.016 842.979 878.325 842.288 878.325 841.435Z" fill="#EDD8BA"/>
<path d="M908.022 841.314C908.022 842.1 907.366 842.738 906.558 842.738C905.749 842.738 905.094 842.1 905.094 841.314C905.094 840.528 905.749 839.891 906.558 839.891C907.366 839.891 908.022 840.528 908.022 841.314Z" fill="#EDD8BA"/>
<path d="M913.008 841.314C913.008 842.1 912.353 842.738 911.545 842.738C910.736 842.738 910.081 842.1 910.081 841.314C910.081 840.528 910.736 839.891 911.545 839.891C912.353 839.891 913.008 840.528 913.008 841.314Z" fill="#EDD8BA"/>
<path d="M915.068 841.435C915.068 840.582 915.759 839.891 916.612 839.891H923.819C924.672 839.891 925.363 840.582 925.363 841.435C925.363 842.288 924.672 842.979 923.819 842.979H916.612C915.759 842.979 915.068 842.288 915.068 841.435Z" fill="#EDD8BA"/>
<path d="M933.755 845.964C933.514 845.964 933.286 845.859 933.13 845.676L931.233 843.458C930.611 842.731 929.421 843.171 929.421 844.127V845.126C929.421 845.589 929.046 845.964 928.583 845.964C928.12 845.964 927.745 845.589 927.745 845.126V836.467C927.745 836.004 928.12 835.629 928.583 835.629C929.046 835.629 929.421 836.004 929.421 836.467V837.522C929.421 838.482 930.619 838.92 931.238 838.185L933.152 835.912C933.303 835.733 933.526 835.629 933.761 835.629C934.442 835.629 934.808 836.427 934.365 836.943L931.634 840.127C931.3 840.515 931.303 841.09 931.64 841.475L934.374 844.6C934.839 845.132 934.461 845.964 933.755 845.964Z" fill="#EDD8BA"/>
<path d="M937.872 835.629C938.335 835.629 938.71 836.004 938.71 836.467V842.217C938.71 843 938.911 843.59 939.313 843.986C939.725 844.383 940.293 844.581 941.019 844.581C941.754 844.581 942.323 844.383 942.724 843.986C943.136 843.59 943.342 843 943.342 842.217V836.467C943.342 836.004 943.717 835.629 944.18 835.629C944.643 835.629 945.018 836.004 945.018 836.467V842.187C945.018 843.029 944.837 843.743 944.474 844.328C944.111 844.913 943.626 845.349 943.018 845.637C942.411 845.924 941.739 846.068 941.004 846.068C940.269 846.068 939.598 845.924 938.99 845.637C938.392 845.349 937.917 844.913 937.564 844.328C937.211 843.743 937.034 843.029 937.034 842.187V836.467C937.034 836.004 937.41 835.629 937.872 835.629Z" fill="#EDD8BA"/>
<path d="M953.21 845.964C952.97 845.964 952.742 845.859 952.585 845.676L950.689 843.458C950.067 842.731 948.877 843.171 948.877 844.127V845.126C948.877 845.589 948.501 845.964 948.038 845.964C947.576 845.964 947.2 845.589 947.2 845.126V836.467C947.2 836.004 947.576 835.629 948.038 835.629C948.501 835.629 948.877 836.004 948.877 836.467V837.522C948.877 838.482 950.075 838.92 950.694 838.185L952.608 835.912C952.759 835.733 952.982 835.629 953.217 835.629C953.897 835.629 954.264 836.427 953.821 836.943L951.089 840.127C950.756 840.515 950.759 841.09 951.096 841.475L953.829 844.6C954.295 845.132 953.917 845.964 953.21 845.964Z" fill="#EDD8BA"/>
<path d="M966.238 835.629C966.806 835.629 967.267 836.09 967.267 836.658V845.126C967.267 845.589 966.892 845.964 966.429 845.964C965.966 845.964 965.591 845.589 965.591 845.126V843.778C965.591 842.664 964.068 842.344 963.619 843.363L962.708 845.432C962.566 845.755 962.246 845.964 961.893 845.964C961.54 845.964 961.22 845.756 961.078 845.433L960.152 843.341C959.702 842.323 958.181 842.644 958.181 843.757V845.126C958.181 845.589 957.806 845.964 957.343 845.964C956.88 845.964 956.505 845.589 956.505 845.126V836.658C956.505 836.09 956.966 835.629 957.534 835.629H957.643C958.05 835.629 958.419 835.869 958.584 836.242L960.957 841.602C961.319 842.42 962.48 842.419 962.841 841.601L965.203 836.243C965.367 835.87 965.737 835.629 966.145 835.629H966.238Z" fill="#EDD8BA"/>
<path fill-rule="evenodd" clip-rule="evenodd" d="M877.172 794.068C875.994 794.068 874.943 794.35 874.538 794.775L867.343 802.323C867.116 802.561 867 802.811 867 803.062V806.065C867 807.763 870.588 809.141 875.015 809.141C879.441 809.141 883.032 807.763 883.032 806.065C883.032 807.764 886.621 809.141 891.047 809.141C895.474 809.141 899.065 807.763 899.065 806.065C899.065 807.764 902.653 809.141 907.08 809.141C911.506 809.141 915.091 807.765 915.097 806.067C915.097 807.765 918.686 809.141 923.112 809.141C927.539 809.141 931.127 807.763 931.127 806.065C931.127 807.764 934.718 809.141 939.145 809.141C943.571 809.141 947.156 807.765 947.159 806.067C947.162 807.765 950.75 809.141 955.177 809.141C959.604 809.141 963.192 807.763 963.192 806.065C963.192 807.764 966.78 809.141 971.21 809.141C975.636 809.141 979.224 807.763 979.224 806.065V803.062C979.224 802.811 979.109 802.561 978.881 802.323L971.687 794.776C971.281 794.35 970.231 794.068 969.052 794.068H877.172Z" fill="#EDD8BA"/>
<rect x="870.903" y="804.312" width="2.43966" height="41.7562" rx="1.21983" fill="#EDD8BA"/>
<rect x="972.881" y="804.312" width="2.43966" height="41.7562" rx="1.21983" fill="#EDD8BA"/>
<rect x="892" y="712.068" width="163" height="31" rx="2" fill="#E5BF87"/>
<rect x="892" y="881.068" width="259" height="31" rx="2" fill="#E8CDA3"/>
<path fill-rule="evenodd" clip-rule="evenodd" d="M522 420.068C480.579 420.068 447 453.647 447 495.068V1127.07H473V524.068C473 482.647 506.579 449.068 548 449.068H800C841.421 449.068 875 482.647 875 524.068V1127.07H900V495.068C900 453.647 866.421 420.068 825 420.068H522Z" fill="black"/>
<path d="M473 524.068C473 482.647 506.579 449.068 548 449.068H800C841.421 449.068 875 482.647 875 524.068V1127.07H473V524.068Z" fill="#359C6D"/>
<path d="M568.742 454.603C561.42 446.19 567.395 433.068 578.548 433.068H771.878C781.797 433.068 788.062 443.729 783.236 452.394L773.767 469.394C771.472 473.514 767.126 476.068 762.409 476.068H593.343C589.582 476.068 586.006 474.44 583.537 471.603L568.742 454.603Z" fill="black"/>
<path d="M730 559.068H618C610.3 559.068 604.07 565.368 604.07 573.068L604 657.068C604 664.768 610.3 671.068 618 671.068H730C737.7 671.068 744 664.768 744 657.068V573.068C744 565.368 737.7 559.068 730 559.068ZM730 587.068L674 622.068L618 587.068V573.068L674 608.068L730 573.068V587.068Z" fill="white"/>
<path fill-rule="evenodd" clip-rule="evenodd" d="M733.294 646.774C724.122 646.774 716.687 654.21 716.687 663.382C716.687 672.554 724.122 679.99 733.294 679.99C742.466 679.99 749.902 672.554 749.902 663.382C749.902 654.21 742.466 646.774 733.294 646.774ZM740.493 660.574C740.626 660.423 740.727 660.246 740.79 660.055C740.853 659.864 740.878 659.662 740.862 659.461C740.846 659.261 740.79 659.065 740.698 658.886C740.605 658.707 740.478 658.549 740.323 658.42C740.169 658.291 739.99 658.195 739.797 658.136C739.605 658.077 739.402 658.057 739.202 658.078C739.002 658.099 738.808 658.159 738.631 658.256C738.455 658.353 738.299 658.484 738.174 658.641L731.682 666.431L728.323 663.07C728.038 662.795 727.656 662.643 727.261 662.646C726.865 662.649 726.486 662.808 726.206 663.088C725.926 663.368 725.767 663.747 725.764 664.143C725.761 664.538 725.913 664.92 726.188 665.205L730.717 669.734C730.865 669.882 731.043 669.998 731.239 670.074C731.434 670.15 731.643 670.184 731.853 670.174C732.062 670.165 732.268 670.112 732.456 670.019C732.643 669.925 732.81 669.794 732.944 669.633L740.493 660.574Z" fill="#A1E89F"/>
<path d="M610.608 784.1H595.344L592.416 792.068H588.864L601.104 758.948H604.896L617.088 792.068H613.536L610.608 784.1ZM609.6 781.316L602.976 763.172L596.352 781.316H609.6ZM620.945 775.268C620.945 771.972 621.665 769.028 623.105 766.436C624.545 763.812 626.513 761.78 629.009 760.34C631.505 758.868 634.289 758.132 637.361 758.132C641.105 758.132 644.305 759.028 646.961 760.82C649.649 762.58 651.601 765.076 652.817 768.308H648.881C647.921 766.036 646.449 764.26 644.465 762.98C642.513 761.7 640.145 761.06 637.361 761.06C634.897 761.06 632.673 761.636 630.689 762.788C628.737 763.94 627.201 765.604 626.081 767.78C624.961 769.924 624.401 772.42 624.401 775.268C624.401 778.116 624.961 780.612 626.081 782.756C627.201 784.9 628.737 786.548 630.689 787.7C632.673 788.852 634.897 789.428 637.361 789.428C640.145 789.428 642.513 788.804 644.465 787.556C646.449 786.276 647.921 784.516 648.881 782.276H652.817C651.601 785.476 649.649 787.956 646.961 789.716C644.273 791.476 641.073 792.356 637.361 792.356C634.289 792.356 631.505 791.636 629.009 790.196C626.513 788.724 624.545 786.692 623.105 784.1C621.665 781.508 620.945 778.564 620.945 775.268ZM679.144 758.516V761.3H669.832V792.068H666.472V761.3H657.112V758.516H679.144ZM687.809 758.516V792.068H684.449V758.516H687.809ZM722.01 758.516L709.29 792.068H705.45L692.73 758.516H696.378L707.37 788.42L718.458 758.516H722.01ZM730.419 761.252V773.78H743.139V776.564H730.419V789.284H744.579V792.068H727.059V758.468H744.579V761.252H730.419ZM755.711 758.516L755.279 783.188H752.447L752.063 758.516H755.711ZM754.031 792.308C753.327 792.308 752.735 792.068 752.255 791.588C751.807 791.108 751.583 790.516 751.583 789.812C751.583 789.108 751.807 788.532 752.255 788.084C752.735 787.604 753.327 787.364 754.031 787.364C754.703 787.364 755.263 787.604 755.711 788.084C756.191 788.532 756.431 789.108 756.431 789.812C756.431 790.516 756.191 791.108 755.711 791.588C755.263 792.068 754.703 792.308 754.031 792.308Z" fill="white"/>
<rect x="524" y="846.068" width="300" height="53" rx="8" fill="#40B680"/>
<rect x="524" y="924.068" width="300" height="53" rx="8" fill="#40B680"/>
<rect x="524" y="1001.07" width="300" height="53" rx="8" fill="#40B680"/>
<rect x="524" y="1079.07" width="300" height="53" rx="8" fill="#40B680"/>
<path fill-rule="evenodd" clip-rule="evenodd" d="M473 1062.1V990.463L846.544 465.254C861.084 476.776 871.252 493.576 874.153 512.76L473 1062.1Z" fill="url(#paint0_linear_439_224)" fill-opacity="0.3"/>
<path d="M461 1107.07L877.5 546.068L885.5 561.568L470.5 1117.07L461 1107.07Z" fill="url(#paint1_linear_439_224)" fill-opacity="0.25"/>
</g>
<g filter="url(#filter0_b_439_224)">
<rect x="859" y="398.068" width="114" height="114" rx="15" fill="white" fill-opacity="0.75"/>
<rect x="860.5" y="399.568" width="111" height="111" rx="13.5" stroke="white" stroke-width="3"/>
</g>
<g clip-path="url(#clip1_439_224)">
<path d="M940.887 432.212C941.001 431.929 941.029 431.617 940.967 431.318C940.906 431.018 940.758 430.743 940.542 430.527C940.325 430.311 940.05 430.163 939.751 430.101C939.451 430.04 939.14 430.068 938.856 430.181L893.397 448.366H893.394L891.981 448.928C891.713 449.035 891.481 449.213 891.308 449.444C891.136 449.675 891.031 449.949 891.004 450.236C890.978 450.522 891.031 450.811 891.158 451.069C891.285 451.328 891.481 451.546 891.725 451.7L893.006 452.512L893.009 452.519L908.619 462.45L918.55 478.059L918.556 478.066L919.369 479.347C919.523 479.589 919.741 479.785 920 479.911C920.258 480.037 920.546 480.09 920.832 480.063C921.118 480.036 921.392 479.931 921.622 479.759C921.852 479.587 922.031 479.354 922.137 479.087L940.887 432.212ZM935.159 438.119L911.74 461.537L911.069 460.481C910.945 460.287 910.781 460.123 910.587 460L909.531 459.328L932.95 435.909L936.631 434.437L935.162 438.119H935.159Z" fill="#FFD37C"/>
</g>
<defs>
<filter id="filter0_b_439_224" x="843" y="382.068" width="146" height="146" filterUnits="userSpaceOnUse" color-interpolation-filters="sRGB">
<feFlood flood-opacity="0" result="BackgroundImageFix"/>
<feGaussianBlur in="BackgroundImage" stdDeviation="8"/>
<feComposite in2="SourceAlpha" operator="in" result="effect1_backgroundBlur_439_224"/>
<feBlend mode="normal" in="SourceGraphic" in2="effect1_backgroundBlur_439_224" result="shape"/>
</filter>
<linearGradient id="paint0_linear_439_224" x1="941" y1="505.068" x2="613" y2="1218.07" gradientUnits="userSpaceOnUse">
<stop stop-color="white"/>
<stop offset="0.958506" stop-color="white" stop-opacity="0"/>
</linearGradient>
<linearGradient id="paint1_linear_439_224" x1="538" y1="1129.07" x2="1001" y2="503.068" gradientUnits="userSpaceOnUse">
<stop stop-color="white" stop-opacity="0"/>
<stop offset="1" stop-color="white"/>
</linearGradient>
<clipPath id="clip0_439_224">
<rect width="877" height="691" fill="white" transform="translate(447 420.068)"/>
</clipPath>
<clipPath id="clip1_439_224">
<rect width="50" height="50" fill="white" transform="translate(891 430.068)"/>
</clipPath>
</defs>
</svg>
