<svg width="1440" height="900" viewBox="0 0 1440 900" fill="none" xmlns="http://www.w3.org/2000/svg">
<path d="M1491 -20.5C1491 154.298 1349.3 296 1174.5 296C999.702 296 858 154.298 858 -20.5C858 -195.298 999.702 -337 1174.5 -337C1349.3 -337 1491 -195.298 1491 -20.5ZM1002.1 -20.5C1002.1 74.7164 1079.28 151.904 1174.5 151.904C1269.72 151.904 1346.9 74.7164 1346.9 -20.5C1346.9 -115.716 1269.72 -192.904 1174.5 -192.904C1079.28 -192.904 1002.1 -115.716 1002.1 -20.5Z" fill="url(#paint0_linear_257_2)"/>
<path d="M569 797.5C569 608.342 415.658 455 226.5 455C37.3425 455 -116 608.342 -116 797.5C-116 986.658 37.3425 1140 226.5 1140C415.658 1140 569 986.658 569 797.5ZM37.0064 797.5C37.0064 692.846 121.846 608.006 226.5 608.006C331.154 608.006 415.994 692.846 415.994 797.5C415.994 902.154 331.154 986.994 226.5 986.994C121.846 986.994 37.0064 902.154 37.0064 797.5Z" fill="url(#paint1_linear_257_2)"/>
<path d="M387.795 422.155C341.244 389.847 241.968 337.193 110.131 391.995" stroke="#A6CFE5" stroke-dasharray="12 12"/>
<path d="M229.521 369.798C230.129 382.231 240.701 391.818 253.135 391.211C265.568 390.603 275.155 380.031 274.548 367.597C273.94 355.164 263.368 345.577 250.934 346.184C238.501 346.792 228.914 357.364 229.521 369.798Z" fill="#59A7D3" stroke="#A6CFE5"/>
<g opacity="0.75">
<path d="M241.032 363.507C240.998 363.655 241.057 363.814 241.149 363.935L244.063 367.845C244.172 367.997 244.387 368.072 244.564 368.063C244.615 368.061 244.755 368.044 244.81 368.026L246.961 367.385L247.429 376.963C247.443 377.256 247.66 377.457 247.958 377.443L258.544 376.925C258.841 376.911 259.038 376.689 259.023 376.397L258.555 366.819L260.537 367.263C260.768 367.322 260.96 367.222 261.076 367.019L263.576 362.855C263.655 362.719 263.674 362.572 263.626 362.428C263.583 362.278 263.473 362.183 263.333 362.119L257.706 359.786L255.186 359.91C254.888 359.924 254.692 360.141 254.706 360.438C254.757 361.477 253.336 362.284 252.298 362.335C251.259 362.385 249.717 361.728 249.666 360.685C249.651 360.392 249.434 360.191 249.137 360.205L246.616 360.328L241.297 363.145C241.159 363.222 241.064 363.353 241.032 363.507Z" fill="#A6CFE5"/>
</g>
<path d="M87.1805 394.388C87.8015 407.097 98.608 416.897 111.318 416.276C124.027 415.655 133.827 404.849 133.206 392.139C132.585 379.429 121.778 369.63 109.069 370.251C96.3592 370.872 86.5594 381.678 87.1805 394.388Z" fill="#59A7D3"/>
<path d="M87.6799 394.363C88.2874 406.797 98.8595 416.384 111.293 415.777C123.727 415.169 133.314 404.597 132.707 392.163C132.099 379.73 121.527 370.143 109.093 370.75C96.6594 371.358 87.0723 381.93 87.6799 394.363Z" stroke="#A6CFE5" stroke-opacity="0.75"/>
<g opacity="0.75" clip-path="url(#clip0_257_2)">
<path d="M104.894 386.657L104.889 386.657L104.894 386.657ZM99.3253 385.35L103.808 385.131L103.283 383.397L101.365 382.847C100.957 382.73 100.698 382.315 100.794 381.902C100.818 381.798 100.863 381.7 100.927 381.614C100.99 381.528 101.07 381.456 101.162 381.402C101.255 381.348 101.357 381.313 101.463 381.3C101.569 381.287 101.676 381.295 101.779 381.324L104.131 381.999C104.258 382.035 104.373 382.103 104.467 382.196C104.561 382.288 104.63 382.403 104.668 382.529L105.431 385.052L111.883 384.736C112.307 384.716 112.687 385.024 112.729 385.447C112.739 385.553 112.728 385.66 112.695 385.762C112.663 385.864 112.61 385.958 112.541 386.038C112.471 386.119 112.385 386.185 112.289 386.232C112.193 386.279 112.089 386.305 111.982 386.311L111.847 386.317L111.819 386.746C111.812 386.846 111.769 386.94 111.697 387.011C111.625 387.081 111.53 387.122 111.43 387.127C109.51 387.221 107.83 387.841 106.577 388.92C105.88 389.513 105.328 390.258 104.963 391.098C104.758 391.57 104.615 392.067 104.535 392.575C104.519 392.674 104.466 392.763 104.385 392.823C103.738 393.31 103.276 394.004 103.078 394.79C102.88 395.576 102.956 396.405 103.294 397.142C103.334 397.227 103.341 397.323 103.315 397.413C103.165 397.922 103.102 398.452 103.127 398.981C103.181 400.081 103.606 401.11 104.325 401.881C104.732 402.32 105.235 402.661 105.794 402.878C105.89 402.915 105.969 402.989 106.011 403.083C106.242 403.606 106.555 404.088 106.938 404.511C106.954 404.528 106.965 404.55 106.969 404.573C106.974 404.596 106.971 404.62 106.962 404.641C106.954 404.663 106.939 404.682 106.92 404.695C106.901 404.709 106.878 404.717 106.855 404.718L104.432 404.837C103.839 404.863 103.257 404.667 102.802 404.286C102.346 403.905 102.05 403.367 101.971 402.779L99.5081 386.92L99.3801 386.926C99.2734 386.932 99.1667 386.915 99.0666 386.878C98.9664 386.841 98.8748 386.784 98.7974 386.71C98.72 386.637 98.6583 386.548 98.6161 386.45C98.574 386.352 98.5522 386.246 98.5521 386.139C98.5521 385.714 98.9014 385.371 99.3253 385.35Z" fill="#A6CFE5"/>
<path d="M118.12 395.485C117.965 395.492 117.813 395.529 117.672 395.596C117.531 395.662 117.405 395.755 117.3 395.87L116.574 396.671C116.557 396.69 116.536 396.706 116.512 396.717C116.489 396.728 116.464 396.735 116.438 396.736C116.412 396.737 116.386 396.733 116.362 396.724C116.337 396.716 116.315 396.702 116.296 396.685L115.496 395.959C115.381 395.854 115.246 395.773 115.1 395.721C114.953 395.669 114.798 395.647 114.642 395.655L104.965 396.128C104.914 396.131 104.862 396.124 104.813 396.107C104.764 396.09 104.719 396.063 104.68 396.029C104.641 395.994 104.61 395.953 104.587 395.906C104.565 395.86 104.552 395.809 104.549 395.757L104.548 395.753C104.527 395.3 104.662 394.852 104.932 394.487C105.202 394.121 105.589 393.86 106.029 393.747C105.998 392.283 106.538 391.03 107.604 390.117C108.59 389.267 109.939 388.779 111.507 388.702L115.051 388.529C118.41 388.365 120.778 390.163 120.994 393.015C121.443 393.085 121.855 393.307 122.159 393.645C122.463 393.982 122.641 394.414 122.664 394.868C122.669 394.973 122.633 395.075 122.562 395.152C122.492 395.23 122.394 395.276 122.289 395.281L118.12 395.485ZM114.395 397.246C114.446 397.243 114.498 397.251 114.547 397.269C114.596 397.286 114.64 397.313 114.679 397.348L115.822 398.385C116.016 398.56 116.271 398.652 116.532 398.639C116.793 398.626 117.039 398.51 117.214 398.317L118.251 397.173C118.286 397.135 118.328 397.104 118.374 397.081C118.421 397.059 118.472 397.047 118.524 397.044L121.94 396.877C122.125 396.867 122.308 396.923 122.455 397.035C122.603 397.147 122.707 397.307 122.748 397.488C122.786 397.662 122.809 397.84 122.818 398.019C122.892 399.525 121.911 400.802 120.626 400.889C120.543 401.639 120.286 402.326 119.876 402.873C119.27 403.683 118.354 404.158 117.298 404.21L110.8 404.527C109.743 404.579 108.786 404.195 108.103 403.448C107.642 402.943 107.319 402.284 107.163 401.546C105.876 401.586 104.776 400.41 104.702 398.903C104.693 398.724 104.7 398.545 104.72 398.368C104.744 398.184 104.831 398.015 104.968 397.889C105.104 397.764 105.28 397.69 105.465 397.682L114.395 397.246Z" fill="#A6CFE5"/>
</g>
<path d="M362.955 424.022C363.576 436.731 374.382 446.531 387.092 445.91C399.802 445.289 409.601 434.482 408.98 421.773C408.359 409.063 397.553 399.263 384.843 399.884C372.134 400.505 362.334 411.312 362.955 424.022Z" fill="#59A7D3"/>
<path d="M363.454 423.997C364.062 436.431 374.634 446.018 387.068 445.411C399.501 444.803 409.089 434.231 408.481 421.797C407.873 409.363 397.301 399.776 384.868 400.384C372.434 400.991 362.847 411.563 363.454 423.997Z" stroke="#A6CFE5" stroke-opacity="0.75"/>
<path d="M388.768 424.101L390.097 421.521C390.183 421.361 390.132 421.166 389.991 421.058L388.398 419.931C388.418 419.701 388.427 419.462 388.416 419.223C388.404 418.985 388.372 418.747 388.329 418.511L389.804 417.233C389.934 417.112 389.965 416.913 389.865 416.762L388.291 414.325C388.19 414.174 388 414.121 387.837 414.191L386.069 415.005C385.681 414.733 385.265 414.514 384.811 414.349L384.447 412.444C384.426 412.361 384.377 412.288 384.308 412.237C384.24 412.185 384.155 412.159 384.07 412.161L381.167 412.303C380.991 412.312 380.842 412.454 380.819 412.632L380.644 414.563C380.217 414.771 379.814 415.03 379.455 415.338L377.616 414.701C377.447 414.647 377.263 414.718 377.178 414.878L375.849 417.458C375.763 417.618 375.814 417.813 375.955 417.92L377.548 419.048C377.528 419.277 377.519 419.517 377.53 419.755C377.542 419.994 377.574 420.231 377.617 420.468L376.142 421.746C376.012 421.866 375.981 422.065 376.081 422.216L377.655 424.654C377.756 424.805 377.946 424.858 378.109 424.788L379.877 423.974C380.265 424.246 380.681 424.465 381.135 424.629L381.499 426.534C381.538 426.698 381.7 426.826 381.876 426.817L384.779 426.675C384.955 426.667 385.104 426.524 385.127 426.346L385.302 424.415C385.729 424.208 386.132 423.949 386.491 423.64L388.33 424.278C388.499 424.332 388.683 424.261 388.768 424.101ZM383.074 421.563C381.934 421.618 380.955 420.731 380.9 419.591C380.844 418.45 381.731 417.472 382.872 417.416C384.012 417.36 384.991 418.248 385.046 419.388C385.102 420.528 384.215 421.507 383.074 421.563ZM397.054 428.85L396.021 428.131C396.035 427.985 396.048 427.829 396.04 427.673C396.033 427.518 396.015 427.363 395.977 427.219L396.924 426.404C397.003 426.327 397.028 426.201 396.961 426.101L395.95 424.539C395.893 424.438 395.767 424.413 395.654 424.45L394.526 424.973C394.279 424.798 394.012 424.655 393.716 424.555L393.48 423.34C393.473 423.285 393.446 423.234 393.404 423.198C393.362 423.162 393.308 423.142 393.252 423.144L391.397 423.234C391.283 423.24 391.183 423.328 391.178 423.442L391.062 424.674C390.788 424.812 390.525 424.971 390.296 425.169L389.123 424.759C389.069 424.741 389.011 424.744 388.958 424.765C388.906 424.787 388.863 424.826 388.837 424.877L387.983 426.529C387.936 426.635 387.953 426.759 388.049 426.827L389.072 427.546C389.044 427.851 389.059 428.158 389.116 428.458L388.169 429.274C388.09 429.35 388.065 429.476 388.132 429.577L389.143 431.138C389.2 431.239 389.326 431.264 389.439 431.228L390.567 430.705C390.814 430.88 391.081 431.023 391.377 431.123L391.613 432.337C391.639 432.45 391.736 432.529 391.85 432.523L393.706 432.432C393.82 432.427 393.92 432.339 393.925 432.224L394.041 430.992C394.315 430.854 394.577 430.696 394.796 430.498L395.98 430.908C396.086 430.944 396.208 430.897 396.265 430.79L397.12 429.138C397.178 429.041 397.14 428.919 397.054 428.85ZM392.615 429.233C392.243 429.251 391.88 429.121 391.605 428.871C391.329 428.621 391.165 428.272 391.147 427.901C391.129 427.53 391.259 427.166 391.509 426.891C391.759 426.616 392.107 426.451 392.479 426.433C392.85 426.415 393.213 426.545 393.489 426.795C393.764 427.045 393.929 427.394 393.947 427.765C393.965 428.137 393.835 428.5 393.585 428.775C393.335 429.05 392.986 429.215 392.615 429.233Z" fill="#A6CFE5" fill-opacity="0.75"/>
<path d="M1160.57 430.223C1160.33 430.297 1160.23 430.012 1160.51 429.925C1160.92 429.827 1161.34 429.757 1161.76 429.714C1162.18 429.667 1162.59 429.638 1163.01 429.626C1163.01 429.626 1163.29 429.626 1163.58 429.626C1163.77 429.622 1163.96 429.639 1164.14 429.675C1163.95 429.706 1163.75 429.723 1163.55 429.727L1162.96 429.78C1162.16 429.852 1161.36 430 1160.57 430.223Z" fill="#ACD3E9"/>
<path d="M1168.51 429.925C1168.77 430.008 1168.7 430.302 1168.45 430.223C1168.05 430.097 1167.64 429.998 1167.23 429.925C1166.82 429.855 1166.41 429.801 1165.99 429.762L1165.43 429.714C1165.24 429.711 1165.05 429.693 1164.87 429.662C1165.06 429.625 1165.26 429.609 1165.46 429.613C1165.76 429.613 1166.06 429.613 1166.06 429.613C1166.88 429.639 1167.7 429.743 1168.51 429.925Z" fill="#ACD3E9"/>
<path d="M1169.88 448.552C1169.16 447.433 1168.54 446.468 1168.51 445.42L1168.25 431.337C1168.36 431.325 1168.46 431.284 1168.54 431.22C1168.63 431.155 1168.71 431.068 1168.76 430.964C1168.82 430.849 1168.85 430.721 1168.85 430.589C1168.86 430.457 1168.84 430.326 1168.79 430.205C1168.83 429.542 1168.83 428.877 1168.79 428.214C1168.78 428.088 1168.74 427.968 1168.68 427.869C1168.61 427.771 1168.52 427.7 1168.41 427.666C1167.14 427.331 1165.83 427.183 1164.52 427.227C1163.21 427.183 1161.9 427.331 1160.63 427.666C1160.52 427.7 1160.43 427.771 1160.36 427.869C1160.29 427.968 1160.25 428.088 1160.25 428.214C1160.21 428.877 1160.21 429.542 1160.25 430.205C1160.2 430.326 1160.18 430.457 1160.18 430.589C1160.19 430.721 1160.22 430.849 1160.28 430.964C1160.33 431.068 1160.41 431.155 1160.49 431.22C1160.58 431.284 1160.68 431.325 1160.78 431.337L1160.53 445.416C1160.5 446.468 1159.88 447.433 1159.16 448.552C1158.23 449.981 1157.19 451.6 1157.19 453.815V478.376C1157.19 478.54 1157.14 481.045 1157.19 481.196C1157.25 481.346 1157.09 481.328 1157.19 481.441C1158.04 481.686 1159.96 481.196 1164.51 481.196C1169.05 481.196 1170.47 481.924 1171.13 481.196C1171.13 481.29 1171.77 481.346 1171.82 481.196C1171.82 480.95 1171.82 478.54 1171.82 478.376V453.815C1171.84 451.6 1170.8 449.977 1169.88 448.552ZM1160.52 430.802C1160.49 430.725 1160.47 430.639 1160.47 430.552C1160.47 430.465 1160.49 430.379 1160.52 430.302V430.262V430.219C1160.49 429.554 1160.49 428.888 1160.52 428.223C1160.53 428.161 1160.55 428.102 1160.58 428.054C1160.61 428.005 1160.66 427.971 1160.71 427.955C1161.97 427.624 1163.25 427.477 1164.54 427.517C1165.82 427.477 1167.11 427.624 1168.36 427.955C1168.41 427.971 1168.46 428.005 1168.49 428.054C1168.53 428.102 1168.55 428.161 1168.55 428.223C1168.59 428.888 1168.59 429.554 1168.55 430.219V430.262L1168.57 430.302C1168.61 430.379 1168.62 430.465 1168.62 430.552C1168.62 430.639 1168.61 430.725 1168.57 430.802C1168.53 430.881 1168.46 430.944 1168.39 430.985C1168.32 431.026 1168.24 431.043 1168.16 431.034H1168.02L1168.25 443.92C1167.88 443.819 1166.97 443.723 1164.56 443.723C1162.15 443.723 1161.23 443.819 1160.87 443.92L1161.08 431.043H1160.94C1160.86 431.052 1160.78 431.033 1160.7 430.991C1160.63 430.948 1160.57 430.883 1160.52 430.802ZM1171.58 478.371C1171.58 478.494 1171.56 478.616 1171.52 478.729C1171.48 478.842 1171.41 478.944 1171.34 479.029C1170.83 479.586 1169.15 480.884 1164.54 480.884C1159.93 480.884 1158.24 479.569 1157.74 479.029C1157.67 478.944 1157.61 478.842 1157.56 478.729C1157.52 478.616 1157.5 478.494 1157.5 478.371V453.81C1157.5 451.687 1158.52 450.113 1159.41 448.723C1160.13 447.613 1160.8 446.565 1160.83 445.416L1160.86 444.122C1161.61 443.863 1167.5 443.863 1168.25 444.122L1168.27 445.438C1168.3 446.587 1168.97 447.631 1169.69 448.745C1170.58 450.135 1171.6 451.709 1171.6 453.832L1171.58 478.371Z" fill="#ACD3E9"/>
<path d="M1167.82 440.174C1167.75 439.762 1167.73 439.343 1167.74 438.924C1167.71 438.152 1167.69 437.091 1167.68 435.911C1167.66 434.731 1167.65 433.67 1167.65 432.898C1167.62 432.481 1167.63 432.062 1167.68 431.648C1167.76 432.057 1167.8 432.475 1167.8 432.894C1167.85 433.666 1167.89 434.731 1167.91 435.907C1167.93 437.082 1167.91 438.152 1167.91 438.924C1167.92 439.344 1167.88 439.763 1167.82 440.174Z" fill="#ACD3E9"/>
<path d="M1167.88 443.521C1167.78 443.042 1167.75 442.551 1167.77 442.061C1167.72 441.573 1167.73 441.08 1167.8 440.596C1167.96 441.059 1168.02 441.555 1168 442.052C1168.05 442.546 1168.01 443.047 1167.88 443.521Z" fill="#ACD3E9"/>
<path d="M1171.27 455.196C1171.24 455.196 1171.23 454.547 1171.09 453.512C1171.01 452.914 1170.89 452.327 1170.71 451.758C1170.46 451.075 1170.12 450.44 1169.71 449.876C1169.28 449.249 1168.85 448.657 1168.53 448.06C1168.37 447.779 1168.24 447.473 1168.15 447.152C1168.07 446.876 1168.01 446.591 1167.97 446.302C1167.91 445.886 1167.89 445.464 1167.91 445.043C1167.9 444.894 1167.92 444.745 1167.97 444.604C1167.99 444.749 1168 444.896 1168 445.043C1168.01 445.454 1168.05 445.863 1168.13 446.266C1168.17 446.543 1168.24 446.814 1168.33 447.078C1168.42 447.379 1168.55 447.665 1168.71 447.929C1169.04 448.503 1169.46 449.082 1169.89 449.714C1170.32 450.299 1170.66 450.961 1170.91 451.674C1171.08 452.268 1171.19 452.881 1171.24 453.503C1171.28 453.918 1171.3 454.336 1171.3 454.753C1171.31 454.901 1171.3 455.051 1171.27 455.196Z" fill="#ACD3E9"/>
<path d="M1171.32 466.354C1171.34 460.873 1171.31 456.429 1171.25 456.429C1171.19 456.428 1171.12 460.872 1171.09 466.353C1171.07 471.835 1171.1 476.279 1171.17 476.279C1171.23 476.279 1171.3 471.836 1171.32 466.354Z" fill="#ACD3E9"/>
<path d="M1206.21 464.795V474.378" stroke="#93C5E0" stroke-width="0.65" stroke-linecap="round"/>
<path d="M1125.67 436.046C1126.51 436.13 1128.3 436.752 1128.7 438.568C1129.2 440.838 1130.21 441.846 1130.97 442.351" stroke="#93C5E0" stroke-width="0.5" stroke-linecap="round"/>
<path d="M1099.7 415.115C1102.81 415.199 1109.68 416.679 1112.31 421.924C1115.59 428.481 1112.56 425.202 1116.85 427.976C1121.13 430.75 1117.6 430.75 1120.38 432.768" stroke="#93C5E0" stroke-width="0.5" stroke-linecap="round"/>
<path d="M1071.45 425.707C1070.28 425.959 1067.97 427.069 1068.18 429.49C1068.43 432.516 1062.37 431.003 1062.63 433.524C1062.88 436.046 1064.64 439.577 1062.63 440.333C1060.61 441.09 1058.59 441.09 1057.84 443.107" stroke="#93C5E0" stroke-width="0.5" stroke-linecap="round"/>
<path d="M1074.48 421.42C1075.4 418.478 1077.91 412.492 1080.53 412.089" stroke="#93C5E0" stroke-width="0.5" stroke-linecap="round"/>
<path d="M1400.8 562.893C1405.01 569.702 1413.92 585.287 1415.93 593.155" stroke="#93C5E0" stroke-width="0.65"/>
<path d="M1375.1 535.94C1374.97 536.07 1374.98 536.276 1375.11 536.399C1375.24 536.522 1375.45 536.516 1375.57 536.385L1375.1 535.94ZM1391.41 506.071C1389.91 511.84 1384.53 525.906 1375.1 535.94L1375.57 536.385C1385.1 526.244 1390.52 512.066 1392.04 506.235L1391.41 506.071Z" fill="#93C5E0"/>
<path d="M1383.15 383.901C1383.98 383.652 1385.36 384.1 1384.25 387.88" stroke="#93C5E0" stroke-width="0.65" stroke-linecap="round"/>
<path d="M1385.92 375.018C1388.19 375.691 1391.72 379.003 1387.69 386.871" stroke="#93C5E0" stroke-width="0.65" stroke-linecap="round"/>
<path d="M1379.37 447.394C1377.77 453.363 1374.07 465.451 1372.05 466.056" stroke="#93C5E0" stroke-width="0.65" stroke-linecap="round"/>
<path d="M1390.21 409.819C1392.9 414.695 1398.13 431.457 1397.52 459.499" stroke="#93C5E0" stroke-width="0.65" stroke-linecap="round"/>
<circle cx="1254.03" cy="609.295" r="20.7051" fill="#59A7D3" stroke="#7CB8D8" stroke-width="6"/>
<path d="M1253.75 587.848V630.46" stroke="#7CB8D8" stroke-width="4"/>
<path d="M1232.59 608.731H1274.92M1268.99 594.62L1239.08 624.534M1268.99 624.534L1239.08 594.62" stroke="#7CB8D8" stroke-width="4"/>
<circle cx="1253.75" cy="609.577" r="3.10423" fill="#ACD3E9"/>
<path d="M1369.65 438.568C1367.97 443.612 1364.29 454.96 1363.48 457.986M1363.48 457.986C1362.47 461.769 1334.73 480.43 1331.96 480.178C1330.55 480.05 1327.01 480.311 1323.89 481.42M1363.48 457.986C1363.23 458.827 1363.58 460.911 1367.01 462.525M1381.89 446.576C1376.98 444.463 1370.64 439.804 1367.51 436.551C1367.51 436.551 1372.52 418.356 1380.38 412.846C1392.55 404.307 1390.8 430.414 1385.42 447.647C1384.4 447.519 1383.2 447.138 1381.89 446.576ZM1381.89 446.576C1380.63 451.22 1377.4 461.718 1374.58 466.56C1371.05 472.613 1348.85 479.421 1340.03 481.691C1338.39 482.112 1337.07 482.593 1335.99 483.113M1335.99 483.113V489.509H1331.09M1335.99 483.113C1331.87 485.106 1331.41 487.662 1331.09 489.509M1331.09 489.509C1331.04 489.777 1331 490.031 1330.95 490.265C1330.51 492.252 1321.37 493.466 1318.93 489.509M1323.89 481.42C1320.85 482.499 1318.22 484.382 1318.34 487.491C1318.37 488.277 1318.58 488.945 1318.93 489.509M1323.89 481.42H1283.79M1283.79 481.42V354.844M1283.79 481.42H1276.73M1318.93 489.509H1283.79M1283.79 489.509V578.781H1264.88H1246.22M1283.79 489.509H1276.73M1246.22 578.781C1245.96 588.028 1247.98 602.99 1254.54 608.034C1255.07 609.309 1254.11 611.086 1252.27 611.06C1245.36 610.965 1226.04 600.744 1226.04 578.781M1246.22 578.781C1246.45 570.207 1226.04 562.641 1226.04 578.781M1226.04 578.781H1166.02H1035.39V354.844M1035.39 354.844H1019V344H1318.34V354.844H1283.79M1035.39 354.844H1283.79M1043.71 481.42H1143.83M1043.71 481.42V489.509M1043.71 481.42V461.769M1143.83 384.601H1043.71V456.473M1143.83 384.601H1153.41M1143.83 384.601V456.473M1143.83 481.42H1153.41M1143.83 481.42V461.769M1043.71 489.509V569.198H1276.73V489.509M1043.71 489.509H1276.73M1153.41 384.601H1276.73V481.42M1153.41 384.601V450.925V481.42M1153.41 481.42H1276.73M1043.71 456.473H1143.83M1043.71 456.473V461.769M1143.83 456.473V461.769M1143.83 461.769H1043.71" stroke="#93C5E0"/>
<circle cx="1112.81" cy="579.537" r="47.4625" stroke="#7CB8D8" stroke-width="12"/>
<path d="M1112.31 527.588V630.478" stroke="#7CB8D8" stroke-width="5"/>
<path d="M1061.11 578.265H1163.5M1148.87 542.719L1076.5 615.095M1148.37 615.347L1077.51 543.98" stroke="#7CB8D8" stroke-width="5"/>
<circle cx="1112.25" cy="578.973" r="7.00104" fill="#8FC3DE"/>
<circle r="3.5" transform="matrix(-1 0 0 1 1253.5 609.5)" fill="#8FC3DE"/>
<path d="M1386.18 399.48C1384.97 402.91 1371.55 408.054 1371.55 408.054M1386.18 399.48C1386.12 398.259 1386.03 396.568 1385.62 395.193M1386.18 399.48C1386.74 400.489 1373.06 412.846 1367.26 417.133M1386.18 399.48C1389.81 397.866 1390.55 400.489 1390.46 402.002M1384.66 393.428C1384.16 392.923 1381.13 399.228 1374.83 399.228C1375.33 400.993 1371.55 408.054 1371.55 408.054M1384.66 393.428C1385.1 393.861 1385.4 394.485 1385.62 395.193M1384.66 393.428C1384.66 393.175 1384.16 390.603 1384.16 390.401M1371.55 408.054C1370.71 409.231 1368.67 412.694 1367.26 417.133M1385.62 395.193C1388.41 389.981 1396.01 377.268 1386.18 372.749C1372.45 366.444 1367.26 363.166 1367.26 379.305M1390.46 402.002C1383.65 405.953 1369.03 417.587 1364.99 432.516M1390.46 402.002C1393.91 407.045 1400.8 428.43 1400.8 473.621M1364.99 432.516C1363.82 428.817 1362.62 420.562 1367.26 417.133M1364.99 432.516C1364.77 437.068 1364.35 444.741 1364.19 449.916M1400.8 473.621C1402.65 479.842 1405.8 492.636 1403.58 494.048C1403.29 494.233 1402.8 494.589 1402.14 495.057M1400.8 473.621C1399.29 476.984 1395.46 483.91 1392.23 483.709M1400.8 473.621C1398.28 474.21 1392.88 475.034 1393.49 476.648M1364.99 473.621C1367.01 475.235 1364.15 487.912 1362.47 494.048C1363.8 495.493 1365.15 496.73 1366.51 497.781M1364.24 455.212C1364.1 454.721 1364.1 452.673 1364.19 449.916M1364.19 449.916C1363.7 450.084 1362.52 451.177 1361.71 454.203C1351.96 462.021 1331.96 477.808 1329.94 478.413C1327.42 479.169 1322.63 478.917 1321.11 481.187M1366.51 497.781C1361.21 510.491 1350.57 538.432 1350.37 548.519C1350.11 561.128 1348.6 618.121 1350.37 619.13M1366.51 497.781C1381.26 509.219 1396.98 498.719 1402.14 495.057M1350.37 619.13C1352.13 620.139 1359.95 624.426 1363.98 619.13M1350.37 619.13C1348.35 621.484 1340.03 621.652 1329.94 624.426C1325.99 626.78 1324.9 631.588 1352.13 631.991C1379.37 632.395 1365.75 621.4 1363.98 619.13M1363.98 619.13C1367.21 614.893 1370.2 572.645 1371.3 552.05M1371.3 552.05C1373.3 548.908 1375.64 545.2 1378.11 541.206M1371.3 552.05C1370.37 553.058 1367.82 554.975 1364.99 554.572M1371.3 552.05C1371.05 554.235 1369.68 558.909 1366.25 560.12M1402.14 495.057C1404.52 497.055 1389.78 522.326 1378.11 541.206M1404.33 494.048C1400.89 510.692 1395.92 547.51 1399.54 553.815M1399.54 553.815C1406.35 565.668 1425.01 601.225 1424.51 603.243M1399.54 553.815C1398.28 554.067 1395.41 554.017 1393.99 551.798M1399.54 553.815C1398.53 554.572 1396.57 556.639 1396.77 558.859M1399.54 553.815L1393.99 557.093M1424.51 603.243C1424 605.26 1422.99 611.06 1418.46 612.069M1424.51 603.243C1427.79 603.411 1434.24 605.058 1433.84 610.304C1433.33 616.86 1417.45 629.217 1410.64 631.739C1403.83 634.261 1405.18 628.794 1406.35 627.452C1408.12 625.435 1415.68 625.182 1416.44 620.391C1417.04 616.558 1418.04 613.246 1418.46 612.069M1418.46 612.069C1413.92 613.078 1381.63 564.154 1380.63 560.12C1378.83 552.889 1378.86 546.081 1378.11 541.206" stroke="#93C5E0"/>
<path d="M1374.83 399.228C1368.42 399.228 1365.11 396.485 1365.5 389.393C1366.25 375.523 1370.04 374.766 1375.08 374.766C1378.69 374.766 1383.91 375.018 1384.16 382.584" stroke="#93C5E0"/>
<rect x="1084.06" y="469.582" width="18.1658" height="3.53927" rx="1.76963" stroke="#93C5E0"/>
<rect x="1044.21" y="360.64" width="99.3682" height="18.1658" stroke="#93C5E0"/>
<rect x="1153.66" y="360.64" width="122.569" height="18.1658" stroke="#93C5E0"/>
<path d="M1385.64 386.41L1385.64 386.433V386.457C1385.64 387.521 1385.31 388.54 1384.84 389.281C1384.34 390.046 1383.77 390.406 1383.33 390.406C1383.12 390.406 1382.97 390.335 1382.83 390.193C1382.69 390.036 1382.55 389.78 1382.44 389.408C1382.21 388.66 1382.14 387.611 1382.14 386.457C1382.14 385.26 1382.14 384.559 1382.32 384.052C1382.47 383.621 1382.76 383.297 1383.53 382.961C1383.86 382.816 1384.14 382.803 1384.38 382.872C1384.62 382.941 1384.86 383.105 1385.07 383.388C1385.5 383.965 1385.78 384.999 1385.64 386.41Z" stroke="#93C5E0"/>
<path d="M1385.42 417.889C1386.43 418.814 1387.84 424.446 1385.42 439.577" stroke="#93C5E0" stroke-width="0.65"/>
<path d="M1054.3 408.932C1054.3 400.924 1060.79 394.432 1068.8 394.432H1118.99C1127 394.432 1133.49 400.924 1133.49 408.932V443.107V445.125V455.973H1054.3V408.932Z" stroke="#93C5E0"/>
<mask id="path-49-inside-1_257_2" fill="white">
<path fill-rule="evenodd" clip-rule="evenodd" d="M1066.46 445.383C1066.54 445.201 1066.59 444.998 1066.59 444.784C1066.59 443.997 1065.95 443.359 1065.17 443.359C1064.38 443.359 1063.74 443.997 1063.74 444.784C1063.74 445.006 1063.79 445.215 1063.88 445.402C1063.85 445.401 1063.83 445.4 1063.8 445.4C1063.01 445.4 1062.38 446.038 1062.38 446.825C1062.38 447.611 1063.01 448.249 1063.8 448.249C1064.35 448.249 1064.83 447.935 1065.07 447.476C1065.31 447.923 1065.78 448.226 1066.32 448.226C1067.11 448.226 1067.75 447.588 1067.75 446.801C1067.75 446.061 1067.18 445.453 1066.46 445.383Z"/>
</mask>
<path d="M1066.46 445.383L1066.01 445.173L1065.71 445.814L1066.41 445.881L1066.46 445.383ZM1063.88 445.402L1063.85 445.902L1064.7 445.95L1064.33 445.185L1063.88 445.402ZM1065.07 447.476L1065.51 447.239L1065.06 446.404L1064.62 447.247L1065.07 447.476ZM1066.09 444.784C1066.09 444.924 1066.06 445.055 1066.01 445.173L1066.91 445.594C1067.03 445.347 1067.09 445.072 1067.09 444.784H1066.09ZM1065.17 443.859C1065.68 443.859 1066.09 444.273 1066.09 444.784H1067.09C1067.09 443.721 1066.23 442.859 1065.17 442.859V443.859ZM1064.24 444.784C1064.24 444.273 1064.66 443.859 1065.17 443.859V442.859C1064.1 442.859 1063.24 443.721 1063.24 444.784H1064.24ZM1064.33 445.185C1064.27 445.064 1064.24 444.929 1064.24 444.784H1063.24C1063.24 445.082 1063.31 445.366 1063.43 445.62L1064.33 445.185ZM1063.8 445.9C1063.82 445.9 1063.84 445.901 1063.85 445.902L1063.91 444.903C1063.87 444.901 1063.84 444.9 1063.8 444.9V445.9ZM1062.88 446.825C1062.88 446.314 1063.29 445.9 1063.8 445.9V444.9C1062.74 444.9 1061.88 445.762 1061.88 446.825H1062.88ZM1063.8 447.749C1063.29 447.749 1062.88 447.335 1062.88 446.825H1061.88C1061.88 447.887 1062.74 448.749 1063.8 448.749V447.749ZM1064.62 447.247C1064.47 447.546 1064.16 447.749 1063.8 447.749V448.749C1064.55 448.749 1065.19 448.324 1065.51 447.705L1064.62 447.247ZM1064.63 447.713C1064.95 448.315 1065.59 448.726 1066.32 448.726V447.726C1065.97 447.726 1065.66 447.53 1065.51 447.239L1064.63 447.713ZM1066.32 448.726C1067.38 448.726 1068.25 447.864 1068.25 446.801H1067.25C1067.25 447.312 1066.83 447.726 1066.32 447.726V448.726ZM1068.25 446.801C1068.25 445.801 1067.48 444.979 1066.51 444.886L1066.41 445.881C1066.88 445.926 1067.25 446.321 1067.25 446.801H1068.25Z" fill="#93C5E0" mask="url(#path-49-inside-1_257_2)"/>
<mask id="path-51-inside-2_257_2" fill="white">
<path fill-rule="evenodd" clip-rule="evenodd" d="M1079.07 434.287C1079.15 434.105 1079.2 433.902 1079.2 433.688C1079.2 432.901 1078.56 432.263 1077.78 432.263C1076.99 432.263 1076.35 432.901 1076.35 433.688C1076.35 433.91 1076.4 434.119 1076.49 434.306C1076.46 434.305 1076.44 434.304 1076.41 434.304C1075.62 434.304 1074.98 434.942 1074.98 435.728C1074.98 436.515 1075.62 437.153 1076.41 437.153C1076.96 437.153 1077.44 436.839 1077.68 436.38C1077.92 436.827 1078.39 437.13 1078.93 437.13C1079.72 437.13 1080.36 436.492 1080.36 435.705C1080.36 434.965 1079.79 434.357 1079.07 434.287Z"/>
</mask>
<path d="M1079.07 434.287L1078.61 434.077L1078.32 434.718L1079.02 434.785L1079.07 434.287ZM1076.49 434.306L1076.46 434.806L1077.31 434.854L1076.94 434.089L1076.49 434.306ZM1077.68 436.38L1078.12 436.143L1077.67 435.308L1077.23 436.151L1077.68 436.38ZM1078.7 433.688C1078.7 433.828 1078.67 433.959 1078.61 434.077L1079.52 434.498C1079.64 434.251 1079.7 433.976 1079.7 433.688H1078.7ZM1077.78 432.763C1078.29 432.763 1078.7 433.177 1078.7 433.688H1079.7C1079.7 432.625 1078.84 431.763 1077.78 431.763V432.763ZM1076.85 433.688C1076.85 433.177 1077.26 432.763 1077.78 432.763V431.763C1076.71 431.763 1075.85 432.625 1075.85 433.688H1076.85ZM1076.94 434.089C1076.88 433.968 1076.85 433.833 1076.85 433.688H1075.85C1075.85 433.986 1075.92 434.27 1076.04 434.524L1076.94 434.089ZM1076.41 434.804C1076.43 434.804 1076.45 434.804 1076.46 434.806L1076.52 433.807C1076.48 433.805 1076.45 433.804 1076.41 433.804V434.804ZM1075.48 435.728C1075.48 435.218 1075.9 434.804 1076.41 434.804V433.804C1075.35 433.804 1074.48 434.666 1074.48 435.728H1075.48ZM1076.41 436.653C1075.9 436.653 1075.48 436.239 1075.48 435.728H1074.48C1074.48 436.791 1075.35 437.653 1076.41 437.653V436.653ZM1077.23 436.151C1077.08 436.45 1076.77 436.653 1076.41 436.653V437.653C1077.16 437.653 1077.8 437.228 1078.12 436.609L1077.23 436.151ZM1077.24 436.617C1077.56 437.219 1078.2 437.63 1078.93 437.63V436.63C1078.58 436.63 1078.27 436.434 1078.12 436.143L1077.24 436.617ZM1078.93 437.63C1079.99 437.63 1080.86 436.768 1080.86 435.705H1079.86C1079.86 436.216 1079.44 436.63 1078.93 436.63V437.63ZM1080.86 435.705C1080.86 434.705 1080.09 433.883 1079.12 433.79L1079.02 434.785C1079.49 434.83 1079.86 435.225 1079.86 435.705H1080.86Z" fill="#93C5E0" mask="url(#path-51-inside-2_257_2)"/>
<mask id="path-53-inside-3_257_2" fill="white">
<path fill-rule="evenodd" clip-rule="evenodd" d="M1087.14 418.148C1087.22 417.966 1087.27 417.763 1087.27 417.548C1087.27 416.762 1086.63 416.124 1085.85 416.124C1085.06 416.124 1084.42 416.762 1084.42 417.548C1084.42 417.77 1084.47 417.98 1084.56 418.167C1084.53 418.165 1084.51 418.164 1084.48 418.164C1083.69 418.164 1083.05 418.802 1083.05 419.589C1083.05 420.376 1083.69 421.013 1084.48 421.013C1085.03 421.013 1085.51 420.7 1085.75 420.241C1085.99 420.687 1086.46 420.99 1087 420.99C1087.79 420.99 1088.43 420.353 1088.43 419.566C1088.43 418.825 1087.86 418.217 1087.14 418.148Z"/>
</mask>
<path d="M1087.14 418.148L1086.68 417.937L1086.39 418.578L1087.09 418.646L1087.14 418.148ZM1084.56 418.167L1084.53 418.666L1085.38 418.715L1085.01 417.949L1084.56 418.167ZM1085.75 420.241L1086.19 420.003L1085.74 419.168L1085.3 420.012L1085.75 420.241ZM1086.77 417.548C1086.77 417.688 1086.74 417.82 1086.68 417.937L1087.59 418.359C1087.71 418.112 1087.77 417.837 1087.77 417.548H1086.77ZM1085.85 416.624C1086.36 416.624 1086.77 417.038 1086.77 417.548H1087.77C1087.77 416.485 1086.91 415.624 1085.85 415.624V416.624ZM1084.92 417.548C1084.92 417.038 1085.33 416.624 1085.85 416.624V415.624C1084.78 415.624 1083.92 416.486 1083.92 417.548H1084.92ZM1085.01 417.949C1084.95 417.829 1084.92 417.693 1084.92 417.548H1083.92C1083.92 417.847 1083.99 418.131 1084.11 418.384L1085.01 417.949ZM1084.48 418.664C1084.5 418.664 1084.52 418.665 1084.53 418.666L1084.59 417.668C1084.55 417.666 1084.52 417.664 1084.48 417.664V418.664ZM1083.55 419.589C1083.55 419.078 1083.97 418.664 1084.48 418.664V417.664C1083.42 417.664 1082.55 418.526 1082.55 419.589H1083.55ZM1084.48 420.513C1083.97 420.513 1083.55 420.1 1083.55 419.589H1082.55C1082.55 420.652 1083.42 421.513 1084.48 421.513V420.513ZM1085.3 420.012C1085.15 420.311 1084.84 420.513 1084.48 420.513V421.513C1085.23 421.513 1085.87 421.089 1086.19 420.47L1085.3 420.012ZM1085.31 420.478C1085.63 421.08 1086.27 421.49 1087 421.49V420.49C1086.65 420.49 1086.34 420.294 1086.19 420.003L1085.31 420.478ZM1087 421.49C1088.06 421.49 1088.93 420.629 1088.93 419.566H1087.93C1087.93 420.076 1087.51 420.49 1087 420.49V421.49ZM1088.93 419.566C1088.93 418.565 1088.16 417.744 1087.19 417.65L1087.09 418.646C1087.56 418.69 1087.93 419.086 1087.93 419.566H1088.93Z" fill="#93C5E0" mask="url(#path-53-inside-3_257_2)"/>
<mask id="path-55-inside-4_257_2" fill="white">
<path fill-rule="evenodd" clip-rule="evenodd" d="M1105.29 424.2C1105.38 424.018 1105.43 423.815 1105.43 423.601C1105.43 422.814 1104.79 422.176 1104 422.176C1103.22 422.176 1102.58 422.814 1102.58 423.601C1102.58 423.822 1102.63 424.032 1102.72 424.219C1102.69 424.218 1102.66 424.217 1102.64 424.217C1101.85 424.217 1101.21 424.855 1101.21 425.641C1101.21 426.428 1101.85 427.066 1102.64 427.066C1103.19 427.066 1103.67 426.752 1103.9 426.293C1104.14 426.739 1104.61 427.043 1105.16 427.043C1105.94 427.043 1106.58 426.405 1106.58 425.618C1106.58 424.878 1106.02 424.269 1105.29 424.2Z"/>
</mask>
<path d="M1105.29 424.2L1104.84 423.99L1104.54 424.631L1105.25 424.698L1105.29 424.2ZM1102.72 424.219L1102.69 424.718L1103.54 424.767L1103.17 424.002L1102.72 424.219ZM1103.9 426.293L1104.34 426.056L1103.89 425.221L1103.46 426.064L1103.9 426.293ZM1104.93 423.601C1104.93 423.741 1104.9 423.872 1104.84 423.99L1105.75 424.411C1105.86 424.164 1105.93 423.889 1105.93 423.601H1104.93ZM1104 422.676C1104.51 422.676 1104.93 423.09 1104.93 423.601H1105.93C1105.93 422.538 1105.06 421.676 1104 421.676V422.676ZM1103.08 423.601C1103.08 423.09 1103.49 422.676 1104 422.676V421.676C1102.94 421.676 1102.08 422.538 1102.08 423.601H1103.08ZM1103.17 424.002C1103.11 423.881 1103.08 423.746 1103.08 423.601H1102.08C1102.08 423.899 1102.15 424.183 1102.27 424.437L1103.17 424.002ZM1102.64 424.717C1102.65 424.717 1102.67 424.717 1102.69 424.718L1102.75 423.72C1102.71 423.718 1102.67 423.717 1102.64 423.717V424.717ZM1101.71 425.641C1101.71 425.131 1102.12 424.717 1102.64 424.717V423.717C1101.57 423.717 1100.71 424.578 1100.71 425.641H1101.71ZM1102.64 426.566C1102.12 426.566 1101.71 426.152 1101.71 425.641H1100.71C1100.71 426.704 1101.57 427.566 1102.64 427.566V426.566ZM1103.46 426.064C1103.3 426.363 1102.99 426.566 1102.64 426.566V427.566C1103.38 427.566 1104.03 427.141 1104.35 426.522L1103.46 426.064ZM1103.46 426.53C1103.79 427.132 1104.42 427.543 1105.16 427.543V426.543C1104.81 426.543 1104.5 426.347 1104.34 426.056L1103.46 426.53ZM1105.16 427.543C1106.22 427.543 1107.08 426.681 1107.08 425.618H1106.08C1106.08 426.129 1105.67 426.543 1105.16 426.543V427.543ZM1107.08 425.618C1107.08 424.618 1106.32 423.796 1105.34 423.702L1105.25 424.698C1105.72 424.743 1106.08 425.138 1106.08 425.618H1107.08Z" fill="#93C5E0" mask="url(#path-55-inside-4_257_2)"/>
<mask id="path-57-inside-5_257_2" fill="white">
<path fill-rule="evenodd" clip-rule="evenodd" d="M1126.48 445.384C1126.56 445.201 1126.61 444.998 1126.61 444.784C1126.61 443.997 1125.97 443.36 1125.19 443.36C1124.4 443.36 1123.76 443.997 1123.76 444.784C1123.76 445.006 1123.81 445.216 1123.9 445.403C1123.87 445.401 1123.85 445.4 1123.82 445.4C1123.03 445.4 1122.39 446.038 1122.39 446.825C1122.39 447.611 1123.03 448.249 1123.82 448.249C1124.37 448.249 1124.85 447.935 1125.09 447.476C1125.33 447.923 1125.8 448.226 1126.34 448.226C1127.13 448.226 1127.77 447.588 1127.77 446.802C1127.77 446.061 1127.2 445.453 1126.48 445.384Z"/>
</mask>
<path d="M1126.48 445.384L1126.02 445.173L1125.73 445.814L1126.43 445.881L1126.48 445.384ZM1123.9 445.403L1123.87 445.902L1124.72 445.95L1124.35 445.185L1123.9 445.403ZM1125.09 447.476L1125.53 447.239L1125.08 446.404L1124.64 447.247L1125.09 447.476ZM1126.11 444.784C1126.11 444.924 1126.08 445.055 1126.02 445.173L1126.93 445.594C1127.05 445.347 1127.11 445.073 1127.11 444.784H1126.11ZM1125.19 443.86C1125.7 443.86 1126.11 444.274 1126.11 444.784H1127.11C1127.11 443.721 1126.25 442.86 1125.19 442.86V443.86ZM1124.26 444.784C1124.26 444.274 1124.68 443.86 1125.19 443.86V442.86C1124.12 442.86 1123.26 443.721 1123.26 444.784H1124.26ZM1124.35 445.185C1124.29 445.064 1124.26 444.929 1124.26 444.784H1123.26C1123.26 445.083 1123.33 445.367 1123.45 445.62L1124.35 445.185ZM1123.82 445.9C1123.84 445.9 1123.86 445.901 1123.87 445.902L1123.93 444.903C1123.89 444.901 1123.86 444.9 1123.82 444.9V445.9ZM1122.89 446.825C1122.89 446.314 1123.31 445.9 1123.82 445.9V444.9C1122.76 444.9 1121.89 445.762 1121.89 446.825H1122.89ZM1123.82 447.749C1123.31 447.749 1122.89 447.335 1122.89 446.825H1121.89C1121.89 447.888 1122.76 448.749 1123.82 448.749V447.749ZM1124.64 447.247C1124.49 447.546 1124.18 447.749 1123.82 447.749V448.749C1124.57 448.749 1125.21 448.324 1125.53 447.705L1124.64 447.247ZM1124.65 447.714C1124.97 448.315 1125.61 448.726 1126.34 448.726V447.726C1125.99 447.726 1125.68 447.53 1125.53 447.239L1124.65 447.714ZM1126.34 448.726C1127.4 448.726 1128.27 447.864 1128.27 446.802H1127.27C1127.27 447.312 1126.85 447.726 1126.34 447.726V448.726ZM1128.27 446.802C1128.27 445.801 1127.5 444.979 1126.53 444.886L1126.43 445.881C1126.9 445.926 1127.27 446.321 1127.27 446.802H1128.27Z" fill="#93C5E0" mask="url(#path-57-inside-5_257_2)"/>
<mask id="path-59-inside-6_257_2" fill="white">
<path fill-rule="evenodd" clip-rule="evenodd" d="M1108.32 440.34C1108.41 440.158 1108.45 439.954 1108.45 439.74C1108.45 438.954 1107.82 438.316 1107.03 438.316C1106.24 438.316 1105.6 438.954 1105.6 439.74C1105.6 439.962 1105.65 440.172 1105.74 440.359C1105.72 440.357 1105.69 440.356 1105.66 440.356C1104.88 440.356 1104.24 440.994 1104.24 441.781C1104.24 442.568 1104.88 443.206 1105.66 443.206C1106.21 443.206 1106.69 442.892 1106.93 442.433C1107.17 442.879 1107.64 443.182 1108.18 443.182C1108.97 443.182 1109.61 442.545 1109.61 441.758C1109.61 441.017 1109.04 440.409 1108.32 440.34Z"/>
</mask>
<path d="M1108.32 440.34L1107.87 440.129L1107.57 440.77L1108.27 440.838L1108.32 440.34ZM1105.74 440.359L1105.72 440.858L1106.56 440.907L1106.2 440.141L1105.74 440.359ZM1106.93 442.433L1107.37 442.195L1106.92 441.36L1106.48 442.204L1106.93 442.433ZM1107.95 439.74C1107.95 439.88 1107.92 440.012 1107.87 440.129L1108.77 440.551C1108.89 440.304 1108.95 440.029 1108.95 439.74H1107.95ZM1107.03 438.816C1107.54 438.816 1107.95 439.23 1107.95 439.74H1108.95C1108.95 438.677 1108.09 437.816 1107.03 437.816V438.816ZM1106.1 439.74C1106.1 439.23 1106.52 438.816 1107.03 438.816V437.816C1105.97 437.816 1105.1 438.677 1105.1 439.74H1106.1ZM1106.2 440.141C1106.14 440.021 1106.1 439.885 1106.1 439.74H1105.1C1105.1 440.039 1105.17 440.323 1105.29 440.576L1106.2 440.141ZM1105.66 440.856C1105.68 440.856 1105.7 440.857 1105.72 440.858L1105.77 439.86C1105.74 439.858 1105.7 439.856 1105.66 439.856V440.856ZM1104.74 441.781C1104.74 441.27 1105.15 440.856 1105.66 440.856V439.856C1104.6 439.856 1103.74 440.718 1103.74 441.781H1104.74ZM1105.66 442.706C1105.15 442.706 1104.74 442.292 1104.74 441.781H1103.74C1103.74 442.844 1104.6 443.706 1105.66 443.706V442.706ZM1106.48 442.204C1106.33 442.503 1106.02 442.706 1105.66 442.706V443.706C1106.41 443.706 1107.05 443.281 1107.37 442.662L1106.48 442.204ZM1106.49 442.67C1106.81 443.272 1107.45 443.682 1108.18 443.682V442.682C1107.83 442.682 1107.53 442.486 1107.37 442.195L1106.49 442.67ZM1108.18 443.682C1109.25 443.682 1110.11 442.821 1110.11 441.758H1109.11C1109.11 442.268 1108.69 442.682 1108.18 442.682V443.682ZM1110.11 441.758C1110.11 440.757 1109.35 439.936 1108.37 439.842L1108.27 440.838C1108.74 440.882 1109.11 441.278 1109.11 441.758H1110.11Z" fill="#93C5E0" mask="url(#path-59-inside-6_257_2)"/>
<mask id="path-61-inside-7_257_2" fill="white">
<path fill-rule="evenodd" clip-rule="evenodd" d="M1092.69 447.905C1092.77 447.723 1092.82 447.52 1092.82 447.306C1092.82 446.519 1092.18 445.881 1091.39 445.881C1090.61 445.881 1089.97 446.519 1089.97 447.306C1089.97 447.528 1090.02 447.737 1090.11 447.924C1090.08 447.923 1090.05 447.922 1090.03 447.922C1089.24 447.922 1088.6 448.56 1088.6 449.347C1088.6 450.133 1089.24 450.771 1090.03 450.771C1090.58 450.771 1091.06 450.457 1091.29 449.998C1091.53 450.445 1092.01 450.748 1092.55 450.748C1093.34 450.748 1093.97 450.11 1093.97 449.323C1093.97 448.583 1093.41 447.975 1092.69 447.905Z"/>
</mask>
<path d="M1092.69 447.905L1092.23 447.695L1091.93 448.336L1092.64 448.403L1092.69 447.905ZM1090.11 447.924L1090.08 448.424L1090.93 448.472L1090.56 447.707L1090.11 447.924ZM1091.29 449.998L1091.73 449.761L1091.28 448.926L1090.85 449.769L1091.29 449.998ZM1092.32 447.306C1092.32 447.446 1092.29 447.577 1092.23 447.695L1093.14 448.116C1093.25 447.869 1093.32 447.594 1093.32 447.306H1092.32ZM1091.39 446.381C1091.9 446.381 1092.32 446.795 1092.32 447.306H1093.32C1093.32 446.243 1092.46 445.381 1091.39 445.381V446.381ZM1090.47 447.306C1090.47 446.795 1090.88 446.381 1091.39 446.381V445.381C1090.33 445.381 1089.47 446.243 1089.47 447.306H1090.47ZM1090.56 447.707C1090.5 447.586 1090.47 447.451 1090.47 447.306H1089.47C1089.47 447.604 1089.54 447.888 1089.66 448.142L1090.56 447.707ZM1090.03 448.422C1090.04 448.422 1090.06 448.423 1090.08 448.424L1090.14 447.425C1090.1 447.423 1090.06 447.422 1090.03 447.422V448.422ZM1089.1 449.347C1089.1 448.836 1089.52 448.422 1090.03 448.422V447.422C1088.96 447.422 1088.1 448.284 1088.1 449.347H1089.1ZM1090.03 450.271C1089.52 450.271 1089.1 449.857 1089.1 449.347H1088.1C1088.1 450.409 1088.96 451.271 1090.03 451.271V450.271ZM1090.85 449.769C1090.69 450.068 1090.38 450.271 1090.03 450.271V451.271C1090.77 451.271 1091.42 450.846 1091.74 450.227L1090.85 449.769ZM1090.85 450.235C1091.18 450.837 1091.81 451.248 1092.55 451.248V450.248C1092.2 450.248 1091.89 450.052 1091.73 449.761L1090.85 450.235ZM1092.55 451.248C1093.61 451.248 1094.47 450.386 1094.47 449.323H1093.47C1093.47 449.834 1093.06 450.248 1092.55 450.248V451.248ZM1094.47 449.323C1094.47 448.323 1093.71 447.501 1092.73 447.408L1092.64 448.403C1093.11 448.448 1093.47 448.843 1093.47 449.323H1094.47Z" fill="#93C5E0" mask="url(#path-61-inside-7_257_2)"/>
<path d="M1198.04 480.687V453.442H1259.59V480.687H1198.04Z" stroke="#93C5E0"/>
<path d="M1208.61 474.598C1208.61 475.397 1208.29 476.164 1207.73 476.729C1207.16 477.294 1206.4 477.611 1205.6 477.611C1204.8 477.611 1204.03 477.294 1203.47 476.729L1203.11 477.082L1203.47 476.729C1202.9 476.164 1202.58 475.397 1202.58 474.598V465.231C1202.58 464.432 1202.9 463.666 1203.47 463.101C1204.03 462.536 1204.8 462.219 1205.6 462.219C1206.4 462.219 1207.16 462.536 1207.73 463.101C1208.29 463.666 1208.61 464.432 1208.61 465.231V474.598Z" stroke="#93C5E0"/>
<rect x="1194.01" y="446.886" width="69.6108" height="6.06108" rx="3.03054" stroke="#93C5E0"/>
<mask id="path-66-inside-8_257_2" fill="white">
<path d="M1238.9 446.89C1238.9 444.616 1238 442.435 1236.39 440.827C1234.78 439.219 1232.6 438.316 1230.33 438.316C1228.05 438.316 1225.87 439.219 1224.27 440.827C1222.66 442.435 1221.75 444.616 1221.75 446.89H1224.47C1224.47 445.335 1225.08 443.844 1226.18 442.745C1227.28 441.645 1228.77 441.027 1230.33 441.027C1231.88 441.027 1233.37 441.645 1234.47 442.745C1235.57 443.844 1236.19 445.335 1236.19 446.89H1238.9Z"/>
</mask>
<path d="M1238.9 446.89C1238.9 444.616 1238 442.435 1236.39 440.827C1234.78 439.219 1232.6 438.316 1230.33 438.316C1228.05 438.316 1225.87 439.219 1224.27 440.827C1222.66 442.435 1221.75 444.616 1221.75 446.89H1224.47C1224.47 445.335 1225.08 443.844 1226.18 442.745C1227.28 441.645 1228.77 441.027 1230.33 441.027C1231.88 441.027 1233.37 441.645 1234.47 442.745C1235.57 443.844 1236.19 445.335 1236.19 446.89H1238.9Z" stroke="#93C5E0" stroke-width="2" mask="url(#path-66-inside-8_257_2)"/>
<mask id="path-67-inside-9_257_2" fill="white">
<path fill-rule="evenodd" clip-rule="evenodd" d="M1170.9 450.421H1153.16V481.691H1153.16V455.969H1165.86C1171.38 455.969 1175.86 460.446 1175.86 465.969V481.691H1180.9V460.421C1180.9 454.898 1176.42 450.421 1170.9 450.421Z"/>
</mask>
<path fill-rule="evenodd" clip-rule="evenodd" d="M1170.9 450.421H1153.16V481.691H1153.16V455.969H1165.86C1171.38 455.969 1175.86 460.446 1175.86 465.969V481.691H1180.9V460.421C1180.9 454.898 1176.42 450.421 1170.9 450.421Z" fill="#59A7D3"/>
<path d="M1153.16 450.421V449.421H1152.16V450.421H1153.16ZM1153.16 481.691H1152.16V482.691H1153.16V481.691ZM1153.16 481.691V482.691H1154.16V481.691H1153.16ZM1153.16 455.969V454.969H1152.16V455.969H1153.16ZM1175.86 481.691H1174.86V482.691H1175.86V481.691ZM1180.9 481.691V482.691H1181.9V481.691H1180.9ZM1153.16 451.421H1170.9V449.421H1153.16V451.421ZM1154.16 481.691V450.421H1152.16V481.691H1154.16ZM1153.16 480.691H1153.16V482.691H1153.16V480.691ZM1154.16 481.691V455.969H1152.16V481.691H1154.16ZM1153.16 456.969H1165.86V454.969H1153.16V456.969ZM1165.86 456.969C1170.83 456.969 1174.86 460.998 1174.86 465.969H1176.86C1176.86 459.893 1171.93 454.969 1165.86 454.969V456.969ZM1174.86 465.969V481.691H1176.86V465.969H1174.86ZM1180.9 480.691H1175.86V482.691H1180.9V480.691ZM1179.9 460.421V481.691H1181.9V460.421H1179.9ZM1170.9 451.421C1175.87 451.421 1179.9 455.45 1179.9 460.421H1181.9C1181.9 454.345 1176.98 449.421 1170.9 449.421V451.421Z" fill="#93C5E0" mask="url(#path-67-inside-9_257_2)"/>
<rect x="1272.75" y="392.642" width="4.0349" height="1.00873" fill="#ACD3E9"/>
<path d="M1274.26 395.668H1273V392.419H1271.99C1271.99 400.993 1272.29 420.714 1271.69 421.924C1270.93 423.437 1264.42 424.417 1263.67 422.4C1263.06 420.786 1267.95 418.533 1270.48 417.608V392.138C1270.48 390.373 1274.26 390.877 1274.26 391.381C1274.26 391.633 1274.26 394.155 1274.26 395.668Z" stroke="#93C5E0" stroke-linecap="round"/>
<path d="M1270.93 420.159C1270.68 420.915 1269.27 422.328 1265.63 421.924" stroke="#93C5E0" stroke-width="0.5" stroke-linecap="round"/>
<path d="M1244.45 456.725C1248.06 456.052 1255.5 456.019 1256.3 461.264C1257.11 466.51 1256.64 473.033 1256.3 475.639" stroke="#93C5E0" stroke-width="0.65" stroke-linecap="round"/>
<defs>
<linearGradient id="paint0_linear_257_2" x1="1174.5" y1="-227.399" x2="1174.5" y2="296" gradientUnits="userSpaceOnUse">
<stop offset="0.397842" stop-color="#6AAED5" stop-opacity="0"/>
<stop offset="1" stop-color="#6AAED5"/>
</linearGradient>
<linearGradient id="paint1_linear_257_2" x1="226.5" y1="1021.4" x2="226.5" y2="455" gradientUnits="userSpaceOnUse">
<stop offset="0.208851" stop-color="#6AAED5" stop-opacity="0"/>
<stop offset="1" stop-color="#6AAED5"/>
</linearGradient>
<clipPath id="clip0_257_2">
<rect width="25.2345" height="25.2345" fill="white" transform="matrix(-0.998808 0.048803 0.048803 0.998808 122.701 379.471)"/>
</clipPath>
</defs>
</svg>
