<svg width="25" height="25" viewBox="0 0 25 25" fill="none" xmlns="http://www.w3.org/2000/svg">
<path fill-rule="evenodd" clip-rule="evenodd" d="M12.5 1.04175C6.1719 1.04175 1.04169 6.17196 1.04169 12.5001C1.04169 18.8282 6.1719 23.9584 12.5 23.9584C18.8281 23.9584 23.9584 18.8282 23.9584 12.5001C23.9584 6.17196 18.8281 1.04175 12.5 1.04175ZM17.4667 10.5626C17.5581 10.458 17.6278 10.3363 17.6715 10.2044C17.7152 10.0726 17.732 9.93332 17.7211 9.79486C17.7102 9.65639 17.6717 9.5215 17.6079 9.39813C17.5441 9.27476 17.4563 9.1654 17.3495 9.07648C17.2428 8.98756 17.1194 8.92088 16.9866 8.88035C16.8537 8.83983 16.7141 8.82629 16.5759 8.84053C16.4378 8.85476 16.3038 8.89648 16.182 8.96324C16.0602 9.03 15.953 9.12044 15.8667 9.22925L11.3875 14.6032L9.06981 12.2845C8.87335 12.0947 8.61022 11.9897 8.3371 11.9921C8.06398 11.9945 7.80272 12.104 7.60958 12.2971C7.41645 12.4903 7.3069 12.7515 7.30453 13.0247C7.30215 13.2978 7.40715 13.5609 7.5969 13.7574L10.7219 16.8824C10.8242 16.9847 10.9468 17.0645 11.0817 17.1168C11.2166 17.1691 11.361 17.1927 11.5055 17.1862C11.6501 17.1796 11.7917 17.143 11.9213 17.0787C12.0509 17.0144 12.1657 16.9237 12.2584 16.8126L17.4667 10.5626Z" fill="#2BA96F"/>
</svg>
