
<svg width="1269" height="145" viewBox="0 0 1269 145" fill="none" xmlns="http://www.w3.org/2000/svg">
<g clip-path="url(#clip0_1421_12)">
<path d="M-7.5 57.0211V-828.617C33.2575 -850.764 141.32 -900.404 245.327 -878.22C289.734 -868.749 321.505 -858.558 348.233 -849.852C349.149 -849.553 350.06 -849.257 350.965 -848.962C376.442 -840.658 397.56 -833.775 421.011 -830.388C469.642 -823.364 528.109 -831.391 656.76 -872.004C707.681 -888.079 749.076 -891.677 785.341 -888.39C821.619 -885.102 852.837 -874.918 883.437 -863.327C890.371 -860.7 897.273 -858.001 904.194 -855.294C958.347 -834.116 1013.66 -812.481 1094.32 -821.745C1176.01 -831.128 1223.34 -846.551 1260.66 -858.717C1264.78 -860.058 1268.77 -861.36 1272.68 -862.609C1311.58 -875.057 1341.6 -882.328 1395.5 -872.192V142.754C1359.81 127.951 1330.91 115.548 1306.71 105.165C1265.22 87.3629 1237.57 75.5001 1213.32 67.6623C1174.5 55.1136 1144.29 52.8353 1080.12 52.8353C1047.86 52.8353 1017.32 59.1511 986.681 67.7751C971.364 72.0867 956.007 76.9805 940.403 81.954L940.315 81.9822C924.731 86.949 908.898 91.9954 892.565 96.6387C827.159 115.232 753.78 127.346 657.573 101.561C561.019 75.6821 504.415 64.2867 452.723 65.0899C401.023 65.8932 354.327 78.9005 277.648 101.571C210.233 121.503 146.323 117.742 95.4832 105.228C45.0786 92.8213 7.69354 71.8564 -7.5 57.0211Z" fill="#ffffff" stroke="#3B8659" stroke-width="3"/>
</g>
<defs>
<clipPath id="clip0_1421_12">
<rect width="1269" height="145" fill="white"/>
</clipPath>
</defs>
</svg>
