<svg width="29" height="29" viewBox="0 0 29 29" fill="none" xmlns="http://www.w3.org/2000/svg">
<path d="M5.83757 5.67796C6.16574 5.34989 6.61078 5.16559 7.07482 5.16559C7.53886 5.16559 7.9839 5.34989 8.31207 5.67796L14.5001 11.866L20.6881 5.67796C21.0181 5.35919 21.4602 5.1828 21.919 5.18679C22.3779 5.19077 22.8168 5.37482 23.1413 5.69928C23.4657 6.02375 23.6498 6.46267 23.6537 6.92151C23.6577 7.38036 23.4813 7.82241 23.1626 8.15246L16.9746 14.3405L23.1626 20.5285C23.4813 20.8585 23.6577 21.3006 23.6537 21.7594C23.6498 22.2183 23.4657 22.6572 23.1413 22.9816C22.8168 23.3061 22.3779 23.4902 21.919 23.4941C21.4602 23.4981 21.0181 23.3217 20.6881 23.003L14.5001 16.815L8.31207 23.003C7.98202 23.3217 7.53996 23.4981 7.08112 23.4941C6.62228 23.4902 6.18335 23.3061 5.85889 22.9816C5.53442 22.6572 5.35038 22.2183 5.34639 21.7594C5.3424 21.3006 5.51879 20.8585 5.83757 20.5285L12.0256 14.3405L5.83757 8.15246C5.5095 7.82429 5.3252 7.37925 5.3252 6.91521C5.3252 6.45118 5.5095 6.00614 5.83757 5.67796Z" fill="#38BF6E"/>
</svg>
