<svg width="19" height="19" viewBox="0 0 19 19" fill="none" xmlns="http://www.w3.org/2000/svg">
<path d="M12.4688 9.5C12.4688 10.2874 12.156 11.0425 11.5992 11.5992C11.0425 12.156 10.2874 12.4688 9.5 12.4688C8.71264 12.4688 7.95753 12.156 7.40078 11.5992C6.84403 11.0425 6.53125 10.2874 6.53125 9.5C6.53125 8.71264 6.84403 7.95753 7.40078 7.40078C7.95753 6.84403 8.71264 6.53125 9.5 6.53125C10.2874 6.53125 11.0425 6.84403 11.5992 7.40078C12.156 7.95753 12.4688 8.71264 12.4688 9.5Z" fill="#C4C4C4"/>
<path d="M0 9.5C0 9.5 3.5625 2.96875 9.5 2.96875C15.4375 2.96875 19 9.5 19 9.5C19 9.5 15.4375 16.0312 9.5 16.0312C3.5625 16.0312 0 9.5 0 9.5ZM9.5 13.6562C10.6023 13.6562 11.6595 13.2184 12.4389 12.4389C13.2184 11.6595 13.6562 10.6023 13.6562 9.5C13.6562 8.39769 13.2184 7.34054 12.4389 6.56109C11.6595 5.78164 10.6023 5.34375 9.5 5.34375C8.39769 5.34375 7.34054 5.78164 6.56109 6.56109C5.78164 7.34054 5.34375 8.39769 5.34375 9.5C5.34375 10.6023 5.78164 11.6595 6.56109 12.4389C7.34054 13.2184 8.39769 13.6562 9.5 13.6562Z" fill="#C4C4C4"/>
</svg>
