<svg width="24" height="24" viewBox="0 0 24 24" fill="none" xmlns="http://www.w3.org/2000/svg">
<path d="M4.53273 0.5C2.2063 0.5 0.333069 2.37323 0.333069 4.69966V19.3004C0.333069 21.6268 2.2063 23.5 4.53273 23.5H12.4462V14.5084H10.0686V11.2712H12.4462V8.50545C12.4462 6.33252 13.851 4.33741 17.0871 4.33741C18.3974 4.33741 19.3663 4.4632 19.3663 4.4632L19.2901 7.48627C19.2901 7.48627 18.302 7.47693 17.2237 7.47693C16.0567 7.47693 15.8696 8.01463 15.8696 8.90726V11.2712H19.3828L19.2297 14.5085H15.8696V23.5H19.1334C21.4598 23.5 23.3331 21.6268 23.3331 19.3004V4.69969C23.3331 2.37326 21.4598 0.500023 19.1334 0.500023H4.53271L4.53273 0.5Z" fill="#59A7D3"/>
</svg>
