<svg width="1234" height="1011" viewBox="0 0 1234 1011" fill="none" xmlns="http://www.w3.org/2000/svg">
<path d="M407.5 255C407.5 123.832 513.832 17.5 645 17.5C776.168 17.5 882.5 123.832 882.5 255V572.5H407.5V255Z" stroke="#B0BEC6" stroke-width="35"/>
<path d="M994.777 850.482L1004.63 843.916C1005.04 843.642 1004.84 843 1004.35 843H994.5C994.224 843 994 843.224 994 843.5V850.066C994 850.465 994.445 850.703 994.777 850.482Z" fill="#E1B576"/>
<ellipse cx="393.07" cy="462.2" rx="12.8677" ry="54.2077" transform="rotate(-5.57143 393.07 462.2)" fill="#FFE5B2"/>
<ellipse cx="422.869" cy="464.294" rx="12.8677" ry="54.2077" transform="rotate(-5.57143 422.869 464.294)" fill="#FFE5B2"/>
<ellipse cx="451.124" cy="464.294" rx="12.8677" ry="54.2077" transform="rotate(-5.57143 451.124 464.294)" fill="#FFE5B2"/>
<ellipse rx="12.8677" ry="54.2077" transform="matrix(-0.995276 -0.0970866 -0.0970866 0.995276 479.381 464.294)" fill="#FFE5B2"/>
<path d="M714.071 78.3042C711.08 59.1509 694.14 63.6242 686.044 68.255L679.424 233.375C687.51 228.244 705.653 218.251 713.532 219.324C721.411 220.397 725.389 211.632 726.393 207.116C736.867 206.947 738.259 199.924 737.646 196.434C749.406 195.044 751.12 187.716 750.506 184.225C763.53 180.415 763.377 172.517 761.672 169.044C774.696 165.234 771.211 154.389 767.841 149.443C772.752 132.563 765.251 128.483 760.887 128.554C763.133 109.316 753.913 106.664 749.023 107.743C751.362 93.3041 741.074 91.8699 735.638 92.9576C731.361 75.0251 719.478 75.7168 714.071 78.3042Z" fill="#2D5C77"/>
<path d="M658.904 75.9887C663.095 57.1218 679.725 62.458 687.516 67.4844L683.738 231.843C675.987 226.32 658.504 215.438 650.57 216.088C642.637 216.739 639.217 207.823 638.499 203.284C628.053 202.564 627.105 195.515 627.937 192.081C616.283 190.08 615.034 182.711 615.866 179.277C603.104 174.806 603.754 166.969 605.674 163.609C592.912 159.138 597.073 148.55 600.749 143.815C596.908 126.789 604.653 123.132 609.005 123.432C607.973 104.205 617.344 102.058 622.159 103.387C620.731 88.9219 631.092 88.0396 636.451 89.4066C641.849 71.8201 653.669 73.1336 658.904 75.9887Z" fill="#2D5C77"/>
<path d="M629.623 154.418C630.283 150.609 633.906 148.056 637.716 148.715L640.533 149.204L635.459 178.492L632.641 178.004C628.832 177.344 626.279 173.721 626.939 169.912L629.623 154.418Z" fill="#F4D6C4"/>
<path d="M738.67 174.608C739.61 170.857 737.331 167.056 733.581 166.117L729.274 165.038L722.052 193.872L726.358 194.95C730.109 195.89 733.91 193.611 734.85 189.861L738.67 174.608Z" fill="#F4D6C4"/>
<path d="M911.664 242.965C899.022 264.819 819.841 323.602 811.937 334.609C792.85 361.191 810.717 383.988 823.479 377.683C833.689 372.639 906.906 289.926 942.238 249.2C998.466 226.054 998.193 213.528 991.027 210.157C950.405 231.141 927.467 215.647 911.664 242.965Z" fill="#F7DDCD"/>
<path fill-rule="evenodd" clip-rule="evenodd" d="M987.184 225.277C974.893 232.845 960.227 238 949.875 241.638C943.652 243.825 938.988 245.465 937.333 246.752C934.799 248.723 930.345 254.374 924.041 262.373C903.512 288.419 863.368 339.352 806.054 369.103C809.831 376.919 817.261 380.756 823.479 377.684C833.689 372.64 906.905 289.926 942.237 249.2C966.205 239.334 979.906 231.398 987.184 225.277Z" fill="#F3D4C0"/>
<path d="M497.414 384.971C494.442 389.429 504.846 402.805 513.763 404.292C520.896 405.481 531.597 395.87 536.056 390.916C536.552 390.42 537.244 386.457 536.056 374.567C534.571 359.705 500.387 380.512 497.414 384.971Z" fill="#2E8FC6"/>
<path d="M562.807 264.586C578.264 253.885 623.742 249.228 644.549 248.237H709.943C740.857 248.237 771.557 273.235 785.741 285.393C796.145 294.31 825.37 317.027 822.897 324.035C813.98 349.301 821.411 380.512 813.98 387.943C804.58 397.343 752.549 349.301 745.613 334.439C725.4 390.321 737.191 497.428 745.613 543.997H562.807C587.775 480.981 592.036 378.035 591.045 334.439C586.289 353.462 550.917 378.035 533.082 393.888C539.027 350.787 519.706 332.952 506.33 325.521C527.633 298.274 547.35 275.287 562.807 264.586Z" fill="#59A7D3"/>
<path fill-rule="evenodd" clip-rule="evenodd" d="M589.077 339.65C582.324 353.317 563.153 369.002 547.167 382.082C541.953 386.348 537.077 390.337 533.082 393.888C533.929 387.749 534.263 382.122 534.175 376.965C550.896 368.127 567.799 357.684 579.154 346.329C584.487 340.996 587.516 339.207 589.077 339.65Z" fill="#459DCF"/>
<path d="M565.777 264.586C570.731 265.081 581.531 269.045 585.098 280.934" stroke="#2E8FC6" stroke-width="1.5" stroke-linecap="round"/>
<path d="M634.146 248.981C638.605 247.862 648.637 223.389 652.353 210.339H694.71C692.927 218.169 702.141 238.727 706.972 248.981C677.247 297.392 647.894 262.497 634.146 248.981Z" fill="#F2CBB3"/>
<path d="M729.822 181.353C723.474 217.3 692.165 243.542 671.304 239.858C654.615 236.911 629.18 200.649 635.528 164.702C641.876 128.755 666.012 102.968 694.586 108.013C723.159 113.059 736.17 145.406 729.822 181.353Z" fill="#F7DDCD"/>
<rect x="420.406" y="159.063" width="38.642" height="75.7572" rx="1" transform="rotate(32.2325 420.406 159.063)" fill="#2B2B2B"/>
<path d="M912.07 245.265C913.557 246.751 918.015 249.426 923.96 248.237" stroke="#F2CBB3" stroke-width="1.5" stroke-linecap="round"/>
<rect x="419.514" y="164.063" width="33.9723" height="64.4257" rx="1" transform="rotate(32.2325 419.514 164.063)" fill="#898989"/>
<path d="M481.787 377.188C493.149 399.849 527.688 392.313 533.928 373.271C542.621 346.741 483.077 279.107 451.333 230.634C448.199 225.848 448.394 218.363 448.364 210.361C448.343 204.528 451.344 186.58 448.368 185.095C439.265 180.55 441.2 195.741 432.825 208.875C424.256 222.313 415.666 238.6 415.666 238.6C418.585 240.448 429.048 244.968 432.012 249.372C451.847 278.846 471.902 357.473 481.787 377.188Z" fill="#F7DDCD"/>
<path d="M418.637 187.291C421.711 181.967 419.887 175.16 414.563 172.086C411.369 170.241 407.284 171.336 405.44 174.53L386.309 207.666C384.465 210.86 385.559 214.945 388.753 216.789C394.078 219.863 400.885 218.039 403.959 212.715L418.637 187.291Z" fill="#F7DDCD"/>
<path d="M434.991 225.943C431.957 222.085 431.033 217.455 430.869 213.865" stroke="#F2CBB3" stroke-width="0.5" stroke-linecap="round"/>
<path d="M637.946 244.596C634.26 241.869 631.507 242.724 629.082 243.616L620.47 321.519L629.334 322.499L637.946 244.596Z" fill="#FFD37C"/>
<path fill-rule="evenodd" clip-rule="evenodd" d="M727.164 191.956C717.241 222.309 690.054 243.169 671.306 239.859C663.745 238.523 654.388 230.35 647.006 218.466C655.719 225.743 667.226 233.374 678.733 233.374C693.483 233.374 714.67 208.64 727.164 191.956Z" fill="#F3D4C0"/>
<path d="M591.045 332.953C591.54 329.98 592.531 322.549 591.045 312.146" stroke="#2E8FC6" stroke-width="1.5" stroke-linecap="round"/>
<path fill-rule="evenodd" clip-rule="evenodd" d="M737.508 388.713C735.446 445.664 742.793 509.77 748.586 543.999H561.321C578.389 497.96 586.011 432.452 588.892 379.778C604.57 366.316 610.27 351.674 615.601 337.98C617.262 333.714 618.887 329.54 620.766 325.522C626.856 309.251 690.22 300.551 706.968 331.467C709.746 336.596 711.547 342.175 713.449 348.064C717.51 360.643 722.029 374.642 737.508 388.713Z" fill="#FFE5B3"/>
<path fill-rule="evenodd" clip-rule="evenodd" d="M736.233 380.595C735.177 391.433 734.634 402.813 734.491 414.381L705.486 362.676L708.459 328.493C715.047 348.258 726.503 368.023 736.233 380.595Z" fill="#459DCF"/>
<path d="M640.092 151.632C638.903 151.632 638.605 148.66 638.605 147.174L637.119 136.77L657.926 105.559L678.734 101.101L705.486 102.587L729.265 117.449L754.531 156.091C747.1 161.541 730.816 169.659 729.265 165.008C727.779 160.55 729.265 158.568 730.752 157.577C723.618 158.766 724.807 154.109 724.807 151.632C721.24 151.632 721.339 146.678 721.834 144.201C718.267 144.201 718.366 140.238 718.862 138.256C715.295 137.067 715.394 133.798 715.889 132.311C711.133 134.689 708.954 130.33 708.458 127.853C706.08 129.042 703.504 126.366 702.513 124.88C698.946 126.069 697.064 123.394 696.568 121.908C694.19 125.475 690.623 123.394 689.137 121.908C686.759 125.475 682.201 123.394 680.22 121.908C679.031 125.475 674.77 124.385 672.789 123.394C670.411 126.961 666.844 126.862 665.357 126.366C665.357 131.122 661.394 132.311 659.413 132.311C658.224 135.878 654.954 136.77 653.468 136.77C653.468 142.715 650.495 143.21 649.009 142.715C650.198 146.282 646.532 147.174 644.55 147.174C646.037 150.146 641.578 151.632 640.092 151.632Z" fill="#2D5C77"/>
<path fill-rule="evenodd" clip-rule="evenodd" d="M589.945 389.978C590.637 377.144 590.999 365.228 591.123 354.816C592.558 356.133 594.126 357.301 595.503 358.218C599.069 360.596 610.86 345.338 616.31 337.411L605.906 381.998L589.945 389.978Z" fill="#459DCF"/>
<path fill-rule="evenodd" clip-rule="evenodd" d="M737.508 388.713C735.446 445.664 742.793 509.77 748.586 543.999H561.321C578.389 497.96 586.011 432.452 588.892 379.778C604.57 366.316 610.27 351.674 615.601 337.98C617.262 333.714 618.887 329.54 620.766 325.522C626.856 309.251 690.22 300.551 706.968 331.467C709.746 336.596 711.547 342.175 713.449 348.064C717.51 360.643 722.029 374.642 737.508 388.713Z" fill="#FFE5B3"/>
<path d="M714.665 246.78C710.897 244.037 708.17 245.062 705.773 246.113L699.53 329.323L708.422 329.99L714.665 246.78Z" fill="#FFD37C"/>
<circle cx="623.742" cy="325.522" r="8.91737" fill="#FFF1D7"/>
<circle cx="703.999" cy="331.466" r="8.91737" fill="#FFF1D7"/>
<path d="M628.292 420.898L696.131 422.805L695.223 455.102C694.994 463.245 688.207 469.661 680.064 469.431L641.713 468.353C633.57 468.124 627.154 461.337 627.383 453.194L628.292 420.898Z" fill="#F7D28A" stroke="#FFD37C" stroke-width="0.5"/>
<rect x="623.99" y="414.695" width="76.0337" height="8.81341" transform="rotate(1.61 623.99 414.695)" fill="#FFD584"/>
<path d="M689.133 439.961C688.638 444.915 684.08 456.309 669.812 462.254" stroke="#FBF1DF" stroke-width="0.5" stroke-linecap="round"/>
<path d="M634.146 431.044C634.642 438.971 639.2 456.013 653.467 460.769" stroke="#FFF1D6" stroke-width="0.5" stroke-linecap="round"/>
<path fill-rule="evenodd" clip-rule="evenodd" d="M740.062 474.41C742.367 502.022 745.673 526.788 748.585 543.999H676.356C677.892 540.614 685.239 537.289 705.484 536.566C742.564 535.242 738.059 506.28 735.84 492.016C735.569 490.272 735.332 488.748 735.209 487.521C734.304 478.473 736.704 475.667 740.062 474.41Z" fill="#FFDD9B"/>
<path fill-rule="evenodd" clip-rule="evenodd" d="M622.232 544C618.119 537.56 606.607 536.149 595.83 534.829C590.172 534.135 584.716 533.466 580.641 532.108C575.087 530.257 573.163 517.916 572.874 504.395C569.615 518.545 565.792 531.94 561.321 544H622.232Z" fill="#FFDD9B"/>
<path fill-rule="evenodd" clip-rule="evenodd" d="M447.957 184.897C447.88 185.398 447.902 186.252 447.937 187.548C448.053 191.867 448.3 201.094 445.396 218.513C443.415 230.397 455.914 243.463 465.674 251.44C460.54 244.249 455.679 237.263 451.339 230.634C448.401 226.149 448.388 219.292 448.374 211.862C448.373 211.364 448.372 210.864 448.37 210.361C448.363 208.618 448.627 205.794 448.92 202.65C449.608 195.272 450.46 186.137 448.374 185.095C448.232 185.025 448.094 184.959 447.957 184.897Z" fill="#F3D4C0"/>
<path fill-rule="evenodd" clip-rule="evenodd" d="M419.111 177.078C415.002 188.363 404.325 205.672 397.832 211.082C392.053 215.899 387.834 212.911 385.65 209.232C384.86 212.093 386.061 215.236 388.751 216.79C394.075 219.863 400.883 218.039 403.957 212.715L418.635 187.292C420.51 184.045 420.563 180.245 419.111 177.078Z" fill="#F4D0B9"/>
<circle cx="397.091" cy="229.66" r="1.97934" stroke="#D1D1D1" stroke-width="0.5"/>
<path fill-rule="evenodd" clip-rule="evenodd" d="M520.095 387.816C507.176 393.976 489.347 392.27 481.785 377.188C478.162 369.963 473.173 354.824 467.33 337.092C458.896 311.5 448.682 280.506 438.226 260.104C444.168 267.852 459.366 304.896 471.838 335.298C479.105 353.014 485.448 368.474 488.494 374.567C494.367 386.313 508.172 387.099 516.686 387.584C517.954 387.656 519.105 387.722 520.095 387.816Z" fill="#F3D4C0"/>
<path fill-rule="evenodd" clip-rule="evenodd" d="M817.555 374.667C817.192 380.849 816.329 385.589 813.975 387.943C805.103 396.815 758.247 354.51 747.186 337.237C752.804 337.073 772.316 351.846 787.542 363.373C795.289 369.238 801.925 374.263 805.058 376.053C809.562 378.626 813.979 377.254 817.555 374.667Z" fill="#459DCF"/>
<path fill-rule="evenodd" clip-rule="evenodd" d="M738.661 455.109C737.311 433.311 736.724 410.489 737.512 388.714C722.034 374.642 717.514 360.644 713.453 348.065C712.775 345.964 712.109 343.904 711.408 341.889C705.554 346.754 732.235 396.86 732.235 396.86C732.235 396.86 735.171 436.662 738.661 455.109Z" fill="#FFDD9B"/>
<path fill-rule="evenodd" clip-rule="evenodd" d="M586.39 414.604C587.468 402.625 588.289 390.915 588.898 379.778C604.576 366.316 610.276 351.674 615.607 337.98C615.714 337.703 615.822 337.427 615.929 337.151C616.153 338.279 616.313 339.428 616.313 340.384C616.313 343.356 602.937 376.053 595.506 383.484C591.55 387.44 588.437 401.922 586.39 414.604Z" fill="#FFDD9B"/>
<path d="M745.614 332.952C744.128 327.008 742.047 313.631 745.614 307.687" stroke="#2E8FC6" stroke-width="1.5"/>
<rect x="343" y="544" width="595" height="467" rx="40" fill="#59A7D3"/>
<path d="M693.894 838.963L664.651 769.988C673.101 765.903 680.23 759.515 685.218 751.558C690.206 743.601 692.852 734.398 692.852 725.004C692.852 697.362 670.447 675 642.898 675C615.348 675 592.944 697.427 592.944 725.004C592.944 743.584 603.104 759.818 618.149 768.423L590.925 839.42C587.473 848.416 594.116 858 603.69 858H681.324C691.093 858 697.736 847.96 693.894 838.963Z" fill="#3B7598"/>
<path fill-rule="evenodd" clip-rule="evenodd" d="M938 857.264V971C938 993.092 920.091 1011 898 1011H677.924C699.636 985.219 772.705 975.295 844.519 965.542C849.525 964.863 854.525 964.184 859.5 963.5C897.121 958.333 922.119 911.995 938 857.264Z" fill="#3992C3"/>
<path fill-rule="evenodd" clip-rule="evenodd" d="M615.024 1011H383C360.909 1011 343 993.091 343 971V865.271C372.926 981.515 431.835 988.637 588.962 1007.63L592 1008C600.741 1009.06 608.396 1010.06 615.024 1011Z" fill="#3992C3"/>
<path d="M375 468H497V536C497 540.418 493.418 544 489 544H383C378.582 544 375 540.418 375 536V468Z" fill="#FFD37C"/>
<path d="M399.475 430.078C399.475 430.078 396.418 429.902 394.475 430.078C392.493 430.257 389.475 431 389.475 431" stroke="#FFC759" stroke-width="2" stroke-linecap="round"/>
<path d="M427.475 430.078C427.475 430.078 424.418 429.902 422.475 430.078C420.493 430.257 417.475 431 417.475 431" stroke="#FFC759" stroke-width="2" stroke-linecap="round"/>
<path d="M457.475 431.078C457.475 431.078 454.112 430.902 451.975 431.078C449.795 431.257 446.475 432 446.475 432" stroke="#FFC759" stroke-width="2" stroke-linecap="round"/>
<path d="M484.471 432.732C484.471 432.732 481.6 431.383 479.625 431.034C477.497 430.658 474.091 431.034 474.091 431.034" stroke="#FFC759" stroke-width="2" stroke-linecap="round"/>
<path d="M401.475 440.157C401.475 440.157 397.81 439.803 395.475 440.157C393.107 440.516 389.475 442 389.475 442" stroke="#FFC759" stroke-width="2" stroke-linecap="round"/>
<path d="M429.475 440.152C429.475 440.152 425.819 439.81 423.475 440.152C421.067 440.503 417.475 442 417.475 442" stroke="#FFC759" stroke-width="2" stroke-linecap="round"/>
<path d="M459.475 441.157C459.475 441.157 455.504 440.803 452.975 441.157C450.41 441.516 446.475 443 446.475 443" stroke="#FFC759" stroke-width="2" stroke-linecap="round"/>
<path d="M483.781 443.383C483.781 443.383 480.089 441.57 477.532 441.143C475.162 440.748 471.38 441.143 471.38 441.143" stroke="#FFC759" stroke-width="2" stroke-linecap="round"/>
<path d="M403.475 451C403.475 451 399.573 452.709 396.975 452.958C394.436 453.201 390.475 452.305 390.475 452.305" stroke="#FFC759" stroke-width="2" stroke-linecap="round"/>
<path d="M432.475 451C432.475 451 428.232 451.742 425.475 451.921C422.749 452.098 418.475 451.921 418.475 451.921" stroke="#FFC759" stroke-width="2" stroke-linecap="round"/>
<path d="M461.475 452C461.475 452 457.232 452.742 454.475 452.921C451.749 453.098 447.475 452.921 447.475 452.921" stroke="#FFC759" stroke-width="2" stroke-linecap="round"/>
<path d="M483.096 454.033C483.096 454.033 478.695 454.574 475.962 454.033C473.372 453.52 469.684 451.523 469.684 451.523" stroke="#FFC759" stroke-width="2" stroke-linecap="round"/>
<line x1="390.5" y1="468" x2="390.5" y2="544" stroke="#FFBE40"/>
<line x1="405.5" y1="468" x2="405.5" y2="544" stroke="#FFBE40"/>
<line x1="420.5" y1="468" x2="420.5" y2="544" stroke="#FFBE40"/>
<line x1="435.5" y1="468" x2="435.5" y2="544" stroke="#FFBE40"/>
<line x1="450.5" y1="468" x2="450.5" y2="544" stroke="#FFBE40"/>
<line x1="465.5" y1="468" x2="465.5" y2="544" stroke="#FFBE40"/>
<line x1="480.5" y1="468" x2="480.5" y2="544" stroke="#FFBE40"/>
<path d="M946 733.671H1213V695.929C1212.16 692.853 1209.47 685.864 1205.44 682.509C1200.41 678.316 1202.08 662.38 1194.53 658.187C1188.48 654.832 1185.85 650.079 1185.29 648.122C1183.89 647.284 1180.25 646.109 1176.9 648.122C1172.7 650.638 1176.9 637.219 1160.94 633.864C1144.99 630.509 1162.62 621.284 1143.31 607.864C1124 594.445 1124 584.38 1091.25 590.251C1058.51 596.122 1060.19 567.606 1032.48 578.509C1010.1 587.318 1006.45 622.122 997.217 625.477C987.981 628.832 987.981 638.058 985.462 643.09C982.943 648.122 971.189 644.767 968.67 651.477C966.151 658.187 972.868 669.929 966.151 674.122C959.434 678.316 951.877 679.993 949.358 685.864C947.343 690.561 946 694 946 695.09V733.671Z" fill="#FFE5B2"/>
<path d="M1178 671C1180.54 671.253 1185.92 673.128 1187.14 678.6C1188.67 685.44 1191.71 688.48 1194 690" stroke="#EFC036" stroke-width="0.75" stroke-linecap="round"/>
<path d="M1099 602C1108.17 602.243 1128.46 606.517 1136.2 621.671C1145.87 640.614 1136.94 631.143 1149.59 639.157C1162.23 647.171 1151.82 647.171 1160 653" stroke="#EFC036" stroke-width="0.75" stroke-linecap="round"/>
<path d="M1007 641C1003.37 641.739 996.267 644.991 996.889 652.087C997.667 660.957 978.999 656.522 979.777 663.913C980.555 671.304 985.999 681.652 979.777 683.87C973.556 686.087 967.333 686.087 965 692" stroke="#EFC036" stroke-width="0.75" stroke-linecap="round"/>
<path d="M1018 619C1020.75 610.171 1028.2 592.211 1036 591" stroke="#EFC036" stroke-width="0.75" stroke-linecap="round"/>
<path fill-rule="evenodd" clip-rule="evenodd" d="M1031.8 667.143C1032.05 666.603 1032.19 666.001 1032.19 665.366C1032.19 663.034 1030.3 661.144 1027.97 661.144C1025.64 661.144 1023.75 663.034 1023.75 665.366C1023.75 666.023 1023.9 666.645 1024.17 667.199C1024.08 667.194 1024 667.192 1023.92 667.192C1021.59 667.192 1019.7 669.082 1019.7 671.414C1019.7 673.746 1021.59 675.637 1023.92 675.637C1025.56 675.637 1026.97 674.707 1027.67 673.346C1028.39 674.669 1029.79 675.568 1031.39 675.568C1033.73 675.568 1035.62 673.678 1035.62 671.346C1035.62 669.151 1033.94 667.348 1031.8 667.143Z" fill="#F7D28A"/>
<path fill-rule="evenodd" clip-rule="evenodd" d="M1055.72 619.304C1055.97 618.764 1056.11 618.162 1056.11 617.527C1056.11 615.195 1054.22 613.305 1051.89 613.305C1049.55 613.305 1047.66 615.195 1047.66 617.527C1047.66 618.184 1047.81 618.806 1048.08 619.36C1048 619.355 1047.92 619.353 1047.84 619.353C1045.5 619.353 1043.61 621.243 1043.61 623.575C1043.61 625.907 1045.5 627.798 1047.84 627.798C1049.47 627.798 1050.89 626.868 1051.59 625.507C1052.3 626.83 1053.7 627.729 1055.31 627.729C1057.64 627.729 1059.53 625.839 1059.53 623.507C1059.53 621.313 1057.86 619.509 1055.72 619.304Z" fill="#F7D28A"/>
<path fill-rule="evenodd" clip-rule="evenodd" d="M1109.54 637.244C1109.79 636.703 1109.93 636.101 1109.93 635.466C1109.93 633.135 1108.04 631.244 1105.71 631.244C1103.38 631.244 1101.49 633.135 1101.49 635.466C1101.49 636.123 1101.64 636.745 1101.9 637.3C1101.82 637.295 1101.74 637.293 1101.66 637.293C1099.33 637.293 1097.44 639.183 1097.44 641.515C1097.44 643.847 1099.33 645.737 1101.66 645.737C1103.29 645.737 1104.71 644.807 1105.41 643.447C1106.13 644.77 1107.52 645.669 1109.13 645.669C1111.46 645.669 1113.35 643.778 1113.35 641.446C1113.35 639.252 1111.68 637.449 1109.54 637.244Z" fill="#F7D28A"/>
<path fill-rule="evenodd" clip-rule="evenodd" d="M1118.51 685.082C1118.76 684.542 1118.9 683.94 1118.9 683.305C1118.9 680.973 1117.01 679.083 1114.68 679.083C1112.34 679.083 1110.45 680.973 1110.45 683.305C1110.45 683.962 1110.6 684.584 1110.87 685.138C1110.79 685.134 1110.71 685.131 1110.62 685.131C1108.29 685.131 1106.4 687.022 1106.4 689.354C1106.4 691.686 1108.29 693.576 1110.62 693.576C1112.26 693.576 1113.68 692.646 1114.38 691.286C1115.09 692.609 1116.49 693.508 1118.1 693.508C1120.43 693.508 1122.32 691.617 1122.32 689.285C1122.32 687.091 1120.65 685.288 1118.51 685.082Z" fill="#F7D28A"/>
<mask id="path-83-inside-1_302_1643" fill="white">
<path fill-rule="evenodd" clip-rule="evenodd" d="M998.427 700.032C998.678 699.491 998.818 698.889 998.818 698.255C998.818 695.923 996.927 694.032 994.595 694.032C992.263 694.032 990.373 695.923 990.373 698.255C990.373 698.911 990.523 699.533 990.791 700.088C990.709 700.083 990.627 700.081 990.545 700.081C988.213 700.081 986.322 701.971 986.322 704.303C986.322 706.635 988.213 708.525 990.545 708.525C992.18 708.525 993.599 707.595 994.3 706.235C995.013 707.558 996.411 708.457 998.019 708.457C1000.35 708.457 1002.24 706.566 1002.24 704.235C1002.24 702.04 1000.57 700.237 998.427 700.032Z"/>
</mask>
<path d="M998.427 700.032L997.973 699.821L997.676 700.462L998.379 700.529L998.427 700.032ZM990.791 700.088L990.762 700.587L991.61 700.636L991.241 699.87L990.791 700.088ZM994.3 706.235L994.74 705.998L994.29 705.163L993.855 706.006L994.3 706.235ZM998.318 698.255C998.318 698.815 998.194 699.345 997.973 699.821L998.88 700.242C999.161 699.638 999.318 698.964 999.318 698.255H998.318ZM994.595 694.532C996.651 694.532 998.318 696.199 998.318 698.255H999.318C999.318 695.646 997.203 693.532 994.595 693.532V694.532ZM990.873 698.255C990.873 696.199 992.54 694.532 994.595 694.532V693.532C991.987 693.532 989.873 695.646 989.873 698.255H990.873ZM991.241 699.87C991.005 699.382 990.873 698.835 990.873 698.255H989.873C989.873 698.988 990.041 699.684 990.34 700.305L991.241 699.87ZM990.545 700.581C990.618 700.581 990.69 700.583 990.762 700.587L990.819 699.589C990.728 699.583 990.637 699.581 990.545 699.581V700.581ZM986.822 704.303C986.822 702.247 988.489 700.581 990.545 700.581V699.581C987.936 699.581 985.822 701.695 985.822 704.303H986.822ZM990.545 708.025C988.489 708.025 986.822 706.359 986.822 704.303H985.822C985.822 706.911 987.936 709.025 990.545 709.025V708.025ZM993.855 706.006C993.237 707.206 991.986 708.025 990.545 708.025V709.025C992.375 709.025 993.961 707.984 994.744 706.464L993.855 706.006ZM993.86 706.472C994.657 707.95 996.22 708.957 998.019 708.957V707.957C996.602 707.957 995.369 707.165 994.74 705.998L993.86 706.472ZM998.019 708.957C1000.63 708.957 1002.74 706.843 1002.74 704.235H1001.74C1001.74 706.29 1000.07 707.957 998.019 707.957V708.957ZM1002.74 704.235C1002.74 701.78 1000.87 699.763 998.475 699.534L998.379 700.529C1000.27 700.71 1001.74 702.3 1001.74 704.235H1002.74Z" fill="black" mask="url(#path-83-inside-1_302_1643)"/>
<mask id="path-85-inside-2_302_1643" fill="white">
<path fill-rule="evenodd" clip-rule="evenodd" d="M1176.33 700.032C1176.58 699.491 1176.72 698.889 1176.72 698.255C1176.72 695.923 1174.83 694.032 1172.5 694.032C1170.16 694.032 1168.27 695.923 1168.27 698.255C1168.27 698.911 1168.42 699.533 1168.69 700.088C1168.61 700.083 1168.53 700.081 1168.44 700.081C1166.11 700.081 1164.22 701.971 1164.22 704.303C1164.22 706.635 1166.11 708.525 1168.44 708.525C1170.08 708.525 1171.5 707.595 1172.2 706.235C1172.91 707.558 1174.31 708.457 1175.92 708.457C1178.25 708.457 1180.14 706.566 1180.14 704.235C1180.14 702.04 1178.47 700.237 1176.33 700.032Z"/>
</mask>
<path d="M1176.33 700.032L1175.87 699.821L1175.58 700.462L1176.28 700.529L1176.33 700.032ZM1168.69 700.088L1168.66 700.587L1169.51 700.636L1169.14 699.87L1168.69 700.088ZM1172.2 706.235L1172.64 705.998L1172.19 705.163L1171.76 706.006L1172.2 706.235ZM1176.22 698.255C1176.22 698.815 1176.09 699.345 1175.87 699.821L1176.78 700.242C1177.06 699.638 1177.22 698.964 1177.22 698.255H1176.22ZM1172.5 694.532C1174.55 694.532 1176.22 696.199 1176.22 698.255H1177.22C1177.22 695.646 1175.1 693.532 1172.5 693.532V694.532ZM1168.77 698.255C1168.77 696.199 1170.44 694.532 1172.5 694.532V693.532C1169.89 693.532 1167.77 695.646 1167.77 698.255H1168.77ZM1169.14 699.87C1168.91 699.382 1168.77 698.835 1168.77 698.255H1167.77C1167.77 698.988 1167.94 699.684 1168.24 700.305L1169.14 699.87ZM1168.44 700.581C1168.52 700.581 1168.59 700.583 1168.66 700.587L1168.72 699.589C1168.63 699.583 1168.54 699.581 1168.44 699.581V700.581ZM1164.72 704.303C1164.72 702.247 1166.39 700.581 1168.44 700.581V699.581C1165.84 699.581 1163.72 701.695 1163.72 704.303H1164.72ZM1168.44 708.025C1166.39 708.025 1164.72 706.359 1164.72 704.303H1163.72C1163.72 706.911 1165.84 709.025 1168.44 709.025V708.025ZM1171.76 706.006C1171.14 707.206 1169.89 708.025 1168.44 708.025V709.025C1170.28 709.025 1171.86 707.984 1172.64 706.464L1171.76 706.006ZM1171.76 706.472C1172.56 707.95 1174.12 708.957 1175.92 708.957V707.957C1174.5 707.957 1173.27 707.165 1172.64 705.998L1171.76 706.472ZM1175.92 708.957C1178.53 708.957 1180.64 706.843 1180.64 704.235H1179.64C1179.64 706.29 1177.98 707.957 1175.92 707.957V708.957ZM1180.64 704.235C1180.64 701.78 1178.77 699.763 1176.37 699.534L1176.28 700.529C1178.17 700.71 1179.64 702.3 1179.64 704.235H1180.64Z" fill="black" mask="url(#path-85-inside-2_302_1643)"/>
<mask id="path-87-inside-3_302_1643" fill="white">
<path fill-rule="evenodd" clip-rule="evenodd" d="M1076.17 707.506C1076.42 706.966 1076.56 706.364 1076.56 705.729C1076.56 703.397 1074.67 701.507 1072.33 701.507C1070 701.507 1068.11 703.397 1068.11 705.729C1068.11 706.386 1068.26 707.008 1068.53 707.562C1068.45 707.558 1068.37 707.555 1068.28 707.555C1065.95 707.555 1064.06 709.446 1064.06 711.778C1064.06 714.11 1065.95 716 1068.28 716C1069.92 716 1071.34 715.07 1072.04 713.71C1072.75 715.032 1074.15 715.931 1075.76 715.931C1078.09 715.931 1079.98 714.041 1079.98 711.709C1079.98 709.515 1078.31 707.711 1076.17 707.506Z"/>
</mask>
<path d="M1076.17 707.506L1075.71 707.296L1075.41 707.937L1076.12 708.004L1076.17 707.506ZM1068.53 707.562L1068.5 708.061L1069.35 708.11L1068.98 707.345L1068.53 707.562ZM1072.04 713.71L1072.48 713.472L1072.03 712.638L1071.59 713.481L1072.04 713.71ZM1076.06 705.729C1076.06 706.29 1075.93 706.82 1075.71 707.296L1076.62 707.717C1076.9 707.112 1077.06 706.438 1077.06 705.729H1076.06ZM1072.33 702.007C1074.39 702.007 1076.06 703.673 1076.06 705.729H1077.06C1077.06 703.121 1074.94 701.007 1072.33 701.007V702.007ZM1068.61 705.729C1068.61 703.673 1070.28 702.007 1072.33 702.007V701.007C1069.73 701.007 1067.61 703.121 1067.61 705.729H1068.61ZM1068.98 707.345C1068.74 706.857 1068.61 706.309 1068.61 705.729H1067.61C1067.61 706.463 1067.78 707.159 1068.08 707.78L1068.98 707.345ZM1068.28 708.055C1068.36 708.055 1068.43 708.057 1068.5 708.061L1068.56 707.063C1068.47 707.058 1068.38 707.055 1068.28 707.055V708.055ZM1064.56 711.778C1064.56 709.722 1066.23 708.055 1068.28 708.055V707.055C1065.67 707.055 1063.56 709.17 1063.56 711.778H1064.56ZM1068.28 715.5C1066.23 715.5 1064.56 713.833 1064.56 711.778H1063.56C1063.56 714.386 1065.67 716.5 1068.28 716.5V715.5ZM1071.59 713.481C1070.97 714.681 1069.72 715.5 1068.28 715.5V716.5C1070.11 716.5 1071.7 715.459 1072.48 713.939L1071.59 713.481ZM1071.6 713.947C1072.39 715.425 1073.96 716.431 1075.76 716.431V715.431C1074.34 715.431 1073.11 714.64 1072.48 713.472L1071.6 713.947ZM1075.76 716.431C1078.37 716.431 1080.48 714.317 1080.48 711.709H1079.48C1079.48 713.765 1077.81 715.431 1075.76 715.431V716.431ZM1080.48 711.709C1080.48 709.255 1078.61 707.238 1076.21 707.009L1076.12 708.004C1078 708.185 1079.48 709.775 1079.48 711.709H1080.48Z" fill="black" mask="url(#path-87-inside-3_302_1643)"/>
<path d="M1214.74 730.592L1232.29 720.938C1232.75 720.689 1232.57 720 1232.05 720H1214.5C1214.22 720 1214 720.224 1214 720.5V730.154C1214 730.535 1214.41 730.776 1214.74 730.592Z" fill="#D6A253"/>
<rect x="938" y="711" width="279" height="300" rx="8" fill="#E5C595"/>
<path fill-rule="evenodd" clip-rule="evenodd" d="M984.351 1011H946C941.582 1011 938 1007.42 938 1003V965.865C942.314 992.585 951.926 996.834 984.351 1011Z" fill="#E2BD85"/>
<path fill-rule="evenodd" clip-rule="evenodd" d="M1217 755.622V719C1217 714.582 1213.42 711 1209 711H946C941.582 711 938 714.582 938 719V735.311C1073.44 727.448 1175.87 744.408 1217 755.622Z" fill="#E3BE86"/>
<line x1="973" y1="721" x2="973" y2="1011" stroke="#DEB578" stroke-width="2"/>
<line x1="1008" y1="721" x2="1008" y2="1011" stroke="#DEB578" stroke-width="2"/>
<line x1="1043" y1="721" x2="1043" y2="1011" stroke="#DEB578" stroke-width="2"/>
<line x1="1078" y1="721" x2="1078" y2="1011" stroke="#DEB578" stroke-width="2"/>
<path fill-rule="evenodd" clip-rule="evenodd" d="M1217 932.501V1003C1217 1007.42 1213.42 1011 1209 1011H1082.82C1084.73 1008.16 1091.53 1006.06 1104.5 1005C1195.42 997.561 1196.5 994.222 1209.11 955.456C1211.24 948.886 1213.71 941.299 1217 932.501Z" fill="#E2BD85"/>
<line x1="1113" y1="721" x2="1113" y2="1011" stroke="#DEB578" stroke-width="2"/>
<line x1="1148" y1="721" x2="1148" y2="1011" stroke="#DEB578" stroke-width="2"/>
<line x1="1183" y1="721" x2="1183" y2="1011" stroke="#DEB578" stroke-width="2"/>
<rect x="938" y="690" width="296" height="31" rx="2" fill="#E0BB83"/>
<path d="M337.5 638.23C337.5 646.687 330.985 653.499 323 653.499C315.015 653.499 308.5 646.687 308.5 638.23C308.5 629.773 315.015 622.961 323 622.961C330.985 622.961 337.5 629.773 337.5 638.23Z" fill="#F69A9A" stroke="#F07E7E"/>
<path d="M211.5 619.308C211.5 627.765 204.985 634.578 197 634.578C189.015 634.578 182.5 627.765 182.5 619.308C182.5 610.851 189.015 604.039 197 604.039C204.985 604.039 211.5 610.851 211.5 619.308Z" fill="#F69A9A" stroke="#F07E7E"/>
<path d="M233.5 603.539C233.5 611.996 226.985 618.808 219 618.808C211.015 618.808 204.5 611.996 204.5 603.539C204.5 595.082 211.015 588.27 219 588.27C226.985 588.27 233.5 595.082 233.5 603.539Z" fill="#F69A9A" stroke="#F07E7E"/>
<path d="M248.5 587.769C248.5 596.226 241.985 603.038 234 603.038C226.015 603.038 219.5 596.226 219.5 587.769C219.5 579.312 226.015 572.5 234 572.5C241.985 572.5 248.5 579.312 248.5 587.769Z" fill="#F69A9A" stroke="#F07E7E"/>
<path d="M267.5 587.769C267.5 596.226 260.985 603.038 253 603.038C245.015 603.038 238.5 596.226 238.5 587.769C238.5 579.312 245.015 572.5 253 572.5C260.985 572.5 267.5 579.312 267.5 587.769Z" fill="#F69A9A" stroke="#F07E7E"/>
<path d="M289.5 587.769C289.5 596.226 282.985 603.038 275 603.038C267.015 603.038 260.5 596.226 260.5 587.769C260.5 579.312 267.015 572.5 275 572.5C282.985 572.5 289.5 579.312 289.5 587.769Z" fill="#F69A9A" stroke="#F07E7E"/>
<path d="M257.5 603.539C257.5 611.996 250.985 618.808 243 618.808C235.015 618.808 228.5 611.996 228.5 603.539C228.5 595.082 235.015 588.27 243 588.27C250.985 588.27 257.5 595.082 257.5 603.539Z" fill="#F69A9A" stroke="#F07E7E"/>
<path d="M278.5 603.539C278.5 611.996 271.985 618.808 264 618.808C256.015 618.808 249.5 611.996 249.5 603.539C249.5 595.082 256.015 588.27 264 588.27C271.985 588.27 278.5 595.082 278.5 603.539Z" fill="#F69A9A" stroke="#F07E7E"/>
<path d="M304.5 607.744C304.5 616.201 297.985 623.013 290 623.013C282.015 623.013 275.5 616.201 275.5 607.744C275.5 599.287 282.015 592.475 290 592.475C297.985 592.475 304.5 599.287 304.5 607.744Z" fill="#F69A9A" stroke="#F07E7E"/>
<path d="M201.5 638.23C201.5 646.687 194.985 653.499 187 653.499C179.015 653.499 172.5 646.687 172.5 638.23C172.5 629.773 179.015 622.961 187 622.961C194.985 622.961 201.5 629.773 201.5 638.23Z" fill="#F69A9A" stroke="#F07E7E"/>
<path d="M218.5 638.23C218.5 646.687 211.985 653.499 204 653.499C196.015 653.499 189.5 646.687 189.5 638.23C189.5 629.773 196.015 622.961 204 622.961C211.985 622.961 218.5 629.773 218.5 638.23Z" fill="#F69A9A" stroke="#F07E7E"/>
<path d="M286.5 619.308C286.5 627.765 279.985 634.578 272 634.578C264.015 634.578 257.5 627.765 257.5 619.308C257.5 610.851 264.015 604.039 272 604.039C279.985 604.039 286.5 610.851 286.5 619.308Z" fill="#F69A9A" stroke="#F07E7E"/>
<path d="M261.5 619.308C261.5 627.765 254.985 634.578 247 634.578C239.015 634.578 232.5 627.765 232.5 619.308C232.5 610.851 239.015 604.039 247 604.039C254.985 604.039 261.5 610.851 261.5 619.308Z" fill="#F69A9A" stroke="#F07E7E"/>
<path d="M236.5 619.308C236.5 627.765 229.985 634.578 222 634.578C214.015 634.578 207.5 627.765 207.5 619.308C207.5 610.851 214.015 604.039 222 604.039C229.985 604.039 236.5 610.851 236.5 619.308Z" fill="#F69A9A" stroke="#F07E7E"/>
<path d="M235.5 638.23C235.5 646.687 228.985 653.499 221 653.499C213.015 653.499 206.5 646.687 206.5 638.23C206.5 629.773 213.015 622.961 221 622.961C228.985 622.961 235.5 629.773 235.5 638.23Z" fill="#F69A9A" stroke="#F07E7E"/>
<path d="M252.5 638.23C252.5 646.687 245.985 653.499 238 653.499C230.015 653.499 223.5 646.687 223.5 638.23C223.5 629.773 230.015 622.961 238 622.961C245.985 622.961 252.5 629.773 252.5 638.23Z" fill="#F69A9A" stroke="#F07E7E"/>
<path d="M269.5 638.23C269.5 646.687 262.985 653.499 255 653.499C247.015 653.499 240.5 646.687 240.5 638.23C240.5 629.773 247.015 622.961 255 622.961C262.985 622.961 269.5 629.773 269.5 638.23Z" fill="#F69A9A" stroke="#F07E7E"/>
<path d="M286.5 638.23C286.5 646.687 279.985 653.499 272 653.499C264.015 653.499 257.5 646.687 257.5 638.23C257.5 629.773 264.015 622.961 272 622.961C279.985 622.961 286.5 629.773 286.5 638.23Z" fill="#F69A9A" stroke="#F07E7E"/>
<path d="M312.5 624.564C312.5 633.021 305.985 639.833 298 639.833C290.015 639.833 283.5 633.021 283.5 624.564C283.5 616.107 290.015 609.295 298 609.295C305.985 609.295 312.5 616.107 312.5 624.564Z" fill="#F69A9A" stroke="#F07E7E"/>
<path d="M303.5 638.23C303.5 646.687 296.985 653.499 289 653.499C281.015 653.499 274.5 646.687 274.5 638.23C274.5 629.773 281.015 622.961 289 622.961C296.985 622.961 303.5 629.773 303.5 638.23Z" fill="#F69A9A" stroke="#F07E7E"/>
<path d="M320.5 638.23C320.5 646.687 313.985 653.499 306 653.499C298.015 653.499 291.5 646.687 291.5 638.23C291.5 629.773 298.015 622.961 306 622.961C313.985 622.961 320.5 629.773 320.5 638.23Z" fill="#F69A9A" stroke="#F07E7E"/>
<path d="M165.161 658.881L155.553 655.239C155.033 655.042 155.174 654.271 155.73 654.271H165.338C165.614 654.271 165.838 654.495 165.838 654.771V658.413C165.838 658.763 165.488 659.005 165.161 658.881Z" fill="#D6A253"/>
<rect width="179.088" height="132.71" rx="8" transform="matrix(-1 0 0 1 343 650.29)" fill="#EED7B4"/>
<rect width="190" height="13.7134" rx="2" transform="matrix(-1 0 0 1 343 641)" fill="#E0BB83"/>
<path d="M342.016 776.983C342.541 779.423 341.519 781.689 338.937 783.895C336.343 786.11 332.246 788.195 326.829 790.22C316.004 794.267 300.103 798.006 280.959 802.121C261.818 806.234 243.131 809.929 228.946 811.255C221.848 811.918 215.916 811.985 211.631 811.231C207.303 810.469 204.891 808.919 204.384 806.561C203.875 804.195 205.431 801.697 209.035 799.085C212.603 796.498 217.998 793.936 224.7 791.438C238.094 786.448 256.567 781.765 275.7 777.653C294.837 773.54 310.948 770.791 322.554 770.406C328.361 770.213 332.995 770.615 336.302 771.707C339.598 772.795 341.49 774.534 342.016 776.983Z" fill="#8DDA8B" stroke="#51BC4E"/>
<path d="M182.531 761.397C182.9 763.112 181.775 764.909 178.806 766.839C175.876 768.744 171.348 770.64 165.43 772.57C153.604 776.428 136.384 780.374 115.695 784.821C95.009 789.266 74.8225 793.359 59.5908 795.315C51.9705 796.294 45.6201 796.734 41.0773 796.425C38.8025 796.27 37.0192 795.929 35.7657 795.398C34.5135 794.867 33.8732 794.185 33.7008 793.382C33.5276 792.577 33.8307 791.672 34.7508 790.641C35.6707 789.61 37.1488 788.523 39.1475 787.394C43.1393 785.139 49.0791 782.789 56.3968 780.409C71.0233 775.65 91.0463 770.802 111.727 766.357C132.41 761.912 149.791 758.722 162.215 757.665C168.432 757.137 173.369 757.147 176.847 757.785C180.368 758.431 182.161 759.672 182.531 761.397Z" fill="#8DDA8B" stroke="#51BC4E"/>
<path d="M182.531 761.397C182.9 763.112 181.775 764.909 178.806 766.839C175.876 768.744 171.348 770.64 165.43 772.57C153.604 776.428 136.384 780.374 115.695 784.821C95.009 789.266 74.8225 793.359 59.5908 795.315C51.9705 796.294 45.6201 796.734 41.0773 796.425C38.8025 796.27 37.0192 795.929 35.7657 795.398C34.5135 794.867 33.8732 794.185 33.7008 793.382C33.5276 792.577 33.8307 791.672 34.7508 790.641C35.6707 789.61 37.1488 788.523 39.1475 787.394C43.1393 785.139 49.0791 782.789 56.3968 780.409C71.0233 775.65 91.0463 770.802 111.727 766.357C132.41 761.912 149.791 758.722 162.215 757.665C168.432 757.137 173.369 757.147 176.847 757.785C180.368 758.431 182.161 759.672 182.531 761.397Z" fill="#8DDA8B" stroke="#51BC4E"/>
<path d="M308.531 761.397C308.9 763.112 307.775 764.909 304.806 766.839C301.876 768.744 297.348 770.64 291.43 772.57C279.604 776.428 262.384 780.374 241.695 784.821C221.009 789.266 200.823 793.359 185.591 795.315C177.97 796.294 171.62 796.734 167.077 796.425C164.802 796.27 163.019 795.929 161.766 795.398C160.514 794.867 159.873 794.185 159.701 793.382C159.528 792.577 159.831 791.672 160.751 790.641C161.671 789.61 163.149 788.523 165.148 787.394C169.139 785.139 175.079 782.789 182.397 780.409C197.023 775.65 217.046 770.802 237.727 766.357C258.41 761.912 275.791 758.722 288.215 757.665C294.432 757.137 299.369 757.147 302.847 757.785C306.368 758.431 308.161 759.672 308.531 761.397Z" fill="#8DDA8B" stroke="#51BC4E"/>
<path d="M199.531 747.367C200.408 748.886 199.888 750.942 197.655 753.689C195.451 756.402 191.723 759.596 186.683 763.249C176.612 770.549 161.433 779.59 143.107 790.17C124.784 800.75 106.827 810.84 92.9307 817.376C85.9784 820.646 80.0694 823.013 75.6508 824.113C73.4383 824.664 71.6365 824.887 70.2803 824.765C68.9257 824.644 68.107 824.192 67.6966 823.481C67.2846 822.767 67.2955 821.814 67.8547 820.55C68.4138 819.286 69.487 817.798 71.0428 816.11C74.1502 812.739 79.0822 808.68 85.3162 804.168C97.7767 795.151 115.346 784.392 133.665 773.816C151.986 763.238 167.549 754.868 179.049 750.05C184.804 747.639 189.507 746.133 193.012 745.673C196.562 745.207 198.648 745.839 199.531 747.367Z" fill="#8DDA8B" stroke="#51BC4E"/>
<path d="M234.531 747.367C235.408 748.886 234.888 750.942 232.655 753.689C230.451 756.402 226.723 759.596 221.683 763.249C211.612 770.549 196.433 779.59 178.107 790.17C159.784 800.75 141.827 810.84 127.931 817.376C120.978 820.646 115.069 823.013 110.651 824.113C108.438 824.664 106.636 824.887 105.28 824.765C103.926 824.644 103.107 824.192 102.697 823.481C102.285 822.767 102.295 821.814 102.855 820.55C103.414 819.286 104.487 817.798 106.043 816.11C109.15 812.739 114.082 808.68 120.316 804.168C132.777 795.151 150.346 784.392 168.665 773.816C186.986 763.238 202.549 754.868 214.049 750.05C219.804 747.639 224.507 746.133 228.012 745.673C231.562 745.207 233.648 745.839 234.531 747.367Z" fill="#8DDA8B" stroke="#51BC4E"/>
<path d="M270.531 747.367C271.408 748.886 270.888 750.942 268.655 753.689C266.451 756.402 262.723 759.596 257.683 763.249C247.612 770.549 232.433 779.59 214.107 790.17C195.784 800.75 177.827 810.84 163.931 817.376C156.978 820.646 151.069 823.013 146.651 824.113C144.438 824.664 142.636 824.887 141.28 824.765C139.926 824.644 139.107 824.192 138.697 823.481C138.285 822.767 138.295 821.814 138.855 820.55C139.414 819.286 140.487 817.798 142.043 816.11C145.15 812.739 150.082 808.68 156.316 804.168C168.777 795.151 186.346 784.392 204.665 773.816C222.986 763.238 238.549 754.868 250.049 750.05C255.804 747.639 260.507 746.133 264.012 745.673C267.562 745.207 269.648 745.839 270.531 747.367Z" fill="#8DDA8B" stroke="#51BC4E"/>
<path d="M341.531 747.367C342.408 748.886 341.888 750.942 339.655 753.689C337.451 756.402 333.723 759.596 328.683 763.249C318.612 770.549 303.433 779.59 285.107 790.17C266.784 800.75 248.827 810.84 234.931 817.376C227.978 820.646 222.069 823.013 217.651 824.113C215.438 824.664 213.636 824.887 212.28 824.765C210.926 824.644 210.107 824.192 209.697 823.481C209.285 822.767 209.295 821.814 209.855 820.55C210.414 819.286 211.487 817.798 213.043 816.11C216.15 812.739 221.082 808.68 227.316 804.168C239.777 795.151 257.346 784.392 275.665 773.816C293.986 763.238 309.549 754.868 321.049 750.05C326.804 747.639 331.507 746.133 335.012 745.673C338.562 745.207 340.648 745.839 341.531 747.367Z" fill="#8DDA8B" stroke="#51BC4E"/>
<path d="M240.436 783.527C240.436 785.282 238.958 786.802 235.65 788.065C232.385 789.312 227.56 790.214 221.368 790.858C208.996 792.144 191.331 792.385 170.17 792.385C149.012 792.385 128.416 792.145 113.113 790.857C105.457 790.213 99.156 789.309 94.7796 788.052C92.5881 787.422 90.9162 786.714 89.8024 785.931C88.6898 785.149 88.207 784.348 88.207 783.527C88.207 782.703 88.6933 781.883 89.8097 781.067C90.9257 780.253 92.5993 779.5 94.7905 778.817C99.1669 777.451 105.468 776.402 113.122 775.612C128.422 774.032 149.017 773.5 170.17 773.5C191.325 773.5 208.989 774.033 221.357 775.61C227.546 776.4 232.372 777.447 235.637 778.801C238.944 780.173 240.436 781.763 240.436 783.527Z" fill="#8DDA8B" stroke="#51BC4E"/>
<path fill-rule="evenodd" clip-rule="evenodd" d="M934.112 566.775L368.299 1008.21C353.482 1002.35 343 987.901 343 971V966.307L881.027 544H898C913.924 544 927.675 553.305 934.112 566.775Z" fill="url(#paint0_linear_302_1643)" fill-opacity="0.15"/>
<path fill-rule="evenodd" clip-rule="evenodd" d="M419.464 1011H399.99L938 590.072V605.309L419.464 1011Z" fill="url(#paint1_linear_302_1643)" fill-opacity="0.1"/>
<path fill-rule="evenodd" clip-rule="evenodd" d="M343 956.146C337.115 970.019 331.971 979.677 324.386 986.694C308.095 1001.76 280.541 1004.66 210.191 1011H335C339.418 1011 343 1007.42 343 1003V956.146Z" fill="#E4C089"/>
<path fill-rule="evenodd" clip-rule="evenodd" d="M154.535 1011C113.011 1007.11 43.8813 1000.08 35.4999 973.001C31.8674 961.265 26.1772 952.319 19.6992 945.702V1003C19.6992 1007.42 23.2809 1011 27.6992 1011H154.535Z" fill="#E4C089"/>
<path d="M22.5161 811.899L2.88865 805.282C2.3521 805.102 2.48216 804.309 3.04839 804.309H22.6758C22.9519 804.309 23.1758 804.532 23.1758 804.809V811.425C23.1758 811.767 22.8401 812.009 22.5161 811.899Z" fill="#D6A253"/>
<rect width="323.301" height="213.084" rx="8" transform="matrix(-1 0 0 1 343 797.916)" fill="#E9CA9C"/>
<path fill-rule="evenodd" clip-rule="evenodd" d="M343 813.019V805.916C343 801.498 339.418 797.916 335 797.916H27.6992C23.2809 797.916 19.6992 801.498 19.6992 805.916V838.065C64.6125 822.958 175.221 813.499 343 813.019Z" fill="#E4C494"/>
<rect width="343" height="22.0187" rx="2" transform="matrix(-1 0 0 1 343 783)" fill="#E0BB83"/>
<path d="M101.385 323.375L85.8506 314.406C87.6839 311.231 89.515 308.559 91.3438 306.391C93.2296 304.208 95.2943 302.466 97.5379 301.163C99.7815 299.86 102.339 298.931 105.21 298.375C107.718 297.947 109.961 297.438 111.938 296.847C113.914 296.256 115.613 295.481 117.033 294.521C118.454 293.561 119.601 292.323 120.476 290.807C121.56 288.931 122.175 287.241 122.321 285.738C122.503 284.255 122.238 282.923 121.525 281.742C120.868 280.545 119.764 279.499 118.213 278.603C116.95 277.874 115.582 277.493 114.109 277.461C112.673 277.449 111.236 277.895 109.801 278.798C108.386 279.665 107.038 281.124 105.758 283.176L87.4089 272.582C90.6214 267.268 94.333 263.589 98.5438 261.546C102.812 259.487 107.306 258.786 112.027 259.443C116.804 260.084 121.575 261.78 126.338 264.53C131.606 267.572 135.666 270.998 138.517 274.809C141.369 278.621 142.878 282.715 143.044 287.094C143.232 291.436 141.982 295.934 139.294 300.589C137.502 303.692 135.344 306.055 132.82 307.677C130.353 309.284 127.554 310.506 124.424 311.345C121.35 312.169 117.959 313.001 114.25 313.842C111.094 314.474 108.585 315.528 106.724 317.003C104.882 318.442 103.103 320.566 101.385 323.375ZM74.1314 329.579C75.6314 326.981 77.8196 325.358 80.6959 324.709C83.5932 324.024 86.5393 324.546 89.5343 326.276C92.5293 328.005 94.4546 330.295 95.3101 333.147C96.1865 335.962 95.8747 338.669 94.3747 341.267C92.8747 343.865 90.6761 345.506 87.7789 346.191C84.9025 346.84 81.9668 346.3 78.9718 344.57C75.9768 342.841 74.0411 340.569 73.1647 337.754C72.3091 334.902 72.6314 332.177 74.1314 329.579Z" fill="#E6F2F9"/>
<path d="M104.715 319.456L89.1806 310.487C91.014 307.312 92.8451 304.64 94.6739 302.472C96.5597 300.29 98.6244 298.547 100.868 297.244C103.112 295.941 105.669 295.012 108.54 294.456C111.048 294.028 113.291 293.519 115.268 292.928C117.244 292.337 118.943 291.562 120.363 290.602C121.784 289.642 122.931 288.404 123.806 286.888C124.89 285.012 125.505 283.322 125.651 281.819C125.833 280.336 125.568 279.004 124.855 277.823C124.198 276.626 123.095 275.58 121.543 274.684C120.28 273.955 118.912 273.574 117.439 273.542C116.003 273.53 114.566 273.976 113.131 274.879C111.716 275.746 110.368 277.205 109.088 279.257L90.739 268.663C93.9514 263.349 97.663 259.67 101.874 257.627C106.142 255.568 110.636 254.867 115.357 255.524C120.134 256.165 124.905 257.861 129.668 260.611C134.936 263.653 138.996 267.079 141.847 270.89C144.699 274.702 146.208 278.797 146.374 283.175C146.562 287.517 145.312 292.015 142.624 296.67C140.832 299.773 138.675 302.136 136.15 303.758C133.683 305.365 130.884 306.587 127.754 307.426C124.68 308.25 121.289 309.082 117.58 309.924C114.424 310.556 111.916 311.609 110.054 313.084C108.213 314.523 106.433 316.647 104.715 319.456ZM77.4614 325.66C78.9614 323.062 81.1496 321.439 84.026 320.79C86.9232 320.105 89.8694 320.627 92.8644 322.357C95.8594 324.086 97.7846 326.376 98.6402 329.228C99.5166 332.043 99.2048 334.75 97.7048 337.348C96.2048 339.946 94.0062 341.587 91.109 342.272C88.2326 342.921 85.2969 342.381 82.3019 340.651C79.3069 338.922 77.3712 336.65 76.4948 333.835C75.6392 330.983 75.9614 328.258 77.4614 325.66Z" fill="#59A7D3"/>
<path d="M1057.3 407.3L1039.98 402.658C1040.93 399.116 1042 396.061 1043.21 393.494C1044.47 390.898 1046.01 388.68 1047.84 386.841C1049.67 385.002 1051.9 383.442 1054.53 382.163C1056.84 381.1 1058.87 380.027 1060.63 378.945C1062.39 377.863 1063.83 376.674 1064.95 375.379C1066.07 374.084 1066.86 372.592 1067.32 370.901C1067.88 368.808 1068.03 367.017 1067.79 365.527C1067.58 364.048 1066.98 362.83 1065.98 361.873C1065.04 360.887 1063.7 360.162 1061.97 359.699C1060.56 359.321 1059.14 359.307 1057.71 359.657C1056.32 360.018 1055.05 360.82 1053.9 362.064C1052.75 363.268 1051.83 365.026 1051.12 367.339L1030.66 361.855C1032.39 355.891 1035.02 351.377 1038.56 348.313C1042.15 345.22 1046.31 343.38 1051.04 342.792C1055.82 342.175 1060.86 342.579 1066.18 344.002C1072.05 345.577 1076.86 347.836 1080.6 350.779C1084.34 353.723 1086.86 357.287 1088.15 361.473C1089.46 365.619 1089.42 370.288 1088.02 375.479C1087.1 378.941 1085.62 381.781 1083.61 384.001C1081.64 386.192 1079.25 388.097 1076.44 389.717C1073.69 391.308 1070.63 392.99 1067.26 394.763C1064.38 396.19 1062.23 397.857 1060.81 399.764C1059.41 401.63 1058.24 404.142 1057.3 407.3ZM1032.59 420.347C1033.36 417.449 1035.05 415.315 1037.67 413.944C1040.29 412.532 1043.27 412.274 1046.61 413.169C1049.95 414.064 1052.4 415.778 1053.97 418.311C1055.54 420.804 1055.94 423.499 1055.16 426.397C1054.39 429.295 1052.69 431.449 1050.07 432.861C1047.46 434.232 1044.48 434.47 1041.14 433.575C1037.8 432.679 1035.34 430.986 1033.77 428.493C1032.2 425.96 1031.81 423.245 1032.59 420.347Z" fill="#59A7D3"/>
<path d="M257.389 343.94L258.347 344.12L258.551 343.166C259.047 340.851 259.737 339.051 260.59 337.726L260.594 337.72C261.428 336.403 262.795 335.15 264.769 333.986L264.78 333.98L264.791 333.973C267.202 332.468 269.393 331.046 271.365 329.707C273.438 328.299 275.183 326.686 276.591 324.865C278.081 322.962 279.067 320.623 279.582 317.883C280.344 313.821 280.111 310.164 278.816 306.955C277.529 303.725 275.311 301.073 272.205 299.002C269.113 296.94 265.27 295.496 260.71 294.64C256.565 293.862 252.655 293.838 248.99 294.59C245.313 295.327 242.147 297.014 239.514 299.643L239.512 299.644C236.881 302.284 235.113 305.968 234.144 310.607L233.936 311.606L234.939 311.794L250.485 314.713L251.434 314.891L251.645 313.948C252.017 312.285 252.555 311.097 253.202 310.305L253.202 310.305L253.209 310.296C253.896 309.436 254.643 308.901 255.444 308.628C256.328 308.342 257.214 308.285 258.116 308.455C259.307 308.678 260.159 309.08 260.745 309.604L260.761 309.618L260.777 309.631C261.385 310.13 261.792 310.795 261.987 311.677L261.99 311.69L261.993 311.702C262.217 312.605 262.222 313.784 261.942 315.28C261.73 316.409 261.29 317.416 260.622 318.312C259.932 319.236 259.007 320.127 257.829 320.978C256.623 321.848 255.207 322.734 253.575 323.634L253.565 323.639L253.556 323.645C251.588 324.788 249.929 326.135 248.591 327.693C247.255 329.249 246.18 331.075 245.358 333.159L245.358 333.159L245.354 333.17C244.579 335.205 243.939 337.586 243.429 340.302L243.245 341.285L244.228 341.469L257.389 343.94ZM254.191 363.124L254.199 363.118C256.303 361.778 257.604 359.85 258.065 357.392C258.526 354.935 258.012 352.679 256.528 350.696C255.043 348.673 252.878 347.427 250.137 346.913C247.396 346.398 244.927 346.774 242.81 348.12C240.707 349.431 239.409 351.347 238.948 353.804C238.487 356.262 238.999 358.53 240.474 360.542L240.48 360.55C241.972 362.542 244.139 363.769 246.876 364.283C249.614 364.797 252.078 364.439 254.191 363.124Z" stroke="#59A7D3" stroke-width="2"/>
<path d="M1211.11 391.435L1212.08 391.361L1212.03 390.387C1211.91 388.023 1212.12 386.106 1212.6 384.604L1212.6 384.598C1213.06 383.11 1214.06 381.546 1215.67 379.911L1215.67 379.902L1215.68 379.893C1217.62 377.815 1219.37 375.874 1220.93 374.07C1222.57 372.174 1223.83 370.164 1224.72 368.041C1225.67 365.817 1226.02 363.302 1225.8 360.523C1225.49 356.402 1224.32 352.93 1222.24 350.165C1220.16 347.378 1217.33 345.391 1213.79 344.194C1210.27 343.002 1206.19 342.602 1201.56 342.956C1197.36 343.277 1193.57 344.266 1190.23 345.941C1186.87 347.604 1184.24 350.053 1182.38 353.274L1182.38 353.276C1180.52 356.507 1179.77 360.522 1180.03 365.255L1180.09 366.273L1181.11 366.196L1196.88 364.991L1197.84 364.917L1197.8 363.952C1197.73 362.25 1197.94 360.963 1198.36 360.03L1198.36 360.03L1198.37 360.02C1198.81 359.011 1199.39 358.301 1200.09 357.83C1200.87 357.325 1201.72 357.041 1202.63 356.971C1203.84 356.879 1204.77 357.047 1205.47 357.401L1205.49 357.41L1205.5 357.419C1206.22 357.743 1206.79 358.28 1207.2 359.082L1207.21 359.093L1207.22 359.105C1207.67 359.918 1207.98 361.056 1208.09 362.573C1208.18 363.719 1208.02 364.805 1207.6 365.844C1207.17 366.915 1206.51 368.015 1205.59 369.142C1204.65 370.295 1203.52 371.517 1202.17 372.809L1202.16 372.816L1202.16 372.824C1200.55 374.437 1199.3 376.168 1198.41 378.019C1197.52 379.868 1196.96 381.91 1196.7 384.135L1196.7 384.135L1196.7 384.147C1196.48 386.314 1196.48 388.779 1196.69 391.534L1196.76 392.531L1197.76 392.455L1211.11 391.435ZM1212.99 410.793L1213 410.786C1214.68 408.947 1215.44 406.748 1215.25 404.254C1215.06 401.762 1213.98 399.716 1212.03 398.184C1210.07 396.614 1207.66 395.972 1204.88 396.184C1202.1 396.397 1199.81 397.398 1198.11 399.247C1196.42 401.057 1195.66 403.243 1195.85 405.736C1196.04 408.23 1197.13 410.288 1199.07 411.849L1199.08 411.856C1201.04 413.393 1203.45 414.018 1206.22 413.806C1209 413.594 1211.29 412.61 1212.99 410.793Z" stroke="#59A7D3" stroke-width="2"/>
<path d="M253.463 174.326L236.137 178.968C235.188 175.426 234.594 172.243 234.354 169.417C234.144 166.54 234.372 163.847 235.037 161.34C235.702 158.832 236.853 156.367 238.49 153.944C239.961 151.867 241.187 149.921 242.167 148.106C243.147 146.29 243.8 144.541 244.126 142.858C244.451 141.174 244.387 139.487 243.934 137.797C243.374 135.704 242.613 134.075 241.654 132.908C240.734 131.731 239.605 130.977 238.265 130.646C236.955 130.263 235.435 130.304 233.704 130.768C232.295 131.145 231.059 131.843 229.994 132.862C228.97 133.87 228.27 135.2 227.894 136.854C227.506 138.468 227.585 140.452 228.13 142.808L207.665 148.292C206.179 142.263 206.202 137.037 207.735 132.615C209.297 128.141 211.979 124.468 215.781 121.594C219.613 118.669 224.186 116.495 229.498 115.072C235.374 113.497 240.668 113.049 245.379 113.728C250.09 114.407 254.053 116.235 257.266 119.213C260.469 122.151 262.766 126.216 264.157 131.408C265.085 134.869 265.229 138.066 264.591 140.997C263.983 143.878 262.868 146.722 261.248 149.528C259.657 152.284 257.848 155.271 255.82 158.489C254.035 161.167 253.006 163.685 252.733 166.045C252.448 168.364 252.692 171.124 253.463 174.326ZM238.579 197.984C237.803 195.086 238.202 192.391 239.777 189.898C241.342 187.365 243.794 185.651 247.135 184.756C250.475 183.861 253.456 184.119 256.077 185.531C258.688 186.902 260.381 189.036 261.158 191.934C261.934 194.832 261.54 197.547 259.976 200.08C258.401 202.573 255.943 204.266 252.602 205.162C249.262 206.057 246.286 205.819 243.676 204.448C241.055 203.036 239.356 200.882 238.579 197.984Z" fill="#E6F2F9"/>
<path d="M253.047 169.2L235.721 173.842C234.772 170.3 234.178 167.117 233.938 164.291C233.728 161.414 233.956 158.721 234.621 156.214C235.286 153.706 236.437 151.241 238.074 148.818C239.545 146.741 240.771 144.795 241.751 142.98C242.731 141.164 243.384 139.415 243.71 137.732C244.035 136.048 243.971 134.361 243.518 132.671C242.958 130.578 242.197 128.949 241.238 127.782C240.318 126.605 239.189 125.851 237.849 125.52C236.539 125.137 235.019 125.178 233.288 125.642C231.879 126.019 230.643 126.717 229.578 127.736C228.554 128.744 227.854 130.074 227.478 131.728C227.09 133.342 227.169 135.326 227.714 137.682L207.249 143.166C205.763 137.137 205.786 131.911 207.319 127.489C208.881 123.015 211.563 119.342 215.365 116.468C219.197 113.543 223.77 111.369 229.082 109.946C234.958 108.371 240.252 107.923 244.963 108.602C249.674 109.281 253.637 111.109 256.85 114.087C260.053 117.025 262.35 121.09 263.741 126.282C264.669 129.743 264.813 132.94 264.175 135.871C263.567 138.752 262.452 141.596 260.832 144.402C259.241 147.158 257.432 150.145 255.404 153.363C253.619 156.041 252.59 158.559 252.317 160.919C252.032 163.238 252.276 165.998 253.047 169.2ZM238.163 192.858C237.387 189.96 237.786 187.265 239.361 184.772C240.926 182.239 243.378 180.525 246.719 179.63C250.059 178.735 253.04 178.993 255.661 180.405C258.272 181.776 259.965 183.91 260.742 186.808C261.518 189.706 261.124 192.421 259.56 194.954C257.985 197.447 255.527 199.14 252.186 200.036C248.846 200.931 245.87 200.693 243.26 199.322C240.639 197.91 238.94 195.756 238.163 192.858Z" fill="#59A7D3"/>
<path d="M1149.51 191.388L1127.72 197.251C1126.52 192.778 1125.78 188.757 1125.48 185.189C1125.21 181.555 1125.5 178.155 1126.33 174.988C1127.17 171.822 1128.62 168.708 1130.68 165.648C1132.53 163.026 1134.07 160.568 1135.3 158.276C1136.54 155.983 1137.36 153.773 1137.77 151.648C1138.18 149.522 1138.1 147.392 1137.53 145.257C1136.82 142.614 1135.86 140.556 1134.66 139.083C1133.5 137.596 1132.08 136.644 1130.39 136.226C1128.75 135.743 1126.83 135.794 1124.66 136.38C1122.89 136.857 1121.33 137.738 1119.99 139.024C1118.7 140.297 1117.82 141.978 1117.35 144.066C1116.86 146.104 1116.96 148.61 1117.65 151.585L1091.9 158.511C1090.03 150.897 1090.06 144.297 1091.99 138.712C1093.96 133.063 1097.33 128.424 1102.11 124.794C1106.93 121.101 1112.68 118.355 1119.37 116.557C1126.76 114.569 1133.42 114.003 1139.34 114.861C1145.27 115.718 1150.25 118.027 1154.3 121.788C1158.32 125.498 1161.21 130.631 1162.96 137.188C1164.13 141.559 1164.31 145.596 1163.51 149.298C1162.74 152.936 1161.34 156.527 1159.3 160.072C1157.3 163.552 1155.03 167.324 1152.48 171.388C1150.23 174.77 1148.94 177.951 1148.59 180.931C1148.24 183.86 1148.54 187.345 1149.51 191.388ZM1130.79 221.266C1129.81 217.606 1130.32 214.203 1132.3 211.055C1134.26 207.856 1137.35 205.691 1141.55 204.561C1145.75 203.431 1149.5 203.757 1152.8 205.539C1156.08 207.27 1158.21 209.966 1159.19 213.625C1160.17 217.285 1159.67 220.714 1157.7 223.913C1155.72 227.061 1152.63 229.2 1148.43 230.33C1144.23 231.461 1140.48 231.16 1137.2 229.429C1133.9 227.646 1131.77 224.925 1130.79 221.266Z" fill="#E6F2F9"/>
<path d="M1148.99 184.915L1127.19 190.778C1126 186.305 1125.25 182.284 1124.95 178.715C1124.69 175.082 1124.97 171.682 1125.81 168.515C1126.65 165.348 1128.1 162.235 1130.15 159.175C1132 156.553 1133.55 154.095 1134.78 151.802C1136.01 149.509 1136.83 147.3 1137.24 145.174C1137.65 143.049 1137.57 140.918 1137 138.784C1136.3 136.141 1135.34 134.083 1134.13 132.61C1132.98 131.123 1131.56 130.171 1129.87 129.752C1128.22 129.27 1126.31 129.321 1124.13 129.907C1122.36 130.383 1120.81 131.265 1119.47 132.551C1118.18 133.824 1117.3 135.504 1116.83 137.593C1116.34 139.63 1116.44 142.137 1117.12 145.112L1091.38 152.037C1089.51 144.423 1089.54 137.824 1091.47 132.239C1093.43 126.59 1096.81 121.95 1101.59 118.321C1106.41 114.627 1112.16 111.882 1118.84 110.084C1126.23 108.096 1132.89 107.53 1138.82 108.387C1144.75 109.245 1149.73 111.554 1153.77 115.315C1157.8 119.025 1160.69 124.158 1162.44 130.715C1163.61 135.086 1163.79 139.123 1162.99 142.825C1162.22 146.463 1160.82 150.054 1158.78 153.599C1156.78 157.079 1154.5 160.851 1151.95 164.914C1149.71 168.297 1148.41 171.478 1148.07 174.457C1147.71 177.386 1148.02 180.872 1148.99 184.915ZM1130.27 214.792C1129.29 211.133 1129.79 207.729 1131.77 204.581C1133.74 201.383 1136.83 199.218 1141.03 198.088C1145.23 196.957 1148.98 197.283 1152.28 199.066C1155.56 200.797 1157.69 203.493 1158.67 207.152C1159.64 210.812 1159.15 214.241 1157.18 217.44C1155.2 220.587 1152.11 222.727 1147.91 223.857C1143.7 224.987 1139.96 224.687 1136.68 222.955C1133.38 221.173 1131.24 218.452 1130.27 214.792Z" fill="#59A7D3"/>
<defs>
<linearGradient id="paint0_linear_302_1643" x1="640.934" y1="544.066" x2="640.934" y2="1011" gradientUnits="userSpaceOnUse">
<stop stop-color="white"/>
<stop offset="1" stop-color="white" stop-opacity="0"/>
</linearGradient>
<linearGradient id="paint1_linear_302_1643" x1="675.642" y1="600.472" x2="675.642" y2="1011" gradientUnits="userSpaceOnUse">
<stop stop-color="white"/>
<stop offset="0.906962" stop-color="white" stop-opacity="0"/>
</linearGradient>
</defs>
</svg>
