<svg width="398" height="280" viewBox="0 0 398 280" fill="none" xmlns="http://www.w3.org/2000/svg">
<path d="M8.94043 256.398C8.94043 156.662 89.7923 75.8105 189.528 75.8105C289.264 75.8105 370.115 156.662 370.115 256.398V280H8.94043V256.398Z" fill="#E6F2F8"/>
<path opacity="0.6" d="M318.562 54.2603C318.395 54.2276 317.909 54.0992 317.404 53.9777C317.19 53.9259 316.995 53.8066 316.843 53.6346C316.691 53.4627 316.588 53.2458 316.548 53.0107C316.426 52.2913 316.272 51.4318 316.182 50.8502C316.167 50.7545 316.069 50.7568 316.056 50.8502C316.005 51.2006 315.782 52.1512 315.615 52.9897C315.567 53.2245 315.457 53.4385 315.298 53.6048C315.138 53.7711 314.938 53.8822 314.721 53.924C314.278 54.0104 313.865 54.1015 313.683 54.1575C313.663 54.1624 313.645 54.1745 313.632 54.1919C313.619 54.2093 313.612 54.231 313.612 54.2533C313.612 54.2756 313.619 54.2973 313.632 54.3147C313.645 54.3321 313.663 54.3442 313.683 54.3491C313.972 54.4191 314.335 54.5009 314.695 54.5826C314.912 54.6296 315.112 54.7462 315.269 54.9176C315.426 55.089 315.532 55.3073 315.574 55.5449C315.705 56.2783 315.883 57.0771 315.962 57.4625C315.966 57.4933 315.98 57.5215 316.001 57.542C316.022 57.5624 316.05 57.5737 316.078 57.5737C316.107 57.5737 316.134 57.5624 316.156 57.542C316.177 57.5215 316.191 57.4933 316.195 57.4625C316.304 56.8389 316.433 56.1522 316.538 55.5753C316.581 55.3369 316.689 55.1181 316.847 54.947C317.005 54.776 317.207 54.6605 317.426 54.6153L318.564 54.3818C318.571 54.3816 318.579 54.3799 318.585 54.3767C318.592 54.3735 318.598 54.3689 318.603 54.3632C318.608 54.3574 318.612 54.3506 318.615 54.3432C318.618 54.3358 318.619 54.3278 318.619 54.3199C318.619 54.3119 318.617 54.304 318.614 54.2967C318.611 54.2894 318.607 54.2828 318.602 54.2773C318.596 54.2717 318.59 54.2674 318.583 54.2645C318.577 54.2616 318.569 54.2601 318.562 54.2603Z" fill="#198EB3"/>
<path opacity="0.6" d="M393.656 109.688C393.477 109.655 392.956 109.527 392.415 109.405C392.186 109.354 391.977 109.234 391.814 109.062C391.651 108.89 391.541 108.673 391.498 108.438C391.367 107.719 391.202 106.86 391.106 106.278C391.09 106.182 390.985 106.185 390.971 106.278C390.916 106.628 390.677 107.579 390.498 108.417C390.447 108.652 390.329 108.866 390.158 109.033C389.988 109.199 389.773 109.31 389.54 109.352C389.065 109.438 388.623 109.529 388.428 109.585C388.407 109.59 388.387 109.602 388.374 109.62C388.36 109.637 388.353 109.659 388.353 109.681C388.353 109.703 388.36 109.725 388.374 109.742C388.387 109.76 388.407 109.772 388.428 109.777C388.737 109.847 389.127 109.929 389.512 110.01C389.746 110.057 389.96 110.174 390.128 110.345C390.295 110.517 390.409 110.735 390.455 110.973C390.595 111.706 390.785 112.505 390.87 112.89C390.874 112.921 390.889 112.949 390.912 112.97C390.935 112.99 390.964 113.001 390.995 113.001C391.025 113.001 391.055 112.99 391.078 112.97C391.101 112.949 391.116 112.921 391.12 112.89C391.237 112.267 391.374 111.58 391.487 111.003C391.533 110.765 391.649 110.546 391.818 110.375C391.988 110.204 392.204 110.088 392.438 110.043L393.658 109.809C393.666 109.809 393.674 109.808 393.681 109.804C393.688 109.801 393.694 109.797 393.7 109.791C393.705 109.785 393.71 109.778 393.712 109.771C393.715 109.764 393.717 109.756 393.717 109.748C393.716 109.74 393.715 109.732 393.712 109.724C393.708 109.717 393.704 109.711 393.698 109.705C393.693 109.699 393.686 109.695 393.679 109.692C393.671 109.689 393.664 109.688 393.656 109.688Z" fill="#198EB3"/>
<path opacity="0.6" d="M397.545 186.799C397.235 186.747 396.333 186.545 395.395 186.353C394.998 186.271 394.635 186.083 394.352 185.811C394.07 185.54 393.879 185.197 393.805 184.826C393.578 183.69 393.292 182.333 393.125 181.415C393.097 181.264 392.915 181.267 392.891 181.415C392.795 181.968 392.382 183.469 392.072 184.793C391.983 185.164 391.778 185.502 391.482 185.764C391.187 186.027 390.814 186.202 390.411 186.268C389.588 186.404 388.821 186.548 388.483 186.637C388.446 186.644 388.413 186.664 388.389 186.691C388.365 186.719 388.353 186.753 388.353 186.788C388.353 186.823 388.365 186.857 388.389 186.885C388.413 186.912 388.446 186.932 388.483 186.939C389.02 187.05 389.695 187.179 390.363 187.308C390.767 187.382 391.138 187.566 391.429 187.837C391.72 188.107 391.918 188.452 391.997 188.827C392.239 189.985 392.569 191.247 392.716 191.855C392.723 191.904 392.749 191.948 392.789 191.981C392.829 192.013 392.88 192.031 392.933 192.031C392.985 192.031 393.037 192.013 393.076 191.981C393.116 191.948 393.142 191.904 393.149 191.855C393.352 190.87 393.59 189.786 393.785 188.875C393.866 188.499 394.066 188.153 394.36 187.883C394.654 187.613 395.028 187.431 395.434 187.36L397.549 186.991C397.562 186.991 397.576 186.988 397.588 186.983C397.601 186.978 397.612 186.971 397.621 186.961C397.631 186.952 397.638 186.942 397.643 186.93C397.648 186.918 397.65 186.906 397.65 186.893C397.65 186.881 397.647 186.868 397.641 186.857C397.636 186.845 397.628 186.835 397.618 186.826C397.609 186.817 397.597 186.81 397.585 186.806C397.572 186.801 397.558 186.799 397.545 186.799Z" fill="#198EB3"/>
<path opacity="0.6" d="M242.369 24.6057C242.13 24.5626 241.436 24.3936 240.715 24.2338C240.409 24.1656 240.131 24.0086 239.913 23.7824C239.696 23.5562 239.549 23.2707 239.492 22.9615C239.318 22.0149 239.098 20.884 238.969 20.1187C238.948 19.9927 238.807 19.9958 238.789 20.1187C238.715 20.5797 238.398 21.8305 238.159 22.9338C238.091 23.2427 237.933 23.5244 237.705 23.7432C237.478 23.962 237.191 24.1081 236.881 24.1631C236.248 24.2768 235.658 24.3967 235.398 24.4704C235.37 24.4768 235.344 24.4928 235.326 24.5157C235.308 24.5386 235.298 24.5671 235.298 24.5965C235.298 24.6258 235.308 24.6543 235.326 24.6772C235.344 24.7001 235.37 24.7161 235.398 24.7224C235.811 24.8146 236.331 24.9222 236.844 25.0298C237.155 25.0916 237.441 25.245 237.664 25.4705C237.888 25.696 238.04 25.9833 238.101 26.2959C238.287 27.2609 238.541 28.312 238.654 28.8191C238.66 28.8596 238.68 28.8968 238.71 28.9236C238.741 28.9505 238.78 28.9654 238.821 28.9654C238.862 28.9654 238.901 28.9505 238.932 28.9236C238.962 28.8968 238.982 28.8596 238.988 28.8191C239.143 27.9985 239.327 27.095 239.477 26.3359C239.539 26.0222 239.693 25.7343 239.919 25.5093C240.145 25.2842 240.433 25.1322 240.745 25.0728L242.372 24.7655C242.382 24.7653 242.393 24.763 242.402 24.7588C242.412 24.7546 242.42 24.7486 242.428 24.741C242.435 24.7334 242.441 24.7245 242.444 24.7147C242.448 24.705 242.45 24.6945 242.45 24.684C242.45 24.6735 242.447 24.6632 242.443 24.6536C242.439 24.644 242.433 24.6353 242.425 24.628C242.418 24.6207 242.409 24.615 242.399 24.6112C242.39 24.6073 242.379 24.6055 242.369 24.6057Z" fill="#198EB3"/>
<path opacity="0.6" d="M342.142 127.784C341.904 127.743 341.208 127.578 340.495 127.422C340.19 127.356 339.912 127.205 339.694 126.986C339.477 126.768 339.33 126.493 339.273 126.195C339.095 125.281 338.883 124.194 338.755 123.462C338.755 123.338 338.594 123.346 338.577 123.462C338.5 123.906 338.186 125.108 337.949 126.17C337.881 126.468 337.724 126.74 337.498 126.951C337.271 127.162 336.985 127.303 336.675 127.356C336.047 127.463 335.453 127.578 335.199 127.644C335.165 127.644 335.132 127.657 335.109 127.68C335.085 127.703 335.071 127.735 335.071 127.768C335.071 127.8 335.085 127.832 335.109 127.855C335.132 127.878 335.165 127.891 335.199 127.891L336.642 128.179C336.953 128.238 337.238 128.385 337.462 128.602C337.686 128.819 337.838 129.096 337.898 129.398C338.085 130.328 338.339 131.341 338.45 131.826C338.458 131.863 338.479 131.895 338.509 131.919C338.539 131.942 338.577 131.954 338.615 131.954C338.654 131.954 338.691 131.942 338.721 131.919C338.751 131.895 338.772 131.863 338.781 131.826C338.933 131.003 339.12 130.18 339.273 129.439C339.335 129.138 339.489 128.862 339.714 128.646C339.94 128.43 340.227 128.285 340.538 128.229L342.159 127.924C342.169 127.923 342.178 127.92 342.186 127.915C342.194 127.911 342.202 127.905 342.208 127.898C342.214 127.89 342.218 127.882 342.221 127.873C342.223 127.864 342.224 127.855 342.223 127.846C342.222 127.837 342.219 127.828 342.214 127.82C342.209 127.812 342.203 127.804 342.196 127.799C342.188 127.793 342.18 127.789 342.17 127.786C342.161 127.784 342.152 127.783 342.142 127.784Z" fill="#198EB3"/>
<path opacity="0.6" d="M275.624 113.122C275.374 113.081 274.643 112.916 273.894 112.76C273.574 112.694 273.282 112.542 273.053 112.324C272.825 112.106 272.671 111.831 272.611 111.533C272.424 110.619 272.201 109.532 272.067 108.8C272.067 108.676 271.898 108.684 271.88 108.8C271.8 109.244 271.47 110.446 271.221 111.508C271.15 111.806 270.985 112.077 270.747 112.288C270.509 112.5 270.208 112.641 269.884 112.694C269.224 112.801 268.6 112.916 268.333 112.982C268.297 112.982 268.263 112.995 268.238 113.018C268.213 113.041 268.199 113.073 268.199 113.105C268.199 113.138 268.213 113.17 268.238 113.193C268.263 113.216 268.297 113.229 268.333 113.229L269.848 113.517C270.175 113.576 270.474 113.723 270.709 113.94C270.944 114.157 271.104 114.434 271.167 114.736C271.363 115.666 271.631 116.679 271.746 117.164C271.755 117.201 271.778 117.233 271.809 117.256C271.841 117.28 271.88 117.292 271.92 117.292C271.961 117.292 272 117.28 272.032 117.256C272.063 117.233 272.085 117.201 272.094 117.164C272.254 116.341 272.451 115.518 272.611 114.777C272.676 114.476 272.838 114.2 273.074 113.984C273.311 113.768 273.612 113.623 273.939 113.566L275.641 113.262C275.651 113.261 275.661 113.258 275.67 113.253C275.679 113.249 275.686 113.243 275.692 113.236C275.699 113.228 275.703 113.22 275.706 113.211C275.709 113.202 275.709 113.193 275.708 113.184C275.707 113.174 275.704 113.166 275.699 113.157C275.694 113.149 275.688 113.142 275.68 113.137C275.672 113.131 275.663 113.127 275.653 113.124C275.644 113.122 275.634 113.121 275.624 113.122Z" fill="#198EB3"/>
<path opacity="0.6" d="M7.42453 208.77C7.17415 208.727 6.44541 208.558 5.68784 208.398C5.36709 208.33 5.07435 208.173 4.84606 207.946C4.61776 207.72 4.46397 207.435 4.40381 207.126C4.22084 206.179 3.98972 205.048 3.8549 204.283C3.83243 204.157 3.68482 204.16 3.66556 204.283C3.58852 204.744 3.25465 205.995 3.00426 207.098C2.93253 207.407 2.76675 207.688 2.52793 207.907C2.28911 208.126 1.98799 208.272 1.66248 208.327C0.997995 208.441 0.378421 208.561 0.105565 208.635C0.0756199 208.641 0.0488191 208.657 0.0296241 208.68C0.0104292 208.703 0 208.731 0 208.761C0 208.79 0.0104292 208.818 0.0296241 208.841C0.0488191 208.864 0.0756199 208.88 0.105565 208.887C0.538924 208.979 1.08463 209.086 1.62392 209.194C1.95028 209.256 2.25002 209.409 2.48498 209.635C2.71994 209.86 2.87951 210.147 2.94329 210.46C3.13911 211.425 3.40548 212.476 3.52426 212.983C3.53 213.024 3.55094 213.061 3.58311 213.088C3.61528 213.115 3.65655 213.129 3.69926 213.129C3.74197 213.129 3.78323 213.115 3.8154 213.088C3.84757 213.061 3.86843 213.024 3.87418 212.983C4.03789 212.163 4.23053 211.259 4.38782 210.5C4.45305 210.186 4.61471 209.898 4.85209 209.673C5.08947 209.448 5.39169 209.296 5.71997 209.237L7.42775 208.93C7.43871 208.929 7.44952 208.927 7.45956 208.923C7.46961 208.919 7.47869 208.913 7.48629 208.905C7.49389 208.897 7.49984 208.889 7.50384 208.879C7.50784 208.869 7.50978 208.859 7.50957 208.848C7.50935 208.838 7.50698 208.827 7.50259 208.818C7.4982 208.808 7.49192 208.799 7.48402 208.792C7.47612 208.785 7.46679 208.779 7.45659 208.775C7.44638 208.771 7.43549 208.77 7.42453 208.77Z" fill="#198EB3"/>
<path opacity="0.6" d="M61.7597 172.679C61.4497 172.625 60.5474 172.416 59.6095 172.217C59.2124 172.133 58.8499 171.938 58.5673 171.658C58.2846 171.377 58.0942 171.023 58.0197 170.64C57.7932 169.466 57.507 168.064 57.3401 167.115C57.3123 166.959 57.1295 166.962 57.1057 167.115C57.0103 167.686 56.5969 169.237 56.2869 170.605C56.1981 170.989 55.9929 171.338 55.6972 171.609C55.4015 171.88 55.0287 172.062 54.6257 172.13C53.803 172.271 53.0359 172.419 52.6981 172.511C52.661 172.519 52.6278 172.539 52.6041 172.567C52.5803 172.595 52.5674 172.631 52.5674 172.667C52.5674 172.704 52.5803 172.739 52.6041 172.767C52.6278 172.796 52.661 172.815 52.6981 172.823C53.2346 172.938 53.9103 173.071 54.578 173.204C54.982 173.281 55.3531 173.471 55.644 173.751C55.9349 174.031 56.1325 174.387 56.2115 174.775C56.4539 175.971 56.7837 177.274 56.9307 177.903C56.9379 177.953 56.9638 178 57.0036 178.033C57.0434 178.066 57.0945 178.085 57.1474 178.085C57.2003 178.085 57.2514 178.066 57.2912 178.033C57.331 178 57.3569 177.953 57.364 177.903C57.5667 176.886 57.8052 175.765 57.9999 174.824C58.0807 174.435 58.2808 174.078 58.5747 173.799C58.8686 173.52 59.2428 173.331 59.6492 173.258L61.7636 172.877C61.7772 172.876 61.7906 172.874 61.803 172.868C61.8155 172.863 61.8267 172.856 61.8361 172.846C61.8455 172.837 61.8529 172.826 61.8579 172.814C61.8628 172.802 61.8652 172.789 61.8649 172.776C61.8647 172.763 61.8617 172.75 61.8563 172.738C61.8509 172.726 61.8431 172.715 61.8333 172.706C61.8235 172.697 61.812 172.69 61.7993 172.685C61.7867 172.681 61.7732 172.678 61.7597 172.679Z" fill="#198EB3"/>
<path opacity="0.6" d="M14.9314 133.132C14.6691 133.091 13.9057 132.929 13.112 132.775C12.776 132.71 12.4693 132.559 12.2301 132.342C11.991 132.125 11.8299 131.851 11.7668 131.554C11.5751 130.645 11.333 129.56 11.1918 128.825C11.1682 128.704 11.0136 128.707 10.9934 128.825C10.9127 129.268 10.563 130.468 10.3006 131.527C10.2255 131.824 10.0518 132.094 9.80163 132.304C9.55143 132.514 9.23598 132.655 8.89497 132.708C8.19884 132.817 7.54976 132.932 7.26391 133.003C7.23254 133.009 7.20446 133.024 7.18436 133.046C7.16425 133.068 7.15332 133.095 7.15332 133.124C7.15332 133.152 7.16425 133.179 7.18436 133.201C7.20446 133.223 7.23254 133.238 7.26391 133.245C7.71791 133.333 8.2896 133.436 8.85457 133.54C9.19647 133.599 9.51049 133.746 9.75663 133.963C10.0028 134.179 10.17 134.455 10.2368 134.755C10.4419 135.681 10.721 136.69 10.8454 137.177C10.8514 137.216 10.8734 137.252 10.9071 137.278C10.9408 137.304 10.984 137.318 11.0287 137.318C11.0735 137.318 11.1167 137.304 11.1504 137.278C11.1841 137.252 11.206 137.216 11.212 137.177C11.3835 136.39 11.5853 135.522 11.7501 134.793C11.8184 134.492 11.9878 134.216 12.2365 134C12.4851 133.784 12.8018 133.638 13.1457 133.581L14.9348 133.286C14.9463 133.286 14.9576 133.283 14.9681 133.279C14.9786 133.275 14.9881 133.27 14.9961 133.262C15.0041 133.255 15.0103 133.247 15.0145 133.237C15.0187 133.228 15.0207 133.218 15.0205 133.208C15.0203 133.198 15.0178 133.188 15.0132 133.178C15.0086 133.169 15.002 133.161 14.9937 133.154C14.9854 133.147 14.9757 133.141 14.965 133.138C14.9543 133.134 14.9429 133.132 14.9314 133.132Z" fill="#198EB3"/>
<path opacity="0.6" d="M62.1373 83.1042C61.8878 83.0562 61.1567 82.8641 60.4081 82.6816C60.0876 82.6048 59.7952 82.4282 59.5671 82.1738C59.3389 81.9194 59.185 81.5983 59.1247 81.2504C58.9375 80.1843 58.7148 78.9164 58.5811 78.0615C58.5811 77.9174 58.4116 77.927 58.3938 78.0615C58.3136 78.5802 57.9838 79.9826 57.7342 81.2217C57.6634 81.5689 57.4987 81.8857 57.2607 82.1319C57.0227 82.3782 56.7222 82.5427 56.3973 82.6048C55.7378 82.7297 55.1139 82.8641 54.8465 82.941C54.811 82.941 54.7771 82.9562 54.7521 82.9832C54.727 83.0102 54.7129 83.0469 54.7129 83.0851C54.7129 83.1233 54.727 83.1599 54.7521 83.1869C54.7771 83.2139 54.811 83.2291 54.8465 83.2291L56.3618 83.5653C56.6882 83.6335 56.988 83.8052 57.2231 84.0585C57.4582 84.3119 57.6177 84.6352 57.6809 84.9869C57.877 86.0723 58.1443 87.2537 58.2602 87.8204C58.2691 87.8629 58.2913 87.9007 58.3228 87.9279C58.3544 87.955 58.3936 87.9698 58.434 87.9698C58.4744 87.9698 58.5136 87.955 58.5452 87.9279C58.5768 87.9007 58.5987 87.8629 58.6077 87.8204C58.7681 86.8599 58.9642 85.8994 59.1247 85.0349C59.1901 84.6837 59.3515 84.3615 59.5882 84.1099C59.8248 83.8583 60.1259 83.6887 60.4527 83.623L62.1552 83.2676C62.1651 83.2663 62.1747 83.2629 62.1834 83.2577C62.1922 83.2524 62.1999 83.2453 62.2061 83.2369C62.2123 83.2284 62.2168 83.2186 62.2196 83.2082C62.2223 83.1979 62.2231 83.187 62.222 83.1763C62.2208 83.1656 62.2177 83.1552 62.2128 83.1458C62.2079 83.1364 62.2013 83.1281 62.1935 83.1214C62.1856 83.1147 62.1765 83.1098 62.1669 83.1068C62.1573 83.1039 62.1473 83.103 62.1373 83.1042Z" fill="#198EB3"/>
<path opacity="0.6" d="M132.225 5.14721C131.976 5.09919 131.245 4.90708 130.496 4.72458C130.175 4.64778 129.883 4.47121 129.655 4.21677C129.427 3.96233 129.273 3.64125 129.213 3.29342C129.025 2.22724 128.803 0.95935 128.669 0.104487C128.669 -0.0395904 128.499 -0.0299852 128.482 0.104487C128.401 0.623168 128.072 2.02556 127.822 3.26463C127.751 3.61189 127.587 3.92869 127.349 4.17491C127.111 4.42113 126.81 4.58572 126.485 4.64778C125.826 4.77265 125.202 4.9071 124.934 4.98394C124.899 4.98394 124.865 4.99913 124.84 5.02615C124.815 5.05317 124.801 5.08983 124.801 5.12804C124.801 5.16625 124.815 5.20286 124.84 5.22987C124.865 5.25689 124.899 5.27209 124.934 5.27209L126.45 5.6083C126.776 5.67647 127.076 5.8482 127.311 6.10152C127.546 6.35484 127.706 6.67815 127.769 7.02985C127.965 8.11524 128.232 9.29669 128.348 9.86339C128.357 9.90584 128.379 9.94371 128.411 9.97086C128.442 9.998 128.482 10.0128 128.522 10.0128C128.562 10.0128 128.602 9.998 128.633 9.97086C128.665 9.94371 128.687 9.90584 128.696 9.86339C128.856 8.90288 129.052 7.94233 129.213 7.07787C129.278 6.72662 129.439 6.40448 129.676 6.15287C129.913 5.90127 130.214 5.73172 130.541 5.66593L132.243 5.31054C132.253 5.30928 132.263 5.3059 132.271 5.30064C132.28 5.29537 132.288 5.2883 132.294 5.27982C132.3 5.27135 132.305 5.2616 132.307 5.25121C132.31 5.24083 132.311 5.22999 132.31 5.21926C132.309 5.20854 132.306 5.1982 132.301 5.18878C132.296 5.17936 132.289 5.17102 132.281 5.16433C132.273 5.15764 132.264 5.15273 132.255 5.14979C132.245 5.14685 132.235 5.14595 132.225 5.14721Z" fill="#198EB3"/>
<path opacity="0.6" d="M121.523 106.819C121.345 106.793 120.822 106.69 120.288 106.593C120.059 106.551 119.85 106.457 119.687 106.321C119.524 106.184 119.414 106.012 119.371 105.826C119.237 105.255 119.078 104.575 118.983 104.117C118.983 104.04 118.862 104.045 118.849 104.117C118.792 104.395 118.556 105.147 118.378 105.81C118.327 105.996 118.21 106.166 118.04 106.298C117.87 106.43 117.655 106.518 117.423 106.551C116.952 106.618 116.506 106.69 116.315 106.731C116.29 106.731 116.266 106.74 116.248 106.754C116.23 106.769 116.22 106.788 116.22 106.809C116.22 106.829 116.23 106.849 116.248 106.863C116.266 106.878 116.29 106.886 116.315 106.886L117.398 107.066C117.631 107.102 117.845 107.194 118.013 107.33C118.181 107.466 118.295 107.639 118.34 107.828C118.48 108.409 118.671 109.042 118.753 109.345C118.76 109.368 118.776 109.389 118.798 109.403C118.821 109.418 118.849 109.426 118.878 109.426C118.907 109.426 118.935 109.418 118.957 109.403C118.98 109.389 118.995 109.368 119.002 109.345C119.116 108.831 119.256 108.316 119.371 107.853C119.418 107.665 119.533 107.492 119.702 107.358C119.871 107.223 120.086 107.132 120.32 107.097L121.536 106.906C121.543 106.906 121.55 106.904 121.556 106.901C121.562 106.898 121.568 106.895 121.572 106.89C121.576 106.885 121.58 106.88 121.582 106.875C121.584 106.869 121.584 106.863 121.583 106.858C121.583 106.852 121.58 106.846 121.577 106.841C121.573 106.836 121.569 106.832 121.563 106.828C121.557 106.825 121.551 106.822 121.544 106.82C121.537 106.819 121.53 106.818 121.523 106.819Z" fill="#198EB3"/>
<path opacity="0.6" d="M351.103 218.748C350.925 218.722 350.403 218.619 349.868 218.521C349.639 218.48 349.43 218.386 349.267 218.249C349.104 218.113 348.994 217.941 348.951 217.755C348.817 217.183 348.658 216.504 348.563 216.046C348.563 215.969 348.442 215.974 348.429 216.046C348.372 216.324 348.136 217.075 347.958 217.739C347.907 217.925 347.79 218.095 347.62 218.227C347.45 218.359 347.235 218.447 347.003 218.48C346.532 218.547 346.086 218.619 345.895 218.66C345.87 218.66 345.846 218.668 345.828 218.683C345.81 218.697 345.8 218.717 345.8 218.737C345.8 218.758 345.81 218.777 345.828 218.792C345.846 218.806 345.87 218.815 345.895 218.815L346.978 218.995C347.211 219.031 347.425 219.123 347.593 219.259C347.761 219.395 347.875 219.568 347.92 219.756C348.06 220.338 348.251 220.971 348.334 221.274C348.34 221.297 348.356 221.317 348.378 221.332C348.401 221.346 348.429 221.354 348.458 221.354C348.487 221.354 348.515 221.346 348.537 221.332C348.56 221.317 348.575 221.297 348.582 221.274C348.696 220.76 348.836 220.245 348.951 219.782C348.998 219.594 349.113 219.421 349.282 219.286C349.451 219.152 349.666 219.061 349.9 219.026L351.116 218.835C351.123 218.834 351.13 218.833 351.136 218.83C351.142 218.827 351.148 218.823 351.152 218.819C351.157 218.814 351.16 218.809 351.162 218.803C351.164 218.798 351.164 218.792 351.163 218.786C351.163 218.781 351.16 218.775 351.157 218.77C351.153 218.765 351.149 218.76 351.143 218.757C351.137 218.753 351.131 218.751 351.124 218.749C351.117 218.747 351.11 218.747 351.103 218.748Z" fill="#198EB3"/>
<path d="M125.232 148.178C125.232 148.178 125.098 142.938 129.089 142.938C131.989 142.938 132.886 145.439 132.213 147.553C131.54 149.666 128.326 149.666 128.596 155.233C128.596 155.233 125.101 156.794 120.825 158.88M128.596 155.218C128.596 155.218 131.904 156.776 135.988 158.88M135.988 158.88C142.576 162.273 151.183 167.085 151.183 169.06C151.183 172.26 105.515 171.605 105.395 168.628C105.322 166.804 114.054 162.183 120.825 158.88M135.988 158.88H120.825" stroke="#003450" stroke-width="0.9" stroke-linecap="round" stroke-linejoin="round"/>
<path d="M159.599 184.703C159.599 184.703 150.525 164.753 147.775 162.267C145.024 159.782 135.988 158.325 135.988 158.325C133.836 162.79 131.786 161.348 128.7 161.365C125.574 161.381 123.498 162.79 121.301 158.325C121.301 158.325 111.791 159.767 109.04 162.267C105.464 164.811 97.8008 184.703 97.8008 184.703L109.76 189.168L108.265 227.271C125.388 224.323 135.35 231.063 149.27 227.271L147.775 189.168L159.599 184.703Z" fill="#59A7D3"/>
<path d="M110.851 183.899C111.959 180.62 114.647 173.23 116.532 169.904" stroke="#358AB9" stroke-width="0.75"/>
<path d="M143.557 183.899C142.448 180.62 139.76 173.23 137.876 169.904" stroke="#358AB9" stroke-width="0.75"/>
<path fill-rule="evenodd" clip-rule="evenodd" d="M148.689 216.824C146.87 220.773 144.3 224.742 141.151 224.306C125.246 222.104 114.853 221.012 109.065 225.105L109 227.285C117.19 225.423 123.701 226.562 129.81 227.63C136.161 228.741 142.079 229.776 149 227.285L148.689 216.824Z" fill="#45A0D3"/>
<path d="M189.126 148.178C189.126 148.178 188.991 142.938 192.982 142.938C195.883 142.938 196.779 145.439 196.107 147.553C195.434 149.666 192.22 149.666 192.489 155.233C192.489 155.233 188.995 156.794 184.719 158.88C177.947 162.183 169.215 166.804 169.289 168.628C169.408 171.605 215.077 172.26 215.077 169.06C215.077 167.085 206.47 162.273 199.882 158.88C195.797 156.776 192.489 155.218 192.489 155.218" fill="#FEC861"/>
<path d="M189.126 148.178C189.126 148.178 188.991 142.938 192.982 142.938C195.883 142.938 196.779 145.439 196.107 147.553C195.434 149.666 192.22 149.666 192.489 155.233C192.489 155.233 188.995 156.794 184.719 158.88M192.489 155.218C192.489 155.218 195.797 156.776 199.882 158.88M199.882 158.88C206.47 162.273 215.077 167.085 215.077 169.06C215.077 172.26 169.408 171.605 169.289 168.628C169.215 166.804 177.947 162.183 184.719 158.88M199.882 158.88H184.719" stroke="#003450" stroke-linecap="round" stroke-linejoin="round"/>
<path d="M223.493 184.703C223.493 184.703 214.419 164.753 211.668 162.267C208.918 159.782 199.882 158.325 199.882 158.325C197.729 162.79 195.679 161.348 192.594 161.365C189.468 161.381 187.392 162.79 185.194 158.325C185.194 158.325 175.684 159.767 172.933 162.267C169.357 164.811 161.694 184.703 161.694 184.703L173.653 189.168L172.159 227.271C189.281 224.323 199.243 231.063 213.163 227.271L211.668 189.168L223.493 184.703Z" fill="#FEC861"/>
<path d="M176.999 184.995C178.108 181.715 180.796 174.325 182.68 171" stroke="#FFB015" stroke-width="0.75"/>
<path fill-rule="evenodd" clip-rule="evenodd" d="M212.823 217.443C210.873 221.175 208.202 224.719 204.967 224.306C187.724 222.104 176.457 221.012 170.182 225.105L170.112 227.285C178.991 225.423 186.049 226.561 192.672 227.63C199.557 228.741 205.973 229.775 213.476 227.285L213.139 216.824C213.036 217.031 212.93 217.237 212.823 217.443Z" fill="#FBBC42"/>
<path d="M255.025 148.178C255.025 148.178 254.88 142.938 259.163 142.938C262.275 142.938 263.238 145.439 262.516 147.553C261.794 149.666 258.345 149.666 258.634 155.233C258.634 155.233 254.885 156.794 250.296 158.88M258.634 155.218C258.634 155.218 262.184 156.776 266.567 158.88M266.567 158.88C273.636 162.273 282.873 167.085 282.873 169.06C282.873 172.26 233.866 171.605 233.738 168.628C233.659 166.804 243.03 162.184 250.296 158.88M266.567 158.88H250.296" stroke="#003450" stroke-width="0.9" stroke-linecap="round" stroke-linejoin="round"/>
<path d="M291.903 184.703C291.903 184.703 282.166 164.753 279.214 162.267C276.263 159.782 266.567 158.325 266.567 158.325C264.257 162.79 262.057 161.348 258.745 161.365C255.391 161.381 253.164 162.79 250.806 158.325C250.806 158.325 240.6 159.767 237.648 162.267C233.811 164.811 225.588 184.703 225.588 184.703L238.421 189.168L236.817 227.271C255.191 224.323 265.881 231.063 280.818 227.271L279.214 189.168L291.903 184.703Z" fill="#F69A9A"/>
<path d="M242 184C243.171 180.485 246.01 172.564 248 169" stroke="#EF6363" stroke-width="0.75"/>
<path d="M277 184C275.829 180.485 272.99 172.564 271 169" stroke="#EF6363" stroke-width="0.75"/>
<line x1="89.2021" y1="145.538" x2="299.849" y2="145.538" stroke="#59A7D3" stroke-width="1.25"/>
<path d="M301.814 276.066V153.735C301.814 139.928 290.621 128.735 276.814 128.735H112.97C99.1626 128.735 87.9697 139.928 87.9697 153.735V276.066" stroke="#59A7D3" stroke-width="2" stroke-linecap="round"/>
<path d="M187.339 49.657C191.095 43.947 195.254 42.5214 201.028 43.4522C206.121 44.273 208.849 46.2217 211.5 51.7211C212.868 54.5595 211.515 55.2796 214.655 59.361C217.48 63.0323 217.132 65.3525 217.632 67.6339C218.133 69.9153 221.42 71.1373 222.267 73.6004C224.005 78.6581 220.151 87.1313 215.027 84.4873C209.903 81.8433 189.702 90.1523 183.056 91.1136C176.41 92.0748 177.154 85.9723 177.609 83.0964C178.063 80.2206 182.386 77.7888 182.046 74.6298C181.706 71.4708 183.102 67.879 184.173 64.814C185.244 61.7489 184.187 54.4486 187.339 49.657Z" fill="#2D5C77"/>
<path d="M228.131 189.537C228.131 189.537 228.865 160.863 220.54 139.876C216.173 138.086 206.117 134.849 200.828 136.215C194.217 137.924 208.542 184.534 211.602 188.073C213.14 189.851 197.89 220.652 198.87 233.097C199.363 239.374 202.502 239.686 207.562 238.954C205.971 235.172 228.131 189.537 228.131 189.537Z" fill="#2D5C77"/>
<path fill-rule="evenodd" clip-rule="evenodd" d="M210.921 186.995C212.043 179.127 209.844 154.472 206.279 139.024C204.99 138.551 202.684 138.037 199.44 137.742C196.987 145.806 207.356 180.157 210.921 186.995Z" fill="#225675"/>
<path d="M195.764 131.954C187.552 131.954 181.613 134.411 178.45 143.06C173.958 155.343 194.826 179.674 191.771 179.308C188.716 178.942 165.496 210.43 168.307 210.918C171.118 211.406 174.173 214.701 175.762 216.288C177.35 217.875 205.58 187.241 208.147 182.725C210.713 178.21 206.03 131.954 195.764 131.954Z" fill="#306787"/>
<path d="M185.095 80.761C188.215 74.0209 193.79 74.1675 196.309 74.0454C196.187 74.0548 197.43 74.0681 203.379 74.0454C210.814 74.017 215.568 77.5863 218.616 78.4411C221.663 79.2958 224.467 78.5632 228.489 78.0747C232.512 77.5863 237.997 81.2494 240.922 78.0747C243.263 75.535 238.728 64.9691 236.168 60.0037C241.532 56.5848 239.947 48.8924 246.286 54.6312C252.571 60.3218 254.421 79.3389 254.927 84.5391L254.94 84.6682C255.428 89.6744 248.967 94.8027 244.579 93.7038C240.191 92.6049 237.144 98.3436 227.758 95.169C218.372 91.9943 224.345 143.277 221.663 141.568C218.981 139.858 205.695 140.469 202.891 140.835C200.088 141.201 197.894 138.149 194.237 138.149C190.58 138.149 184.851 141.201 181.926 139.126C179 137.05 189.239 105.181 186.314 104.449C183.388 103.716 177.659 111.775 167.786 110.554C157.913 109.333 153.89 86.8661 153.768 85.1566C153.646 83.4472 158.034 84.6683 158.644 82.8367C159.253 81.0052 161.813 80.0284 163.398 80.0284C164.982 80.0284 168.761 94.4364 170.346 96.2679C171.93 98.0994 173.515 94.3143 175.953 90.8954C178.391 87.4766 181.194 89.186 185.095 80.761Z" fill="#59A7D3"/>
<path d="M230.656 52.0428C230.789 49.2985 234.852 46.3511 236.975 47.4322C238.422 48.1691 239.701 49.7375 240.692 52.1641C241.714 53.8012 242.444 54.5839 243.17 55.6828C243.17 57.5837 241.906 61.4582 240.321 58.8374C238.338 55.5615 235.241 55.9255 235.241 55.9255C235.241 55.9255 230.543 54.3893 230.656 52.0428Z" fill="#F7DDCD"/>
<path d="M161.527 72.2078C159.325 70.5381 154.483 71.7092 153.977 74.0116C153.632 75.581 154.035 77.5592 155.283 79.8736C155.901 81.7015 156.044 82.7586 156.434 84.0164C157.902 85.2423 161.691 86.7857 160.669 83.8965C159.392 80.2849 161.63 78.1778 161.63 78.1778C161.63 78.1778 163.41 73.6354 161.527 72.2078Z" fill="#F7DDCD"/>
<path fill-rule="evenodd" clip-rule="evenodd" d="M189.156 181.098C191.721 180.759 196.252 178.147 194.345 177.817C192.74 177.539 180.893 161.267 180.48 138.8C179.659 140.042 178.939 141.49 178.324 143.174C175.301 151.451 183.778 165.199 188.696 173.175C191.077 177.036 192.624 179.544 191.628 179.425C191.184 179.372 190.312 179.994 189.156 181.098Z" fill="#275976"/>
<path d="M185.104 80.2696C188.224 73.5303 193.798 74.1652 196.317 74.0431C196.195 74.0526 197.438 74.0658 203.386 74.0431C210.821 74.0147 208.384 73.1885 211.431 74.0431C214.478 74.8977 218.866 77.5837 224.35 76.8511C229.163 76.2084 238.001 81.2464 240.927 78.072C243.267 75.5326 238.733 64.9678 236.173 60.0029C241.536 56.5844 239.951 48.8928 246.289 54.6309C252.574 60.3209 254.425 79.336 254.931 84.5357L254.943 84.6648C255.431 89.6705 248.971 94.7982 244.583 93.6994C240.195 92.6006 232.812 91.7627 226.179 94.554C209.206 101.696 224.35 143.268 221.669 141.558C218.988 139.849 205.702 140.46 202.899 140.826C200.096 141.192 197.902 138.14 194.245 138.14C190.589 138.14 184.86 141.192 181.935 139.117C179.01 137.041 189.248 105.176 186.323 104.443C183.398 103.711 178.278 112.135 168.406 110.914C158.533 109.693 153.536 86.3741 153.414 84.6648C153.292 82.9556 156.827 83.9323 158.533 81.9789C159.802 80.5261 161.946 79.2929 163.531 79.2929C165.115 79.2929 169.015 90.2809 170.6 92.1123C172.184 93.9436 174.256 92.7227 176.694 89.3042C179.132 85.8857 181.204 88.6938 185.104 80.2696Z" fill="#59A7D3"/>
<path fill-rule="evenodd" clip-rule="evenodd" d="M185.467 104.388C184.548 104.623 183.449 105.4 182.117 106.342C179.025 108.528 174.681 111.599 168.441 110.829C163.416 110.208 159.652 103.88 157.149 97.583C157.811 98.3938 158.49 99.0568 159.238 99.7867C160.798 101.308 162.655 103.12 165.268 107.167C168.157 111.64 176.025 107.647 180.455 105.399C181.828 104.702 182.871 104.173 183.333 104.115C184.262 103.999 184.979 104.165 185.467 104.388Z" fill="#459DCF"/>
<path fill-rule="evenodd" clip-rule="evenodd" d="M209.191 140.359C206.411 140.434 204.004 140.599 202.983 140.732C201.595 140.913 200.357 140.259 199.016 139.551C197.646 138.827 196.169 138.047 194.317 138.047C192.984 138.047 191.377 138.451 189.73 138.865C186.851 139.589 183.852 140.343 181.989 139.023C181.241 138.493 181.353 136.017 181.886 132.612C182.993 134.284 184.693 135.525 187.239 135.606C189.216 135.668 191.024 135.643 192.656 135.619C197.371 135.551 200.62 135.505 202.252 137.681C203.224 138.976 205.126 139.388 206.945 139.783C207.737 139.954 208.514 140.123 209.191 140.359Z" fill="#459DCF"/>
<path fill-rule="evenodd" clip-rule="evenodd" d="M222.442 137.601C222.437 140.264 222.269 141.778 221.777 141.465C219.092 139.756 205.788 140.366 202.98 140.732C201.833 140.882 200.787 140.461 199.702 139.91C205.308 139.065 212.082 137.678 215.062 136.827C217.495 136.131 220.22 136.719 222.442 137.601Z" fill="#459DCF"/>
<path d="M222.685 107.731C224.801 107.372 225.055 100.04 224.892 96.1943H189.468C188.201 99.2085 185.815 105.819 186.403 108.147C187.139 111.057 220.234 108.147 222.685 107.731Z" fill="#59A7D3"/>
<path fill-rule="evenodd" clip-rule="evenodd" d="M224.452 103.834C224.125 105.901 223.548 107.512 222.584 107.676C222.022 107.771 219.845 107.997 216.816 108.254C207.879 106.556 204.68 105.352 213.355 105.824C218.635 106.111 222.361 105.035 224.452 103.834Z" fill="#459DCF"/>
<path d="M222.129 118.255C224.254 117.925 223.317 110.811 223.153 107.279L186.636 108.674C185.363 111.442 184.078 116.163 184.67 118.301C185.776 122.299 219.665 118.636 222.129 118.255Z" fill="#59A7D3"/>
<path fill-rule="evenodd" clip-rule="evenodd" d="M184.672 115.307C184.511 116.468 184.494 117.507 184.695 118.243C184.74 118.406 184.838 118.556 184.986 118.694C185.183 118.669 185.389 118.641 185.604 118.611C187.652 118.333 190.523 117.942 193.823 118.64C200.17 119.982 200.17 115.466 197.485 116.321C195.803 116.856 189.498 116.229 184.672 115.307Z" fill="#459DCF"/>
<path d="M221.459 129.094C225.254 128.489 222.624 121.575 222.463 118.008L184.729 118.499C183.48 121.294 181.921 126.276 182.501 128.435C183.585 132.475 219.043 129.48 221.459 129.094Z" fill="#59A7D3"/>
<path d="M221.709 141.705C225.593 141.048 224.351 129.711 222.074 128.378L182.636 128.546C181.359 131.577 179.763 136.978 180.356 139.319C181.466 143.698 219.237 142.123 221.709 141.705Z" fill="#59A7D3"/>
<path fill-rule="evenodd" clip-rule="evenodd" d="M223.289 126.706C223.145 128.016 222.603 128.974 221.297 129.182C220.924 129.241 219.761 129.363 218.057 129.512C212.81 128.548 206.51 126.706 207.015 125.841C207.869 124.377 216.413 126.207 218.976 127.672C220.714 128.665 222.228 127.582 223.289 126.706Z" fill="#459DCF"/>
<path fill-rule="evenodd" clip-rule="evenodd" d="M204.325 142.169C203.762 142.215 203.305 142.261 202.984 142.304C202.943 142.31 202.902 142.315 202.86 142.319V89.834H204.325V142.169Z" fill="#368BBA"/>
<path fill-rule="evenodd" clip-rule="evenodd" d="M181.288 132.066C181.877 134.011 183.374 135.673 187.112 136.095C193.225 136.783 198.869 137.587 200.412 142.319C190.525 142.213 180.84 141.504 180.285 139.306C179.887 137.727 180.473 134.767 181.288 132.066Z" fill="#459DCF"/>
<path d="M171.647 93.333C171.898 93.9528 172.463 95.7504 172.72 97.9818" stroke="#2E8FC6" stroke-width="0.75"/>
<path d="M171.647 93.333C171.23 94.1912 170.289 96.6801 169.859 99.7698" stroke="#2E8FC6" stroke-width="0.75"/>
<path fill-rule="evenodd" clip-rule="evenodd" d="M254.163 88.1348C252.798 92.1498 247.746 95.4968 244.113 94.5885C242.417 94.1645 240.776 94.5407 238.859 94.9799C235.81 95.6787 232.064 96.537 226.293 94.5885C226.21 94.5605 226.128 94.5368 226.048 94.5175C226.71 94.3822 227.508 94.2821 228.356 94.1756C230.368 93.923 232.664 93.6348 234.109 92.7576C237.527 90.6826 241.921 89.0958 247.901 91.0487C250.258 91.8182 252.415 90.3297 254.163 88.1348Z" fill="#459DCF"/>
<path d="M198.324 93.2962C199.36 90.7767 202.227 91.7433 202.761 90.4764C202.761 79.7286 195.763 67.1691 190.434 71.2284C173.054 84.4691 197.214 95.9933 198.324 93.2962Z" fill="#66B1DB"/>
<path d="M201.378 89.8344C200.29 92.3669 198.288 98.1474 198.979 101.009" stroke="white" stroke-width="2"/>
<path d="M207.016 89.1026C206.4 93.1306 210.265 95.7614 209.573 98.6231" stroke="white" stroke-width="2"/>
<path fill-rule="evenodd" clip-rule="evenodd" d="M172.522 92.8638C173.756 92.7072 175.172 91.4186 176.74 89.2241C177.64 87.963 178.491 87.5495 179.403 87.1066C180.751 86.4517 182.231 85.7325 184.2 82.1133C183.664 84.4537 181.997 87.7574 180.523 88.3697C179.779 88.6786 178.872 89.4725 177.903 90.321C176.11 91.8908 174.104 93.6473 172.522 92.8638Z" fill="#459DCF"/>
<path d="M197.347 92.2603C193.033 91.0117 188.928 87.9229 187.381 82.7656C186.341 79.2979 186.322 76.7427 188.1 73.5217C191.216 67.8792 204.294 64.6666 210.237 71.2769C214.82 76.3747 213.864 85.447 211.587 88.0881C209.311 90.7293 205.496 88.4186 197.347 92.2603Z" fill="#3690C2"/>
<path fill-rule="evenodd" clip-rule="evenodd" d="M241.71 76.0299C241.864 72.7318 239.598 66.8711 237.605 62.5879C237.614 62.5925 237.623 62.5972 237.631 62.6018C239.571 63.6581 241.582 64.7534 242.288 72.0142C242.493 74.1251 242.217 75.3528 241.71 76.0299Z" fill="#459DCF"/>
<path d="M193.843 76.1794C195.567 73.586 195.978 70.4986 196.06 69.0166H202.833C203.039 70.3751 203.203 72.598 204.434 73.833C206.695 76.1002 207.759 89.0642 202.833 89.3936C198.4 89.6899 191.793 79.2633 193.843 76.1794Z" fill="#F2CBB3"/>
<path d="M178.084 89.042C178.863 89.4072 181.638 89.4072 182.293 90.868C183.111 92.6941 182.994 93.9114 184.163 94.7636" stroke="#2E8FC6" stroke-width="0.75"/>
<path fill-rule="evenodd" clip-rule="evenodd" d="M183.356 129.359C185.205 129.131 187.29 128.967 189.273 128.811C193.954 128.442 198.069 128.118 197.179 127.101C195.824 125.552 191.632 126.153 188.475 126.605C187.736 126.711 187.054 126.809 186.478 126.869C185.164 127.006 183.766 126.217 182.591 125.229C182.344 126.545 182.264 127.729 182.479 128.526C182.565 128.847 182.869 129.123 183.356 129.359Z" fill="#459DCF"/>
<path fill-rule="evenodd" clip-rule="evenodd" d="M223.286 115.598C223.142 117.038 222.776 118.076 222 118.197C221.513 118.273 219.791 118.479 217.336 118.73C212.633 118.399 207.694 117.637 207.375 116.809C206.935 115.665 212.082 116.171 215.856 116.542C217.314 116.686 218.568 116.809 219.215 116.809C220.472 116.809 222.006 116.321 223.286 115.598Z" fill="#459DCF"/>
<path d="M186.068 103.854C186.297 103.96 187.574 103.186 190.847 99.2474" stroke="#2E8FC6" stroke-width="0.75"/>
<path d="M225.06 95.021C223.157 94.1526 221.263 93.8251 219.335 92.0576" stroke="#2E8FC6" stroke-width="0.75"/>
<path d="M242.095 93.3335C243.178 92.5482 245.97 90.2119 246.386 88.3271" stroke="#2E8FC6" stroke-width="0.75"/>
<path d="M244.697 79.8847C244.023 78.7329 242.225 78.66 241.41 78.7676C242.044 79.5004 243.348 81.4365 243.488 83.3187" stroke="#2E8FC6" stroke-width="0.75"/>
<path d="M222.785 77.5986C225.07 78.5156 229.913 80.872 231.01 82.9626" stroke="#2E8FC6" stroke-width="0.75"/>
<path fill-rule="evenodd" clip-rule="evenodd" d="M224.091 133.143C223.147 135.752 221.897 138.048 220.433 138.414C219.476 138.653 217.885 138.739 216.052 138.838C211.519 139.084 205.499 139.41 203.88 142.333C212.614 142.312 220.68 141.896 221.78 141.709C224.173 141.303 224.627 136.839 224.091 133.143Z" fill="#459DCF"/>
<path fill-rule="evenodd" clip-rule="evenodd" d="M198.148 109.329C201.445 108.256 201.187 106.49 199.316 107.044C197 107.73 190.875 108.363 186.264 106.925C186.244 107.379 186.269 107.774 186.349 108.089C186.635 109.216 191.797 109.467 198.148 109.329Z" fill="#459DCF"/>
<rect x="198.112" y="100.485" width="1.4304" height="2.14559" rx="0.715198" fill="white"/>
<rect width="1.4304" height="2.14559" rx="0.715198" transform="matrix(-1 0 0 1 210.269 98.3398)" fill="white"/>
<rect x="202.758" y="140.536" width="1.788" height="2.14559" rx="0.893998" fill="white"/>
<path d="M207.806 55.9386C209.672 62.5127 208.345 73.1497 203.425 74.5464C198.505 75.9431 191.536 68.6785 189.669 62.1044C187.803 55.5303 190.991 49.52 195.911 48.1233C200.831 46.7266 205.94 49.3645 207.806 55.9386Z" fill="#F7DDCD"/>
<path fill-rule="evenodd" clip-rule="evenodd" d="M189.853 62.7106C189.786 62.5081 189.724 62.306 189.667 62.1045C189.611 61.906 189.559 61.708 189.512 61.5106C189.512 61.5061 189.513 61.5017 189.514 61.4973C190.086 57.7744 190.758 53.4068 191.503 52.7287C192.846 51.5081 204.808 52.8507 204.32 55.1698C203.979 56.7889 202.388 56.5637 199.507 56.1556C198.262 55.9792 196.775 55.7686 195.043 55.6581C192.058 55.4675 190.842 59.4611 189.853 62.7106Z" fill="#F3D4C0"/>
<path d="M191.368 64.3789C192.027 66.1597 192.188 70.4278 191.053 69.9864L187.581 61.3793L189.039 53.3393L194.516 47.5187L201.677 47.136L207.691 53.0087C207.881 54.3139 208.238 55.1157 208.667 55.5734C209.499 55.3539 210.369 55.0614 211.281 54.6815C213.094 53.9264 210.336 57.3544 208.667 55.5734C199.465 58.0011 195.027 51.4811 192.362 55.1698C190.218 58.1381 190.132 61.0399 191.368 64.3789Z" fill="#2D5C77"/>
<path d="M189.502 62.1509C189.334 61.0854 190.062 60.0858 191.127 59.9182L192.19 66.6704C191.124 66.838 190.125 66.1101 189.957 65.0447L189.502 62.1509Z" fill="#F4D6C4"/>
<path fill-rule="evenodd" clip-rule="evenodd" d="M206.429 72.0021C205.645 73.284 204.645 74.1999 203.424 74.5466C200.369 75.4138 196.524 72.9422 193.602 69.3701C195.1 70.551 196.824 71.7496 199.928 73.2344C202.861 74.6367 204.908 73.6625 206.429 72.0021Z" fill="#F3D4C0"/>
<path fill-rule="evenodd" clip-rule="evenodd" d="M189.465 204.002C185.871 206.608 182.49 208.87 180.894 209.451C176.866 210.916 173.814 208.841 172.96 206.644C172.482 205.415 171.279 205.522 170.119 206.048C169.307 207.399 168.685 208.548 168.322 209.403C168.675 210.024 169.166 210.762 169.736 211.553C171.83 212.554 173.888 214.636 175.225 215.989C175.373 216.138 175.512 216.279 175.641 216.408C176.365 217.132 182.626 211.151 189.465 204.002Z" fill="#275976"/>
<path d="M194.189 241.186C194.023 240.423 196.128 239.489 196.508 239.233C196.508 239.233 200.382 247.254 203.219 250.151C205.929 252.919 211.887 256.931 211.887 256.931C210.986 258.118 209.346 259.572 205.54 256.321C201.96 253.263 194.486 242.558 194.189 241.186Z" fill="#EFC036"/>
<path d="M208.351 245.457C206.744 241.812 207.863 236.425 208.351 234.106C208.351 234.106 205.897 235.573 203.835 235.327C201.767 235.08 198.831 232.275 198.831 232.275C198.066 236.204 194.437 238.378 195.535 240.453C196.486 242.249 205.355 255.518 209.084 257.175C216.773 260.593 209.452 247.955 208.351 245.457Z" fill="#FFD37C"/>
<path d="M168.314 236.06C170.462 238.013 173.202 236.995 173.324 236.06C171.371 229.916 166.563 217.751 162.949 217.751C156.962 217.751 165.629 233.618 168.314 236.06Z" fill="#EFC036"/>
<path d="M173.807 224.098C173.807 218.539 176.519 217.423 177.591 215.31C177.591 215.31 174.011 214.648 172.342 213.357C170.532 211.956 168.858 208.385 168.858 208.385C166.728 211.892 161.838 216.982 162.09 218.239C162.456 220.07 167.338 235.449 171.976 236.67C176.934 237.974 173.807 228.492 173.807 224.098Z" fill="#FFD37C"/>
<path fill-rule="evenodd" clip-rule="evenodd" d="M214.33 219.14C214.252 219.276 214.174 219.414 214.096 219.552C211.012 224.982 207.387 231.365 205.668 231.299C204.576 231.257 203.454 230.911 202.414 230.591C200.972 230.146 199.685 229.749 198.844 230.273C198.778 231.208 198.768 232.08 198.823 232.88C200.351 234.269 203.932 235.784 207.579 237.047C208.264 233.711 211.037 226.742 214.33 219.14Z" fill="#225675"/>
<rect x="82.9639" y="273.563" width="224.572" height="4.29119" rx="2.14559" fill="#59A7D3"/>
<path d="M104.248 257.935H59.1095V275.354C59.1095 277.011 60.4526 278.354 62.1095 278.354H101.248C102.905 278.354 104.248 277.011 104.248 275.354V257.935Z" fill="#EED7B4"/>
<rect width="48.9911" height="3.21839" rx="0.75" transform="matrix(-1 0 0 1 106.207 255.684)" fill="#E0BB83"/>
<g clip-path="url(#clip0_357_157)">
<path fill-rule="evenodd" clip-rule="evenodd" d="M147.017 41.1703C136.79 42.5529 129.621 51.9642 131.004 62.1903C132.386 72.4165 141.797 79.5859 152.024 78.2033C162.25 76.8207 169.419 67.4095 168.037 57.1833C166.654 46.9571 157.243 39.7877 147.017 41.1703ZM157.123 55.4707C157.248 55.2818 157.334 55.0698 157.375 54.8472C157.417 54.6246 157.414 54.3958 157.366 54.1745C157.318 53.9531 157.227 53.7435 157.097 53.5581C156.966 53.3727 156.801 53.2151 156.609 53.0948C156.417 52.9744 156.203 52.8936 155.979 52.8571C155.756 52.8207 155.527 52.8293 155.307 52.8825C155.087 52.9357 154.88 53.0324 154.697 53.1669C154.515 53.3013 154.362 53.4709 154.246 53.6656L148.182 63.3285L143.93 60.0878C143.571 59.8241 143.123 59.7119 142.682 59.7755C142.241 59.839 141.843 60.0731 141.573 60.4274C141.303 60.7817 141.183 61.2278 141.239 61.6697C141.295 62.1116 141.522 62.5138 141.871 62.7899L147.604 67.157C147.792 67.3 148.007 67.4022 148.237 67.4573C148.466 67.5123 148.705 67.519 148.937 67.4768C149.169 67.4346 149.39 67.3445 149.585 67.2122C149.781 67.0799 149.946 66.9084 150.072 66.7086L157.123 55.4707Z" fill="#8DDA8B"/>
<path d="M161.473 70.5611C160.744 70.7993 159.954 75.2252 159.65 77.4084C159.802 78.2023 160.379 79.403 161.473 77.855C162.84 75.9199 162.384 70.2634 161.473 70.5611Z" fill="#F7DDCD"/>
</g>
<defs>
<clipPath id="clip0_357_157">
<rect width="40.7672" height="40.7672" fill="white" transform="translate(126.589 42.2178) rotate(-7.69996)"/>
</clipPath>
</defs>
</svg>
