
<svg width="1630" height="1147" viewBox="0 0 1630 1147" fill="none" xmlns="http://www.w3.org/2000/svg">
<path d="M37 1050.5C37 642.085 368.085 311 776.5 311C1184.91 311 1516 642.085 1516 1050.5V1147H37V1050.5Z" fill="#CEF0E1"/>
<path opacity="0.6" d="M1305.07 222.369C1304.36 222.234 1302.29 221.704 1300.14 221.203C1299.23 220.989 1298.4 220.496 1297.76 219.786C1297.11 219.077 1296.67 218.181 1296.5 217.211C1295.98 214.242 1295.32 210.694 1294.94 208.293C1294.88 207.898 1294.46 207.907 1294.4 208.293C1294.19 209.739 1293.24 213.663 1292.53 217.124C1292.32 218.093 1291.85 218.977 1291.18 219.663C1290.5 220.35 1289.64 220.808 1288.72 220.981C1286.83 221.337 1285.07 221.713 1284.3 221.945C1284.21 221.965 1284.14 222.015 1284.08 222.087C1284.03 222.159 1284 222.248 1284 222.34C1284 222.432 1284.03 222.522 1284.08 222.594C1284.14 222.665 1284.21 222.715 1284.3 222.735C1285.53 223.025 1287.08 223.362 1288.61 223.7C1289.54 223.894 1290.39 224.375 1291.05 225.082C1291.72 225.79 1292.17 226.691 1292.35 227.672C1292.91 230.699 1293.67 233.996 1294 235.587C1294.02 235.714 1294.08 235.831 1294.17 235.915C1294.26 236 1294.38 236.046 1294.5 236.046C1294.62 236.046 1294.74 236 1294.83 235.915C1294.92 235.831 1294.98 235.714 1295 235.587C1295.46 233.013 1296.01 230.179 1296.45 227.797C1296.64 226.813 1297.1 225.91 1297.77 225.204C1298.45 224.498 1299.3 224.021 1300.24 223.835L1305.08 222.87C1305.11 222.87 1305.14 222.863 1305.17 222.85C1305.2 222.836 1305.23 222.817 1305.25 222.794C1305.27 222.77 1305.29 222.742 1305.3 222.711C1305.31 222.681 1305.32 222.648 1305.32 222.615C1305.31 222.582 1305.31 222.55 1305.3 222.519C1305.28 222.489 1305.26 222.462 1305.24 222.439C1305.22 222.416 1305.19 222.398 1305.16 222.386C1305.14 222.374 1305.1 222.368 1305.07 222.369Z" fill="#359C6D"/>
<path opacity="0.6" d="M1612.07 449.369C1611.36 449.234 1609.29 448.704 1607.14 448.203C1606.23 447.989 1605.4 447.496 1604.76 446.786C1604.11 446.077 1603.67 445.181 1603.5 444.211C1602.98 441.242 1602.32 437.694 1601.94 435.293C1601.88 434.898 1601.46 434.907 1601.4 435.293C1601.19 436.739 1600.24 440.663 1599.53 444.124C1599.32 445.093 1598.85 445.977 1598.18 446.663C1597.5 447.35 1596.64 447.808 1595.72 447.981C1593.83 448.337 1592.07 448.713 1591.3 448.945C1591.21 448.965 1591.14 449.015 1591.08 449.087C1591.03 449.159 1591 449.248 1591 449.34C1591 449.432 1591.03 449.522 1591.08 449.594C1591.14 449.665 1591.21 449.715 1591.3 449.735C1592.53 450.025 1594.08 450.362 1595.61 450.7C1596.54 450.894 1597.39 451.375 1598.05 452.082C1598.72 452.79 1599.17 453.691 1599.35 454.672C1599.91 457.699 1600.67 460.996 1601 462.587C1601.02 462.714 1601.08 462.831 1601.17 462.915C1601.26 463 1601.38 463.046 1601.5 463.046C1601.62 463.046 1601.74 463 1601.83 462.915C1601.92 462.831 1601.98 462.714 1602 462.587C1602.46 460.013 1603.01 457.179 1603.45 454.797C1603.64 453.813 1604.1 452.91 1604.77 452.204C1605.45 451.498 1606.3 451.021 1607.24 450.835L1612.08 449.87C1612.11 449.87 1612.14 449.863 1612.17 449.85C1612.2 449.836 1612.23 449.817 1612.25 449.794C1612.27 449.77 1612.29 449.742 1612.3 449.711C1612.31 449.681 1612.32 449.648 1612.32 449.615C1612.31 449.582 1612.31 449.55 1612.3 449.519C1612.28 449.489 1612.26 449.462 1612.24 449.439C1612.22 449.416 1612.19 449.398 1612.16 449.386C1612.14 449.374 1612.1 449.368 1612.07 449.369Z" fill="#359C6D"/>
<path opacity="0.6" d="M1628.71 764.991C1627.44 764.775 1623.74 763.926 1619.89 763.124C1618.26 762.782 1616.77 761.994 1615.61 760.858C1614.45 759.723 1613.67 758.29 1613.37 756.738C1612.44 751.986 1611.26 746.31 1610.58 742.469C1610.47 741.836 1609.72 741.852 1609.62 742.469C1609.23 744.782 1607.53 751.061 1606.26 756.599C1605.89 758.149 1605.05 759.563 1603.84 760.661C1602.63 761.76 1601.1 762.493 1599.44 762.769C1596.07 763.34 1592.92 763.942 1591.54 764.312C1591.38 764.344 1591.25 764.424 1591.15 764.539C1591.05 764.654 1591 764.797 1591 764.944C1591 765.092 1591.05 765.235 1591.15 765.35C1591.25 765.465 1591.38 765.545 1591.54 765.577C1593.74 766.04 1596.51 766.579 1599.25 767.119C1600.91 767.43 1602.43 768.2 1603.62 769.332C1604.82 770.463 1605.63 771.906 1605.95 773.475C1606.94 778.319 1608.3 783.594 1608.9 786.14C1608.93 786.343 1609.04 786.53 1609.2 786.665C1609.36 786.8 1609.57 786.874 1609.79 786.874C1610.01 786.874 1610.22 786.8 1610.38 786.665C1610.54 786.53 1610.65 786.343 1610.68 786.14C1611.51 782.021 1612.49 777.486 1613.29 773.675C1613.62 772.101 1614.44 770.656 1615.64 769.526C1616.85 768.396 1618.39 767.634 1620.05 767.335L1628.73 765.793C1628.78 765.792 1628.84 765.78 1628.89 765.759C1628.94 765.738 1628.99 765.708 1629.02 765.67C1629.06 765.632 1629.09 765.587 1629.11 765.538C1629.13 765.489 1629.14 765.437 1629.14 765.384C1629.14 765.331 1629.13 765.279 1629.11 765.231C1629.09 765.183 1629.05 765.139 1629.01 765.103C1628.97 765.066 1628.93 765.037 1628.87 765.018C1628.82 764.999 1628.77 764.99 1628.71 764.991Z" fill="#359C6D"/>
<path opacity="0.6" d="M992.838 100.967C991.865 100.789 989.035 100.089 986.092 99.4273C984.846 99.1449 983.709 98.4949 982.823 97.5581C981.936 96.6214 981.339 95.4391 981.105 94.1586C980.394 90.2388 979.497 85.5555 978.973 82.3866C978.886 81.8648 978.312 81.8775 978.237 82.3866C977.938 84.2956 976.641 89.4752 975.669 94.044C975.39 95.3233 974.746 96.4895 973.819 97.3956C972.891 98.3016 971.722 98.9067 970.457 99.1346C967.876 99.6055 965.47 100.102 964.41 100.407C964.294 100.434 964.19 100.5 964.115 100.595C964.041 100.689 964 100.807 964 100.929C964 101.051 964.041 101.169 964.115 101.264C964.19 101.358 964.294 101.424 964.41 101.451C966.093 101.833 968.213 102.278 970.307 102.723C971.575 102.979 972.739 103.615 973.652 104.549C974.565 105.482 975.184 106.672 975.432 107.967C976.193 111.963 977.227 116.315 977.689 118.415C977.711 118.583 977.792 118.737 977.917 118.848C978.042 118.96 978.202 119.021 978.368 119.021C978.534 119.021 978.695 118.96 978.819 118.848C978.944 118.737 979.025 118.583 979.048 118.415C979.684 115.017 980.432 111.276 981.043 108.132C981.296 106.833 981.924 105.641 982.846 104.709C983.768 103.777 984.942 103.148 986.217 102.902L992.85 101.629C992.893 101.628 992.935 101.619 992.974 101.601C993.013 101.584 993.048 101.559 993.078 101.528C993.107 101.496 993.13 101.459 993.146 101.419C993.161 101.378 993.169 101.335 993.168 101.292C993.167 101.248 993.158 101.205 993.141 101.166C993.124 101.126 993.099 101.09 993.069 101.06C993.038 101.029 993.002 101.006 992.962 100.99C992.923 100.974 992.88 100.966 992.838 100.967Z" fill="#359C6D"/>
<path opacity="0.6" d="M1401.95 523.878C1400.94 523.711 1397.99 523.044 1394.97 522.41C1393.68 522.143 1392.5 521.53 1391.58 520.646C1390.66 519.762 1390.04 518.647 1389.79 517.439C1389.04 513.736 1388.14 509.332 1387.6 506.363C1387.6 505.862 1386.92 505.896 1386.85 506.363C1386.52 508.164 1385.19 513.035 1384.19 517.339C1383.9 518.545 1383.24 519.645 1382.28 520.501C1381.32 521.356 1380.1 521.928 1378.79 522.143C1376.13 522.577 1373.62 523.044 1372.54 523.311C1372.4 523.311 1372.26 523.363 1372.16 523.457C1372.06 523.551 1372 523.678 1372 523.811C1372 523.944 1372.06 524.071 1372.16 524.165C1372.26 524.259 1372.4 524.312 1372.54 524.312L1378.65 525.479C1379.97 525.716 1381.18 526.313 1382.12 527.192C1383.07 528.072 1383.72 529.195 1383.97 530.417C1384.76 534.187 1385.84 538.29 1386.31 540.258C1386.34 540.406 1386.43 540.537 1386.56 540.632C1386.69 540.726 1386.85 540.777 1387.01 540.777C1387.17 540.777 1387.33 540.726 1387.46 540.632C1387.59 540.537 1387.67 540.406 1387.71 540.258C1388.36 536.922 1389.15 533.586 1389.79 530.584C1390.06 529.364 1390.71 528.245 1391.66 527.371C1392.62 526.497 1393.83 525.908 1395.15 525.679L1402.02 524.445C1402.06 524.441 1402.1 524.429 1402.13 524.411C1402.17 524.392 1402.2 524.368 1402.22 524.338C1402.25 524.309 1402.27 524.275 1402.28 524.239C1402.29 524.203 1402.29 524.165 1402.29 524.128C1402.28 524.091 1402.27 524.055 1402.25 524.022C1402.23 523.989 1402.2 523.96 1402.17 523.937C1402.14 523.914 1402.1 523.897 1402.07 523.887C1402.03 523.877 1401.99 523.873 1401.95 523.878Z" fill="#359C6D"/>
<path opacity="0.6" d="M1128.95 462.878C1127.94 462.711 1124.99 462.044 1121.97 461.41C1120.68 461.143 1119.5 460.53 1118.58 459.646C1117.66 458.762 1117.04 457.647 1116.79 456.439C1116.04 452.736 1115.14 448.332 1114.6 445.363C1114.6 444.862 1113.92 444.896 1113.85 445.363C1113.52 447.164 1112.19 452.035 1111.19 456.339C1110.9 457.545 1110.24 458.645 1109.28 459.501C1108.32 460.356 1107.1 460.928 1105.79 461.143C1103.13 461.577 1100.62 462.044 1099.54 462.311C1099.4 462.311 1099.26 462.363 1099.16 462.457C1099.06 462.551 1099 462.678 1099 462.811C1099 462.944 1099.06 463.071 1099.16 463.165C1099.26 463.259 1099.4 463.312 1099.54 463.312L1105.65 464.479C1106.97 464.716 1108.18 465.313 1109.12 466.192C1110.07 467.072 1110.72 468.195 1110.97 469.417C1111.76 473.187 1112.84 477.29 1113.31 479.258C1113.34 479.406 1113.43 479.537 1113.56 479.632C1113.69 479.726 1113.85 479.777 1114.01 479.777C1114.17 479.777 1114.33 479.726 1114.46 479.632C1114.59 479.537 1114.67 479.406 1114.71 479.258C1115.36 475.922 1116.15 472.586 1116.79 469.584C1117.06 468.364 1117.71 467.245 1118.66 466.371C1119.62 465.497 1120.83 464.908 1122.15 464.679L1129.02 463.445C1129.06 463.441 1129.1 463.429 1129.13 463.411C1129.17 463.392 1129.2 463.368 1129.22 463.338C1129.25 463.309 1129.27 463.275 1129.28 463.239C1129.29 463.203 1129.29 463.165 1129.29 463.128C1129.28 463.091 1129.27 463.055 1129.25 463.022C1129.23 462.989 1129.2 462.96 1129.17 462.937C1129.14 462.914 1129.1 462.897 1129.07 462.887C1129.03 462.877 1128.99 462.873 1128.95 462.878Z" fill="#359C6D"/>
<path opacity="0.6" d="M29.9469 854.967C28.9369 854.789 25.9976 854.089 22.9419 853.427C21.6482 853.145 20.4674 852.495 19.5466 851.558C18.6257 850.621 18.0054 849.439 17.7628 848.159C17.0248 844.239 16.0926 839.555 15.5488 836.387C15.4581 835.865 14.8627 835.878 14.785 836.387C14.4743 838.296 13.1276 843.475 12.1177 848.044C11.8284 849.323 11.1597 850.49 10.1964 851.396C9.23313 852.302 8.01857 852.907 6.70561 853.135C4.02542 853.605 1.52636 854.102 0.425798 854.407C0.305013 854.434 0.196912 854.5 0.119489 854.595C0.0420661 854.689 0 854.807 0 854.929C0 855.051 0.0420661 855.169 0.119489 855.264C0.196912 855.358 0.305013 855.424 0.425798 855.451C2.17375 855.833 4.37486 856.278 6.55009 856.723C7.86646 856.979 9.07547 857.615 10.0232 858.549C10.9709 859.482 11.6145 860.672 11.8718 861.967C12.6616 865.963 13.736 870.315 14.2151 872.415C14.2383 872.583 14.3227 872.737 14.4525 872.848C14.5822 872.96 14.7487 873.021 14.921 873.021C15.0932 873.021 15.2597 872.96 15.3894 872.848C15.5192 872.737 15.6033 872.583 15.6265 872.415C16.2869 869.017 17.0639 865.276 17.6983 862.132C17.9614 860.833 18.6135 859.641 19.5709 858.709C20.5284 857.777 21.7474 857.148 23.0715 856.902L29.9598 855.629C30.004 855.628 30.0477 855.619 30.0882 855.601C30.1287 855.584 30.1653 855.559 30.196 855.528C30.2266 855.496 30.2506 855.459 30.2668 855.419C30.2829 855.378 30.2907 855.335 30.2899 855.292C30.289 855.248 30.2794 855.205 30.2617 855.166C30.244 855.126 30.2187 855.09 30.1868 855.06C30.1549 855.029 30.1173 855.006 30.0762 854.99C30.035 854.974 29.9911 854.966 29.9469 854.967Z" fill="#359C6D"/>
<path opacity="0.6" d="M253.711 706.991C252.439 706.775 248.738 705.926 244.89 705.124C243.261 704.782 241.774 703.994 240.614 702.858C239.455 701.723 238.674 700.29 238.368 698.738C237.439 693.986 236.265 688.31 235.58 684.469C235.466 683.836 234.716 683.852 234.618 684.469C234.227 686.782 232.531 693.061 231.259 698.599C230.895 700.149 230.053 701.563 228.84 702.661C227.627 703.76 226.097 704.493 224.444 704.769C221.069 705.34 217.922 705.942 216.536 706.312C216.384 706.344 216.248 706.424 216.15 706.539C216.053 706.654 216 706.797 216 706.944C216 707.092 216.053 707.235 216.15 707.35C216.248 707.465 216.384 707.545 216.536 707.577C218.737 708.04 221.509 708.579 224.248 709.119C225.906 709.43 227.428 710.2 228.622 711.332C229.815 712.463 230.626 713.906 230.95 715.475C231.944 720.319 233.297 725.594 233.9 728.14C233.93 728.343 234.036 728.53 234.199 728.665C234.363 728.8 234.572 728.874 234.789 728.874C235.006 728.874 235.216 728.8 235.379 728.665C235.543 728.53 235.649 728.343 235.678 728.14C236.509 724.021 237.488 719.486 238.287 715.675C238.618 714.101 239.439 712.656 240.645 711.526C241.851 710.396 243.386 709.634 245.053 709.335L253.727 707.793C253.783 707.792 253.838 707.78 253.889 707.759C253.94 707.738 253.986 707.708 254.025 707.67C254.063 707.632 254.093 707.587 254.114 707.538C254.134 707.489 254.144 707.437 254.143 707.384C254.142 707.331 254.13 707.279 254.107 707.231C254.085 707.183 254.053 707.139 254.013 707.103C253.973 707.066 253.926 707.037 253.874 707.018C253.822 706.999 253.767 706.99 253.711 706.991Z" fill="#359C6D"/>
<path opacity="0.6" d="M61.056 545.392C60.0087 545.22 56.9605 544.541 53.7916 543.899C52.45 543.625 51.2255 542.995 50.2705 542.087C49.3156 541.178 48.6723 540.032 48.4207 538.79C47.6553 534.989 46.6886 530.448 46.1246 527.375C46.0306 526.869 45.4132 526.881 45.3326 527.375C45.0104 529.226 43.6138 534.249 42.5665 538.679C42.2665 539.92 41.573 541.05 40.574 541.929C39.5751 542.808 38.3156 543.394 36.954 543.615C34.1745 544.072 31.5829 544.553 30.4416 544.849C30.3163 544.875 30.2042 544.939 30.1239 545.031C30.0436 545.123 30 545.238 30 545.355C30 545.473 30.0436 545.588 30.1239 545.68C30.2042 545.772 30.3163 545.836 30.4416 545.861C32.2543 546.232 34.5369 546.664 36.7927 547.095C38.1578 547.344 39.4116 547.96 40.3944 548.865C41.3772 549.771 42.0447 550.925 42.3115 552.18C43.1305 556.055 44.2448 560.275 44.7416 562.312C44.7656 562.474 44.8532 562.624 44.9878 562.732C45.1223 562.84 45.2949 562.899 45.4736 562.899C45.6522 562.899 45.8249 562.84 45.9594 562.732C46.094 562.624 46.1812 562.474 46.2053 562.312C46.8901 559.017 47.6958 555.388 48.3538 552.34C48.6266 551.081 49.3028 549.925 50.2958 549.021C51.2887 548.117 52.5529 547.507 53.926 547.268L61.0695 546.034C61.1153 546.033 61.1605 546.024 61.2026 546.007C61.2446 545.991 61.2825 545.966 61.3143 545.936C61.3461 545.906 61.371 545.87 61.3878 545.83C61.4045 545.791 61.4126 545.749 61.4117 545.707C61.4108 545.665 61.4009 545.623 61.3825 545.585C61.3642 545.546 61.3379 545.511 61.3048 545.482C61.2718 545.453 61.2328 545.43 61.1901 545.414C61.1474 545.399 61.1019 545.392 61.056 545.392Z" fill="#359C6D"/>
<path opacity="0.6" d="M253.946 340.338C252.94 340.139 249.991 339.343 246.972 338.586C245.679 338.268 244.5 337.536 243.579 336.481C242.659 335.426 242.038 334.095 241.795 332.653C241.04 328.233 240.142 322.977 239.603 319.433C239.603 318.836 238.919 318.876 238.847 319.433C238.523 321.583 237.193 327.397 236.187 332.534C235.901 333.973 235.237 335.287 234.277 336.307C233.317 337.328 232.104 338.01 230.794 338.268C228.134 338.785 225.617 339.343 224.539 339.661C224.396 339.661 224.259 339.724 224.158 339.836C224.057 339.948 224 340.1 224 340.259C224 340.417 224.057 340.569 224.158 340.681C224.259 340.793 224.396 340.856 224.539 340.856L230.651 342.249C231.967 342.532 233.177 343.244 234.125 344.294C235.073 345.344 235.716 346.685 235.972 348.143C236.762 352.642 237.841 357.54 238.308 359.889C238.344 360.065 238.433 360.222 238.561 360.335C238.688 360.447 238.846 360.508 239.009 360.508C239.172 360.508 239.33 360.447 239.458 360.335C239.585 360.222 239.673 360.065 239.71 359.889C240.357 355.907 241.148 351.925 241.795 348.342C242.059 346.886 242.71 345.55 243.664 344.507C244.619 343.464 245.833 342.761 247.151 342.488L254.018 341.015C254.059 341.01 254.097 340.996 254.132 340.974C254.168 340.952 254.199 340.923 254.224 340.888C254.249 340.853 254.267 340.812 254.278 340.769C254.289 340.726 254.293 340.681 254.288 340.637C254.283 340.592 254.271 340.549 254.251 340.51C254.231 340.471 254.205 340.437 254.173 340.409C254.141 340.381 254.105 340.361 254.066 340.349C254.027 340.337 253.987 340.333 253.946 340.338Z" fill="#359C6D"/>
<path opacity="0.6" d="M540.946 21.338C539.94 21.1389 536.991 20.3425 533.972 19.586C532.679 19.2676 531.5 18.5356 530.579 17.4808C529.659 16.426 529.038 15.095 528.795 13.653C528.04 9.23313 527.142 3.97703 526.603 0.433158C526.603 -0.164124 525.919 -0.124305 525.847 0.433158C525.523 2.58337 524.193 8.39706 523.187 13.5337C522.901 14.9733 522.237 16.2865 521.277 17.3073C520.317 18.328 519.104 19.0103 517.794 19.2676C515.134 19.7852 512.617 20.3426 511.539 20.6612C511.396 20.6612 511.259 20.7241 511.158 20.8361C511.057 20.9482 511 21.1001 511 21.2585C511 21.4169 511.057 21.5687 511.158 21.6807C511.259 21.7927 511.396 21.8557 511.539 21.8557L517.651 23.2495C518.967 23.5321 520.177 24.244 521.125 25.2941C522.073 26.3443 522.716 27.6846 522.972 29.1426C523.762 33.6421 524.841 38.5398 525.308 40.8892C525.344 41.0651 525.433 41.2221 525.561 41.3346C525.688 41.4472 525.846 41.5084 526.009 41.5084C526.172 41.5084 526.33 41.4472 526.458 41.3346C526.585 41.2221 526.673 41.0651 526.71 40.8892C527.357 36.9073 528.148 32.9253 528.795 29.3416C529.059 27.8855 529.71 26.5501 530.664 25.507C531.619 24.464 532.833 23.7611 534.151 23.4884L541.018 22.0151C541.059 22.0099 541.097 21.9959 541.132 21.974C541.168 21.9522 541.199 21.9229 541.224 21.8877C541.249 21.8526 541.267 21.8122 541.278 21.7691C541.289 21.7261 541.293 21.6811 541.288 21.6367C541.283 21.5922 541.271 21.5494 541.251 21.5103C541.231 21.4713 541.205 21.4367 541.173 21.409C541.141 21.3812 541.105 21.3609 541.066 21.3487C541.027 21.3365 540.987 21.3328 540.946 21.338Z" fill="#359C6D"/>
<path opacity="0.6" d="M498.183 437.534C497.437 437.426 495.253 436.996 493.016 436.587C492.058 436.415 491.185 436.019 490.503 435.449C489.821 434.879 489.362 434.159 489.181 433.38C488.622 430.991 487.957 428.15 487.557 426.234C487.557 425.911 487.051 425.933 486.998 426.234C486.758 427.396 485.773 430.539 485.027 433.316C484.816 434.094 484.323 434.804 483.612 435.355C482.901 435.907 482.003 436.276 481.033 436.415C479.062 436.695 477.198 436.996 476.399 437.168C476.293 437.168 476.192 437.202 476.117 437.263C476.042 437.323 476 437.405 476 437.491C476 437.577 476.042 437.659 476.117 437.719C476.192 437.78 476.293 437.814 476.399 437.814L480.927 438.567C481.902 438.72 482.798 439.105 483.5 439.672C484.202 440.24 484.679 440.965 484.868 441.753C485.454 444.185 486.252 446.832 486.598 448.102C486.625 448.197 486.691 448.282 486.786 448.343C486.88 448.404 486.997 448.437 487.118 448.437C487.239 448.437 487.356 448.404 487.45 448.343C487.544 448.282 487.61 448.197 487.637 448.102C488.116 445.95 488.702 443.797 489.181 441.86C489.377 441.073 489.859 440.351 490.566 439.788C491.273 439.224 492.173 438.844 493.149 438.696L498.236 437.9C498.266 437.897 498.294 437.89 498.32 437.878C498.346 437.866 498.369 437.85 498.388 437.831C498.407 437.812 498.42 437.79 498.428 437.767C498.436 437.744 498.439 437.72 498.435 437.696C498.432 437.671 498.423 437.648 498.408 437.627C498.394 437.606 498.374 437.587 498.35 437.572C498.327 437.557 498.3 437.546 498.271 437.54C498.242 437.533 498.212 437.531 498.183 437.534Z" fill="#359C6D"/>
<path opacity="0.6" d="M1438.18 896.534C1437.44 896.426 1435.25 895.996 1433.02 895.587C1432.06 895.415 1431.18 895.019 1430.5 894.449C1429.82 893.879 1429.36 893.159 1429.18 892.38C1428.62 889.991 1427.96 887.15 1427.56 885.234C1427.56 884.911 1427.05 884.933 1427 885.234C1426.76 886.396 1425.77 889.539 1425.03 892.316C1424.82 893.094 1424.32 893.804 1423.61 894.355C1422.9 894.907 1422 895.276 1421.03 895.415C1419.06 895.695 1417.2 895.996 1416.4 896.168C1416.29 896.168 1416.19 896.202 1416.12 896.263C1416.04 896.323 1416 896.405 1416 896.491C1416 896.577 1416.04 896.659 1416.12 896.719C1416.19 896.78 1416.29 896.814 1416.4 896.814L1420.93 897.567C1421.9 897.72 1422.8 898.105 1423.5 898.672C1424.2 899.24 1424.68 899.965 1424.87 900.753C1425.45 903.185 1426.25 905.832 1426.6 907.102C1426.63 907.197 1426.69 907.282 1426.79 907.343C1426.88 907.404 1427 907.437 1427.12 907.437C1427.24 907.437 1427.36 907.404 1427.45 907.343C1427.54 907.282 1427.61 907.197 1427.64 907.102C1428.12 904.95 1428.7 902.797 1429.18 900.86C1429.38 900.073 1429.86 899.351 1430.57 898.788C1431.27 898.224 1432.17 897.844 1433.15 897.696L1438.24 896.9C1438.27 896.897 1438.29 896.89 1438.32 896.878C1438.35 896.866 1438.37 896.85 1438.39 896.831C1438.41 896.812 1438.42 896.79 1438.43 896.767C1438.44 896.744 1438.44 896.72 1438.44 896.696C1438.43 896.671 1438.42 896.648 1438.41 896.627C1438.39 896.606 1438.37 896.587 1438.35 896.572C1438.33 896.557 1438.3 896.546 1438.27 896.54C1438.24 896.533 1438.21 896.531 1438.18 896.534Z" fill="#359C6D"/>
<path d="M509.392 605.6C509.392 605.6 508.866 585 524.491 585C535.845 585 539.356 594.832 536.722 603.142C534.089 611.452 521.506 611.452 522.56 633.34C522.56 633.34 508.881 639.478 492.139 647.681M522.56 633.281C522.56 633.281 535.511 639.41 551.5 647.681M551.5 647.681C577.291 661.023 610.988 679.941 610.988 687.708C610.988 700.29 432.2 697.715 431.732 686.011C431.445 678.837 465.631 660.67 492.139 647.681M551.5 647.681H492.139" stroke="#003450" stroke-width="2" stroke-linecap="round" stroke-linejoin="round"/>
<path d="M643.934 749.215C643.934 749.215 608.41 670.773 597.642 661C586.874 651.227 551.5 645.5 551.5 645.5C543.073 663.057 535.048 657.386 522.967 657.451C510.73 657.517 502.603 663.057 494 645.5C494 645.5 456.768 651.168 446 661C432 671 402 749.215 402 749.215L448.818 766.772L442.966 916.591C510 905 549 931.5 603.494 916.591L597.642 766.772L643.934 749.215Z" fill="#59A7D3"/>
<path d="M455 756.5C459 744.667 468.7 718 475.5 706" stroke="#358AB9" stroke-width="2"/>
<path d="M595.5 756.5C591.5 744.667 581.8 718 575 706" stroke="#358AB9" stroke-width="2"/>
<path fill-rule="evenodd" clip-rule="evenodd" d="M602.248 884.676C594.945 896.722 584.633 908.83 572 907.5C508.164 900.78 466.453 897.447 443.226 909.94L442.966 916.59C475.834 910.907 501.962 914.382 526.482 917.642C551.97 921.031 575.72 924.19 603.494 916.59L602.248 884.676Z" fill="#449BCC"/>
<path d="M786.326 605.6C786.326 605.6 785.799 585 801.425 585C812.778 585 816.29 594.832 813.656 603.142C811.023 611.452 798.44 611.452 799.494 633.34C799.494 633.34 785.814 639.478 769.073 647.681M799.494 633.281C799.494 633.281 812.445 639.41 828.434 647.681M828.434 647.681C854.225 661.023 887.922 679.941 887.922 687.708C887.922 700.29 709.134 697.715 708.666 686.011C708.379 678.837 742.565 660.67 769.073 647.681M828.434 647.681H769.073" stroke="#003450" stroke-width="2" stroke-linecap="round" stroke-linejoin="round"/>
<path d="M920.867 749.215C920.867 749.215 885.344 670.773 874.576 661C863.808 651.227 828.434 645.5 828.434 645.5C820.006 663.057 811.981 657.386 799.901 657.451C787.664 657.517 779.537 663.057 770.934 645.5C770.934 645.5 733.702 651.168 722.934 661C708.934 671 678.934 749.215 678.934 749.215L725.752 766.772L719.9 916.591C786.934 905 825.934 931.5 880.428 916.591L874.576 766.772L920.867 749.215Z" fill="#FFD37C"/>
<path d="M731.934 756.5C735.934 744.667 745.634 718 752.434 706" stroke="#FFB015" stroke-width="2"/>
<path d="M872.434 756.5C868.434 744.667 858.734 718 851.934 706" stroke="#358AB9" stroke-width="2"/>
<path fill-rule="evenodd" clip-rule="evenodd" d="M879.182 884.676C871.879 896.722 861.566 908.83 848.934 907.5C785.098 900.78 743.387 897.447 720.16 909.94L719.9 916.59C752.768 910.907 778.896 914.382 803.416 917.642C828.904 921.031 852.653 924.19 880.428 916.59L879.182 884.676Z" fill="#FFCA62"/>
<path d="M1063.26 605.6C1063.26 605.6 1062.73 585 1078.36 585C1089.71 585 1093.22 594.832 1090.59 603.142C1087.96 611.452 1075.37 611.452 1076.43 633.34C1076.43 633.34 1062.75 639.478 1046.01 647.681M1076.43 633.281C1076.43 633.281 1089.38 639.41 1105.37 647.681M1105.37 647.681C1131.16 661.023 1164.86 679.941 1164.86 687.708C1164.86 700.29 986.068 697.715 985.6 686.011C985.313 678.837 1019.5 660.67 1046.01 647.681M1105.37 647.681H1046.01" stroke="#003450" stroke-width="2" stroke-linecap="round" stroke-linejoin="round"/>
<path d="M1197.8 749.215C1197.8 749.215 1162.28 670.773 1151.51 661C1140.74 651.227 1105.37 645.5 1105.37 645.5C1096.94 663.057 1088.91 657.386 1076.83 657.451C1064.6 657.517 1056.47 663.057 1047.87 645.5C1047.87 645.5 1010.64 651.168 999.867 661C985.867 671 955.867 749.215 955.867 749.215L1002.69 766.772L996.833 916.591C1063.87 905 1102.87 931.5 1157.36 916.591L1151.51 766.772L1197.8 749.215Z" fill="#F69A9A"/>
<path d="M1008.87 756.5C1012.87 744.667 1022.57 718 1029.37 706" stroke="#EF6363" stroke-width="2"/>
<path d="M1149.37 756.5C1145.37 744.667 1135.67 718 1128.87 706" stroke="#EF6363" stroke-width="2"/>
<path fill-rule="evenodd" clip-rule="evenodd" d="M1156.12 884.676C1148.81 896.722 1138.5 908.83 1125.87 907.5C1062.03 900.78 1020.32 897.447 997.093 909.94L996.833 916.59C1029.7 910.907 1055.83 914.382 1080.35 917.642C1105.84 921.031 1129.59 924.19 1157.36 916.59L1156.12 884.676Z" fill="#F48C8C"/>
<line x1="360" y1="596.5" x2="1237" y2="596.5" stroke="#39AA77" stroke-width="3"/>
<path d="M1237 1131V553C1237 539.193 1225.81 528 1212 528H385C371.193 528 360 539.193 360 553V1131" stroke="#39AA77" stroke-width="5" stroke-linecap="round"/>
<path d="M767.422 203.417C782.809 180.027 799.845 174.187 823.5 178C844.36 181.362 855.537 189.345 866.396 211.873C872 223.5 866.456 226.45 879.32 243.169C890.891 258.208 889.468 267.713 891.517 277.058C893.567 286.404 907.031 291.409 910.5 301.5C917.623 322.218 901.835 356.928 880.845 346.097C859.856 335.266 777.103 369.303 749.878 373.241C722.654 377.179 725.701 352.18 727.563 340.399C729.425 328.619 747.132 318.657 745.739 305.716C744.346 292.776 750.066 278.062 754.453 265.507C758.839 252.951 754.51 223.046 767.422 203.417Z" fill="#2A4F3E"/>
<path d="M934 776C934 776 937 658.5 903 572.5C885.166 565.166 844.1 551.9 822.5 557.5C795.5 564.5 854 755.5 866.5 770C872.78 777.284 810.5 903.5 814.5 954.5C816.517 980.22 829.333 981.5 850 978.5C843.5 963 934 776 934 776Z" fill="#2D5C77"/>
<path fill-rule="evenodd" clip-rule="evenodd" d="M864.015 766.014C868.613 733.788 859.604 632.784 845 569.5C839.722 567.564 830.272 565.456 816.981 564.25C806.933 597.283 849.414 738.016 864.015 766.014Z" fill="#225675"/>
<path d="M801.338 541C767.738 541 743.442 551.065 730.5 586.5C712.123 636.818 797.5 736.5 785 735C772.5 733.5 677.5 862.5 689 864.5C700.5 866.5 713 880 719.5 886.5C726 893 841.5 767.5 852 749C862.5 730.5 843.338 541 801.338 541Z" fill="#306787"/>
<path d="M758.5 330.5C771.3 302.9 794.166 303.5 804.5 303C804 303.039 809.1 303.093 833.5 303C864 302.884 883.5 317.5 896 321C908.5 324.5 920 321.5 936.5 319.5C953 317.5 975.5 332.5 987.5 319.5C997.1 309.1 978.5 265.833 968 245.5C990 231.5 983.5 200 1009.5 223.5C1035.28 246.803 1042.87 324.677 1044.95 345.971L1045 346.5C1047 367 1020.5 388 1002.5 383.5C984.5 379 972 402.5 933.5 389.5C895 376.5 919.5 586.5 908.5 579.5C897.5 572.5 843 575 831.5 576.5C820 578 811 565.5 796 565.5C781 565.5 757.5 578 745.5 569.5C733.5 561 775.5 430.5 763.5 427.5C751.5 424.5 728 457.5 687.5 452.5C647 447.5 630.5 355.5 630 348.5C629.5 341.5 647.5 346.5 650 339C652.5 331.5 663 327.5 669.5 327.5C676 327.5 691.5 386.5 698 394C704.5 401.5 711 386 721 372C731 358 742.5 365 758.5 330.5Z" fill="#359C6D"/>
<path d="M945.5 213.5C946.036 202.19 962.433 190.045 971 194.5C976.84 197.537 982 204 986 214C990.122 220.746 993.07 223.971 996 228.5C996 236.333 990.9 252.3 984.5 241.5C976.5 228 964 229.5 964 229.5C964 229.5 945.043 223.17 945.5 213.5Z" fill="#F7DDCD"/>
<path d="M661.682 295.792C652.659 288.953 632.826 293.75 630.752 303.182C629.339 309.61 630.991 317.714 636.101 327.195C638.636 334.683 639.221 339.013 640.818 344.165C646.83 349.187 662.353 355.51 658.168 343.674C652.936 328.88 662.101 320.248 662.101 320.248C662.101 320.248 669.396 301.64 661.682 295.792Z" fill="#F7DDCD"/>
<path fill-rule="evenodd" clip-rule="evenodd" d="M774.874 741.852C785.378 740.466 803.945 729.767 796.133 728.413C789.557 727.273 741.026 660.614 739.333 568.578C735.969 573.666 733.019 579.602 730.5 586.5C718.117 620.406 752.844 676.726 772.99 709.399C782.742 725.214 789.077 735.489 785 734.999C783.18 734.781 779.61 737.33 774.874 741.852Z" fill="#225675"/>
<path d="M758.5 328.5C771.3 300.9 794.166 303.5 804.5 303C804 303.039 809.1 303.093 833.5 303C864 302.884 854 299.5 866.5 303C879 306.5 897 317.5 919.5 314.5C939.242 311.868 975.5 332.5 987.5 319.5C997.1 309.1 978.5 265.833 968 245.5C990 231.5 983.5 200 1009.5 223.5C1035.28 246.803 1042.87 324.677 1044.95 345.971L1045 346.5C1047 367 1020.5 388 1002.5 383.5C984.5 379 954.212 375.568 927 387C857.372 416.25 919.5 586.5 908.5 579.5C897.5 572.5 843 575 831.5 576.5C820 578 811 565.5 796 565.5C781 565.5 757.5 578 745.5 569.5C733.5 561 775.5 430.5 763.5 427.5C751.5 424.5 730.5 459 690 454C649.5 449 629 353.5 628.5 346.5C628 339.5 642.5 343.5 649.5 335.5C654.706 329.55 663.5 324.5 670 324.5C676.5 324.5 692.5 369.5 699 377C705.5 384.5 714 379.5 724 365.5C734 351.5 742.5 363 758.5 328.5Z" fill="#359C6D"/>
<path fill-rule="evenodd" clip-rule="evenodd" d="M759.744 427.615C755.981 428.58 751.478 431.764 746.023 435.621C733.357 444.575 715.563 457.156 690 454C669.417 451.459 654 425.542 643.748 399.747C646.457 403.065 649.238 405.779 652.3 408.767C658.687 415 666.294 422.422 677 438.999C688.834 457.322 721.066 440.965 739.214 431.757C744.837 428.903 749.108 426.736 751 426.499C754.81 426.023 757.746 426.704 759.744 427.615Z" fill="#2D895F"/>
<path fill-rule="evenodd" clip-rule="evenodd" d="M856.924 574.972C845.538 575.277 835.679 575.955 831.5 576.5C825.815 577.241 820.74 574.561 815.25 571.661C809.635 568.695 803.584 565.5 796 565.5C790.54 565.5 783.955 567.156 777.207 568.852C765.417 571.817 753.132 574.906 745.5 569.5C742.433 567.327 742.893 557.188 745.077 543.245C749.61 550.09 756.573 555.169 767 555.5C775.099 555.757 782.504 555.65 789.19 555.554C808.506 555.276 821.814 555.085 828.5 564C832.479 569.305 840.27 570.994 847.724 572.611C850.968 573.314 854.149 574.004 856.924 574.972Z" fill="#2D895F"/>
<path fill-rule="evenodd" clip-rule="evenodd" d="M911.223 563.67C911.204 574.579 910.515 580.782 908.499 579.5C897.499 572.5 842.999 575 831.499 576.5C826.8 577.113 822.518 575.388 818.073 573.133C841.039 569.672 868.792 563.988 881 560.5C890.963 557.653 902.122 560.059 911.223 563.67Z" fill="#2D895F"/>
<path d="M911.808 441.085C920.462 439.621 921.503 409.695 920.834 394H775.912C770.73 406.302 760.968 433.28 763.375 442.782C766.384 454.659 901.779 442.782 911.808 441.085Z" fill="#359C6D"/>
<path fill-rule="evenodd" clip-rule="evenodd" d="M919.462 425.347C918.123 433.817 915.759 440.417 911.808 441.085C909.504 441.475 900.587 442.402 888.18 443.454C851.566 436.5 838.464 431.569 874 433.5C895.631 434.676 910.894 430.265 919.462 425.347Z" fill="#2D895F"/>
<path d="M909.407 484.185C918.078 482.829 914.255 453.538 913.585 439L764.625 444.744C759.433 456.138 754.193 475.573 756.605 484.374C761.116 500.837 899.357 485.757 909.407 484.185Z" fill="#359C6D"/>
<path fill-rule="evenodd" clip-rule="evenodd" d="M756.509 472.346C755.85 477.102 755.779 481.362 756.605 484.375C756.787 485.042 757.19 485.657 757.794 486.224C758.601 486.119 759.448 486.004 760.331 485.884C768.719 484.742 780.481 483.141 794 486.001C820 491.501 820 473.001 809 476.501C802.11 478.693 776.277 476.124 756.509 472.346Z" fill="#2D895F"/>
<path d="M906.512 529.185C921.999 526.716 911.268 498.538 910.611 484L756.593 486C751.499 497.395 745.134 517.699 747.5 526.5C751.926 542.962 896.652 530.757 906.512 529.185Z" fill="#359C6D"/>
<path d="M908.5 580.5C924.463 577.79 919.36 531 910 525.5L747.897 526.196C742.646 538.704 736.086 560.994 738.525 570.656C743.087 588.728 898.338 582.225 908.5 580.5Z" fill="#359C6D"/>
<path fill-rule="evenodd" clip-rule="evenodd" d="M914.673 519.034C914.086 524.406 911.866 528.332 906.512 529.185C904.984 529.429 900.217 529.928 893.236 530.536C871.741 526.59 845.934 519.041 848 515.5C851.5 509.5 886.5 517 897 523C904.124 527.071 910.327 522.625 914.673 519.034Z" fill="#2D895F"/>
<path fill-rule="evenodd" clip-rule="evenodd" d="M837 582.387C834.691 582.574 832.814 582.765 831.5 582.941C831.333 582.964 831.166 582.983 831 583V368H837V582.387Z" fill="#2D895F"/>
<path fill-rule="evenodd" clip-rule="evenodd" d="M742.637 540.985C745.046 548.956 751.178 555.774 766.5 557.5C791.54 560.322 814.658 563.613 820.98 582.998C780.476 582.564 740.798 579.661 738.525 570.656C736.892 564.186 739.294 552.052 742.637 540.985Z" fill="#2D895F"/>
<path d="M703 383C704.167 385.533 706.8 392.88 708 402" stroke="#287A54" stroke-width="2.5"/>
<path d="M703 383C701.367 386.467 697.68 396.52 696 409" stroke="#287A54" stroke-width="2.5"/>
<path fill-rule="evenodd" clip-rule="evenodd" d="M1041.19 361C1035.62 377.464 1014.9 391.198 1000.01 387.474C993.064 385.737 986.339 387.278 978.486 389.078C965.996 391.94 950.651 395.456 927.012 387.474C926.669 387.359 926.332 387.261 926 387.182C928.712 386.629 931.975 386.219 935.445 385.783C943.688 384.749 953.093 383.568 959.012 379.975C973.012 371.475 991.012 364.975 1015.51 372.975C1025.18 376.131 1034.03 370.012 1041.19 361Z" fill="#2D895F"/>
<path d="M812.5 382C816.703 371.725 828.333 375.667 830.5 370.5C830.5 326.667 802.114 275.445 780.5 292C710 346 808 393 812.5 382Z" fill="#39AA77"/>
<path d="M824.937 368C820.482 378.374 812.279 402.053 815.111 413.776" stroke="white" stroke-width="2"/>
<path d="M848.024 365C845.5 381.5 861.332 392.277 858.5 404" stroke="white" stroke-width="2"/>
<path fill-rule="evenodd" clip-rule="evenodd" d="M706.728 380.409C711.779 379.766 717.581 374.487 724.001 365.499C727.691 360.333 731.177 358.639 734.911 356.825C740.433 354.142 746.498 351.195 754.568 336.362C752.374 345.95 745.542 359.49 739.5 361.999C736.454 363.264 732.739 366.517 728.769 369.992C721.424 376.423 713.205 383.618 706.728 380.409Z" fill="#2D895F"/>
<path d="M808.5 378.001C790.93 372.913 774.21 360.327 767.908 339.313C763.671 325.183 763.593 314.772 770.837 301.647C783.526 278.656 836.793 265.566 861 292.5C879.668 313.272 875.773 350.239 866.5 361C857.227 371.762 841.689 362.347 808.5 378.001Z" fill="#2D895F"/>
<path fill-rule="evenodd" clip-rule="evenodd" d="M990.138 311.441C990.763 297.93 981.485 273.932 973.326 256.391C973.358 256.408 973.39 256.425 973.422 256.443C981.369 260.77 989.608 265.257 992.5 295C993.34 303.638 992.213 308.665 990.138 311.441Z" fill="#2D895F"/>
<path d="M794 312C801 301.5 802.667 289 803 283H830.5C831.334 288.5 832 297.5 837 302.5C846.18 311.679 850.5 364.167 830.5 365.5C812.5 366.7 785.677 324.486 794 312Z" fill="#F2CBB3"/>
<path d="M729 365C732.333 366.5 744.2 366.5 747 372.5C750.5 380 750 385 755 388.5" stroke="#287A54" stroke-width="2.5"/>
<path fill-rule="evenodd" clip-rule="evenodd" d="M751.093 529.91C758.665 528.975 767.201 528.303 775.321 527.664C794.499 526.154 811.355 524.827 807.711 520.661C802.16 514.316 784.985 516.776 772.054 518.629C769.027 519.063 766.233 519.463 763.875 519.709C758.495 520.271 752.768 517.045 747.96 513.001C746.946 518.389 746.622 523.235 747.5 526.5C747.853 527.812 749.097 528.942 751.093 529.91Z" fill="#2D895F"/>
<path fill-rule="evenodd" clip-rule="evenodd" d="M914.676 473.539C914.085 479.439 912.585 483.688 909.407 484.185C907.411 484.497 900.358 485.342 890.302 486.367C871.038 485.012 850.805 481.892 849.5 478.5C847.697 473.812 868.78 475.886 884.24 477.407C890.216 477.995 895.351 478.5 898 478.5C903.149 478.5 909.431 476.501 914.676 473.539Z" fill="#2D895F"/>
<path d="M762.211 425.43C763.151 425.861 768.381 422.691 781.791 406.558" stroke="#287A54" stroke-width="2.5"/>
<path d="M921.951 389.248C914.156 385.69 906.396 384.349 898.498 377.108" stroke="#287A54" stroke-width="2.5"/>
<path d="M991 382C995.798 378.863 1008.16 369.529 1010 362" stroke="#287A54" stroke-width="2.5"/>
<path d="M1002.38 327.242C999.623 322.524 992.259 322.225 988.921 322.666C991.52 325.668 996.86 333.599 997.434 341.309" stroke="#287A54" stroke-width="2.5"/>
<path d="M913 318C922.444 321.761 942.467 331.426 947 340" stroke="#287A54" stroke-width="2.5"/>
<path d="M815.174 441.171C806.535 445.529 783.06 448.759 770 444.158" stroke="#287A54" stroke-width="2"/>
<path fill-rule="evenodd" clip-rule="evenodd" d="M917.973 545.441C914.104 556.118 908.991 565.503 903 567C899.077 567.981 892.563 568.334 885.053 568.74C866.484 569.745 841.826 571.08 835.191 583.055C870.963 582.97 903.994 581.265 908.5 580.5C918.296 578.837 920.159 560.575 917.973 545.441Z" fill="#2D895F"/>
<path fill-rule="evenodd" clip-rule="evenodd" d="M811.716 447.859C825.221 443.465 824.163 436.23 816.5 438.5C807.012 441.311 781.915 443.904 763.027 438.01C762.945 439.87 763.047 441.488 763.375 442.782C764.544 447.397 785.697 448.425 811.716 447.859Z" fill="#2D895F"/>
<rect x="812" y="411" width="5" height="9" rx="1" fill="white"/>
<rect width="5" height="9" rx="1" transform="matrix(-1 0 0 1 861 403)" fill="white"/>
<rect x="830" y="576" width="8" height="9" rx="2" fill="white"/>
<path d="M851.264 229.149C858.909 256.079 853.472 299.653 833.317 305.374C813.162 311.096 784.614 281.337 776.969 254.406C769.324 227.476 782.382 202.856 802.538 197.134C822.693 191.412 843.619 202.218 851.264 229.149Z" fill="#F7DDCD"/>
<path fill-rule="evenodd" clip-rule="evenodd" d="M777.734 256.903C777.46 256.069 777.205 255.236 776.969 254.406C776.74 253.6 776.53 252.796 776.338 251.995C776.342 251.97 776.346 251.944 776.35 251.919C778.694 236.669 781.444 218.777 784.5 215.999C790 210.999 839 216.499 837 225.999C835.604 232.632 829.09 231.709 817.287 230.037C812.184 229.315 806.093 228.452 799 227.999C786.768 227.218 781.786 243.589 777.734 256.903Z" fill="#F3D4C0"/>
<path d="M783.927 263.724C786.626 271.019 787.285 288.503 782.636 286.695L768.415 251.436L774.388 218.501L796.824 194.658L826.158 193.09L850.795 217.147C851.57 222.494 853.033 225.778 854.79 227.653C858.198 226.754 861.765 225.556 865.5 224C872.925 220.906 861.629 234.949 854.79 227.653C817.097 237.598 798.914 210.889 788 226C779.217 238.159 778.865 250.046 783.927 263.724Z" fill="#2A4F3E"/>
<path d="M776.122 253.609C775.521 249.79 778.13 246.207 781.949 245.607L782.937 245.451L787.288 273.111L786.3 273.266C782.481 273.867 778.898 271.258 778.298 267.439L776.122 253.609Z" fill="#F4D6C4"/>
<path fill-rule="evenodd" clip-rule="evenodd" d="M845.629 294.953C842.415 300.203 838.32 303.955 833.317 305.375C820.803 308.928 805.054 298.802 793.081 284.169C799.22 289.006 806.281 293.917 819 300C831.01 305.744 839.397 301.754 845.629 294.953Z" fill="#F3D4C0"/>
<path fill-rule="evenodd" clip-rule="evenodd" d="M776.161 835.643C761.421 846.331 747.548 855.619 741 858C724.5 864 712 855.5 708.5 846.5C706.546 841.474 701.629 841.906 696.884 844.05C693.55 849.599 690.999 854.315 689.512 857.817C690.954 860.358 692.96 863.368 695.285 866.599C703.871 870.695 712.312 879.235 717.796 884.783C718.401 885.395 718.971 885.971 719.5 886.5C722.466 889.466 748.133 864.942 776.161 835.643Z" fill="#225675"/>
<path d="M795.5 987.999C794.822 984.872 803.445 981.048 805 979.999C805 979.999 820.871 1012.86 832.491 1024.73C843.593 1036.06 868 1052.5 868 1052.5C864.308 1057.36 857.592 1063.32 842.001 1050C827.333 1037.47 796.72 993.621 795.5 987.999Z" fill="#EFC036"/>
<path d="M853.5 1005.5C846.917 990.565 851.5 968.498 853.5 958.998C853.5 958.998 843.447 965.005 835 963.999C826.527 962.988 814.5 951.499 814.5 951.499C811.365 967.592 796.5 976.499 801 984.999C804.894 992.353 841.226 1046.71 856.5 1053.5C888 1067.5 858.01 1015.73 853.5 1005.5Z" fill="#FFD37C"/>
<path d="M689.501 967.001C698.301 975.001 709.523 970.834 710.023 967.001C702.023 941.834 682.329 892.001 667.523 892.001C643.001 892.001 678.501 957.001 689.501 967.001Z" fill="#EFC036"/>
<path d="M712 917.999C712 895.228 723.109 890.657 727.5 881.999C727.5 881.999 712.834 879.287 706 873.999C698.584 868.26 691.728 853.631 691.728 853.631C683 867.999 662.97 888.849 664 893.999C665.5 901.499 685.5 964.499 704.5 969.499C724.81 974.843 712 935.999 712 917.999Z" fill="#FFD37C"/>
<path fill-rule="evenodd" clip-rule="evenodd" d="M877.992 897.672C877.671 898.237 877.348 898.806 877.024 899.377C864.391 921.622 849.541 947.77 842.5 947.5C838.025 947.327 833.432 945.911 829.169 944.597C823.265 942.776 817.994 941.151 814.548 943.296C814.276 947.124 814.236 950.701 814.461 953.976C820.723 959.668 835.391 965.872 850.33 971.047C853.137 957.378 864.501 928.82 877.992 897.672Z" fill="#225675"/>
<rect x="340" y="1121" width="920" height="17" rx="5" fill="#39AA77"/>
<rect width="179" height="82" rx="8" transform="matrix(-1 0 0 1 425 1056)" fill="#EED7B4"/>
<rect width="200" height="14" rx="2" transform="matrix(-1 0 0 1 435 1047)" fill="#E0BB83"/>
<g clip-path="url(#clip0_439_3)">
<path fill-rule="evenodd" clip-rule="evenodd" d="M602.245 168.648C560.354 174.312 530.985 212.864 536.649 254.755C542.312 296.646 580.865 326.015 622.756 320.351C664.646 314.687 694.015 276.135 688.352 234.244C682.688 192.353 644.135 162.984 602.245 168.648ZM643.644 227.228C644.156 226.454 644.508 225.586 644.679 224.674C644.85 223.762 644.838 222.825 644.641 221.918C644.445 221.012 644.07 220.153 643.537 219.393C643.004 218.634 642.325 217.989 641.539 217.495C640.753 217.002 639.876 216.671 638.96 216.522C638.045 216.373 637.108 216.408 636.206 216.626C635.304 216.844 634.455 217.24 633.709 217.791C632.962 218.342 632.333 219.036 631.859 219.834L607.018 259.417L589.6 246.142C588.13 245.062 586.294 244.602 584.488 244.862C582.682 245.123 581.051 246.082 579.945 247.533C578.839 248.984 578.348 250.812 578.577 252.622C578.805 254.432 579.736 256.08 581.168 257.211L604.652 275.101C605.421 275.686 606.303 276.105 607.243 276.33C608.183 276.556 609.16 276.583 610.111 276.41C611.062 276.237 611.966 275.868 612.767 275.327C613.567 274.785 614.246 274.082 614.76 273.263L643.644 227.228Z" fill="#8DDA8B"/>
<path d="M661.466 289.046C658.48 290.022 655.244 308.152 654 317.096C654.622 320.348 656.986 325.267 661.466 318.925C667.065 310.998 665.199 287.827 661.466 289.046Z" fill="#F7DDCD"/>
</g>
<defs>
<clipPath id="clip0_439_3">
<rect width="167" height="167" fill="white" transform="translate(518.565 172.94) rotate(-7.69996)"/>
</clipPath>
</defs>
</svg>
