<svg width="272" height="272" viewBox="0 0 272 272" fill="none" xmlns="http://www.w3.org/2000/svg">
<path d="M1.18895e-05 136C1.41891e-05 109.696 7.62825 83.9557 21.9605 61.8988C36.2927 39.8419 56.7139 22.4147 80.7498 11.7285C104.786 1.04228 131.405 -2.44423 157.382 1.69134C183.359 5.82693 207.58 17.4071 227.109 35.0289C246.638 52.6507 260.638 75.5578 267.412 100.975C274.187 126.392 273.445 153.228 265.277 178.232C257.108 203.236 241.864 225.335 221.391 241.851C200.918 258.366 176.095 268.591 149.929 271.285L143.315 207.044C157.056 205.63 170.092 200.26 180.843 191.587C191.594 182.914 199.6 171.309 203.889 158.178C208.179 145.047 208.568 130.954 205.011 117.607C201.453 104.259 194.101 92.2293 183.846 82.9753C173.59 73.7213 160.871 67.64 147.229 65.4682C133.587 63.2964 119.608 65.1273 106.985 70.7392C94.3631 76.351 83.639 85.5029 76.1125 97.086C68.5859 108.669 64.58 122.186 64.58 136L1.18895e-05 136Z" fill="#FFF4DE"/>
</svg>
