<svg width="191" height="150" viewBox="0 0 191 150" fill="none" xmlns="http://www.w3.org/2000/svg">
<circle cx="103.711" cy="75" r="75" fill="#E6F2F9"/>
<circle opacity="0.4" cx="111.665" cy="91.1645" r="1.13636" transform="rotate(105 111.665 91.1645)" fill="#F0DFB0"/>
<path d="M0.800781 130.908V89.6571L30.624 70.4845L61.3203 90.701V130.908H0.800781Z" fill="#3E95C6" stroke="#59A7D3"/>
<path d="M29.2164 82.9051C29.2165 82.9071 29.215 82.9089 29.213 82.9091C29.0269 82.927 28.8541 83.0136 28.7284 83.152C28.6019 83.2914 28.5322 83.4731 28.5332 83.6613L28.5332 98.6723C28.5332 99.1273 28.2238 99.5197 27.7947 99.671C24.1878 100.943 21.5937 104.376 21.5937 108.412C21.5937 113.529 25.7553 117.69 30.8717 117.69C35.9893 117.69 40.1496 113.529 40.1496 108.412C40.1496 104.128 37.2295 100.522 33.2772 99.4604C32.8073 99.3342 32.4552 98.9239 32.4552 98.4374L32.4552 96.7644C32.4552 96.2121 32.9029 95.7644 33.4552 95.7644L37.4576 95.7644C37.4592 95.7644 37.4605 95.7631 37.4605 95.7615C37.4605 95.76 37.4616 95.7587 37.4632 95.7586C37.6529 95.7443 37.8304 95.6591 37.9602 95.5199C38.0906 95.38 38.1632 95.1959 38.1635 95.0046C38.1635 94.995 38.1614 94.9864 38.1608 94.9769C38.1607 94.9756 38.1617 94.9746 38.1629 94.9746C38.1641 94.9746 38.1651 94.9737 38.1651 94.9725L38.1651 92.536C38.1651 92.5356 38.1648 92.5354 38.1645 92.5354C38.1641 92.5354 38.1639 92.5351 38.1639 92.5348C38.1637 92.3437 38.0911 92.1597 37.9608 92.0199C37.8311 91.8807 37.6536 91.7956 37.464 91.7814C37.4622 91.7813 37.4609 91.7799 37.4609 91.7781C37.4609 91.7763 37.4594 91.7748 37.4576 91.7748L33.4511 91.7748C32.9013 91.7748 32.4556 91.3291 32.4556 90.7793C32.4556 90.2295 32.9013 89.7838 33.4511 89.7838L40.1913 89.7838C40.193 89.7838 40.1944 89.7824 40.1944 89.7807C40.1944 89.7791 40.1957 89.7777 40.1973 89.7776C40.387 89.7631 40.5644 89.6778 40.6943 89.5385C40.8248 89.3986 40.8976 89.2146 40.8982 89.0233L40.8974 89.0149L40.8974 86.5708L40.8982 86.5624C40.8975 86.3711 40.8246 86.1871 40.6942 86.0472C40.5643 85.908 40.387 85.8227 40.1973 85.8081C40.1957 85.8079 40.1944 85.8066 40.1944 85.805C40.1944 85.8032 40.193 85.8019 40.1913 85.8019L33.4552 85.8019C32.9029 85.8019 32.4552 85.3541 32.4552 84.8019L32.4552 83.6605C32.4549 83.459 32.3739 83.2659 32.2314 83.1235C32.0889 82.9811 31.8957 82.901 31.6942 82.9007L29.2202 82.9011C29.218 82.9011 29.2163 82.903 29.2164 82.9051ZM36.2572 108.412C36.2572 111.347 33.8684 113.734 30.9345 113.734C28.0002 113.734 25.6117 111.347 25.6117 108.412C25.6117 105.479 28.0002 103.093 30.9345 103.093C33.8688 103.092 36.2572 105.479 36.2572 108.412Z" fill="#FFD37C"/>
<path fill-rule="evenodd" clip-rule="evenodd" d="M15.9776 110.574H45.6326L60.3366 131.445H1.27366L15.9776 110.574ZM15.0804 110.112L0.300781 89.4062V131.089L15.0804 110.112ZM61.5598 131.445L46.7863 110.476L61.8203 90.9442V131.445H61.5598Z" fill="#59A7D3"/>
<path d="M0.800781 130.908V89.6571L30.624 70.4845L61.3203 90.701V130.908H0.800781Z" fill="#3E95C6" stroke="#59A7D3"/>
<path d="M29.2164 82.9051C29.2165 82.9071 29.215 82.9089 29.213 82.9091C29.0269 82.927 28.8541 83.0136 28.7284 83.152C28.6019 83.2914 28.5322 83.4731 28.5332 83.6613L28.5332 98.6723C28.5332 99.1273 28.2238 99.5197 27.7947 99.671C24.1878 100.943 21.5937 104.376 21.5937 108.412C21.5937 113.529 25.7553 117.69 30.8717 117.69C35.9893 117.69 40.1496 113.529 40.1496 108.412C40.1496 104.128 37.2295 100.522 33.2772 99.4604C32.8073 99.3342 32.4552 98.9239 32.4552 98.4374L32.4552 96.7644C32.4552 96.2121 32.9029 95.7644 33.4552 95.7644L37.4576 95.7644C37.4592 95.7644 37.4605 95.7631 37.4605 95.7615C37.4605 95.76 37.4616 95.7587 37.4632 95.7586C37.6529 95.7443 37.8304 95.6591 37.9602 95.5199C38.0906 95.38 38.1632 95.1959 38.1635 95.0046C38.1635 94.995 38.1614 94.9864 38.1608 94.9769C38.1607 94.9756 38.1617 94.9746 38.1629 94.9746C38.1641 94.9746 38.1651 94.9737 38.1651 94.9725L38.1651 92.536C38.1651 92.5356 38.1648 92.5354 38.1645 92.5354C38.1641 92.5354 38.1639 92.5351 38.1639 92.5348C38.1637 92.3437 38.0911 92.1597 37.9608 92.0199C37.8311 91.8807 37.6536 91.7956 37.464 91.7814C37.4622 91.7813 37.4609 91.7799 37.4609 91.7781C37.4609 91.7763 37.4594 91.7748 37.4576 91.7748L33.4511 91.7748C32.9013 91.7748 32.4556 91.3291 32.4556 90.7793C32.4556 90.2295 32.9013 89.7838 33.4511 89.7838L40.1913 89.7838C40.193 89.7838 40.1944 89.7824 40.1944 89.7807C40.1944 89.7791 40.1957 89.7777 40.1973 89.7776C40.387 89.7631 40.5644 89.6778 40.6943 89.5385C40.8248 89.3986 40.8976 89.2146 40.8982 89.0233L40.8974 89.0149L40.8974 86.5708L40.8982 86.5624C40.8975 86.3711 40.8246 86.1871 40.6942 86.0472C40.5643 85.908 40.387 85.8227 40.1973 85.8081C40.1957 85.8079 40.1944 85.8066 40.1944 85.805C40.1944 85.8032 40.193 85.8019 40.1913 85.8019L33.4552 85.8019C32.9029 85.8019 32.4552 85.3541 32.4552 84.8019L32.4552 83.6605C32.4549 83.459 32.3739 83.2659 32.2314 83.1235C32.0889 82.9811 31.8957 82.901 31.6942 82.9007L29.2202 82.9011C29.218 82.9011 29.2163 82.903 29.2164 82.9051ZM36.2572 108.412C36.2572 111.347 33.8684 113.734 30.9345 113.734C28.0002 113.734 25.6117 111.347 25.6117 108.412C25.6117 105.479 28.0002 103.093 30.9345 103.093C33.8688 103.092 36.2572 105.479 36.2572 108.412Z" fill="#FFD37C"/>
<path d="M15.4108 110.574H46.7102L61.8203 90.9442V131.445H0.300781V89.4062L15.4108 110.574Z" fill="#59A7D3"/>
<path d="M60.6309 105.968C67.5314 95.3216 89.3767 76.0394 123.919 88.8154C167.097 104.785 161.319 59.012 141.208 46.5909" stroke="#3E95C6" stroke-width="0.75" stroke-dasharray="4 4"/>
<path d="M119.327 30.5964C135.566 30.8717 135.619 36.0197 136.927 38.4978L150.276 35.1694L190.699 14.3974L119.327 30.5964Z" fill="#59A7D3"/>
<path d="M155.47 45.2752L140.62 54.8472L142.599 43.2689L146.783 40.496L155.47 45.2752Z" fill="#8CBBD5"/>
<path d="M18.0469 113.657H44.072" stroke="#A1CDE6" stroke-width="0.4" stroke-linecap="round"/>
<path d="M139.7 42.681C151.266 40.0601 161.062 48.4116 163.096 54.2556L190.699 14.3972L139.7 42.681Z" fill="#59A7D3"/>
<path fill-rule="evenodd" clip-rule="evenodd" d="M175.391 36.5047C170.531 40.764 165.791 44.7073 163.946 45.4975C162.257 46.2211 159.782 45.2724 156.92 44.1758C153.466 42.852 149.449 41.3128 145.576 42.2407C154.457 42.9049 161.42 49.4338 163.098 54.2556L175.391 36.5047Z" fill="#4B9DCB"/>
<path fill-rule="evenodd" clip-rule="evenodd" d="M122.844 29.799C127.16 29.386 132.005 29.596 136.148 31.3022C142.037 33.727 163.078 26.5787 180.66 19.5573L150.279 35.1695L136.93 38.4979C136.779 38.2126 136.645 37.8919 136.501 37.5474C135.395 34.899 133.7 30.8401 119.33 30.5965L122.844 29.799Z" fill="#4B9DCB"/>
<path d="M140.62 54.8476L145.352 42.4265L190.7 14.3977L136.121 36.524L140.62 54.8476Z" fill="#3E95C6"/>
<path d="M12.1309 110.109L2.6672 95.9131" stroke="#A1CDE6" stroke-width="0.4" stroke-linecap="round"/>
<path d="M49.9863 110.109L59.45 97.096" stroke="#A1CDE6" stroke-width="0.4" stroke-linecap="round"/>
<circle cx="60.6335" cy="105.377" r="2.36592" fill="#FFD37C"/>
<circle cx="145.848" cy="50.0932" r="2.36592" fill="#FFD37C"/>
<path fill-rule="evenodd" clip-rule="evenodd" d="M61.8201 122.628V131.444H34.0566C34.6548 131.135 35.5883 130.917 36.9719 130.81C51.0475 129.728 58.0761 126.149 61.8201 122.628Z" fill="#4B9DCB"/>
<path fill-rule="evenodd" clip-rule="evenodd" d="M22.6054 131.444H0.300781V121.89C5.93753 127.077 14.6299 129.766 22.6054 131.444Z" fill="#4B9DCB"/>
<path d="M45.4153 109.4L60.6309 130.219" stroke="#3E95C6" stroke-linecap="round"/>
<path d="M16.192 109.4L1.48242 130.219" stroke="#3E95C6" stroke-linecap="round"/>
<path d="M146.793 27.7531L179.916 17.698" stroke="#A1CDE6" stroke-width="0.4" stroke-linecap="round"/>
<path d="M172.228 36.6255C168.679 40.9631 163.472 45.0572 162.173 44.3148C158.032 41.9489 153.892 41.3574 152.709 41.3574" stroke="#A1CDE6" stroke-width="0.4" stroke-linecap="round"/>
<circle opacity="0.4" cx="146.546" cy="122.57" r="1.18296" transform="rotate(-15 146.546 122.57)" fill="#FFD37C"/>
<circle opacity="0.6" cx="46.1872" cy="48.4505" r="1.82395" fill="#F69A9A"/>
<circle opacity="0.6" cx="85.5093" cy="123.522" r="1.82395" transform="rotate(-15 85.5093 123.522)" fill="#F69A9A"/>
<circle opacity="0.6" cx="125.831" cy="58.7863" r="1.21596" fill="#F69A9A"/>
<circle opacity="0.6" cx="170.051" cy="77.9602" r="1.82395" fill="#59A7D3"/>
<circle opacity="0.6" cx="140.171" cy="95.8074" r="1.21596" transform="rotate(105 140.171 95.8074)" fill="#FFD37C"/>
<circle opacity="0.6" cx="73.548" cy="42.9787" r="1.21596" fill="#FFD37C"/>
<circle opacity="0.6" cx="104.945" cy="137.419" r="1.26582" transform="rotate(-15 104.945 137.419)" fill="#FFD37C"/>
<circle opacity="0.6" cx="89.3527" cy="101.345" r="1.21596" fill="#59A7D3"/>
<ellipse opacity="0.6" rx="1.21596" ry="3.03991" transform="matrix(0.965926 0.258819 0.258819 -0.965926 70.643 21.9105)" fill="#ADD2E7"/>
<path opacity="0.6" d="M106.888 41.6288C107.1 40.8363 107.161 40.0931 107.095 39.5358C107.062 39.2566 106.998 39.0345 106.913 38.8779C106.828 38.7219 106.734 38.6474 106.642 38.6227C106.55 38.5981 106.43 38.6152 106.279 38.7081C106.128 38.8014 105.961 38.9617 105.793 39.1868C105.456 39.6363 105.138 40.3104 104.925 41.1029C104.713 41.8955 104.652 42.6386 104.718 43.1959C104.752 43.4752 104.816 43.6972 104.9 43.8538C104.985 44.0099 105.08 44.0844 105.172 44.109C105.264 44.1337 105.383 44.1166 105.534 44.0236C105.686 43.9303 105.852 43.7701 106.021 43.5449C106.357 43.0955 106.676 42.4214 106.888 41.6288Z" stroke="#3E95C6" stroke-width="0.4"/>
<ellipse opacity="0.6" rx="1.21596" ry="3.03991" transform="matrix(0.866025 -0.5 -0.5 -0.866025 84.6288 62.0268)" fill="#59A7D3"/>
<ellipse opacity="0.6" rx="1.21596" ry="3.03991" transform="matrix(0.866025 -0.5 -0.5 -0.866025 108.951 14.6042)" fill="#59A7D3"/>
<ellipse opacity="0.6" rx="1.21596" ry="3.03991" transform="matrix(0.707107 -0.707107 -0.707107 -0.707107 122.761 115.298)" fill="#59A7D3"/>
</svg>
