
<svg width="191" height="150" viewBox="0 0 191 150" fill="none" xmlns="http://www.w3.org/2000/svg">
<circle cx="103.711" cy="75" r="75" fill="#CEF0E1"/>
<circle opacity="0.4" cx="111.665" cy="91.1644" r="1.13636" transform="rotate(105 111.665 91.1644)" fill="#F0DFB0"/>
<path d="M0.800781 130.907V89.6568L30.624 70.4842L61.3203 90.7006V130.907H0.800781Z" fill="#3E95C6" stroke="#60BF93"/>
<path d="M29.2164 82.9046C29.2165 82.9067 29.215 82.9084 29.213 82.9086C29.0269 82.9265 28.8541 83.0131 28.7284 83.1515C28.6019 83.2909 28.5322 83.4726 28.5332 83.6608L28.5332 98.6718C28.5332 99.1269 28.2238 99.5192 27.7947 99.6705C24.1878 100.942 21.5937 104.375 21.5937 108.412C21.5937 113.528 25.7553 117.69 30.8717 117.69C35.9893 117.69 40.1496 113.528 40.1496 108.412C40.1496 104.127 37.2295 100.522 33.2772 99.4599C32.8073 99.3337 32.4552 98.9235 32.4552 98.4369L32.4552 96.7639C32.4552 96.2116 32.9029 95.7639 33.4552 95.7639L37.4576 95.7639C37.4592 95.7639 37.4605 95.7626 37.4605 95.761C37.4605 95.7595 37.4616 95.7582 37.4632 95.7581C37.6529 95.7439 37.8304 95.6586 37.9602 95.5194C38.0906 95.3795 38.1632 95.1954 38.1635 95.0041C38.1635 94.9945 38.1614 94.9859 38.1608 94.9764C38.1607 94.9752 38.1617 94.9741 38.1629 94.9741C38.1641 94.9741 38.1651 94.9732 38.1651 94.972L38.1651 92.5355C38.1651 92.5352 38.1648 92.5349 38.1645 92.5349C38.1641 92.5349 38.1639 92.5346 38.1639 92.5343C38.1637 92.3432 38.0911 92.1592 37.9608 92.0194C37.8311 91.8802 37.6536 91.7951 37.464 91.7809C37.4622 91.7808 37.4609 91.7794 37.4609 91.7776C37.4609 91.7758 37.4594 91.7743 37.4576 91.7743L33.4511 91.7743C32.9013 91.7743 32.4556 91.3286 32.4556 90.7788C32.4556 90.229 32.9013 89.7833 33.4511 89.7833L40.1913 89.7833C40.193 89.7833 40.1944 89.7819 40.1944 89.7802C40.1944 89.7786 40.1957 89.7772 40.1973 89.7771C40.387 89.7626 40.5644 89.6773 40.6943 89.5381C40.8248 89.3981 40.8976 89.2141 40.8982 89.0228L40.8974 89.0144L40.8974 86.5703L40.8982 86.5619C40.8975 86.3706 40.8246 86.1866 40.6942 86.0468C40.5643 85.9076 40.387 85.8222 40.1973 85.8076C40.1957 85.8075 40.1944 85.8061 40.1944 85.8045C40.1944 85.8028 40.193 85.8014 40.1913 85.8014L33.4552 85.8014C32.9029 85.8014 32.4552 85.3537 32.4552 84.8014L32.4552 83.66C32.4549 83.4586 32.3739 83.2654 32.2314 83.123C32.0889 82.9806 31.8957 82.9005 31.6942 82.9003L29.2202 82.9007C29.218 82.9007 29.2163 82.9025 29.2164 82.9046ZM36.2572 108.412C36.2572 111.346 33.8684 113.734 30.9345 113.734C28.0002 113.734 25.6117 111.346 25.6117 108.412C25.6117 105.478 28.0002 103.092 30.9345 103.092C33.8688 103.092 36.2572 105.478 36.2572 108.412Z" fill="#FFD37C"/>
<path fill-rule="evenodd" clip-rule="evenodd" d="M15.9776 110.574H45.6326L60.3366 131.444H1.27366L15.9776 110.574ZM15.0804 110.111L0.300781 89.4058V131.089L15.0804 110.111ZM61.5598 131.444L46.7863 110.475L61.8203 90.9437V131.444H61.5598Z" fill="#60BF93"/>
<path d="M0.800781 130.907V89.6568L30.624 70.4842L61.3203 90.7006V130.907H0.800781Z" fill="#44A678" stroke="#60BF93"/>
<path d="M29.2164 82.9046C29.2165 82.9067 29.215 82.9084 29.213 82.9086C29.0269 82.9265 28.8541 83.0131 28.7284 83.1515C28.6019 83.2909 28.5322 83.4726 28.5332 83.6608L28.5332 98.6718C28.5332 99.1269 28.2238 99.5192 27.7947 99.6705C24.1878 100.942 21.5937 104.375 21.5937 108.412C21.5937 113.528 25.7553 117.69 30.8717 117.69C35.9893 117.69 40.1496 113.528 40.1496 108.412C40.1496 104.127 37.2295 100.522 33.2772 99.4599C32.8073 99.3337 32.4552 98.9235 32.4552 98.4369L32.4552 96.7639C32.4552 96.2116 32.9029 95.7639 33.4552 95.7639L37.4576 95.7639C37.4592 95.7639 37.4605 95.7626 37.4605 95.761C37.4605 95.7595 37.4616 95.7582 37.4632 95.7581C37.6529 95.7439 37.8304 95.6586 37.9602 95.5194C38.0906 95.3795 38.1632 95.1954 38.1635 95.0041C38.1635 94.9945 38.1614 94.9859 38.1608 94.9764C38.1607 94.9752 38.1617 94.9741 38.1629 94.9741C38.1641 94.9741 38.1651 94.9732 38.1651 94.972L38.1651 92.5355C38.1651 92.5352 38.1648 92.5349 38.1645 92.5349C38.1641 92.5349 38.1639 92.5346 38.1639 92.5343C38.1637 92.3432 38.0911 92.1592 37.9608 92.0194C37.8311 91.8802 37.6536 91.7951 37.464 91.7809C37.4622 91.7808 37.4609 91.7794 37.4609 91.7776C37.4609 91.7758 37.4594 91.7743 37.4576 91.7743L33.4511 91.7743C32.9013 91.7743 32.4556 91.3286 32.4556 90.7788C32.4556 90.229 32.9013 89.7833 33.4511 89.7833L40.1913 89.7833C40.193 89.7833 40.1944 89.7819 40.1944 89.7802C40.1944 89.7786 40.1957 89.7772 40.1973 89.7771C40.387 89.7626 40.5644 89.6773 40.6943 89.5381C40.8248 89.3981 40.8976 89.2141 40.8982 89.0228L40.8974 89.0144L40.8974 86.5703L40.8982 86.5619C40.8975 86.3706 40.8246 86.1866 40.6942 86.0468C40.5643 85.9076 40.387 85.8222 40.1973 85.8076C40.1957 85.8075 40.1944 85.8061 40.1944 85.8045C40.1944 85.8028 40.193 85.8014 40.1913 85.8014L33.4552 85.8014C32.9029 85.8014 32.4552 85.3537 32.4552 84.8014L32.4552 83.66C32.4549 83.4586 32.3739 83.2654 32.2314 83.123C32.0889 82.9806 31.8957 82.9005 31.6942 82.9003L29.2202 82.9007C29.218 82.9007 29.2163 82.9025 29.2164 82.9046ZM36.2572 108.412C36.2572 111.346 33.8684 113.734 30.9345 113.734C28.0002 113.734 25.6117 111.346 25.6117 108.412C25.6117 105.478 28.0002 103.092 30.9345 103.092C33.8688 103.092 36.2572 105.478 36.2572 108.412Z" fill="#FFD37C"/>
<path d="M15.4108 110.574H46.7102L61.8203 90.9437V131.444H0.300781V89.4058L15.4108 110.574Z" fill="#60BF93"/>
<path d="M60.6309 105.968C67.5314 95.3215 89.3767 76.0393 123.919 88.8152C167.097 104.785 161.319 59.0119 141.208 46.5908" stroke="#359C6D" stroke-width="0.75" stroke-dasharray="4 4"/>
<path d="M119.327 30.5963C135.566 30.8716 135.619 36.0195 136.927 38.4977L150.276 35.1693L190.699 14.3973L119.327 30.5963Z" fill="#60BF93"/>
<path d="M155.47 45.2749L140.62 54.847L142.599 43.2686L146.783 40.4958L155.47 45.2749Z" fill="#81D3AD"/>
<path d="M18.0469 113.657H44.072" stroke="#A1CDE6" stroke-width="0.4" stroke-linecap="round"/>
<path d="M139.7 42.6807C151.266 40.0598 161.062 48.4113 163.096 54.2553L190.699 14.3969L139.7 42.6807Z" fill="#60BF93"/>
<path fill-rule="evenodd" clip-rule="evenodd" d="M175.391 36.5046C170.531 40.7639 165.791 44.7072 163.946 45.4974C162.257 46.221 159.782 45.2723 156.92 44.1757C153.466 42.8519 149.449 41.3127 145.576 42.2405C154.457 42.9048 161.42 49.4336 163.098 54.2555L175.391 36.5046Z" fill="#4BB483"/>
<path fill-rule="evenodd" clip-rule="evenodd" d="M122.844 29.7989C127.16 29.3858 132.005 29.5958 136.148 31.302C142.037 33.7268 163.078 26.5785 180.66 19.5571L150.279 35.1693L136.93 38.4977C136.779 38.2124 136.645 37.8917 136.501 37.5472C135.395 34.8988 133.7 30.8399 119.33 30.5963L122.844 29.7989Z" fill="#4BB483"/>
<path d="M140.62 54.8472L145.352 42.4262L190.7 14.3973L136.121 36.5236L140.62 54.8472Z" fill="#44A678"/>
<path d="M12.1309 110.108L2.6672 95.9129" stroke="#A1CDE6" stroke-width="0.4" stroke-linecap="round"/>
<path d="M49.9863 110.108L59.45 97.0959" stroke="#A1CDE6" stroke-width="0.4" stroke-linecap="round"/>
<circle cx="60.6335" cy="105.377" r="2.36592" fill="#FFD37C"/>
<circle cx="145.848" cy="50.093" r="2.36592" fill="#FFD37C"/>
<path fill-rule="evenodd" clip-rule="evenodd" d="M61.8201 122.628V131.444H34.0566C34.6548 131.135 35.5883 130.917 36.9719 130.81C51.0475 129.728 58.0761 126.149 61.8201 122.628Z" fill="#4BB483"/>
<path fill-rule="evenodd" clip-rule="evenodd" d="M22.6054 131.444H0.300781V121.89C5.93753 127.077 14.6299 129.766 22.6054 131.444Z" fill="#4BB483"/>
<path d="M45.4153 109.4L60.6309 130.219" stroke="#44A678" stroke-linecap="round"/>
<path d="M16.192 109.4L1.48242 130.219" stroke="#44A678" stroke-linecap="round"/>
<path d="M146.793 27.7529L179.916 17.6978" stroke="#A1CDE6" stroke-width="0.4" stroke-linecap="round"/>
<path d="M172.228 36.6255C168.679 40.963 163.472 45.0571 162.173 44.3147C158.032 41.9488 153.892 41.3573 152.709 41.3573" stroke="#A1CDE6" stroke-width="0.4" stroke-linecap="round"/>
<circle opacity="0.4" cx="146.546" cy="122.57" r="1.18296" transform="rotate(-15 146.546 122.57)" fill="#FFD37C"/>
<circle opacity="0.6" cx="46.1872" cy="48.4509" r="1.82395" fill="#F69A9A"/>
<circle opacity="0.6" cx="85.5093" cy="123.522" r="1.82395" transform="rotate(-15 85.5093 123.522)" fill="#F69A9A"/>
<circle opacity="0.6" cx="125.831" cy="58.7863" r="1.21596" fill="#F69A9A"/>
<circle opacity="0.6" cx="170.051" cy="77.9607" r="1.82395" fill="#60BF93"/>
<circle opacity="0.6" cx="140.171" cy="95.8076" r="1.21596" transform="rotate(105 140.171 95.8076)" fill="#FFD37C"/>
<circle opacity="0.6" cx="73.548" cy="42.9791" r="1.21596" fill="#FFD37C"/>
<circle opacity="0.6" cx="104.945" cy="137.419" r="1.26582" transform="rotate(-15 104.945 137.419)" fill="#FFD37C"/>
<circle opacity="0.6" cx="89.3527" cy="101.345" r="1.21596" fill="#60BF93"/>
<ellipse opacity="0.6" rx="1.21596" ry="3.03991" transform="matrix(0.965926 0.258819 0.258819 -0.965926 70.643 21.9106)" fill="#ADD2E7"/>
<path opacity="0.6" d="M106.888 41.6291C107.1 40.8366 107.161 40.0934 107.095 39.5361C107.062 39.2569 106.998 39.0348 106.913 38.8782C106.828 38.7222 106.734 38.6477 106.642 38.623C106.55 38.5984 106.43 38.6155 106.279 38.7084C106.128 38.8017 105.961 38.962 105.793 39.1872C105.456 39.6366 105.138 40.3107 104.925 41.1032C104.713 41.8958 104.652 42.6389 104.718 43.1963C104.752 43.4755 104.816 43.6975 104.9 43.8541C104.985 44.0102 105.08 44.0847 105.172 44.1093C105.264 44.134 105.383 44.1169 105.534 44.0239C105.686 43.9306 105.852 43.7704 106.021 43.5452C106.357 43.0958 106.676 42.4217 106.888 41.6291Z" stroke="#3E95C6" stroke-width="0.4"/>
<ellipse opacity="0.6" rx="1.21596" ry="3.03991" transform="matrix(0.866025 -0.5 -0.5 -0.866025 84.6288 62.027)" fill="#60BF93"/>
<ellipse opacity="0.6" rx="1.21596" ry="3.03991" transform="matrix(0.866025 -0.5 -0.5 -0.866025 108.951 14.6046)" fill="#60BF93"/>
<ellipse opacity="0.6" rx="1.21596" ry="3.03991" transform="matrix(0.707107 -0.707107 -0.707107 -0.707107 122.761 115.298)" fill="#60BF93"/>
</svg>
