<svg width="24" height="24" viewBox="0 0 24 24" fill="none" xmlns="http://www.w3.org/2000/svg">
<path d="M11.8302 8.16503C9.71851 8.16503 7.99522 9.88832 7.99522 12C7.99522 14.1117 9.71851 15.835 11.8302 15.835C13.9419 15.835 15.6652 14.1117 15.6652 12C15.6652 9.88832 13.9419 8.16503 11.8302 8.16503ZM23.3322 12C23.3322 10.4119 23.3466 8.83824 23.2574 7.25304C23.1682 5.4118 22.7482 3.77769 21.4018 2.43128C20.0525 1.082 18.4213 0.664841 16.58 0.575656C14.992 0.486471 13.4183 0.500856 11.8331 0.500856C10.245 0.500856 8.67131 0.486471 7.08611 0.575656C5.24487 0.664841 3.61076 1.08488 2.26435 2.43128C0.915067 3.78057 0.49791 5.4118 0.408725 7.25304C0.31954 8.84112 0.333925 10.4148 0.333925 12C0.333925 13.5852 0.31954 15.1618 0.408725 16.747C0.49791 18.5882 0.917944 20.2223 2.26435 21.5687C3.61364 22.918 5.24487 23.3352 7.08611 23.4243C8.67418 23.5135 10.2479 23.4991 11.8331 23.4991C13.4211 23.4991 14.9948 23.5135 16.58 23.4243C18.4213 23.3352 20.0554 22.9151 21.4018 21.5687C22.7511 20.2194 23.1682 18.5882 23.2574 16.747C23.3495 15.1618 23.3322 13.5881 23.3322 12ZM11.8302 17.9006C8.56486 17.9006 5.92958 15.2653 5.92958 12C5.92958 8.73467 8.56486 6.09939 11.8302 6.09939C15.0955 6.09939 17.7308 8.73467 17.7308 12C17.7308 15.2653 15.0955 17.9006 11.8302 17.9006ZM17.9725 7.23578C17.2101 7.23578 16.5944 6.62012 16.5944 5.85773C16.5944 5.09534 17.2101 4.47967 17.9725 4.47967C18.7349 4.47967 19.3505 5.09534 19.3505 5.85773C19.3507 6.03876 19.3153 6.21806 19.2461 6.38535C19.1769 6.55265 19.0754 6.70465 18.9474 6.83266C18.8194 6.96067 18.6674 7.06217 18.5001 7.13135C18.3328 7.20052 18.1535 7.23601 17.9725 7.23578Z" fill="#59A7D3"/>
</svg>
