<svg width="38" height="38" viewBox="0 0 38 38" fill="none" xmlns="http://www.w3.org/2000/svg">
<g clip-path="url(#clip0_519_19)">
<path fill-rule="evenodd" clip-rule="evenodd" d="M37.6528 12.2217C37.7634 12.332 37.8511 12.463 37.911 12.6073C37.9709 12.7516 38.0017 12.9062 38.0017 13.0624C38.0017 13.2186 37.9709 13.3733 37.911 13.5176C37.8511 13.6618 37.7634 13.7929 37.6528 13.9032L30.5278 21.0282C30.4175 21.1388 30.2864 21.2265 30.1422 21.2864C29.9979 21.3462 29.8432 21.377 29.687 21.377C29.5308 21.377 29.3762 21.3462 29.2319 21.2864C29.0876 21.2265 28.9566 21.1388 28.8463 21.0282L25.2838 17.4657C25.0608 17.2427 24.9355 16.9403 24.9355 16.6249C24.9355 16.3096 25.0608 16.0072 25.2838 15.7842C25.5068 15.5612 25.8092 15.4359 26.1245 15.4359C26.4399 15.4359 26.7423 15.5612 26.9653 15.7842L29.687 18.5083L35.9713 12.2217C36.0816 12.1111 36.2126 12.0233 36.3569 11.9635C36.5012 11.9036 36.6558 11.8728 36.812 11.8728C36.9682 11.8728 37.1229 11.9036 37.2672 11.9635C37.4114 12.0233 37.5425 12.1111 37.6528 12.2217Z" fill="#2BA96F"/>
<path d="M2.375 33.25C2.375 33.25 0 33.25 0 30.875C0 28.5 2.375 21.375 14.25 21.375C26.125 21.375 28.5 28.5 28.5 30.875C28.5 33.25 26.125 33.25 26.125 33.25H2.375ZM14.25 19C16.1397 19 17.9519 18.2493 19.2881 16.9131C20.6243 15.5769 21.375 13.7647 21.375 11.875C21.375 9.98533 20.6243 8.17306 19.2881 6.83686C17.9519 5.50067 16.1397 4.75 14.25 4.75C12.3603 4.75 10.5481 5.50067 9.21186 6.83686C7.87567 8.17306 7.125 9.98533 7.125 11.875C7.125 13.7647 7.87567 15.5769 9.21186 16.9131C10.5481 18.2493 12.3603 19 14.25 19Z" fill="#2BA96F"/>
</g>
<defs>
<clipPath id="clip0_519_19">
<rect width="38" height="38" fill="white"/>
</clipPath>
</defs>
</svg>
