<svg width="24" height="24" viewBox="0 0 24 24" fill="none" xmlns="http://www.w3.org/2000/svg">
<path d="M14.9452 15.9388L16.5552 14.3288C16.7721 14.1146 17.0464 13.968 17.345 13.9068C17.6436 13.8455 17.9535 13.8723 18.2371 13.9838L20.1993 14.7672C20.4859 14.8836 20.7317 15.0822 20.9057 15.338C21.0796 15.5938 21.174 15.8954 21.1768 16.2047V19.7985C21.1751 20.0089 21.1309 20.2168 21.0468 20.4097C20.9626 20.6026 20.8403 20.7765 20.6872 20.9208C20.5341 21.0652 20.3534 21.1771 20.1559 21.2498C19.9584 21.3225 19.7482 21.3545 19.5381 21.3438C5.78837 20.4885 3.014 8.84472 2.48931 4.38847C2.46495 4.16963 2.48721 3.94812 2.55461 3.73851C2.62201 3.52889 2.73302 3.33592 2.88036 3.1723C3.02769 3.00867 3.208 2.87809 3.40942 2.78915C3.61084 2.70021 3.82882 2.65493 4.049 2.65628H7.52056C7.83035 2.6572 8.13278 2.75077 8.38895 2.92497C8.64512 3.09917 8.84332 3.34602 8.95806 3.63378L9.7415 5.59597C9.85668 5.87849 9.88606 6.18868 9.82598 6.4878C9.7659 6.78692 9.61902 7.06171 9.40368 7.27784L7.79368 8.88784C7.79368 8.88784 8.72087 15.1625 14.9452 15.9388Z" fill="#38BF6E"/>
</svg>
