<svg width="225" height="225" viewBox="0 0 225 225" fill="none" xmlns="http://www.w3.org/2000/svg">
<path d="M221.166 141.617C213.713 169.433 195.877 193.331 171.332 208.391C146.787 223.45 117.402 228.524 89.2279 222.567C61.0541 216.61 36.2372 200.076 19.8883 176.37C3.53949 152.664 -3.09645 123.592 1.3472 95.1401C5.79086 66.6883 20.9758 41.0238 43.7745 23.4322C66.5733 5.84054 95.2499 -2.33867 123.898 0.579066C152.547 3.4968 178.986 17.2893 197.77 39.116C216.554 60.9427 226.253 89.1415 224.87 117.905L169.729 115.253C170.434 100.604 165.494 86.2422 155.927 75.126C146.361 64.0098 132.896 56.9853 118.305 55.4994C103.714 54.0134 89.1096 58.179 77.4984 67.1383C65.8871 76.0976 58.1535 89.1684 55.8904 103.659C53.6272 118.149 57.0069 132.956 65.3333 145.029C73.6596 157.102 86.2987 165.523 100.648 168.556C114.996 171.59 129.962 169.006 142.463 161.337C154.964 153.667 164.047 141.496 167.843 127.329L221.166 141.617Z" fill="#3B8659" fill-opacity="0.07"/>
</svg>
