<svg width="225" height="225" viewBox="0 0 225 225" fill="none" xmlns="http://www.w3.org/2000/svg">
<path d="M221.167 141.617C213.713 169.433 195.878 193.331 171.333 208.391C146.787 223.45 117.402 228.524 89.2281 222.567C61.0543 216.61 36.2374 200.076 19.8886 176.37C3.53973 152.664 -3.09621 123.592 1.34745 95.1401C5.79111 66.6883 20.976 41.0238 43.7748 23.4322C66.5735 5.84054 95.2502 -2.33867 123.899 0.579066C152.547 3.4968 178.986 17.2893 197.77 39.116C216.554 60.9427 226.254 89.1415 224.87 117.905L169.729 115.253C170.434 100.604 165.494 86.2422 155.928 75.126C146.361 64.0098 132.896 56.9853 118.305 55.4994C103.715 54.0134 89.1099 58.179 77.4986 67.1383C65.8873 76.0976 58.1537 89.1684 55.8906 103.659C53.6275 118.149 57.0071 132.956 65.3335 145.029C73.6599 157.102 86.299 165.523 100.648 168.556C114.997 171.59 129.962 169.006 142.463 161.337C154.964 153.667 164.047 141.496 167.843 127.329L221.167 141.617Z" fill="#DBEEF7" fill-opacity="0.5"/>
</svg>
