<svg width="23" height="24" viewBox="0 0 23 24" fill="none" xmlns="http://www.w3.org/2000/svg">
<path d="M11.5112 9.42031C10.8396 9.42031 10.2107 9.68086 9.73457 10.157C9.26064 10.6332 8.99785 11.2621 8.99785 11.9337C8.99785 12.6053 9.26064 13.2342 9.73457 13.7104C10.2107 14.1843 10.8396 14.4471 11.5112 14.4471C12.1828 14.4471 12.8117 14.1843 13.2879 13.7104C13.7618 13.2342 14.0246 12.6053 14.0246 11.9337C14.0246 11.2621 13.7618 10.6332 13.2879 10.157C13.0553 9.92267 12.7785 9.73685 12.4735 9.61038C12.1685 9.48391 11.8414 9.4193 11.5112 9.42031V9.42031ZM20.7719 14.7099L19.3029 13.4543C19.3726 13.0275 19.4085 12.5918 19.4085 12.1583C19.4085 11.7248 19.3726 11.2868 19.3029 10.8623L20.7719 9.60674C20.8828 9.51174 20.9623 9.38522 20.9996 9.24399C21.0369 9.10276 21.0303 8.95352 20.9808 8.81611L20.9605 8.75772C20.5563 7.62723 19.9505 6.57935 19.1727 5.66484L19.1322 5.61768C19.0378 5.50661 18.9119 5.42677 18.7711 5.38868C18.6304 5.35059 18.4814 5.35603 18.3438 5.4043L16.52 6.05342C15.8462 5.50088 15.096 5.06514 14.2829 4.76191L13.9303 2.85498C13.9037 2.71133 13.834 2.57917 13.7305 2.47606C13.627 2.37295 13.4945 2.30378 13.3508 2.27773L13.2901 2.2665C12.1222 2.05537 10.8913 2.05537 9.72334 2.2665L9.66269 2.27773C9.51893 2.30378 9.3865 2.37295 9.283 2.47606C9.17949 2.57917 9.1098 2.71133 9.0832 2.85498L8.72832 4.7709C7.92293 5.07654 7.17266 5.51122 6.50693 6.05791L4.66962 5.4043C4.53209 5.35565 4.383 5.35001 4.24218 5.38812C4.10136 5.42624 3.97547 5.5063 3.88125 5.61768L3.84082 5.66484C3.06432 6.58033 2.45873 7.62795 2.05293 8.75772L2.03271 8.81611C1.93164 9.09688 2.01474 9.41133 2.2416 9.60674L3.72851 10.8758C3.65888 11.298 3.62519 11.7293 3.62519 12.1561C3.62519 12.5873 3.65888 13.0186 3.72851 13.4363L2.24609 14.7054C2.13512 14.8004 2.0557 14.9269 2.01839 15.0681C1.98108 15.2093 1.98764 15.3586 2.0372 15.496L2.05742 15.5544C2.46396 16.6842 3.06367 17.7286 3.84531 18.6473L3.88574 18.6944C3.9802 18.8055 4.10609 18.8853 4.24682 18.9234C4.38756 18.9615 4.53654 18.9561 4.67412 18.9078L6.51142 18.2542C7.18076 18.8045 7.92646 19.2402 8.73281 19.5412L9.08769 21.4571C9.1143 21.6008 9.18398 21.7329 9.28749 21.8361C9.391 21.9392 9.52343 22.0083 9.66718 22.0344L9.72783 22.0456C10.9073 22.2579 12.1152 22.2579 13.2946 22.0456L13.3553 22.0344C13.499 22.0083 13.6315 21.9392 13.735 21.8361C13.8385 21.7329 13.9082 21.6008 13.9348 21.4571L14.2874 19.5502C15.1005 19.2447 15.8507 18.8112 16.5245 18.2587L18.3483 18.9078C18.4859 18.9565 18.635 18.9621 18.7758 18.924C18.9166 18.8859 19.0425 18.8058 19.1367 18.6944L19.1771 18.6473C19.9588 17.7241 20.5585 16.6842 20.965 15.5544L20.9853 15.496C21.0818 15.2175 20.9987 14.9053 20.7719 14.7099ZM11.5112 15.8823C9.33027 15.8823 7.56259 14.1146 7.56259 11.9337C7.56259 9.75273 9.33027 7.98506 11.5112 7.98506C13.6922 7.98506 15.4599 9.75273 15.4599 11.9337C15.4599 14.1146 13.6922 15.8823 11.5112 15.8823Z" fill="white"/>
</svg>
