<svg width="86" height="39" viewBox="0 0 86 39" fill="none" xmlns="http://www.w3.org/2000/svg">
<path d="M15.0521 28.4224C13.9296 28.4224 12.9147 28.2518 12.0075 27.9108C11.1156 27.5698 10.4082 27.0787 9.88542 26.4375C9.7472 26.268 9.62671 26.0904 9.52396 25.9047C9.04172 25.0331 9.89506 24.1662 10.8912 24.1662H10.9384C11.8414 24.1662 12.5322 24.9845 13.2299 25.5576C13.6605 25.8987 14.2448 26.0692 14.9829 26.0692C15.7364 26.0692 16.3284 25.9123 16.759 25.5985C17.1895 25.2711 17.4048 24.8483 17.4048 24.3299C17.4048 23.907 17.2587 23.5591 16.9666 23.2863C16.6744 23.0135 16.3054 22.802 15.8594 22.652C15.4289 22.4883 14.8292 22.3109 14.0603 22.1199C13.0147 21.8471 12.1612 21.5811 11.5 21.3219C10.8542 21.0491 10.2929 20.6466 9.81623 20.1146C9.35491 19.5689 9.12426 18.8459 9.12426 17.9456C9.12426 17.0998 9.3626 16.3632 9.83929 15.7356C10.316 15.1081 10.9849 14.6307 11.846 14.3033C12.7071 13.9622 13.6913 13.7917 14.7984 13.7917C16.4591 13.7917 17.8046 14.1532 18.8349 14.8762C19.3253 15.2089 19.7125 15.6046 19.9966 16.0632C20.5366 16.9353 19.6847 17.8637 18.659 17.8637H18.4677C17.6498 17.8637 16.9666 17.1271 16.2977 16.6564C15.8671 16.329 15.2905 16.1653 14.5677 16.1653C13.9373 16.1653 13.4298 16.3086 13.0454 16.5951C12.6764 16.8815 12.4918 17.2976 12.4918 17.8433C12.4918 18.2252 12.6302 18.5458 12.907 18.805C13.1992 19.0506 13.5529 19.2552 13.968 19.4189C14.3986 19.5689 14.9983 19.7463 15.7672 19.9509C16.8128 20.2237 17.6662 20.4966 18.3274 20.7694C18.9887 21.0422 19.5576 21.4515 20.0343 21.9972C20.511 22.5428 20.7493 23.259 20.7493 24.1457C20.7493 24.9096 20.5264 25.619 20.0804 26.2738C19.6345 26.9286 18.981 27.4538 18.1199 27.8494C17.2587 28.2314 16.2362 28.4224 15.0521 28.4224Z" fill="#E2E2E2"/>
<path d="M29.2231 28.4633C27.9929 28.4633 26.8858 28.2246 25.9016 27.7471C24.9175 27.256 24.1409 26.5671 23.572 25.6804C23.0184 24.7937 22.7416 23.7706 22.7416 22.611C22.7416 21.4515 23.0261 20.4284 23.5951 19.5417C24.1794 18.6549 24.9713 17.9729 25.9708 17.4954C26.9703 17.0043 28.0852 16.7588 29.3153 16.7588C30.5455 16.7588 31.6603 17.0043 32.6599 17.4954C33.6594 17.9729 34.4436 18.6549 35.0125 19.5417C35.5969 20.4284 35.889 21.4515 35.889 22.611C35.889 23.7706 35.5892 24.7937 34.9895 25.6804C34.4051 26.5671 33.6055 27.256 32.5907 27.7471C31.5911 28.2246 30.4686 28.4633 29.2231 28.4633ZM29.2231 25.9669C29.8074 25.9669 30.3533 25.8441 30.8607 25.5985C31.3836 25.3394 31.7987 24.9574 32.1063 24.4526C32.4138 23.9479 32.5676 23.334 32.5676 22.611C32.5676 21.5333 32.2447 20.708 31.5988 20.1351C30.9684 19.5485 30.1918 19.2552 29.2692 19.2552C28.3466 19.2552 27.57 19.5485 26.9396 20.1351C26.3245 20.708 26.0169 21.5333 26.0169 22.611C26.0169 23.6887 26.3168 24.5209 26.9165 25.1074C27.5316 25.6804 28.3004 25.9669 29.2231 25.9669Z" fill="#E2E2E2"/>
<path d="M40.9404 16.4695C41.1623 17.318 42.4007 17.6446 43.1938 17.2703C43.9319 16.9293 44.77 16.7588 45.708 16.7588C46.7997 16.7588 47.7839 16.9975 48.6604 17.4749C49.5522 17.9524 50.2519 18.6345 50.7593 19.5212C51.2822 20.3943 51.5436 21.4106 51.5436 22.5701C51.5436 23.7296 51.2822 24.7596 50.7593 25.6599C50.2519 26.5466 49.7259 27.1912 48.6604 27.7266C47.655 28.2319 46.9211 28.2791 45.7678 28.2791C44.8145 28.2791 44.0796 28.2791 43.1938 28.2791C42.308 28.2791 42.308 28.2791 41.487 28.2791C39.7035 28.2791 38.2578 26.8334 38.2578 25.0499V14.497C38.2578 13.8053 38.9067 13.2969 39.5783 13.4626C39.9575 13.5561 40.2552 13.8496 40.354 14.2274L40.9404 16.4695ZM48.2452 22.5701C48.2452 21.888 48.0837 21.3014 47.7608 20.8103C47.4533 20.3056 47.0381 19.9236 46.5153 19.6644C46.0078 19.4052 45.4542 19.2756 44.8545 19.2756C44.2702 19.2756 43.7166 19.4121 43.1938 19.6849C42.6864 19.9441 42.2712 20.3261 41.9483 20.8308C41.6407 21.3355 41.487 21.9289 41.487 22.611C41.487 23.2931 41.6407 23.8865 41.9483 24.3913C42.2712 24.896 42.6864 25.2848 43.1938 25.5576C43.7166 25.8168 44.2702 25.9464 44.8545 25.9464C45.4542 25.9464 46.0078 25.81 46.5153 25.5372C47.0381 25.2643 47.4533 24.8755 47.7608 24.3708C48.0837 23.8661 48.2452 23.2658 48.2452 22.5701Z" fill="#E2E2E2"/>
<path d="M53.0598 22.5701C53.0598 21.4242 53.3135 20.4079 53.8209 19.5212C54.3438 18.6345 55.0434 17.9524 55.9199 17.4749C56.8118 16.9975 57.8036 16.7588 58.8954 16.7588C59.8488 16.7588 60.6791 16.9293 61.3865 17.2703C62.3652 17.7322 63.7155 17.6297 64.5126 16.8977C64.6675 16.7554 64.8278 16.6238 64.9892 16.5132C65.5965 16.0969 66.3686 16.6358 66.3686 17.3721V24.9731C66.3686 26.8259 64.9174 28.3541 63.0671 28.4496L62.2982 28.4633C61.7216 28.4633 62.106 28.4633 61.3371 28.4633C60.3761 28.4633 59.8257 28.4633 58.8723 28.4633C57.7959 28.4633 56.8118 28.2177 55.9199 27.7266C55.0434 27.2355 54.3438 26.5466 53.8209 25.6599C53.3135 24.7596 53.0598 23.7296 53.0598 22.5701ZM63.1164 22.611C63.1164 21.9153 62.9626 21.3219 62.6551 20.8308C62.3475 20.3261 61.9324 19.9441 61.4095 19.6849C60.8867 19.4121 60.3255 19.2756 59.7257 19.2756C59.126 19.2756 58.5725 19.4052 58.065 19.6644C57.5576 19.9236 57.1424 20.3056 56.8195 20.8103C56.5119 21.3014 56.3582 21.888 56.3582 22.5701C56.3582 23.2522 56.5119 23.8524 56.8195 24.3708C57.1424 24.8755 57.5576 25.2643 58.065 25.5372C58.5878 25.81 59.1414 25.9464 59.7257 25.9464C60.3255 25.9464 60.8867 25.8168 61.4095 25.5576C61.9324 25.2848 62.3475 24.9028 62.6551 24.4117C62.9626 23.907 63.1164 23.3068 63.1164 22.611Z" fill="#E2E2E2"/>
<path d="M74.393 18.9222C73.7293 19.1456 73.2822 19.7678 73.2822 20.4682V24.78C73.2822 25.162 73.3822 25.4417 73.5821 25.619C73.7973 25.7827 74.151 25.8646 74.6431 25.8646H74.9351C75.6018 25.8646 76.1423 26.4051 76.1423 27.0718C76.1423 27.7386 75.6018 28.2791 74.9351 28.2791H74.1126C71.3908 28.2791 70.03 27.106 70.03 24.7596V20.2278C70.03 19.6724 69.6719 19.1804 69.1434 19.0096L68.7882 18.8949C68.4714 18.7925 68.2568 18.4977 68.2568 18.1648C68.2568 17.7725 68.5527 17.4434 68.9428 17.4019L69.3364 17.36C69.842 17.3062 70.2598 16.9413 70.3811 16.4474L70.7699 14.8638C70.8744 14.4386 71.2557 14.1396 71.6936 14.1396C72.1524 14.1396 72.5459 14.4671 72.629 14.9184L72.8597 16.1709C72.9798 16.823 73.5144 17.3185 74.1738 17.3887L74.2124 17.3928C74.6936 17.444 75.2311 17.7375 75.1765 18.2184C75.1371 18.5658 74.8011 18.7849 74.4697 18.8964L74.393 18.9222Z" fill="#E2E2E2"/>
<path d="M9.07812 35.3967C9.07812 34.7921 9.60183 34.3019 10.2478 34.3019H26.624C27.27 34.3019 27.7937 34.7921 27.7937 35.3967C27.7937 36.0013 27.27 36.4914 26.624 36.4914H10.2478C9.60183 36.4914 9.07812 36.0013 9.07812 35.3967Z" fill="#E2E2E2"/>
<path d="M31.5707 35.311C31.5707 35.8683 31.0744 36.3201 30.462 36.3201C29.8497 36.3201 29.3534 35.8683 29.3534 35.311C29.3534 34.7537 29.8497 34.3019 30.462 34.3019C31.0744 34.3019 31.5707 34.7537 31.5707 35.311Z" fill="#E2E2E2"/>
<path d="M35.3478 35.311C35.3478 35.8683 34.8514 36.3201 34.2391 36.3201C33.6268 36.3201 33.1304 35.8683 33.1304 35.311C33.1304 34.7537 33.6268 34.3019 34.2391 34.3019C34.8514 34.3019 35.3478 34.7537 35.3478 35.311Z" fill="#E2E2E2"/>
<path d="M36.9074 35.3967C36.9074 34.7921 37.4311 34.3019 38.0771 34.3019H43.5358C44.1819 34.3019 44.7056 34.7921 44.7056 35.3967C44.7056 36.0013 44.1819 36.4914 43.5358 36.4914H38.0771C37.4311 36.4914 36.9074 36.0013 36.9074 35.3967Z" fill="#E2E2E2"/>
<path d="M51.0614 38.6071C50.8793 38.6071 50.7064 38.5325 50.588 38.403L49.1513 36.8308C48.6805 36.3155 47.7788 36.6272 47.7788 37.3051V38.013C47.7788 38.3411 47.4947 38.6071 47.1441 38.6071C46.7935 38.6071 46.5093 38.3411 46.5093 38.013V31.8751C46.5093 31.547 46.7935 31.2811 47.1441 31.2811C47.4947 31.2811 47.7788 31.547 47.7788 31.8751V32.6229C47.7788 33.3037 48.6866 33.6138 49.1551 33.0931L50.6049 31.4819C50.7195 31.3546 50.8883 31.2811 51.0662 31.2811C51.5815 31.2811 51.8594 31.8469 51.5238 32.2129L49.4549 34.4695C49.2024 34.7449 49.2045 35.1521 49.4598 35.4253L51.5302 37.6404C51.8825 38.0173 51.5965 38.6071 51.0614 38.6071Z" fill="#E2E2E2"/>
<path d="M54.1801 31.2811C54.5307 31.2811 54.8149 31.547 54.8149 31.8751V35.9508C54.8149 36.5059 54.967 36.924 55.2714 37.2051C55.5833 37.4862 56.0139 37.6268 56.5632 37.6268C57.1201 37.6268 57.5507 37.4862 57.855 37.2051C58.1669 36.924 58.3228 36.5059 58.3228 35.9508V31.8751C58.3228 31.547 58.607 31.2811 58.9575 31.2811C59.3081 31.2811 59.5923 31.547 59.5923 31.8751V35.9297C59.5923 36.527 59.4549 37.033 59.1803 37.4476C58.9056 37.8622 58.5381 38.1714 58.0778 38.3752C57.6175 38.579 57.1089 38.6809 56.5521 38.6809C55.9953 38.6809 55.4867 38.579 55.0264 38.3752C54.5736 38.1714 54.2135 37.8622 53.9462 37.4476C53.679 37.033 53.5453 36.527 53.5453 35.9297V31.8751C53.5453 31.547 53.8295 31.2811 54.1801 31.2811Z" fill="#E2E2E2"/>
<path d="M65.7973 38.6071C65.6152 38.6071 65.4423 38.5325 65.3239 38.403L63.8872 36.8308C63.4164 36.3155 62.5148 36.6272 62.5148 37.3051V38.013C62.5148 38.3411 62.2306 38.6071 61.88 38.6071C61.5294 38.6071 61.2452 38.3411 61.2452 38.013V31.8751C61.2452 31.547 61.5294 31.2811 61.88 31.2811C62.2306 31.2811 62.5148 31.547 62.5148 31.8751V32.6229C62.5148 33.3037 63.4225 33.6138 63.8911 33.0931L65.3408 31.4819C65.4554 31.3546 65.6242 31.2811 65.8021 31.2811C66.3174 31.2811 66.5953 31.8469 66.2597 32.2129L64.1908 34.4695C63.9383 34.7449 63.9404 35.1521 64.1957 35.4253L66.2661 37.6404C66.6184 38.0173 66.3324 38.6071 65.7973 38.6071Z" fill="#E2E2E2"/>
<path d="M75.6643 31.2811C76.095 31.2811 76.4441 31.6078 76.4441 32.0109V38.013C76.4441 38.3411 76.1599 38.6071 75.8093 38.6071C75.4588 38.6071 75.1746 38.3411 75.1746 38.013V37.0578C75.1746 36.2682 74.0211 36.041 73.6811 36.7637L72.9911 38.23C72.8833 38.4592 72.641 38.6071 72.3734 38.6071C72.1062 38.6071 71.8642 38.4596 71.7561 38.231L71.0549 36.7476C70.7138 36.0261 69.5619 36.254 69.5619 37.0429V38.013C69.5619 38.3411 69.2777 38.6071 68.9272 38.6071C68.5766 38.6071 68.2924 38.3411 68.2924 38.013V32.0109C68.2924 31.6078 68.6415 31.2811 69.0722 31.2811H69.1545C69.4631 31.2811 69.7427 31.4514 69.8676 31.7155L71.6648 35.5152C71.939 36.0949 72.8182 36.0943 73.0915 35.5142L74.8804 31.7165C75.005 31.4518 75.2849 31.2811 75.5939 31.2811H75.6643Z" fill="#E2E2E2"/>
<path fill-rule="evenodd" clip-rule="evenodd" d="M8.2043 0C7.3118 0 6.51611 0.18884 6.20917 0.47282L0.759723 5.52608C0.587658 5.68589 0.499987 5.85303 0.5 6.02125V8.03145C0.5 9.16809 3.21764 10.0907 6.57042 10.0907C9.92319 10.0907 12.6432 9.16809 12.6432 8.03145C12.6432 9.16881 15.3608 10.0907 18.7136 10.0907C22.0664 10.0907 24.7864 9.16809 24.7864 8.03145C24.7864 9.16881 27.504 10.0907 30.8568 10.0907C34.2096 10.0907 36.9249 9.16954 36.9296 8.03289C36.9296 9.16954 39.6472 10.0907 43 10.0907C46.3528 10.0907 49.0704 9.16809 49.0704 8.03145C49.0704 9.16881 51.7904 10.0907 55.1432 10.0907C58.496 10.0907 61.2113 9.16954 61.2136 8.03289C61.216 9.16954 63.9336 10.0907 67.2864 10.0907C70.6392 10.0907 73.3568 9.16809 73.3568 8.03145C73.3568 9.16881 76.0744 10.0907 79.4296 10.0907C82.7824 10.0907 85.5 9.16809 85.5 8.03145V6.02125C85.5 5.85303 85.4123 5.68589 85.2403 5.52608L79.7908 0.473541C79.4839 0.18884 78.6882 0 77.7957 0H8.2043Z" fill="#E2E2E2"/>
<rect x="3.45703" y="9.08167" width="1.84783" height="29.5993" rx="0.923913" fill="#E2E2E2"/>
<rect x="80.6953" y="9.08167" width="1.84783" height="29.5993" rx="0.923913" fill="#E2E2E2"/>
</svg>
