<svg width="182" height="88" viewBox="0 0 182 88" fill="none" xmlns="http://www.w3.org/2000/svg">
<path d="M31.7209 64.6348C29.34 64.6348 27.1874 64.2484 25.2631 63.4755C23.3714 62.7026 21.871 61.5896 20.7621 60.1365C20.4165 59.6836 20.1231 59.2052 19.8821 58.7013C18.9727 56.8002 20.7768 54.9889 22.8841 54.9889C24.8597 54.9889 26.3407 56.7708 27.805 58.097C27.8219 58.1122 27.8389 58.1274 27.856 58.1424C28.7692 58.9153 30.0086 59.3018 31.5742 59.3018C33.1723 59.3018 34.428 58.9462 35.3412 58.2352C36.2545 57.4932 36.7111 56.5348 36.7111 55.3599C36.7111 54.4015 36.4013 53.6132 35.7816 52.9948C35.1619 52.3765 34.3791 51.8973 33.4332 51.5572C32.52 51.1862 31.248 50.7843 29.6172 50.3515C27.3994 49.7331 25.5892 49.1303 24.1867 48.5429C22.8169 47.9245 21.6264 47.0125 20.6153 45.8068C19.6369 44.5701 19.1477 42.9315 19.1477 40.8911C19.1477 38.9742 19.6532 37.3048 20.6643 35.8826C21.6754 34.4605 23.0941 33.3784 24.9206 32.6364C26.7471 31.8635 28.8345 31.477 31.1828 31.477C34.7052 31.477 37.5591 32.2963 39.7443 33.9349C40.8611 34.7444 41.7256 35.7185 42.338 36.8572C43.3656 38.7684 41.5587 40.7056 39.3888 40.7056H39.116C37.2986 40.7056 35.8154 39.0615 34.3628 37.9695C33.4496 37.2275 32.2265 36.8565 30.6935 36.8565C29.3563 36.8565 28.28 37.1811 27.4646 37.8303C26.6818 38.4796 26.2904 39.4225 26.2904 40.6592C26.2904 41.5248 26.584 42.2514 27.1711 42.8388C27.7908 43.3953 28.5409 43.859 29.4215 44.23C30.3348 44.5701 31.6068 44.972 33.2376 45.4358C35.4554 46.0541 37.2656 46.6724 38.668 47.2908C40.0705 47.9091 41.2773 48.8366 42.2884 50.0732C43.2994 51.3099 43.805 52.933 43.805 54.9426C43.805 56.6739 43.332 58.2815 42.3862 59.7655C41.4403 61.2495 40.0542 62.4398 38.2277 63.3364C36.4013 64.202 34.2323 64.6348 31.7209 64.6348Z" fill="#FFD37C"/>
<path d="M61.7782 64.7276C59.1689 64.7276 56.8206 64.1866 54.7332 63.1045C52.6458 61.9915 50.9987 60.4302 49.792 58.4207C48.6178 56.4111 48.0307 54.0924 48.0307 51.4645C48.0307 48.8366 48.6341 46.5178 49.8409 44.5083C51.0803 42.4987 52.76 40.9529 54.88 39.8708C57 38.7578 59.3646 38.2013 61.9738 38.2013C64.5831 38.2013 66.9477 38.7578 69.0677 39.8708C71.1877 40.9529 72.8511 42.4987 74.0579 44.5083C75.2973 46.5178 75.917 48.8366 75.917 51.4645C75.917 54.0924 75.281 56.4111 74.009 58.4207C72.7696 60.4302 71.0736 61.9915 68.921 63.1045C66.8009 64.1866 64.42 64.7276 61.7782 64.7276ZM61.7782 59.0699C63.0175 59.0699 64.1754 58.7916 65.2517 58.2352C66.3606 57.6477 67.2412 56.7821 67.8936 55.6382C68.5459 54.4943 68.872 53.103 68.872 51.4645C68.872 49.0221 68.1871 47.1516 66.8172 45.8531C65.48 44.5237 63.8329 43.859 61.876 43.859C59.9191 43.859 58.272 44.5237 56.9348 45.8531C55.6301 47.1516 54.9778 49.0221 54.9778 51.4645C54.9778 53.9069 55.6138 55.7928 56.8858 57.1222C58.1904 58.4207 59.8212 59.0699 61.7782 59.0699Z" fill="#FFD37C"/>
<path d="M86.6731 37.7173C87.111 39.5065 89.766 40.19 91.4107 39.3607C92.9763 38.5878 94.7538 38.2013 96.7434 38.2013C99.0591 38.2013 101.146 38.7424 103.006 39.8245C104.897 40.9065 106.381 42.4523 107.458 44.4619C108.566 46.4406 109.121 48.7438 109.121 51.3717C109.121 53.9996 108.566 56.3338 107.458 58.3743C106.381 60.3838 105.266 61.8447 103.006 63.0581C100.873 64.2031 99.3165 64.3101 96.8704 64.3101C94.8482 64.3101 93.2896 64.3102 91.4107 64.3102C89.5319 64.3102 89.5319 64.3102 87.7904 64.3102C84.0077 64.3102 80.9412 61.2437 80.9412 57.461V32.9048C80.9412 31.4332 82.3338 30.36 83.7568 30.735C84.5521 30.9446 85.169 31.5724 85.3645 32.3713L86.6731 37.7173ZM102.125 51.3717C102.125 49.8259 101.782 48.4965 101.098 47.3835C100.445 46.2396 99.5646 45.3739 98.4557 44.7865C97.3794 44.1991 96.2052 43.9054 94.9332 43.9054C93.6938 43.9054 92.5197 44.2146 91.4107 44.8329C90.3344 45.4203 89.4538 46.286 88.7689 47.4299C88.1166 48.5738 87.7904 49.9186 87.7904 51.4645C87.7904 53.0103 88.1166 54.3551 88.7689 55.4991C89.4538 56.643 90.3344 57.5241 91.4107 58.1424C92.5197 58.7298 93.6938 59.0235 94.9332 59.0235C96.2052 59.0235 97.3794 58.7144 98.4557 58.096C99.5646 57.4777 100.445 56.5966 101.098 55.4527C101.782 54.3088 102.125 52.9485 102.125 51.3717Z" fill="#FFD37C"/>
<path d="M112.337 51.3717C112.337 48.7747 112.875 46.4715 113.951 44.4619C115.06 42.4523 116.544 40.9065 118.403 39.8245C120.295 38.7424 122.399 38.2013 124.714 38.2013C126.737 38.2013 128.498 38.5878 129.998 39.3607C132.043 40.3915 134.953 40.1788 136.578 38.566C136.922 38.2245 137.28 37.9084 137.64 37.6448C138.903 36.7198 140.566 37.8475 140.566 39.413V57.2967C140.566 61.2312 137.491 64.4799 133.563 64.6966L131.932 64.7276C130.709 64.7276 131.524 64.7276 129.894 64.7276C127.855 64.7276 126.688 64.7276 124.666 64.7276C122.382 64.7276 120.295 64.1711 118.403 63.0581C116.544 61.9451 115.06 60.3838 113.951 58.3743C112.875 56.3338 112.337 53.9996 112.337 51.3717ZM133.667 51.4645C133.667 49.8877 133.341 48.5429 132.689 47.4299C132.037 46.286 131.156 45.4203 130.047 44.8329C128.938 44.2146 127.748 43.9054 126.476 43.9054C125.204 43.9054 124.03 44.1991 122.953 44.7865C121.877 45.3739 120.996 46.2396 120.311 47.3835C119.659 48.4965 119.333 49.8259 119.333 51.3717C119.333 52.9175 119.659 54.2779 120.311 55.4527C120.996 56.5966 121.877 57.4777 122.953 58.096C124.062 58.7144 125.236 59.0235 126.476 59.0235C127.748 59.0235 128.938 58.7298 130.047 58.1424C131.156 57.5241 132.037 56.6584 132.689 55.5454C133.341 54.4015 133.667 53.0412 133.667 51.4645Z" fill="#FFD37C"/>
<path d="M157.559 43.1141C156.161 43.6167 155.23 44.942 155.23 46.427V56.3802C155.23 57.2458 155.442 57.8796 155.866 58.2815C156.322 58.6525 157.072 58.838 158.116 58.838H158.56C160.071 58.838 161.296 60.063 161.296 61.5741C161.296 63.0852 160.071 64.3102 158.56 64.3102H156.991C151.218 64.3102 148.331 61.6514 148.331 56.3338V45.9411C148.331 44.7506 147.576 43.6911 146.451 43.3026L145.758 43.0632C145.047 42.8179 144.571 42.1491 144.571 41.3975C144.571 40.5014 145.243 39.7479 146.134 39.6467L146.845 39.5658C147.925 39.4429 148.81 38.6521 149.054 37.5925L149.923 33.81C150.131 32.906 150.936 32.2654 151.863 32.2654C152.832 32.2654 153.66 32.963 153.825 33.9177L154.363 37.04C154.6 38.4153 155.716 39.4691 157.103 39.6269C158.183 39.7497 159.362 40.4284 159.247 41.5093C159.165 42.2901 158.43 42.8006 157.692 43.0663L157.559 43.1141Z" fill="#FFD37C"/>
<path d="M19.0498 80.4407C19.0498 79.0705 20.1606 77.9597 21.5308 77.9597H56.2654C57.6356 77.9597 58.7464 79.0705 58.7464 80.4407C58.7464 81.811 57.6356 82.9218 56.2654 82.9218H21.5308C20.1606 82.9218 19.0498 81.811 19.0498 80.4407Z" fill="#FFD37C"/>
<path d="M66.7577 80.2466C66.7577 81.5096 65.7048 82.5334 64.4061 82.5334C63.1073 82.5334 62.0545 81.5096 62.0545 80.2466C62.0545 78.9836 63.1073 77.9597 64.4061 77.9597C65.7048 77.9597 66.7577 78.9836 66.7577 80.2466Z" fill="#FFD37C"/>
<path d="M74.7689 80.2466C74.7689 81.5096 73.7161 82.5334 72.4173 82.5334C71.1186 82.5334 70.0657 81.5096 70.0657 80.2466C70.0657 78.9836 71.1186 77.9597 72.4173 77.9597C73.7161 77.9597 74.7689 78.9836 74.7689 80.2466Z" fill="#FFD37C"/>
<path d="M78.077 80.4407C78.077 79.0705 79.1878 77.9597 80.558 77.9597H92.1362C93.5064 77.9597 94.6172 79.0705 94.6172 80.4407C94.6172 81.811 93.5064 82.9218 92.1362 82.9218H80.558C79.1878 82.9218 78.077 81.811 78.077 80.4407Z" fill="#FFD37C"/>
<path d="M108.098 87.7166C107.712 87.7166 107.345 87.5476 107.094 87.2541L104.047 83.6908C103.048 82.5231 101.136 83.2294 101.136 84.7659V86.3702C101.136 87.1138 100.533 87.7166 99.7894 87.7166C99.0459 87.7166 98.4431 87.1138 98.4431 86.3702V72.4598C98.4431 71.7162 99.0459 71.1134 99.7894 71.1134C100.533 71.1134 101.136 71.7162 101.136 72.4598V74.1545C101.136 75.6973 103.061 76.4 104.055 75.22L107.13 71.5685C107.373 71.28 107.731 71.1134 108.108 71.1134C109.201 71.1134 109.791 72.3957 109.079 73.2253L104.691 78.3394C104.155 78.9636 104.16 79.8865 104.701 80.5055L109.093 85.5256C109.84 86.3799 109.233 87.7166 108.098 87.7166Z" fill="white"/>
<path d="M114.713 71.1134C115.457 71.1134 116.059 71.7162 116.059 72.4598V81.6964C116.059 82.9546 116.382 83.9022 117.028 84.5393C117.689 85.1763 118.603 85.4948 119.768 85.4948C120.949 85.4948 121.862 85.1763 122.508 84.5393C123.169 83.9022 123.5 82.9546 123.5 81.6964V72.4598C123.5 71.7162 124.103 71.1134 124.846 71.1134C125.59 71.1134 126.193 71.7162 126.193 72.4598V81.6486C126.193 83.0024 125.901 84.1491 125.319 85.0887C124.736 86.0284 123.957 86.7291 122.98 87.191C122.004 87.6529 120.925 87.8838 119.744 87.8838C118.563 87.8838 117.485 87.6529 116.508 87.191C115.548 86.7291 114.784 86.0284 114.217 85.0887C113.65 84.1491 113.367 83.0024 113.367 81.6486V72.4598C113.367 71.7162 113.97 71.1134 114.713 71.1134Z" fill="white"/>
<path d="M139.354 87.7166C138.968 87.7166 138.601 87.5476 138.35 87.2541L135.302 83.6908C134.304 82.5231 132.391 83.2294 132.391 84.7659V86.3702C132.391 87.1138 131.789 87.7166 131.045 87.7166C130.301 87.7166 129.699 87.1138 129.699 86.3702V72.4598C129.699 71.7162 130.301 71.1134 131.045 71.1134C131.789 71.1134 132.391 71.7162 132.391 72.4598V74.1545C132.391 75.6973 134.317 76.4 135.311 75.22L138.386 71.5685C138.629 71.28 138.987 71.1134 139.364 71.1134C140.457 71.1134 141.046 72.3957 140.335 73.2253L135.946 78.3394C135.411 78.9636 135.415 79.8865 135.957 80.5055L140.348 85.5256C141.095 86.3799 140.489 87.7166 139.354 87.7166Z" fill="white"/>
<path d="M160.282 71.1134C161.196 71.1134 161.936 71.8539 161.936 72.7674V86.3702C161.936 87.1138 161.333 87.7166 160.59 87.7166C159.846 87.7166 159.243 87.1138 159.243 86.3702V84.2053C159.243 82.4158 156.797 81.9009 156.076 83.5388L154.612 86.8619C154.383 87.3813 153.87 87.7166 153.302 87.7166C152.735 87.7166 152.222 87.3824 151.993 86.8642L150.505 83.5024C149.782 81.8673 147.339 82.3836 147.339 84.1716V86.3702C147.339 87.1138 146.736 87.7166 145.992 87.7166C145.249 87.7166 144.646 87.1138 144.646 86.3702V72.7674C144.646 71.8539 145.386 71.1134 146.3 71.1134H146.475C147.129 71.1134 147.722 71.4994 147.987 72.0979L151.799 80.7094C152.381 82.0232 154.245 82.0218 154.825 80.7071L158.619 72.1002C158.884 71.5005 159.477 71.1134 160.133 71.1134H160.282Z" fill="white"/>
<path fill-rule="evenodd" clip-rule="evenodd" d="M17.1966 0.220459C15.3036 0.220459 13.6159 0.648431 12.9649 1.29202L1.40635 12.7443C1.0414 13.1065 0.855442 13.4853 0.855469 13.8665V18.4223C0.855469 20.9983 6.61971 23.0892 13.7311 23.0892C20.8425 23.0892 26.6117 20.9983 26.6117 18.4223C26.6117 21 32.376 23.0892 39.4874 23.0892C46.5988 23.0892 52.368 20.9983 52.368 18.4223C52.368 21 58.1322 23.0892 65.2436 23.0892C72.355 23.0892 78.1143 21.0016 78.1243 18.4256C78.1243 21.0016 83.8885 23.0892 90.9999 23.0892C98.1113 23.0892 103.876 20.9983 103.876 18.4223C103.876 21 109.645 23.0892 116.756 23.0892C123.868 23.0892 129.627 21.0016 129.632 18.4256C129.637 21.0016 135.401 23.0892 142.512 23.0892C149.624 23.0892 155.388 20.9983 155.388 18.4223C155.388 21 161.152 23.0892 168.269 23.0892C175.38 23.0892 181.144 20.9983 181.144 18.4223V13.8665C181.144 13.4853 180.958 13.1065 180.593 12.7443L169.035 1.29366C168.384 0.648431 166.696 0.220459 164.803 0.220459H17.1966Z" fill="#FFD37C"/>
<rect x="7.12646" y="20.8022" width="3.91932" height="67.0816" rx="1.95966" fill="#FFD37C"/>
<rect x="170.954" y="20.8022" width="3.91932" height="67.0816" rx="1.95966" fill="#FFD37C"/>
</svg>
