
<svg width="682" height="388" viewBox="0 0 682 388" fill="none" xmlns="http://www.w3.org/2000/svg">
<path fill-rule="evenodd" clip-rule="evenodd" d="M61.8157 0C54.6547 0 48.2704 1.441 45.8077 3.608L2.08389 42.1685C0.703325 43.3879 -0.000100913 44.6634 1.08586e-08 45.947V61.2865C1.08586e-08 69.96 21.805 77 48.7061 77C75.6072 77 97.4312 69.96 97.4312 61.2865C97.4312 69.9655 119.236 77 146.137 77C173.038 77 194.862 69.96 194.862 61.2865C194.862 69.9655 216.668 77 243.569 77C270.47 77 292.256 69.971 292.294 61.2975C292.294 69.971 314.099 77 341 77C367.901 77 389.706 69.96 389.706 61.2865C389.706 69.9655 411.53 77 438.431 77C465.332 77 487.118 69.971 487.137 61.2975C487.156 69.971 508.961 77 535.862 77C562.763 77 584.568 69.96 584.568 61.2865C584.568 69.9655 606.374 77 633.294 77C660.195 77 682 69.96 682 61.2865V45.947C682 44.6634 681.296 43.3879 679.916 42.1685L636.192 3.6135C633.729 1.441 627.345 0 620.184 0H61.8157Z" fill="#FFD37C"/>
<path d="M644 76.5C644 71.8056 647.806 68 652.5 68C657.194 68 661 71.8056 661 76.5V327.5C661 332.194 657.194 336 652.5 336C647.806 336 644 332.194 644 327.5V76.5Z" fill="#FFD37C"/>
<path d="M22 76.5C22 71.8056 25.8056 68 30.5 68C35.1944 68 39 71.8056 39 76.5V327.5C39 332.194 35.1944 336 30.5 336C25.8056 336 22 332.194 22 327.5V76.5Z" fill="#FFD37C"/>
<rect x="643" y="99.5" width="16.5" height="236.5" rx="8.25" fill="#FFD37C"/>
<path d="M232.576 237.286C222.708 237.286 213.827 235.256 205.933 231.198C198.038 227.023 191.809 221.167 187.245 213.629C182.805 206.091 180.584 197.394 180.584 187.537C180.584 177.68 182.866 168.983 187.43 161.445C192.118 153.907 198.47 148.109 206.488 144.051C214.506 139.876 223.449 137.788 233.317 137.788C243.185 137.788 252.127 139.876 260.145 144.051C268.163 148.109 274.454 153.907 279.018 161.445C283.705 168.983 286.049 177.68 286.049 187.537C286.049 197.394 283.643 206.091 278.833 213.629C274.145 221.167 267.731 227.023 259.59 231.198C251.572 235.256 242.568 237.286 232.576 237.286ZM232.576 216.064C237.264 216.064 241.643 215.021 245.713 212.933C249.907 210.73 253.238 207.483 255.705 203.192C258.172 198.902 259.405 193.683 259.405 187.537C259.405 178.376 256.815 171.36 251.634 166.49C246.577 161.503 240.348 159.01 232.947 159.01C225.546 159.01 219.316 161.503 214.259 166.49C209.325 171.36 206.858 178.376 206.858 187.537C206.858 196.698 209.263 203.772 214.074 208.759C219.008 213.629 225.175 216.064 232.576 216.064Z" fill="#FFD37C"/>
<path d="M326.799 136.264C328.435 142.89 338.221 145.399 344.306 142.308C344.419 142.251 344.532 142.194 344.645 142.137C350.566 139.238 357.289 137.788 364.813 137.788C373.571 137.788 381.465 139.818 388.496 143.877C395.651 147.935 399.579 153.734 403.649 161.271C407.843 168.693 409.571 177.332 409.571 187.189C409.571 197.046 407.35 207.918 403.156 215.571C399.085 223.109 397.391 226.472 388.844 231.024C380.779 235.318 377.862 235.72 368.61 235.72C360.963 235.72 351.751 235.72 344.645 235.72C337.54 235.72 337.54 235.72 330.954 235.72H313.05C308.632 235.72 305.05 232.138 305.05 227.72V117.359C305.05 112.12 310.003 108.295 315.073 109.619L315.975 109.855C318.812 110.597 321.016 112.831 321.719 115.678L326.799 136.264ZM385.166 187.189C385.166 181.391 383.871 176.405 381.28 172.23C378.813 167.939 375.483 164.692 371.289 162.489C367.218 160.286 362.778 159.184 357.967 159.184C353.28 159.184 348.839 160.344 344.645 162.663C340.575 164.866 337.244 168.113 334.654 172.404C332.187 176.694 330.954 181.739 330.954 187.537C330.954 193.335 332.187 198.38 334.654 202.67C337.244 206.961 340.575 210.266 344.645 212.585C348.839 214.789 353.28 215.89 357.967 215.89C362.778 215.89 367.218 214.731 371.289 212.411C375.483 210.092 378.813 206.787 381.28 202.496C383.871 198.206 385.166 193.103 385.166 187.189Z" fill="#FFD37C"/>
<path d="M423.787 187.189C423.787 177.448 425.822 168.809 429.893 161.271C434.087 153.734 439.699 147.935 446.73 143.877C453.884 139.818 461.841 137.788 470.598 137.788C478.246 137.788 484.907 139.238 490.581 142.137C492.556 143.125 494.395 144.2 496.097 145.362C500.686 148.494 507.639 148.136 511.184 143.86C513.637 140.901 516.535 137.841 519.481 135.701C519.576 135.632 519.674 135.562 519.775 135.492C524.496 132.213 530.547 136.304 530.547 142.052V228.146C530.547 232.394 527.226 235.902 522.984 236.134L504.062 237.169L497.895 237.286C493.269 237.286 496.353 237.286 490.185 237.286C482.476 237.286 478.061 237.286 470.413 237.286C461.779 237.286 453.884 235.198 446.73 231.024C439.699 226.849 434.087 220.993 429.893 213.455C425.822 205.801 423.787 197.046 423.787 187.189ZM504.458 187.537C504.458 181.623 503.224 176.578 500.757 172.404C498.29 168.113 494.96 164.866 490.766 162.663C486.572 160.344 482.07 159.184 477.259 159.184C472.449 159.184 468.008 160.286 463.938 162.489C459.867 164.692 456.536 167.939 453.946 172.23C451.479 176.405 450.246 181.391 450.246 187.189C450.246 192.987 451.479 198.09 453.946 202.496C456.536 206.787 459.867 210.092 463.938 212.411C468.131 214.731 472.572 215.89 477.259 215.89C482.07 215.89 486.572 214.789 490.766 212.585C494.96 210.266 498.29 207.019 500.757 202.844C503.224 198.554 504.458 193.451 504.458 187.537Z" fill="#FFD37C"/>
<path d="M591.317 157.463C588.132 158.599 586.005 161.616 586.005 164.998V205.975C586.005 209.222 586.807 211.6 588.41 213.107C590.137 214.499 592.974 215.195 596.921 215.195H600.948C605.366 215.195 608.948 218.776 608.948 223.195V227.72C608.948 232.138 605.366 235.72 600.948 235.72H592.666C570.833 235.72 559.916 225.747 559.916 205.801V165.075C559.916 161.655 557.743 158.614 554.508 157.506L550.154 156.015C547.485 155.101 545.693 152.593 545.693 149.772C545.693 146.414 548.215 143.592 551.552 143.216L555.492 142.771C558.86 142.391 561.623 139.93 562.388 136.628L565.926 121.361C566.718 117.943 569.763 115.523 573.272 115.523C576.938 115.523 580.072 118.16 580.7 121.772L583.213 136.23C583.822 139.731 586.667 142.411 590.198 142.809L595.245 143.379C597.99 143.688 600.541 145.367 601.061 148.081C601.201 148.813 601.27 149.547 601.2 150.196C601.152 150.648 601.027 151.151 600.868 151.648C600.262 153.542 598.621 154.858 596.748 155.526L591.317 157.463Z" fill="#FFD37C"/>
<path d="M278.358 133.375C278.358 133.375 260.992 118.182 235.33 118.339C202.265 118.541 188.526 131.457 188.526 131.457" stroke="white" stroke-width="8.5" stroke-linecap="round"/>
<path d="M415.587 144.072C415.587 144.072 404.236 120.602 371.171 118.903C361.263 118.394 344.522 121.37 344.522 121.37" stroke="white" stroke-width="8.5" stroke-linecap="round"/>
<path d="M415.587 144.072C415.587 144.072 426.938 120.602 460.003 118.903C469.911 118.394 486.652 121.37 486.652 121.37" stroke="white" stroke-width="8.5" stroke-linecap="round"/>
<path d="M601.358 256.779C589.021 260.234 560.397 258.26 547.073 240C543.618 245.264 537.5 257.5 508.579 256.286" stroke="white" stroke-width="8.5" stroke-linecap="round"/>
<circle cx="491.5" cy="255.5" r="4.5" fill="white"/>
<circle cx="473.5" cy="255.5" r="4.5" fill="white"/>
<circle cx="455.5" cy="255.5" r="4.5" fill="white"/>
<path d="M120.549 237.396C111.615 237.396 103.537 235.942 96.3156 233.032C89.2169 230.123 83.5869 225.933 79.4256 220.464C77.6702 218.157 76.2742 215.673 75.2375 213.014C72.8023 206.768 78.4943 201.088 85.1988 201.088H89.3863C95.673 201.088 100.367 206.543 104.442 211.33C104.932 211.905 105.466 212.448 106.046 212.958C109.473 215.867 114.124 217.322 119.998 217.322C125.996 217.322 130.708 215.984 134.135 213.307C137.562 210.514 139.275 206.906 139.275 202.484C139.275 198.877 138.112 195.909 135.787 193.582C133.461 191.254 130.524 189.45 126.975 188.17C123.548 186.774 118.774 185.261 112.655 183.632C104.332 181.304 97.5395 179.035 92.2767 176.824C87.1362 174.497 82.6689 171.063 78.8748 166.525C75.203 161.87 73.3672 155.702 73.3672 148.022C73.3672 140.806 75.2642 134.522 79.0584 129.169C82.8525 123.816 88.1765 119.743 95.0305 116.95C101.884 114.041 109.717 112.586 118.53 112.586C131.748 112.586 142.457 115.67 150.657 121.838C155.469 125.336 159.033 129.651 161.349 134.783C164.227 141.16 158.447 147.323 151.45 147.323H147.473C141.118 147.323 136.018 141.619 131.132 137.554C130.916 137.374 130.693 137.198 130.463 137.024C127.036 134.231 122.446 132.835 116.694 132.835C111.676 132.835 107.637 134.057 104.577 136.501C101.64 138.944 100.171 142.494 100.171 147.149C100.171 150.407 101.272 153.142 103.475 155.353C105.801 157.448 108.616 159.193 111.92 160.59C115.347 161.87 120.121 163.383 126.24 165.128C134.563 167.456 141.356 169.783 146.618 172.111C151.881 174.438 156.41 177.93 160.204 182.584C163.998 187.239 165.895 193.349 165.895 200.913C165.895 207.43 164.12 213.482 160.571 219.067C157.022 224.653 151.82 229.134 144.966 232.509C138.112 235.767 129.973 237.396 120.549 237.396Z" fill="#FFD37C"/>
<path d="M233.34 237.745C223.549 237.745 214.737 235.709 206.904 231.636C199.071 227.446 192.89 221.569 188.362 214.005C183.956 206.441 181.752 197.713 181.752 187.821C181.752 177.93 184.017 169.202 188.545 161.637C193.196 154.073 199.499 148.254 207.455 144.181C215.41 139.992 224.284 137.897 234.075 137.897C243.866 137.897 252.74 139.992 260.695 144.181C268.65 148.254 274.892 154.073 279.421 161.637C284.072 169.202 286.397 177.93 286.397 187.821C286.397 197.713 284.011 206.441 279.237 214.005C274.586 221.569 268.222 227.446 260.144 231.636C252.189 235.709 243.254 237.745 233.34 237.745ZM233.34 216.449C237.991 216.449 242.336 215.402 246.375 213.307C250.536 211.096 253.841 207.837 256.289 203.532C258.737 199.226 259.961 193.989 259.961 187.821C259.961 178.628 257.39 171.587 252.25 166.699C247.232 161.695 241.051 159.193 233.708 159.193C226.364 159.193 220.183 161.695 215.165 166.699C210.27 171.587 207.822 178.628 207.822 187.821C207.822 197.015 210.208 204.114 214.982 209.118C219.877 214.005 225.997 216.449 233.34 216.449Z" fill="#FFD37C"/>
<path d="M326.767 136.104C328.405 142.816 338.373 145.379 344.538 142.261C350.413 139.352 357.084 137.897 364.549 137.897C373.239 137.897 381.072 139.934 388.049 144.007C395.147 148.08 400.716 153.898 404.755 161.463C408.916 168.911 410.997 177.58 410.997 187.472C410.997 197.364 408.916 206.15 404.755 213.831C400.716 221.395 396.529 226.894 388.049 231.461C380.046 235.771 374.205 236.174 365.026 236.174C357.438 236.174 351.589 236.174 344.538 236.174C337.488 236.174 337.488 236.174 330.953 236.174H317.251C310.623 236.174 305.251 230.802 305.251 224.174V117.931C305.251 112.409 310.48 108.382 315.819 109.794C318.802 110.582 321.114 112.939 321.846 115.936L326.767 136.104ZM384.744 187.472C384.744 181.653 383.459 176.649 380.889 172.46C378.441 168.154 375.136 164.896 370.975 162.685C366.936 160.474 362.53 159.368 357.757 159.368C353.106 159.368 348.7 160.532 344.538 162.859C340.499 165.07 337.195 168.329 334.625 172.635C332.177 176.94 330.953 182.003 330.953 187.821C330.953 193.64 332.177 198.702 334.625 203.008C337.195 207.314 340.499 210.63 344.538 212.958C348.7 215.169 353.106 216.275 357.757 216.275C362.53 216.275 366.936 215.111 370.975 212.783C375.136 210.456 378.441 207.139 380.889 202.833C383.459 198.528 384.744 193.407 384.744 187.472Z" fill="#FFD37C"/>
<path d="M423.065 187.472C423.065 177.697 425.084 169.027 429.123 161.463C433.285 153.898 438.853 148.08 445.83 144.007C452.928 139.934 460.823 137.897 469.513 137.897C477.101 137.897 483.71 139.352 489.34 142.261C489.466 142.325 489.592 142.389 489.717 142.454C497.169 146.3 507.833 145.547 513.725 139.579C515.11 138.175 516.557 136.873 518.015 135.802C522.75 132.324 528.995 136.553 528.995 142.428V224.82C528.995 231.19 524.018 236.45 517.658 236.802L502.716 237.629L496.597 237.745C492.007 237.745 495.067 237.745 488.947 237.745C481.298 237.745 476.917 237.745 469.329 237.745C460.762 237.745 452.928 235.651 445.83 231.461C438.853 227.272 433.285 221.395 429.123 213.831C425.084 206.15 423.065 197.364 423.065 187.472ZM503.109 187.821C503.109 181.886 501.885 176.824 499.437 172.635C496.989 168.329 493.685 165.07 489.524 162.859C485.362 160.532 480.895 159.368 476.122 159.368C471.348 159.368 466.942 160.474 462.903 162.685C458.864 164.896 455.56 168.154 452.99 172.46C450.542 176.649 449.318 181.653 449.318 187.472C449.318 193.291 450.542 198.411 452.99 202.833C455.56 207.139 458.864 210.456 462.903 212.783C467.065 215.111 471.471 216.275 476.122 216.275C480.895 216.275 485.362 215.169 489.524 212.958C493.685 210.63 496.989 207.372 499.437 203.183C501.885 198.877 503.109 193.756 503.109 187.821Z" fill="#FFD37C"/>
<path d="M591.95 156.683C587.193 158.399 584.022 162.913 584.022 167.97V206.325C584.022 209.583 584.818 211.969 586.409 213.482C588.122 214.878 590.937 215.576 594.854 215.576H596.488C602.176 215.576 606.787 220.187 606.787 225.875C606.787 231.563 602.176 236.174 596.488 236.174H590.631C568.968 236.174 558.136 226.166 558.136 206.15V167.01C558.136 162.54 555.304 158.562 551.08 157.099L548.489 156.201C545.816 155.276 544.023 152.758 544.023 149.93C544.023 146.555 546.555 143.718 549.908 143.335L552.555 143.033C556.61 142.571 559.932 139.6 560.844 135.622L564.113 121.351C564.891 117.959 567.909 115.553 571.39 115.553C575.025 115.553 578.131 118.172 578.747 121.754L580.774 133.554C581.661 138.714 585.847 142.669 591.048 143.263C595.102 143.725 599.529 146.291 599.1 150.349C598.789 153.287 596.03 155.211 593.251 156.213L591.95 156.683Z" fill="#FFD37C"/>
<path d="M71 314C71 309.582 74.6698 306 79.1967 306H359.803C364.33 306 368 309.582 368 314C368 318.418 364.33 322 359.803 322H79.1967C74.6698 322 71 318.418 71 314Z" fill="#FFD37C"/>
<path d="M395.818 314C395.818 318.418 392.277 322 387.909 322C383.541 322 380 318.418 380 314C380 309.582 383.541 306 387.909 306C392.277 306 395.818 309.582 395.818 314Z" fill="#FFD37C"/>
<path d="M421.523 314C421.523 318.418 417.982 322 413.614 322C409.246 322 405.705 318.418 405.705 314C405.705 309.582 409.246 306 413.614 306C417.982 306 421.523 309.582 421.523 314Z" fill="#FFD37C"/>
<path d="M433.386 314C433.386 309.582 436.927 306 441.295 306H459.091C463.459 306 467 309.582 467 314C467 318.418 463.459 322 459.091 322H441.295C436.927 322 433.386 318.418 433.386 314Z" fill="#FFD37C"/>
<path d="M493.548 291.328V318.976C493.548 322.005 494.337 324.331 495.916 325.952C497.495 327.531 499.713 328.32 502.572 328.32C505.473 328.32 507.713 327.531 509.292 325.952C510.871 324.331 511.66 322.005 511.66 318.976V291.328H520.684V318.912C520.684 322.709 519.852 325.931 518.188 328.576C516.567 331.179 514.369 333.141 511.596 334.464C508.865 335.787 505.815 336.448 502.444 336.448C499.116 336.448 496.087 335.787 493.356 334.464C490.668 333.141 488.535 331.179 486.956 328.576C485.377 325.931 484.588 322.709 484.588 318.912V291.328H493.548ZM581.245 291.328V336H572.285V306.944L560.317 336H553.533L541.501 306.944V336H532.541V291.328H542.717L556.925 324.544L571.133 291.328H581.245ZM597.847 296.32C596.269 296.32 594.946 295.829 593.879 294.848C592.855 293.824 592.343 292.565 592.343 291.072C592.343 289.579 592.855 288.341 593.879 287.36C594.946 286.336 596.269 285.824 597.847 285.824C599.426 285.824 600.727 286.336 601.751 287.36C602.818 288.341 603.351 289.579 603.351 291.072C603.351 292.565 602.818 293.824 601.751 294.848C600.727 295.829 599.426 296.32 597.847 296.32ZM602.263 300.544V336H593.303V300.544H602.263Z" fill="white"/>
<path d="M26.8989 387.415C25.5902 387.415 24.4123 387.194 23.3653 386.753C22.3183 386.294 21.4957 385.651 20.8974 384.824C20.2991 383.997 20 383.032 20 381.93H23.4214C23.4962 382.757 23.8234 383.437 24.403 383.969C25.0013 384.502 25.8332 384.769 26.8989 384.769C28.002 384.769 28.8621 384.511 29.479 383.997C30.096 383.464 30.4045 382.784 30.4045 381.958C30.4045 381.314 30.2082 380.791 29.8156 380.387C29.4416 379.982 28.9649 379.67 28.3853 379.45C27.8244 379.229 27.0392 378.99 26.0296 378.733C24.7582 378.402 23.7206 378.072 22.9166 377.741C22.1314 377.392 21.4583 376.859 20.8974 376.142C20.3365 375.426 20.0561 374.47 20.0561 373.276C20.0561 372.174 20.3365 371.209 20.8974 370.382C21.4583 369.555 22.2436 368.921 23.2532 368.48C24.2628 368.039 25.4313 367.819 26.7587 367.819C28.647 367.819 30.1895 368.288 31.3861 369.225C32.6013 370.143 33.2744 371.411 33.4053 373.028H29.8717C29.8156 372.33 29.479 371.733 28.8621 371.236C28.2451 370.74 27.4318 370.492 26.4222 370.492C25.5061 370.492 24.7582 370.722 24.1786 371.181C23.599 371.641 23.3092 372.302 23.3092 373.166C23.3092 373.754 23.4869 374.241 23.8421 374.626C24.216 374.994 24.6834 375.288 25.2443 375.508C25.8052 375.729 26.5718 375.968 27.544 376.225C28.834 376.574 29.881 376.923 30.6849 377.272C31.5076 377.621 32.1993 378.163 32.7602 378.898C33.3398 379.615 33.6296 380.58 33.6296 381.792C33.6296 382.766 33.3585 383.685 32.8163 384.548C32.2928 385.412 31.5169 386.11 30.4886 386.643C29.479 387.157 28.2825 387.415 26.8989 387.415Z" fill="white"/>
<path d="M40.4308 370.024C39.8512 370.024 39.3651 369.831 38.9725 369.445C38.5799 369.059 38.3836 368.582 38.3836 368.012C38.3836 367.442 38.5799 366.965 38.9725 366.579C39.3651 366.193 39.8512 366 40.4308 366C40.9917 366 41.4685 366.193 41.8611 366.579C42.2537 366.965 42.45 367.442 42.45 368.012C42.45 368.582 42.2537 369.059 41.8611 369.445C41.4685 369.831 40.9917 370.024 40.4308 370.024ZM42.0013 372.036V387.222H38.8043V372.036H42.0013Z" fill="white"/>
<path d="M53.2099 387.47C51.9946 387.47 50.9009 387.258 49.9287 386.836C48.9752 386.395 48.218 385.807 47.6571 385.072C47.0962 384.319 46.7971 383.483 46.7597 382.564H50.0689C50.125 383.207 50.4335 383.749 50.9944 384.19C51.574 384.613 52.2938 384.824 53.1538 384.824C54.0512 384.824 54.743 384.658 55.2291 384.328C55.7339 383.979 55.9863 383.538 55.9863 383.005C55.9863 382.435 55.7059 382.013 55.145 381.737C54.6028 381.461 53.7334 381.158 52.5368 380.828C51.3777 380.515 50.4335 380.212 49.7043 379.918C48.9752 379.624 48.3395 379.174 47.7973 378.568C47.2738 377.961 47.0121 377.162 47.0121 376.17C47.0121 375.361 47.2551 374.626 47.7412 373.965C48.2273 373.285 48.9191 372.752 49.8165 372.366C50.7326 371.981 51.7796 371.788 52.9575 371.788C54.715 371.788 56.1265 372.229 57.1922 373.111C58.2766 373.974 58.8562 375.159 58.931 376.666H55.7339C55.6778 375.986 55.3974 375.444 54.8926 375.04C54.3878 374.636 53.7054 374.434 52.8453 374.434C52.004 374.434 51.359 374.59 50.9103 374.902C50.4615 375.214 50.2372 375.628 50.2372 376.142C50.2372 376.546 50.3868 376.886 50.6859 377.162C50.985 377.438 51.3496 377.658 51.7796 377.823C52.2096 377.97 52.8453 378.163 53.6867 378.402C54.8084 378.696 55.7246 378.999 56.435 379.312C57.1642 379.606 57.7905 380.047 58.314 380.635C58.8375 381.223 59.1086 382.003 59.1273 382.977C59.1273 383.841 58.8842 384.613 58.3981 385.292C57.912 385.972 57.2203 386.505 56.3228 386.891C55.4441 387.277 54.4065 387.47 53.2099 387.47Z" fill="white"/>
<path d="M67.7139 374.599V383.005C67.7139 383.574 67.8448 383.988 68.1065 384.245C68.387 384.484 68.8544 384.603 69.5088 384.603H71.4719V387.222H68.9479C67.5083 387.222 66.4052 386.891 65.6386 386.229C64.8721 385.568 64.4888 384.493 64.4888 383.005V374.599H62.6659V372.036H64.4888V368.26H67.7139V372.036H71.4719V374.599H67.7139Z" fill="white"/>
<path d="M89.9832 379.257C89.9832 379.826 89.9458 380.341 89.871 380.8H78.0643C78.1578 382.013 78.6158 382.986 79.4385 383.721C80.2611 384.456 81.2707 384.824 82.4673 384.824C84.1873 384.824 85.4026 384.116 86.1131 382.702H89.5625C89.0951 384.098 88.2444 385.246 87.0105 386.147C85.7952 387.029 84.2808 387.47 82.4673 387.47C80.9903 387.47 79.6628 387.148 78.485 386.505C77.3258 385.844 76.4097 384.925 75.7366 383.749C75.0822 382.555 74.7551 381.177 74.7551 379.615C74.7551 378.053 75.0729 376.684 75.7086 375.508C76.3629 374.314 77.2697 373.395 78.4289 372.752C79.6068 372.109 80.9529 371.788 82.4673 371.788C83.9256 371.788 85.225 372.1 86.3655 372.725C87.5059 373.349 88.394 374.231 89.0297 375.371C89.6654 376.491 89.9832 377.787 89.9832 379.257ZM86.6459 378.264C86.6272 377.107 86.2065 376.179 85.3839 375.481C84.5613 374.783 83.5423 374.434 82.3271 374.434C81.224 374.434 80.2798 374.783 79.4946 375.481C78.7093 376.161 78.2419 377.089 78.0924 378.264H86.6459Z" fill="white"/>
<path d="M113.237 371.788C114.453 371.788 115.537 372.036 116.49 372.532C117.463 373.028 118.22 373.763 118.762 374.737C119.323 375.71 119.603 376.886 119.603 378.264V387.222H116.434V378.733C116.434 377.373 116.089 376.335 115.397 375.619C114.705 374.884 113.761 374.516 112.564 374.516C111.368 374.516 110.414 374.884 109.704 375.619C109.012 376.335 108.666 377.373 108.666 378.733V387.222H105.497V378.733C105.497 377.373 105.151 376.335 104.459 375.619C103.768 374.884 102.823 374.516 101.627 374.516C100.43 374.516 99.4768 374.884 98.7664 375.619C98.0746 376.335 97.7287 377.373 97.7287 378.733V387.222H94.5317V372.036H97.7287V373.772C98.2522 373.147 98.9159 372.66 99.7199 372.311C100.524 371.962 101.384 371.788 102.3 371.788C103.534 371.788 104.637 372.045 105.609 372.559C106.581 373.074 107.329 373.818 107.853 374.792C108.32 373.873 109.049 373.147 110.04 372.615C111.031 372.063 112.097 371.788 113.237 371.788Z" fill="white"/>
<path d="M142.651 387.415C140.838 387.415 139.164 387.001 137.631 386.174C136.117 385.329 134.911 384.162 134.013 382.674C133.135 381.167 132.695 379.477 132.695 377.603C132.695 375.729 133.135 374.048 134.013 372.559C134.911 371.071 136.117 369.914 137.631 369.087C139.164 368.242 140.838 367.819 142.651 367.819C144.483 367.819 146.157 368.242 147.671 369.087C149.204 369.914 150.41 371.071 151.289 372.559C152.168 374.048 152.607 375.729 152.607 377.603C152.607 379.477 152.168 381.167 151.289 382.674C150.41 384.162 149.204 385.329 147.671 386.174C146.157 387.001 144.483 387.415 142.651 387.415ZM142.651 384.686C143.941 384.686 145.091 384.401 146.101 383.832C147.11 383.244 147.895 382.417 148.456 381.351C149.036 380.267 149.326 379.018 149.326 377.603C149.326 376.188 149.036 374.948 148.456 373.882C147.895 372.817 147.11 371.999 146.101 371.429C145.091 370.86 143.941 370.575 142.651 370.575C141.361 370.575 140.211 370.86 139.202 371.429C138.192 371.999 137.397 372.817 136.818 373.882C136.257 374.948 135.977 376.188 135.977 377.603C135.977 379.018 136.257 380.267 136.818 381.351C137.397 382.417 138.192 383.244 139.202 383.832C140.211 384.401 141.361 384.686 142.651 384.686Z" fill="white"/>
<path d="M164.952 371.788C166.167 371.788 167.251 372.036 168.205 372.532C169.177 373.028 169.934 373.763 170.476 374.737C171.018 375.71 171.29 376.886 171.29 378.264V387.222H168.121V378.733C168.121 377.373 167.775 376.335 167.083 375.619C166.391 374.884 165.447 374.516 164.25 374.516C163.054 374.516 162.1 374.884 161.39 375.619C160.698 376.335 160.352 377.373 160.352 378.733V387.222H157.155V372.036H160.352V373.772C160.876 373.147 161.539 372.66 162.343 372.311C163.166 371.962 164.035 371.788 164.952 371.788Z" fill="white"/>
<path d="M179.967 366.827V387.222H176.77V366.827H179.967Z" fill="white"/>
<path d="M187.193 370.024C186.614 370.024 186.128 369.831 185.735 369.445C185.342 369.059 185.146 368.582 185.146 368.012C185.146 367.442 185.342 366.965 185.735 366.579C186.128 366.193 186.614 366 187.193 366C187.754 366 188.231 366.193 188.623 366.579C189.016 366.965 189.212 367.442 189.212 368.012C189.212 368.582 189.016 369.059 188.623 369.445C188.231 369.831 187.754 370.024 187.193 370.024ZM188.764 372.036V387.222H185.567V372.036H188.764Z" fill="white"/>
<path d="M202.16 371.788C203.375 371.788 204.459 372.036 205.413 372.532C206.385 373.028 207.142 373.763 207.684 374.737C208.227 375.71 208.498 376.886 208.498 378.264V387.222H205.329V378.733C205.329 377.373 204.983 376.335 204.291 375.619C203.599 374.884 202.655 374.516 201.459 374.516C200.262 374.516 199.309 374.884 198.598 375.619C197.906 376.335 197.56 377.373 197.56 378.733V387.222H194.363V372.036H197.56V373.772C198.084 373.147 198.748 372.66 199.552 372.311C200.374 371.962 201.244 371.788 202.16 371.788Z" fill="white"/>
<path d="M228.141 379.257C228.141 379.826 228.103 380.341 228.028 380.8H216.222C216.315 382.013 216.773 382.986 217.596 383.721C218.418 384.456 219.428 384.824 220.625 384.824C222.345 384.824 223.56 384.116 224.27 382.702H227.72C227.252 384.098 226.402 385.246 225.168 386.147C223.953 387.029 222.438 387.47 220.625 387.47C219.148 387.47 217.82 387.148 216.642 386.505C215.483 385.844 214.567 384.925 213.894 383.749C213.24 382.555 212.912 381.177 212.912 379.615C212.912 378.053 213.23 376.684 213.866 375.508C214.52 374.314 215.427 373.395 216.586 372.752C217.764 372.109 219.11 371.788 220.625 371.788C222.083 371.788 223.382 372.1 224.523 372.725C225.663 373.349 226.551 374.231 227.187 375.371C227.823 376.491 228.141 377.787 228.141 379.257ZM224.803 378.264C224.785 377.107 224.364 376.179 223.541 375.481C222.719 374.783 221.7 374.434 220.484 374.434C219.381 374.434 218.437 374.783 217.652 375.481C216.867 376.161 216.399 377.089 216.25 378.264H224.803Z" fill="white"/>
<path d="M251.809 377.382C252.856 377.566 253.744 378.108 254.473 379.009C255.202 379.909 255.567 380.929 255.567 382.068C255.567 383.042 255.305 383.924 254.781 384.714C254.277 385.485 253.538 386.101 252.566 386.56C251.594 387.001 250.463 387.222 249.173 387.222H241.376V368.067H248.808C250.135 368.067 251.276 368.288 252.229 368.728C253.183 369.169 253.903 369.767 254.389 370.52C254.875 371.255 255.118 372.082 255.118 373C255.118 374.103 254.819 375.021 254.221 375.756C253.622 376.491 252.818 377.033 251.809 377.382ZM244.573 376.115H248.528C249.575 376.115 250.388 375.885 250.967 375.426C251.566 374.948 251.865 374.268 251.865 373.386C251.865 372.523 251.566 371.852 250.967 371.374C250.388 370.878 249.575 370.63 248.528 370.63H244.573V376.115ZM248.892 384.658C249.976 384.658 250.827 384.401 251.444 383.887C252.061 383.372 252.37 382.656 252.37 381.737C252.37 380.8 252.042 380.056 251.388 379.505C250.734 378.953 249.864 378.678 248.78 378.678H244.573V384.658H248.892Z" fill="white"/>
<path d="M259.377 379.56C259.377 378.035 259.695 376.684 260.331 375.508C260.985 374.332 261.864 373.423 262.967 372.78C264.089 372.118 265.323 371.788 266.669 371.788C267.884 371.788 268.941 372.027 269.838 372.504C270.754 372.964 271.483 373.542 272.026 374.241V372.036H275.251V387.222H272.026V384.962C271.483 385.678 270.745 386.275 269.81 386.753C268.875 387.231 267.809 387.47 266.613 387.47C265.285 387.47 264.07 387.139 262.967 386.477C261.864 385.798 260.985 384.861 260.331 383.666C259.695 382.454 259.377 381.085 259.377 379.56ZM272.026 379.615C272.026 378.568 271.801 377.658 271.352 376.886C270.922 376.115 270.352 375.527 269.642 375.123C268.931 374.718 268.165 374.516 267.342 374.516C266.519 374.516 265.753 374.718 265.042 375.123C264.332 375.508 263.752 376.087 263.304 376.859C262.874 377.612 262.659 378.512 262.659 379.56C262.659 380.607 262.874 381.526 263.304 382.316C263.752 383.106 264.332 383.712 265.042 384.135C265.772 384.539 266.538 384.741 267.342 384.741C268.165 384.741 268.931 384.539 269.642 384.135C270.352 383.731 270.922 383.143 271.352 382.371C271.801 381.581 272.026 380.662 272.026 379.615Z" fill="white"/>
<path d="M288.648 371.788C289.864 371.788 290.948 372.036 291.902 372.532C292.874 373.028 293.631 373.763 294.173 374.737C294.715 375.71 294.986 376.886 294.986 378.264V387.222H291.817V378.733C291.817 377.373 291.472 376.335 290.78 375.619C290.088 374.884 289.144 374.516 287.947 374.516C286.751 374.516 285.797 374.884 285.087 375.619C284.395 376.335 284.049 377.373 284.049 378.733V387.222H280.852V372.036H284.049V373.772C284.573 373.147 285.236 372.66 286.04 372.311C286.863 371.962 287.732 371.788 288.648 371.788Z" fill="white"/>
<path d="M304.197 374.599V383.005C304.197 383.574 304.328 383.988 304.589 384.245C304.87 384.484 305.337 384.603 305.992 384.603H307.955V387.222H305.431C303.991 387.222 302.888 386.891 302.121 386.229C301.355 385.568 300.972 384.493 300.972 383.005V374.599H299.149V372.036H300.972V368.26H304.197V372.036H307.955V374.599H304.197Z" fill="white"/>
<path d="M326.298 372.036V387.222H323.101V385.43C322.596 386.055 321.932 386.551 321.109 386.918C320.306 387.268 319.445 387.442 318.529 387.442C317.314 387.442 316.22 387.194 315.248 386.698C314.295 386.202 313.537 385.467 312.977 384.493C312.434 383.519 312.163 382.343 312.163 380.965V372.036H315.332V380.497C315.332 381.856 315.678 382.904 316.37 383.639C317.062 384.355 318.006 384.714 319.202 384.714C320.399 384.714 321.343 384.355 322.035 383.639C322.745 382.904 323.101 381.856 323.101 380.497V372.036H326.298Z" fill="white"/>
<path d="M330.852 379.56C330.852 378.035 331.17 376.684 331.806 375.508C332.46 374.332 333.339 373.423 334.442 372.78C335.564 372.118 336.798 371.788 338.144 371.788C339.359 371.788 340.416 372.027 341.313 372.504C342.229 372.964 342.958 373.542 343.501 374.241V372.036H346.726V387.222H343.501V384.962C342.958 385.678 342.22 386.275 341.285 386.753C340.35 387.231 339.284 387.47 338.088 387.47C336.76 387.47 335.545 387.139 334.442 386.477C333.339 385.798 332.46 384.861 331.806 383.666C331.17 382.454 330.852 381.085 330.852 379.56ZM343.501 379.615C343.501 378.568 343.276 377.658 342.827 376.886C342.397 376.115 341.827 375.527 341.117 375.123C340.406 374.718 339.64 374.516 338.817 374.516C337.994 374.516 337.228 374.718 336.517 375.123C335.807 375.508 335.227 376.087 334.779 376.859C334.349 377.612 334.134 378.512 334.134 379.56C334.134 380.607 334.349 381.526 334.779 382.316C335.227 383.106 335.807 383.712 336.517 384.135C337.247 384.539 338.013 384.741 338.817 384.741C339.64 384.741 340.406 384.539 341.117 384.135C341.827 383.731 342.397 383.143 342.827 382.371C343.276 381.581 343.501 380.662 343.501 379.615Z" fill="white"/>
<path d="M360.123 371.788C361.339 371.788 362.423 372.036 363.377 372.532C364.349 373.028 365.106 373.763 365.648 374.737C366.19 375.71 366.462 376.886 366.462 378.264V387.222H363.292V378.733C363.292 377.373 362.947 376.335 362.255 375.619C361.563 374.884 360.619 374.516 359.422 374.516C358.226 374.516 357.272 374.884 356.562 375.619C355.87 376.335 355.524 377.373 355.524 378.733V387.222H352.327V372.036H355.524V373.772C356.048 373.147 356.711 372.66 357.515 372.311C358.338 371.962 359.207 371.788 360.123 371.788Z" fill="white"/>
<path d="M393.221 368.067V370.63H388.033V387.222H384.836V370.63H379.619V368.067H393.221Z" fill="white"/>
<path d="M411.855 372.036V387.222H408.658V385.43C408.153 386.055 407.49 386.551 406.667 386.918C405.863 387.268 405.003 387.442 404.087 387.442C402.872 387.442 401.778 387.194 400.806 386.698C399.852 386.202 399.095 385.467 398.534 384.493C397.992 383.519 397.721 382.343 397.721 380.965V372.036H400.89V380.497C400.89 381.856 401.236 382.904 401.927 383.639C402.619 384.355 403.563 384.714 404.76 384.714C405.957 384.714 406.901 384.355 407.592 383.639C408.303 382.904 408.658 381.856 408.658 380.497V372.036H411.855Z" fill="white"/>
<path d="M425.272 371.788C426.487 371.788 427.572 372.036 428.525 372.532C429.497 373.028 430.255 373.763 430.797 374.737C431.339 375.71 431.61 376.886 431.61 378.264V387.222H428.441V378.733C428.441 377.373 428.095 376.335 427.403 375.619C426.712 374.884 425.768 374.516 424.571 374.516C423.374 374.516 422.421 374.884 421.71 375.619C421.019 376.335 420.673 377.373 420.673 378.733V387.222H417.476V372.036H420.673V373.772C421.196 373.147 421.86 372.66 422.664 372.311C423.487 371.962 424.356 371.788 425.272 371.788Z" fill="white"/>
<path d="M436.025 379.56C436.025 378.035 436.343 376.684 436.978 375.508C437.633 374.332 438.511 373.423 439.614 372.78C440.736 372.118 441.97 371.788 443.316 371.788C444.532 371.788 445.588 372.027 446.485 372.504C447.401 372.964 448.131 373.542 448.673 374.241V372.036H451.898V387.222H448.673V384.962C448.131 385.678 447.392 386.275 446.457 386.753C445.522 387.231 444.457 387.47 443.26 387.47C441.933 387.47 440.717 387.139 439.614 386.477C438.511 385.798 437.633 384.861 436.978 383.666C436.343 382.454 436.025 381.085 436.025 379.56ZM448.673 379.615C448.673 378.568 448.448 377.658 448 376.886C447.57 376.115 446.999 375.527 446.289 375.123C445.579 374.718 444.812 374.516 443.989 374.516C443.167 374.516 442.4 374.718 441.69 375.123C440.979 375.508 440.4 376.087 439.951 376.859C439.521 377.612 439.306 378.512 439.306 379.56C439.306 380.607 439.521 381.526 439.951 382.316C440.4 383.106 440.979 383.712 441.69 384.135C442.419 384.539 443.185 384.741 443.989 384.741C444.812 384.741 445.579 384.539 446.289 384.135C446.999 383.731 447.57 383.143 448 382.371C448.448 381.581 448.673 380.662 448.673 379.615Z" fill="white"/>
<path d="M459.126 370.024C458.546 370.024 458.06 369.831 457.668 369.445C457.275 369.059 457.079 368.582 457.079 368.012C457.079 367.442 457.275 366.965 457.668 366.579C458.06 366.193 458.546 366 459.126 366C459.687 366 460.164 366.193 460.556 366.579C460.949 366.965 461.145 367.442 461.145 368.012C461.145 368.582 460.949 369.059 460.556 369.445C460.164 369.831 459.687 370.024 459.126 370.024ZM460.696 372.036V387.222H457.499V372.036H460.696Z" fill="white"/>
<path d="M478.152 368.067V380.276C478.152 381.728 478.536 382.821 479.302 383.556C480.087 384.291 481.172 384.658 482.555 384.658C483.958 384.658 485.042 384.291 485.808 383.556C486.594 382.821 486.986 381.728 486.986 380.276V368.067H490.183V380.221C490.183 381.783 489.838 383.106 489.146 384.19C488.454 385.274 487.529 386.082 486.369 386.615C485.21 387.148 483.929 387.415 482.527 387.415C481.125 387.415 479.844 387.148 478.685 386.615C477.545 386.082 476.638 385.274 475.965 384.19C475.292 383.106 474.955 381.783 474.955 380.221V368.067H478.152Z" fill="white"/>
<path d="M501.357 387.47C500.142 387.47 499.048 387.258 498.076 386.836C497.122 386.395 496.365 385.807 495.804 385.072C495.243 384.319 494.944 383.483 494.907 382.564H498.216C498.272 383.207 498.581 383.749 499.142 384.19C499.721 384.613 500.441 384.824 501.301 384.824C502.198 384.824 502.89 384.658 503.376 384.328C503.881 383.979 504.134 383.538 504.134 383.005C504.134 382.435 503.853 382.013 503.292 381.737C502.75 381.461 501.881 381.158 500.684 380.828C499.525 380.515 498.581 380.212 497.852 379.918C497.122 379.624 496.487 379.174 495.945 378.568C495.421 377.961 495.159 377.162 495.159 376.17C495.159 375.361 495.402 374.626 495.888 373.965C496.375 373.285 497.066 372.752 497.964 372.366C498.88 371.981 499.927 371.788 501.105 371.788C502.862 371.788 504.274 372.229 505.339 373.111C506.424 373.974 507.003 375.159 507.078 376.666H503.881C503.825 375.986 503.545 375.444 503.04 375.04C502.535 374.636 501.853 374.434 500.993 374.434C500.151 374.434 499.506 374.59 499.057 374.902C498.609 375.214 498.384 375.628 498.384 376.142C498.384 376.546 498.534 376.886 498.833 377.162C499.132 377.438 499.497 377.658 499.927 377.823C500.357 377.97 500.993 378.163 501.834 378.402C502.956 378.696 503.872 378.999 504.582 379.312C505.311 379.606 505.938 380.047 506.461 380.635C506.985 381.223 507.256 382.003 507.275 382.977C507.275 383.841 507.031 384.613 506.545 385.292C506.059 385.972 505.367 386.505 504.47 386.891C503.591 387.277 502.554 387.47 501.357 387.47Z" fill="white"/>
<path d="M511.066 379.56C511.066 378.035 511.383 376.684 512.019 375.508C512.673 374.332 513.552 373.423 514.655 372.78C515.777 372.118 517.011 371.788 518.357 371.788C519.572 371.788 520.629 372.027 521.526 372.504C522.442 372.964 523.171 373.542 523.714 374.241V372.036H526.939V387.222H523.714V384.962C523.171 385.678 522.433 386.275 521.498 386.753C520.563 387.231 519.498 387.47 518.301 387.47C516.974 387.47 515.758 387.139 514.655 386.477C513.552 385.798 512.673 384.861 512.019 383.666C511.383 382.454 511.066 381.085 511.066 379.56ZM523.714 379.615C523.714 378.568 523.489 377.658 523.041 376.886C522.611 376.115 522.04 375.527 521.33 375.123C520.619 374.718 519.853 374.516 519.03 374.516C518.208 374.516 517.441 374.718 516.731 375.123C516.02 375.508 515.44 376.087 514.992 376.859C514.562 377.612 514.347 378.512 514.347 379.56C514.347 380.607 514.562 381.526 514.992 382.316C515.44 383.106 516.02 383.712 516.731 384.135C517.46 384.539 518.226 384.741 519.03 384.741C519.853 384.741 520.619 384.539 521.33 384.135C522.04 383.731 522.611 383.143 523.041 382.371C523.489 381.581 523.714 380.662 523.714 379.615Z" fill="white"/>
<path d="M540.533 371.788C541.711 371.788 542.758 372.036 543.674 372.532C544.609 373.028 545.338 373.763 545.861 374.737C546.404 375.71 546.675 376.886 546.675 378.264V387.222H543.506V378.733C543.506 377.373 543.16 376.335 542.468 375.619C541.776 374.884 540.832 374.516 539.635 374.516C538.439 374.516 537.485 374.884 536.775 375.619C536.083 376.335 535.737 377.373 535.737 378.733V387.222H532.54V366.827H535.737V373.8C536.279 373.157 536.962 372.66 537.784 372.311C538.626 371.962 539.542 371.788 540.533 371.788Z" fill="white"/>
<path d="M551.089 379.56C551.089 378.035 551.407 376.684 552.043 375.508C552.697 374.332 553.576 373.423 554.679 372.78C555.801 372.118 557.035 371.788 558.381 371.788C559.596 371.788 560.652 372.027 561.55 372.504C562.466 372.964 563.195 373.542 563.737 374.241V372.036H566.962V387.222H563.737V384.962C563.195 385.678 562.457 386.275 561.522 386.753C560.587 387.231 559.521 387.47 558.325 387.47C556.997 387.47 555.782 387.139 554.679 386.477C553.576 385.798 552.697 384.861 552.043 383.666C551.407 382.454 551.089 381.085 551.089 379.56ZM563.737 379.615C563.737 378.568 563.513 377.658 563.064 376.886C562.634 376.115 562.064 375.527 561.353 375.123C560.643 374.718 559.876 374.516 559.054 374.516C558.231 374.516 557.465 374.718 556.754 375.123C556.044 375.508 555.464 376.087 555.015 376.859C554.585 377.612 554.37 378.512 554.37 379.56C554.37 380.607 554.585 381.526 555.015 382.316C555.464 383.106 556.044 383.712 556.754 384.135C557.483 384.539 558.25 384.741 559.054 384.741C559.876 384.741 560.643 384.539 561.353 384.135C562.064 383.731 562.634 383.143 563.064 382.371C563.513 381.581 563.737 380.662 563.737 379.615Z" fill="white"/>
<path d="M601.78 368.067V387.222H598.582V374.103L592.637 387.222H590.422L584.448 374.103V387.222H581.251V368.067H584.7L591.543 383.088L598.358 368.067H601.78Z" fill="white"/>
<path d="M609.01 370.024C608.431 370.024 607.945 369.831 607.552 369.445C607.159 369.059 606.963 368.582 606.963 368.012C606.963 367.442 607.159 366.965 607.552 366.579C607.945 366.193 608.431 366 609.01 366C609.571 366 610.048 366.193 610.441 366.579C610.833 366.965 611.03 367.442 611.03 368.012C611.03 368.582 610.833 369.059 610.441 369.445C610.048 369.831 609.571 370.024 609.01 370.024ZM610.581 372.036V387.222H607.384V372.036H610.581Z" fill="white"/>
<path d="M622.294 379.642L629.418 387.222H625.099L619.378 380.69V387.222H616.181V366.827H619.378V378.678L624.987 372.036H629.418L622.294 379.642Z" fill="white"/>
<path d="M636.308 374.241C636.776 373.469 637.393 372.872 638.159 372.449C638.945 372.008 639.87 371.788 640.936 371.788V375.04H640.122C638.87 375.04 637.916 375.352 637.262 375.977C636.626 376.602 636.308 377.686 636.308 379.229V387.222H633.111V372.036H636.308V374.241Z" fill="white"/>
<path d="M651.979 387.47C650.521 387.47 649.203 387.148 648.025 386.505C646.847 385.844 645.922 384.925 645.249 383.749C644.576 382.555 644.239 381.177 644.239 379.615C644.239 378.072 644.585 376.703 645.277 375.508C645.968 374.314 646.913 373.395 648.109 372.752C649.306 372.109 650.642 371.788 652.12 371.788C653.596 371.788 654.933 372.109 656.13 372.752C657.326 373.395 658.271 374.314 658.962 375.508C659.654 376.703 660 378.072 660 379.615C660 381.158 659.645 382.527 658.934 383.721C658.224 384.916 657.252 385.844 656.018 386.505C654.802 387.148 653.456 387.47 651.979 387.47ZM651.979 384.741C652.802 384.741 653.568 384.548 654.279 384.162C655.008 383.777 655.597 383.198 656.046 382.426C656.495 381.654 656.719 380.717 656.719 379.615C656.719 378.512 656.504 377.585 656.074 376.831C655.644 376.06 655.074 375.481 654.363 375.095C653.653 374.709 652.886 374.516 652.063 374.516C651.241 374.516 650.474 374.709 649.764 375.095C649.072 375.481 648.52 376.06 648.109 376.831C647.698 377.585 647.492 378.512 647.492 379.615C647.492 381.25 647.913 382.518 648.754 383.418C649.614 384.3 650.689 384.741 651.979 384.741Z" fill="white"/>
</svg>
