<svg width="140" height="19" viewBox="0 0 140 19" fill="none" xmlns="http://www.w3.org/2000/svg">
<path d="M6.44 18.668C5.272 18.668 4.216 18.468 3.272 18.068C2.344 17.668 1.608 17.092 1.064 16.34C0.52 15.588 0.24 14.7 0.224 13.676H3.824C3.872 14.364 4.112 14.908 4.544 15.308C4.992 15.708 5.6 15.908 6.368 15.908C7.152 15.908 7.768 15.724 8.216 15.356C8.664 14.972 8.888 14.476 8.888 13.868C8.888 13.372 8.736 12.964 8.432 12.644C8.128 12.324 7.744 12.076 7.28 11.9C6.832 11.708 6.208 11.5 5.408 11.276C4.32 10.956 3.432 10.644 2.744 10.34C2.072 10.02 1.488 9.548 0.992 8.924C0.512 8.284 0.272 7.436 0.272 6.38C0.272 5.388 0.52 4.524 1.016 3.788C1.512 3.052 2.208 2.492 3.104 2.108C4 1.708 5.024 1.508 6.176 1.508C7.904 1.508 9.304 1.932 10.376 2.78C11.464 3.612 12.064 4.78 12.176 6.284H8.48C8.448 5.708 8.2 5.236 7.736 4.868C7.288 4.484 6.688 4.292 5.936 4.292C5.28 4.292 4.752 4.46 4.352 4.796C3.968 5.132 3.776 5.62 3.776 6.26C3.776 6.708 3.92 7.084 4.208 7.388C4.512 7.676 4.88 7.916 5.312 8.108C5.76 8.284 6.384 8.492 7.184 8.732C8.272 9.052 9.16 9.372 9.848 9.692C10.536 10.012 11.128 10.492 11.624 11.132C12.12 11.772 12.368 12.612 12.368 13.652C12.368 14.548 12.136 15.38 11.672 16.148C11.208 16.916 10.528 17.532 9.632 17.996C8.736 18.444 7.672 18.668 6.44 18.668ZM21.185 18.716C19.905 18.716 18.753 18.436 17.729 17.876C16.705 17.3 15.897 16.492 15.305 15.452C14.729 14.412 14.441 13.212 14.441 11.852C14.441 10.492 14.737 9.292 15.329 8.252C15.937 7.212 16.761 6.412 17.801 5.852C18.841 5.276 20.001 4.988 21.281 4.988C22.561 4.988 23.721 5.276 24.761 5.852C25.801 6.412 26.617 7.212 27.209 8.252C27.817 9.292 28.121 10.492 28.121 11.852C28.121 13.212 27.809 14.412 27.185 15.452C26.577 16.492 25.745 17.3 24.689 17.876C23.649 18.436 22.481 18.716 21.185 18.716ZM21.185 15.788C21.793 15.788 22.361 15.644 22.889 15.356C23.433 15.052 23.865 14.604 24.185 14.012C24.505 13.42 24.665 12.7 24.665 11.852C24.665 10.588 24.329 9.62 23.657 8.948C23.001 8.26 22.193 7.916 21.233 7.916C20.273 7.916 19.465 8.26 18.809 8.948C18.169 9.62 17.849 10.588 17.849 11.852C17.849 13.116 18.161 14.092 18.785 14.78C19.425 15.452 20.225 15.788 21.185 15.788ZM33.9457 7.148C34.3777 6.508 34.9697 5.988 35.7217 5.588C36.4897 5.188 37.3617 4.988 38.3377 4.988C39.4737 4.988 40.4977 5.268 41.4097 5.828C42.3377 6.388 43.0657 7.188 43.5937 8.228C44.1377 9.252 44.4097 10.444 44.4097 11.804C44.4097 13.164 44.1377 14.372 43.5937 15.428C43.0657 16.468 42.3377 17.276 41.4097 17.852C40.4977 18.428 39.4737 18.716 38.3377 18.716C37.3457 18.716 36.4737 18.524 35.7217 18.14C34.9857 17.74 34.3937 17.228 33.9457 16.604V18.5H30.5857V0.74H33.9457V7.148ZM40.9777 11.804C40.9777 11.004 40.8097 10.316 40.4737 9.74C40.1537 9.148 39.7217 8.7 39.1777 8.396C38.6497 8.092 38.0737 7.94 37.4497 7.94C36.8417 7.94 36.2657 8.1 35.7217 8.42C35.1937 8.724 34.7617 9.172 34.4257 9.764C34.1057 10.356 33.9457 11.052 33.9457 11.852C33.9457 12.652 34.1057 13.348 34.4257 13.94C34.7617 14.532 35.1937 14.988 35.7217 15.308C36.2657 15.612 36.8417 15.764 37.4497 15.764C38.0737 15.764 38.6497 15.604 39.1777 15.284C39.7217 14.964 40.1537 14.508 40.4737 13.916C40.8097 13.324 40.9777 12.62 40.9777 11.804ZM45.9873 11.804C45.9873 10.46 46.2513 9.268 46.7793 8.228C47.3233 7.188 48.0513 6.388 48.9633 5.828C49.8913 5.268 50.9233 4.988 52.0593 4.988C53.0513 4.988 53.9153 5.188 54.6513 5.588C55.4033 5.988 56.0033 6.492 56.4513 7.1V5.204H59.8353V18.5H56.4513V16.556C56.0193 17.18 55.4193 17.7 54.6513 18.116C53.8993 18.516 53.0273 18.716 52.0353 18.716C50.9153 18.716 49.8913 18.428 48.9633 17.852C48.0513 17.276 47.3233 16.468 46.7793 15.428C46.2513 14.372 45.9873 13.164 45.9873 11.804ZM56.4513 11.852C56.4513 11.036 56.2913 10.34 55.9713 9.764C55.6513 9.172 55.2193 8.724 54.6753 8.42C54.1313 8.1 53.5473 7.94 52.9233 7.94C52.2993 7.94 51.7233 8.092 51.1953 8.396C50.6673 8.7 50.2353 9.148 49.8993 9.74C49.5793 10.316 49.4193 11.004 49.4193 11.804C49.4193 12.604 49.5793 13.308 49.8993 13.916C50.2353 14.508 50.6673 14.964 51.1953 15.284C51.7393 15.604 52.3153 15.764 52.9233 15.764C53.5473 15.764 54.1313 15.612 54.6753 15.308C55.2193 14.988 55.6513 14.54 55.9713 13.964C56.2913 13.372 56.4513 12.668 56.4513 11.852ZM67.0289 7.964V14.396C67.0289 14.844 67.1329 15.172 67.3409 15.38C67.5649 15.572 67.9329 15.668 68.4449 15.668H70.0049V18.5H67.8929C65.0609 18.5 63.6449 17.124 63.6449 14.372V7.964H62.0609V5.204H63.6449V1.916H67.0289V5.204H70.0049V7.964H67.0289Z" fill="#F5D189"/>
<path d="M81.8776 18.5L75.7816 11.036V18.5H72.4216V1.748H75.7816V9.26L81.8776 1.748H85.9336L79.0216 10.052L86.1256 18.5H81.8776ZM91.6477 1.748V12.116C91.6477 13.252 91.9437 14.124 92.5357 14.732C93.1277 15.324 93.9597 15.62 95.0317 15.62C96.1197 15.62 96.9597 15.324 97.5517 14.732C98.1437 14.124 98.4397 13.252 98.4397 12.116V1.748H101.824V12.092C101.824 13.516 101.512 14.724 100.888 15.716C100.28 16.692 99.4557 17.428 98.4157 17.924C97.3917 18.42 96.2477 18.668 94.9837 18.668C93.7357 18.668 92.5997 18.42 91.5757 17.924C90.5677 17.428 89.7677 16.692 89.1757 15.716C88.5837 14.724 88.2877 13.516 88.2877 12.092V1.748H91.6477ZM114.526 18.5L108.43 11.036V18.5H105.07V1.748H108.43V9.26L114.526 1.748H118.582L111.67 10.052L118.774 18.5H114.526ZM139.248 1.748V18.5H135.888V7.604L131.4 18.5H128.856L124.344 7.604V18.5H120.984V1.748H124.8L130.128 14.204L135.456 1.748H139.248Z" fill="white"/>
</svg>
