<svg width="24" height="24" viewBox="0 0 24 24" fill="none" xmlns="http://www.w3.org/2000/svg">
<path d="M22.9909 5.2311C22.1907 5.58568 21.3311 5.82527 20.4274 5.93356C21.3599 5.37561 22.0575 4.49746 22.3901 3.46298C21.514 3.98334 20.5552 4.34962 19.5553 4.54589C18.8829 3.82797 17.9923 3.35212 17.0218 3.19222C16.0513 3.03232 15.0551 3.19732 14.1879 3.66159C13.3208 4.12587 12.6311 4.86345 12.2261 5.75982C11.8211 6.65619 11.7234 7.66119 11.9481 8.61881C10.1729 8.52968 8.43637 8.06829 6.85109 7.26459C5.26581 6.46089 3.86724 5.33284 2.74614 3.95364C2.36281 4.61489 2.14239 5.38156 2.14239 6.19806C2.14197 6.9331 2.32297 7.65687 2.66936 8.30518C3.01575 8.95348 3.5168 9.50626 4.12806 9.91448C3.41916 9.89192 2.7259 9.70037 2.10598 9.35577V9.41327C2.1059 10.4442 2.46251 11.4434 3.11528 12.2413C3.76805 13.0392 4.67677 13.5867 5.68727 13.7909C5.02964 13.9689 4.34017 13.9951 3.67093 13.8676C3.95604 14.7546 4.51139 15.5303 5.25925 16.0861C6.0071 16.6418 6.91002 16.9498 7.8416 16.9669C6.26019 18.2083 4.30716 18.8817 2.29668 18.8787C1.94055 18.8788 1.58472 18.858 1.23102 18.8164C3.27177 20.1286 5.64734 20.8249 8.07352 20.8222C16.2864 20.8222 20.7762 14.02 20.7762 8.12048C20.7762 7.92881 20.7714 7.73523 20.7628 7.54356C21.6361 6.91199 22.39 6.12992 22.989 5.23398L22.9909 5.2311Z" fill="#59A7D3"/>
</svg>
