<svg width="300" height="189" viewBox="0 0 300 189" fill="none" xmlns="http://www.w3.org/2000/svg">
<path d="M179.356 32.5H117.039C114.093 32.5 111.697 34.9667 111.697 38V71C111.697 74.0332 114.093 76.5 117.039 76.5H179.356C182.302 76.5 184.697 74.0332 184.697 71V38C184.697 34.9667 182.302 32.5 179.356 32.5ZM129.631 43.5C132.705 43.5 134.973 45.8348 134.973 49C134.973 52.1652 132.705 54.5 129.631 54.5C126.557 54.5 124.29 52.1652 124.29 49C124.29 45.8348 126.555 43.5 129.631 43.5ZM139.553 65.5H119.709V64.2212C119.709 60.4455 124.186 56.5625 129.631 56.5625C135.077 56.5625 139.553 60.4455 139.553 64.2212V65.5ZM157.1 62.75H146.417V57.25H157.1V62.75ZM157.1 51.75H143.746V46.25H157.1V51.75Z" fill="#38BF6E" fill-opacity="0.5"/>
<rect x="164.302" y="56.7593" width="24" height="23" rx="11.5" fill="#6EB3DA"/>
<g clip-path="url(#clip0_339_32)">
<path d="M177.95 66.7012V71.2012H174.05V66.7012H170.8L176 60.7012L181.2 66.7012H177.95ZM169.5 72.7012H182.5V74.2012H169.5V72.7012Z" fill="white"/>
</g>
<path d="M40.5136 116.047C40.5136 116.645 40.3696 117.205 40.0816 117.727C39.8043 118.25 39.3616 118.671 38.7536 118.991C38.1563 119.311 37.399 119.471 36.4816 119.471H34.6096V123.759H32.3696V112.591H36.4816C37.3456 112.591 38.0816 112.741 38.6896 113.039C39.2976 113.338 39.751 113.749 40.0496 114.271C40.359 114.794 40.5136 115.386 40.5136 116.047ZM36.3856 117.663C37.0043 117.663 37.463 117.525 37.7616 117.247C38.0603 116.959 38.2096 116.559 38.2096 116.047C38.2096 114.959 37.6016 114.415 36.3856 114.415H34.6096V117.663H36.3856ZM43.24 113.839C42.8453 113.839 42.5147 113.717 42.248 113.471C41.992 113.215 41.864 112.901 41.864 112.527C41.864 112.154 41.992 111.845 42.248 111.599C42.5147 111.343 42.8453 111.215 43.24 111.215C43.6347 111.215 43.96 111.343 44.216 111.599C44.4827 111.845 44.616 112.154 44.616 112.527C44.616 112.901 44.4827 113.215 44.216 113.471C43.96 113.717 43.6347 113.839 43.24 113.839ZM44.344 114.895V123.759H42.104V114.895H44.344ZM48.7971 111.919V123.759H46.5571V111.919H48.7971ZM52.1463 113.839C51.7516 113.839 51.4209 113.717 51.1543 113.471C50.8983 113.215 50.7703 112.901 50.7703 112.527C50.7703 112.154 50.8983 111.845 51.1543 111.599C51.4209 111.343 51.7516 111.215 52.1463 111.215C52.5409 111.215 52.8663 111.343 53.1223 111.599C53.3889 111.845 53.5223 112.154 53.5223 112.527C53.5223 112.901 53.3889 113.215 53.1223 113.471C52.8663 113.717 52.5409 113.839 52.1463 113.839ZM53.2503 114.895V123.759H51.0103V114.895H53.2503ZM60.4554 114.767C61.1274 114.767 61.7247 114.917 62.2474 115.215C62.77 115.503 63.1754 115.935 63.4634 116.511C63.762 117.077 63.9114 117.759 63.9114 118.559V123.759H61.6714V118.863C61.6714 118.159 61.4954 117.621 61.1434 117.247C60.7914 116.863 60.3114 116.671 59.7034 116.671C59.0847 116.671 58.594 116.863 58.2314 117.247C57.8794 117.621 57.7034 118.159 57.7034 118.863V123.759H55.4634V111.919H57.7034V115.999C57.9914 115.615 58.3754 115.317 58.8554 115.103C59.3354 114.879 59.8687 114.767 60.4554 114.767ZM73.918 116.735H72.366V123.759H70.094V116.735H69.086V114.895H70.094V114.447C70.094 113.359 70.4033 112.559 71.022 112.047C71.6407 111.535 72.574 111.295 73.822 111.327V113.215C73.278 113.205 72.8993 113.295 72.686 113.487C72.4727 113.679 72.366 114.026 72.366 114.527V114.895H73.918V116.735ZM79.3056 123.903C78.4523 123.903 77.6843 123.717 77.0016 123.343C76.319 122.959 75.7803 122.421 75.3856 121.727C75.0016 121.034 74.8096 120.234 74.8096 119.327C74.8096 118.421 75.007 117.621 75.4016 116.927C75.807 116.234 76.3563 115.701 77.0496 115.327C77.743 114.943 78.5163 114.751 79.3696 114.751C80.223 114.751 80.9963 114.943 81.6896 115.327C82.383 115.701 82.927 116.234 83.3216 116.927C83.727 117.621 83.9296 118.421 83.9296 119.327C83.9296 120.234 83.7216 121.034 83.3056 121.727C82.9003 122.421 82.3456 122.959 81.6416 123.343C80.9483 123.717 80.1696 123.903 79.3056 123.903ZM79.3056 121.951C79.711 121.951 80.0896 121.855 80.4416 121.663C80.8043 121.461 81.0923 121.162 81.3056 120.767C81.519 120.373 81.6256 119.893 81.6256 119.327C81.6256 118.485 81.4016 117.839 80.9536 117.391C80.5163 116.933 79.9776 116.703 79.3376 116.703C78.6976 116.703 78.159 116.933 77.7216 117.391C77.295 117.839 77.0816 118.485 77.0816 119.327C77.0816 120.17 77.2896 120.821 77.7056 121.279C78.1323 121.727 78.6656 121.951 79.3056 121.951ZM88.1808 116.735V121.023C88.1808 121.322 88.2501 121.541 88.3888 121.679C88.5381 121.807 88.7834 121.871 89.1248 121.871H90.1648V123.759H88.7568C86.8688 123.759 85.9248 122.842 85.9248 121.007V116.735H84.8688V114.895H85.9248V112.703H88.1808V114.895H90.1648V116.735H88.1808ZM95.7119 123.903C94.8585 123.903 94.0905 123.717 93.4079 123.343C92.7252 122.959 92.1865 122.421 91.7919 121.727C91.4079 121.034 91.2159 120.234 91.2159 119.327C91.2159 118.421 91.4132 117.621 91.8079 116.927C92.2132 116.234 92.7625 115.701 93.4559 115.327C94.1492 114.943 94.9225 114.751 95.7759 114.751C96.6292 114.751 97.4025 114.943 98.0959 115.327C98.7892 115.701 99.3332 116.234 99.7279 116.927C100.133 117.621 100.336 118.421 100.336 119.327C100.336 120.234 100.128 121.034 99.7119 121.727C99.3065 122.421 98.7519 122.959 98.0479 123.343C97.3545 123.717 96.5759 123.903 95.7119 123.903ZM95.7119 121.951C96.1172 121.951 96.4959 121.855 96.8479 121.663C97.2105 121.461 97.4985 121.162 97.7119 120.767C97.9252 120.373 98.0319 119.893 98.0319 119.327C98.0319 118.485 97.8079 117.839 97.3599 117.391C96.9225 116.933 96.3839 116.703 95.7439 116.703C95.1039 116.703 94.5652 116.933 94.1279 117.391C93.7012 117.839 93.4879 118.485 93.4879 119.327C93.4879 120.17 93.6959 120.821 94.1119 121.279C94.5385 121.727 95.0719 121.951 95.7119 121.951ZM112.096 123.759L108.032 118.783V123.759H105.792V112.591H108.032V117.599L112.096 112.591H114.8L110.192 118.127L114.928 123.759H112.096ZM124.001 112.591V114.399H121.025V123.759H118.785V114.399H115.809V112.591H124.001ZM133.779 116.047C133.779 116.645 133.635 117.205 133.347 117.727C133.07 118.25 132.627 118.671 132.019 118.991C131.422 119.311 130.665 119.471 129.747 119.471H127.875V123.759H125.635V112.591H129.747C130.611 112.591 131.347 112.741 131.955 113.039C132.563 113.338 133.017 113.749 133.315 114.271C133.625 114.794 133.779 115.386 133.779 116.047ZM129.651 117.663C130.27 117.663 130.729 117.525 131.027 117.247C131.326 116.959 131.475 116.559 131.475 116.047C131.475 114.959 130.867 114.415 129.651 114.415H127.875V117.663H129.651ZM147.55 114.895V123.759H145.294V122.639C145.006 123.023 144.627 123.327 144.158 123.551C143.699 123.765 143.198 123.871 142.654 123.871C141.961 123.871 141.347 123.727 140.814 123.439C140.281 123.141 139.859 122.709 139.55 122.143C139.251 121.567 139.102 120.885 139.102 120.095V114.895H141.342V119.775C141.342 120.479 141.518 121.023 141.87 121.407C142.222 121.781 142.702 121.967 143.31 121.967C143.929 121.967 144.414 121.781 144.766 121.407C145.118 121.023 145.294 120.479 145.294 119.775V114.895H147.55ZM154.672 114.767C155.728 114.767 156.582 115.103 157.232 115.775C157.883 116.437 158.208 117.365 158.208 118.559V123.759H155.968V118.863C155.968 118.159 155.792 117.621 155.44 117.247C155.088 116.863 154.608 116.671 154 116.671C153.382 116.671 152.891 116.863 152.528 117.247C152.176 117.621 152 118.159 152 118.863V123.759H149.76V114.895H152V115.999C152.299 115.615 152.678 115.317 153.136 115.103C153.606 114.879 154.118 114.767 154.672 114.767ZM162.946 116.735V121.023C162.946 121.322 163.016 121.541 163.154 121.679C163.304 121.807 163.549 121.871 163.89 121.871H164.93V123.759H163.522C161.634 123.759 160.69 122.842 160.69 121.007V116.735H159.634V114.895H160.69V112.703H162.946V114.895H164.93V116.735H162.946ZM174.91 114.895V123.759H172.654V122.639C172.366 123.023 171.987 123.327 171.518 123.551C171.059 123.765 170.558 123.871 170.014 123.871C169.32 123.871 168.707 123.727 168.174 123.439C167.64 123.141 167.219 122.709 166.91 122.143C166.611 121.567 166.462 120.885 166.462 120.095V114.895H168.702V119.775C168.702 120.479 168.878 121.023 169.23 121.407C169.582 121.781 170.062 121.967 170.67 121.967C171.288 121.967 171.774 121.781 172.126 121.407C172.478 121.023 172.654 120.479 172.654 119.775V114.895H174.91ZM182.368 123.759L179.36 119.983V123.759H177.12V111.919H179.36V118.655L182.336 114.895H185.248L181.344 119.343L185.28 123.759H182.368ZM189.7 119.295C189.7 118.399 189.876 117.605 190.228 116.911C190.591 116.218 191.081 115.685 191.7 115.311C192.319 114.938 193.007 114.751 193.764 114.751C194.34 114.751 194.889 114.879 195.412 115.135C195.935 115.381 196.351 115.711 196.66 116.127V111.919H198.932V123.759H196.66V122.447C196.383 122.885 195.993 123.237 195.492 123.503C194.991 123.77 194.409 123.903 193.748 123.903C193.001 123.903 192.319 123.711 191.7 123.327C191.081 122.943 190.591 122.405 190.228 121.711C189.876 121.007 189.7 120.202 189.7 119.295ZM196.676 119.327C196.676 118.783 196.569 118.319 196.356 117.935C196.143 117.541 195.855 117.242 195.492 117.039C195.129 116.826 194.74 116.719 194.324 116.719C193.908 116.719 193.524 116.821 193.172 117.023C192.82 117.226 192.532 117.525 192.308 117.919C192.095 118.303 191.988 118.762 191.988 119.295C191.988 119.829 192.095 120.298 192.308 120.703C192.532 121.098 192.82 121.402 193.172 121.615C193.535 121.829 193.919 121.935 194.324 121.935C194.74 121.935 195.129 121.834 195.492 121.631C195.855 121.418 196.143 121.119 196.356 120.735C196.569 120.341 196.676 119.871 196.676 119.327ZM202.256 113.839C201.861 113.839 201.53 113.717 201.264 113.471C201.008 113.215 200.88 112.901 200.88 112.527C200.88 112.154 201.008 111.845 201.264 111.599C201.53 111.343 201.861 111.215 202.256 111.215C202.65 111.215 202.976 111.343 203.232 111.599C203.498 111.845 203.632 112.154 203.632 112.527C203.632 112.901 203.498 113.215 203.232 113.471C202.976 113.717 202.65 113.839 202.256 113.839ZM203.36 114.895V123.759H201.12V114.895H203.36ZM213.941 114.895V123.759H211.685V122.639C211.397 123.023 211.018 123.327 210.549 123.551C210.09 123.765 209.589 123.871 209.045 123.871C208.351 123.871 207.738 123.727 207.205 123.439C206.671 123.141 206.25 122.709 205.941 122.143C205.642 121.567 205.493 120.885 205.493 120.095V114.895H207.733V119.775C207.733 120.479 207.909 121.023 208.261 121.407C208.613 121.781 209.093 121.967 209.701 121.967C210.319 121.967 210.805 121.781 211.157 121.407C211.509 121.023 211.685 120.479 211.685 119.775V114.895H213.941ZM221.063 114.767C222.119 114.767 222.972 115.103 223.623 115.775C224.274 116.437 224.599 117.365 224.599 118.559V123.759H222.359V118.863C222.359 118.159 222.183 117.621 221.831 117.247C221.479 116.863 220.999 116.671 220.391 116.671C219.772 116.671 219.282 116.863 218.919 117.247C218.567 117.621 218.391 118.159 218.391 118.863V123.759H216.151V114.895H218.391V115.999C218.69 115.615 219.068 115.317 219.527 115.103C219.996 114.879 220.508 114.767 221.063 114.767ZM230.201 114.751C230.862 114.751 231.444 114.885 231.945 115.151C232.446 115.407 232.841 115.743 233.129 116.159V114.895H235.385V123.823C235.385 124.645 235.22 125.375 234.889 126.015C234.558 126.666 234.062 127.178 233.401 127.551C232.74 127.935 231.94 128.127 231.001 128.127C229.742 128.127 228.708 127.834 227.897 127.247C227.097 126.661 226.644 125.861 226.537 124.847H228.761C228.878 125.253 229.129 125.573 229.513 125.807C229.908 126.053 230.382 126.175 230.937 126.175C231.588 126.175 232.116 125.978 232.521 125.583C232.926 125.199 233.129 124.613 233.129 123.823V122.447C232.841 122.863 232.441 123.21 231.929 123.487C231.428 123.765 230.852 123.903 230.201 123.903C229.454 123.903 228.772 123.711 228.153 123.327C227.534 122.943 227.044 122.405 226.681 121.711C226.329 121.007 226.153 120.202 226.153 119.295C226.153 118.399 226.329 117.605 226.681 116.911C227.044 116.218 227.529 115.685 228.137 115.311C228.756 114.938 229.444 114.751 230.201 114.751ZM233.129 119.327C233.129 118.783 233.022 118.319 232.809 117.935C232.596 117.541 232.308 117.242 231.945 117.039C231.582 116.826 231.193 116.719 230.777 116.719C230.361 116.719 229.977 116.821 229.625 117.023C229.273 117.226 228.985 117.525 228.761 117.919C228.548 118.303 228.441 118.762 228.441 119.295C228.441 119.829 228.548 120.298 228.761 120.703C228.985 121.098 229.273 121.402 229.625 121.615C229.988 121.829 230.372 121.935 230.777 121.935C231.193 121.935 231.582 121.834 231.945 121.631C232.308 121.418 232.596 121.119 232.809 120.735C233.022 120.341 233.129 119.871 233.129 119.327ZM241.045 114.751C241.706 114.751 242.287 114.885 242.789 115.151C243.29 115.407 243.685 115.743 243.973 116.159V114.895H246.229V123.823C246.229 124.645 246.063 125.375 245.733 126.015C245.402 126.666 244.906 127.178 244.245 127.551C243.583 127.935 242.783 128.127 241.845 128.127C240.586 128.127 239.551 127.834 238.741 127.247C237.941 126.661 237.487 125.861 237.381 124.847H239.605C239.722 125.253 239.973 125.573 240.357 125.807C240.751 126.053 241.226 126.175 241.781 126.175C242.431 126.175 242.959 125.978 243.365 125.583C243.77 125.199 243.973 124.613 243.973 123.823V122.447C243.685 122.863 243.285 123.21 242.773 123.487C242.271 123.765 241.695 123.903 241.045 123.903C240.298 123.903 239.615 123.711 238.997 123.327C238.378 122.943 237.887 122.405 237.525 121.711C237.173 121.007 236.997 120.202 236.997 119.295C236.997 118.399 237.173 117.605 237.525 116.911C237.887 116.218 238.373 115.685 238.981 115.311C239.599 114.938 240.287 114.751 241.045 114.751ZM243.973 119.327C243.973 118.783 243.866 118.319 243.653 117.935C243.439 117.541 243.151 117.242 242.789 117.039C242.426 116.826 242.037 116.719 241.621 116.719C241.205 116.719 240.821 116.821 240.469 117.023C240.117 117.226 239.829 117.525 239.605 117.919C239.391 118.303 239.285 118.762 239.285 119.295C239.285 119.829 239.391 120.298 239.605 120.703C239.829 121.098 240.117 121.402 240.469 121.615C240.831 121.829 241.215 121.935 241.621 121.935C242.037 121.935 242.426 121.834 242.789 121.631C243.151 121.418 243.439 121.119 243.653 120.735C243.866 120.341 243.973 119.871 243.973 119.327ZM247.84 119.295C247.84 118.399 248.016 117.605 248.368 116.911C248.731 116.218 249.217 115.685 249.825 115.311C250.443 114.938 251.131 114.751 251.889 114.751C252.55 114.751 253.126 114.885 253.617 115.151C254.118 115.418 254.518 115.754 254.817 116.159V114.895H257.073V123.759H254.817V122.463C254.529 122.879 254.129 123.226 253.617 123.503C253.115 123.77 252.534 123.903 251.873 123.903C251.126 123.903 250.443 123.711 249.825 123.327C249.217 122.943 248.731 122.405 248.368 121.711C248.016 121.007 247.84 120.202 247.84 119.295ZM254.817 119.327C254.817 118.783 254.71 118.319 254.497 117.935C254.283 117.541 253.995 117.242 253.633 117.039C253.27 116.826 252.881 116.719 252.465 116.719C252.049 116.719 251.665 116.821 251.312 117.023C250.961 117.226 250.673 117.525 250.449 117.919C250.235 118.303 250.129 118.762 250.129 119.295C250.129 119.829 250.235 120.298 250.449 120.703C250.673 121.098 250.961 121.402 251.312 121.615C251.675 121.829 252.059 121.935 252.465 121.935C252.881 121.935 253.27 121.834 253.633 121.631C253.995 121.418 254.283 121.119 254.497 120.735C254.71 120.341 254.817 119.871 254.817 119.327ZM264.252 114.767C264.924 114.767 265.522 114.917 266.044 115.215C266.567 115.503 266.972 115.935 267.26 116.511C267.559 117.077 267.708 117.759 267.708 118.559V123.759H265.468V118.863C265.468 118.159 265.292 117.621 264.94 117.247C264.588 116.863 264.108 116.671 263.5 116.671C262.882 116.671 262.391 116.863 262.028 117.247C261.676 117.621 261.5 118.159 261.5 118.863V123.759H259.26V111.919H261.5V115.999C261.788 115.615 262.172 115.317 262.652 115.103C263.132 114.879 263.666 114.767 264.252 114.767Z" fill="#498FB6"/>
<path d="M80.5653 150.363C79.6506 149.486 78.946 148.371 78.4513 147.017C77.966 145.664 77.7233 144.213 77.7233 142.663C77.7233 141.077 77.9846 139.579 78.5073 138.169C79.0393 136.76 79.8186 135.598 80.8453 134.683H82.4973V134.837C81.424 135.827 80.6166 137.012 80.0753 138.393C79.534 139.775 79.2633 141.198 79.2633 142.663C79.2633 144.073 79.5153 145.435 80.0193 146.751C80.5233 148.067 81.256 149.22 82.2173 150.209V150.363H80.5653ZM89.6539 138.029V139.331H85.5239V142.201H88.7439V143.503H85.5239V147.759H83.9279V138.029H89.6539ZM94.479 147.885C93.751 147.885 93.093 147.722 92.505 147.395C91.917 147.059 91.455 146.593 91.119 145.995C90.783 145.389 90.615 144.689 90.615 143.895C90.615 143.111 90.7877 142.416 91.133 141.809C91.4783 141.203 91.9497 140.736 92.547 140.409C93.1443 140.083 93.8117 139.919 94.549 139.919C95.2863 139.919 95.9537 140.083 96.551 140.409C97.1483 140.736 97.6197 141.203 97.965 141.809C98.3103 142.416 98.483 143.111 98.483 143.895C98.483 144.679 98.3057 145.375 97.951 145.981C97.5963 146.588 97.111 147.059 96.495 147.395C95.8883 147.722 95.2163 147.885 94.479 147.885ZM94.479 146.499C94.8897 146.499 95.2723 146.401 95.627 146.205C95.991 146.009 96.285 145.715 96.509 145.323C96.733 144.931 96.845 144.455 96.845 143.895C96.845 143.335 96.7377 142.864 96.523 142.481C96.3083 142.089 96.0237 141.795 95.669 141.599C95.3143 141.403 94.9317 141.305 94.521 141.305C94.1103 141.305 93.7277 141.403 93.373 141.599C93.0277 141.795 92.7523 142.089 92.547 142.481C92.3417 142.864 92.239 143.335 92.239 143.895C92.239 144.726 92.449 145.37 92.869 145.827C93.2983 146.275 93.835 146.499 94.479 146.499ZM101.657 141.165C101.89 140.773 102.198 140.47 102.581 140.255C102.973 140.031 103.435 139.919 103.967 139.919V141.571H103.561C102.935 141.571 102.459 141.73 102.133 142.047C101.815 142.365 101.657 142.915 101.657 143.699V147.759H100.061V140.045H101.657V141.165ZM114.772 139.919C115.378 139.919 115.92 140.045 116.396 140.297C116.881 140.549 117.259 140.923 117.53 141.417C117.81 141.912 117.95 142.509 117.95 143.209V147.759H116.368V143.447C116.368 142.757 116.195 142.229 115.85 141.865C115.504 141.492 115.033 141.305 114.436 141.305C113.838 141.305 113.362 141.492 113.008 141.865C112.662 142.229 112.49 142.757 112.49 143.447V147.759H110.908V143.447C110.908 142.757 110.735 142.229 110.39 141.865C110.044 141.492 109.573 141.305 108.976 141.305C108.378 141.305 107.902 141.492 107.548 141.865C107.202 142.229 107.03 142.757 107.03 143.447V147.759H105.434V140.045H107.03V140.927C107.291 140.61 107.622 140.363 108.024 140.185C108.425 140.008 108.854 139.919 109.312 139.919C109.928 139.919 110.478 140.05 110.964 140.311C111.449 140.573 111.822 140.951 112.084 141.445C112.317 140.979 112.681 140.61 113.176 140.339C113.67 140.059 114.202 139.919 114.772 139.919ZM119.449 143.867C119.449 143.093 119.607 142.407 119.925 141.809C120.251 141.212 120.69 140.75 121.241 140.423C121.801 140.087 122.417 139.919 123.089 139.919C123.695 139.919 124.223 140.041 124.671 140.283C125.128 140.517 125.492 140.811 125.763 141.165V140.045H127.373V147.759H125.763V146.611C125.492 146.975 125.123 147.279 124.657 147.521C124.19 147.764 123.658 147.885 123.061 147.885C122.398 147.885 121.791 147.717 121.241 147.381C120.69 147.036 120.251 146.56 119.925 145.953C119.607 145.337 119.449 144.642 119.449 143.867ZM125.763 143.895C125.763 143.363 125.651 142.901 125.427 142.509C125.212 142.117 124.927 141.819 124.573 141.613C124.218 141.408 123.835 141.305 123.425 141.305C123.014 141.305 122.631 141.408 122.277 141.613C121.922 141.809 121.633 142.103 121.409 142.495C121.194 142.878 121.087 143.335 121.087 143.867C121.087 144.399 121.194 144.866 121.409 145.267C121.633 145.669 121.922 145.977 122.277 146.191C122.641 146.397 123.023 146.499 123.425 146.499C123.835 146.499 124.218 146.397 124.573 146.191C124.927 145.986 125.212 145.687 125.427 145.295C125.651 144.894 125.763 144.427 125.763 143.895ZM131.331 141.347V145.617C131.331 145.907 131.396 146.117 131.527 146.247C131.667 146.369 131.9 146.429 132.227 146.429H133.207V147.759H131.947C131.228 147.759 130.678 147.591 130.295 147.255C129.912 146.919 129.721 146.373 129.721 145.617V141.347H128.811V140.045H129.721V138.127H131.331V140.045H133.207V141.347H131.331ZM141.549 141.347H140.121V147.759H138.511V141.347H137.601V140.045H138.511V139.499C138.511 138.613 138.744 137.969 139.211 137.567C139.687 137.157 140.429 136.951 141.437 136.951V138.281C140.951 138.281 140.611 138.375 140.415 138.561C140.219 138.739 140.121 139.051 140.121 139.499V140.045H141.549V141.347ZM143.775 139.023C143.486 139.023 143.243 138.925 143.047 138.729C142.851 138.533 142.753 138.291 142.753 138.001C142.753 137.712 142.851 137.469 143.047 137.273C143.243 137.077 143.486 136.979 143.775 136.979C144.055 136.979 144.293 137.077 144.489 137.273C144.685 137.469 144.783 137.712 144.783 138.001C144.783 138.291 144.685 138.533 144.489 138.729C144.293 138.925 144.055 139.023 143.775 139.023ZM144.559 140.045V147.759H142.963V140.045H144.559ZM148.25 137.399V147.759H146.654V137.399H148.25ZM157.416 143.713C157.416 144.003 157.397 144.264 157.36 144.497H151.466C151.513 145.113 151.741 145.608 152.152 145.981C152.563 146.355 153.067 146.541 153.664 146.541C154.523 146.541 155.129 146.182 155.484 145.463H157.206C156.973 146.173 156.548 146.756 155.932 147.213C155.325 147.661 154.569 147.885 153.664 147.885C152.927 147.885 152.264 147.722 151.676 147.395C151.097 147.059 150.64 146.593 150.304 145.995C149.977 145.389 149.814 144.689 149.814 143.895C149.814 143.102 149.973 142.407 150.29 141.809C150.617 141.203 151.069 140.736 151.648 140.409C152.236 140.083 152.908 139.919 153.664 139.919C154.392 139.919 155.041 140.078 155.61 140.395C156.179 140.713 156.623 141.161 156.94 141.739C157.257 142.309 157.416 142.967 157.416 143.713ZM155.75 143.209C155.741 142.621 155.531 142.15 155.12 141.795C154.709 141.441 154.201 141.263 153.594 141.263C153.043 141.263 152.572 141.441 152.18 141.795C151.788 142.141 151.555 142.612 151.48 143.209H155.75ZM159.631 147.857C159.341 147.857 159.099 147.759 158.903 147.563C158.707 147.367 158.609 147.125 158.609 146.835C158.609 146.546 158.707 146.303 158.903 146.107C159.099 145.911 159.341 145.813 159.631 145.813C159.911 145.813 160.149 145.911 160.345 146.107C160.541 146.303 160.639 146.546 160.639 146.835C160.639 147.125 160.541 147.367 160.345 147.563C160.149 147.759 159.911 147.857 159.631 147.857ZM159.631 141.977C159.341 141.977 159.099 141.879 158.903 141.683C158.707 141.487 158.609 141.245 158.609 140.955C158.609 140.666 158.707 140.423 158.903 140.227C159.099 140.031 159.341 139.933 159.631 139.933C159.911 139.933 160.149 140.031 160.345 140.227C160.541 140.423 160.639 140.666 160.639 140.955C160.639 141.245 160.541 141.487 160.345 141.683C160.149 141.879 159.911 141.977 159.631 141.977ZM166.867 139.023C166.578 139.023 166.335 138.925 166.139 138.729C165.943 138.533 165.845 138.291 165.845 138.001C165.845 137.712 165.943 137.469 166.139 137.273C166.335 137.077 166.578 136.979 166.867 136.979C167.147 136.979 167.385 137.077 167.581 137.273C167.777 137.469 167.875 137.712 167.875 138.001C167.875 138.291 167.777 138.533 167.581 138.729C167.385 138.925 167.147 139.023 166.867 139.023ZM167.651 149.271C167.651 150.027 167.46 150.573 167.077 150.909C166.704 151.255 166.158 151.427 165.439 151.427H164.613V150.083H165.159C165.486 150.083 165.714 150.018 165.845 149.887C165.985 149.766 166.055 149.561 166.055 149.271V140.045H167.651V149.271ZM171.342 141.179C171.613 140.825 171.982 140.526 172.448 140.283C172.915 140.041 173.442 139.919 174.03 139.919C174.702 139.919 175.314 140.087 175.864 140.423C176.424 140.75 176.863 141.212 177.18 141.809C177.498 142.407 177.656 143.093 177.656 143.867C177.656 144.642 177.498 145.337 177.18 145.953C176.863 146.56 176.424 147.036 175.864 147.381C175.314 147.717 174.702 147.885 174.03 147.885C173.442 147.885 172.92 147.769 172.462 147.535C172.005 147.293 171.632 146.994 171.342 146.639V151.427H169.746V140.045H171.342V141.179ZM176.032 143.867C176.032 143.335 175.92 142.878 175.696 142.495C175.482 142.103 175.192 141.809 174.828 141.613C174.474 141.408 174.091 141.305 173.68 141.305C173.279 141.305 172.896 141.408 172.532 141.613C172.178 141.819 171.888 142.117 171.664 142.509C171.45 142.901 171.342 143.363 171.342 143.895C171.342 144.427 171.45 144.894 171.664 145.295C171.888 145.687 172.178 145.986 172.532 146.191C172.896 146.397 173.279 146.499 173.68 146.499C174.091 146.499 174.474 146.397 174.828 146.191C175.192 145.977 175.482 145.669 175.696 145.267C175.92 144.866 176.032 144.399 176.032 143.867ZM182.343 139.919C182.94 139.919 183.467 140.041 183.925 140.283C184.391 140.517 184.755 140.811 185.017 141.165V140.045H186.627V147.885C186.627 148.595 186.477 149.225 186.179 149.775C185.88 150.335 185.446 150.774 184.877 151.091C184.317 151.409 183.645 151.567 182.861 151.567C181.815 151.567 180.947 151.32 180.257 150.825C179.566 150.34 179.174 149.677 179.081 148.837H180.663C180.784 149.239 181.041 149.561 181.433 149.803C181.834 150.055 182.31 150.181 182.861 150.181C183.505 150.181 184.023 149.985 184.415 149.593C184.816 149.201 185.017 148.632 185.017 147.885V146.597C184.746 146.961 184.377 147.269 183.911 147.521C183.453 147.764 182.931 147.885 182.343 147.885C181.671 147.885 181.055 147.717 180.495 147.381C179.944 147.036 179.505 146.56 179.179 145.953C178.861 145.337 178.703 144.642 178.703 143.867C178.703 143.093 178.861 142.407 179.179 141.809C179.505 141.212 179.944 140.75 180.495 140.423C181.055 140.087 181.671 139.919 182.343 139.919ZM185.017 143.895C185.017 143.363 184.905 142.901 184.681 142.509C184.466 142.117 184.181 141.819 183.827 141.613C183.472 141.408 183.089 141.305 182.679 141.305C182.268 141.305 181.885 141.408 181.531 141.613C181.176 141.809 180.887 142.103 180.663 142.495C180.448 142.878 180.341 143.335 180.341 143.867C180.341 144.399 180.448 144.866 180.663 145.267C180.887 145.669 181.176 145.977 181.531 146.191C181.895 146.397 182.277 146.499 182.679 146.499C183.089 146.499 183.472 146.397 183.827 146.191C184.181 145.986 184.466 145.687 184.681 145.295C184.905 144.894 185.017 144.427 185.017 143.895ZM190.473 145.841L188.779 149.705H187.743L188.737 145.841H190.473ZM196.316 139.023C196.027 139.023 195.784 138.925 195.588 138.729C195.392 138.533 195.294 138.291 195.294 138.001C195.294 137.712 195.392 137.469 195.588 137.273C195.784 137.077 196.027 136.979 196.316 136.979C196.596 136.979 196.834 137.077 197.03 137.273C197.226 137.469 197.324 137.712 197.324 138.001C197.324 138.291 197.226 138.533 197.03 138.729C196.834 138.925 196.596 139.023 196.316 139.023ZM197.1 149.271C197.1 150.027 196.909 150.573 196.526 150.909C196.153 151.255 195.607 151.427 194.888 151.427H194.062V150.083H194.608C194.935 150.083 195.163 150.018 195.294 149.887C195.434 149.766 195.504 149.561 195.504 149.271V140.045H197.1V149.271ZM200.792 141.179C201.062 140.825 201.431 140.526 201.898 140.283C202.364 140.041 202.892 139.919 203.48 139.919C204.152 139.919 204.763 140.087 205.314 140.423C205.874 140.75 206.312 141.212 206.63 141.809C206.947 142.407 207.106 143.093 207.106 143.867C207.106 144.642 206.947 145.337 206.63 145.953C206.312 146.56 205.874 147.036 205.314 147.381C204.763 147.717 204.152 147.885 203.48 147.885C202.892 147.885 202.369 147.769 201.912 147.535C201.454 147.293 201.081 146.994 200.792 146.639V151.427H199.196V140.045H200.792V141.179ZM205.482 143.867C205.482 143.335 205.37 142.878 205.146 142.495C204.931 142.103 204.642 141.809 204.278 141.613C203.923 141.408 203.54 141.305 203.13 141.305C202.728 141.305 202.346 141.408 201.982 141.613C201.627 141.819 201.338 142.117 201.114 142.509C200.899 142.901 200.792 143.363 200.792 143.895C200.792 144.427 200.899 144.894 201.114 145.295C201.338 145.687 201.627 145.986 201.982 146.191C202.346 146.397 202.728 146.499 203.13 146.499C203.54 146.499 203.923 146.397 204.278 146.191C204.642 145.977 204.931 145.669 205.146 145.267C205.37 144.866 205.482 144.399 205.482 143.867ZM211.792 139.919C212.389 139.919 212.916 140.041 213.374 140.283C213.84 140.517 214.204 140.811 214.466 141.165V140.045H216.076V147.885C216.076 148.595 215.926 149.225 215.628 149.775C215.329 150.335 214.895 150.774 214.326 151.091C213.766 151.409 213.094 151.567 212.31 151.567C211.264 151.567 210.396 151.32 209.706 150.825C209.015 150.34 208.623 149.677 208.53 148.837H210.112C210.233 149.239 210.49 149.561 210.882 149.803C211.283 150.055 211.759 150.181 212.31 150.181C212.954 150.181 213.472 149.985 213.864 149.593C214.265 149.201 214.466 148.632 214.466 147.885V146.597C214.195 146.961 213.826 147.269 213.36 147.521C212.902 147.764 212.38 147.885 211.792 147.885C211.12 147.885 210.504 147.717 209.944 147.381C209.393 147.036 208.954 146.56 208.628 145.953C208.31 145.337 208.152 144.642 208.152 143.867C208.152 143.093 208.31 142.407 208.628 141.809C208.954 141.212 209.393 140.75 209.944 140.423C210.504 140.087 211.12 139.919 211.792 139.919ZM214.466 143.895C214.466 143.363 214.354 142.901 214.13 142.509C213.915 142.117 213.63 141.819 213.276 141.613C212.921 141.408 212.538 141.305 212.128 141.305C211.717 141.305 211.334 141.408 210.98 141.613C210.625 141.809 210.336 142.103 210.112 142.495C209.897 142.878 209.79 143.335 209.79 143.867C209.79 144.399 209.897 144.866 210.112 145.267C210.336 145.669 210.625 145.977 210.98 146.191C211.344 146.397 211.726 146.499 212.128 146.499C212.538 146.499 212.921 146.397 213.276 146.191C213.63 145.986 213.915 145.687 214.13 145.295C214.354 144.894 214.466 144.427 214.466 143.895ZM217.78 150.363V150.209C218.741 149.22 219.474 148.067 219.978 146.751C220.482 145.435 220.734 144.073 220.734 142.663C220.734 141.198 220.463 139.775 219.922 138.393C219.381 137.012 218.573 135.827 217.5 134.837V134.683H219.152C220.179 135.598 220.953 136.76 221.476 138.169C222.008 139.579 222.274 141.077 222.274 142.663C222.274 144.213 222.027 145.664 221.532 147.017C221.047 148.371 220.347 149.486 219.432 150.363H217.78Z" fill="#C4C4C4"/>
<rect x="0.75" y="0.75" width="298.5" height="186.759" rx="4.25" stroke="#38BF6E" stroke-width="1.5" stroke-dasharray="10 10"/>
<defs>
<clipPath id="clip0_339_32">
<rect width="13" height="15" fill="white" transform="translate(169.5 59.6299)"/>
</clipPath>
</defs>
</svg>
