<svg width="300" height="185" viewBox="0 0 300 185" fill="none" xmlns="http://www.w3.org/2000/svg">
<path d="M149.997 27.5H128.322C127.558 27.5201 126.834 27.8395 126.306 28.3887C125.777 28.938 125.488 29.6727 125.5 30.4332V67.5668C125.488 68.3273 125.777 69.062 126.306 69.6113C126.834 70.1605 127.558 70.4799 128.322 70.5H159.678C160.442 70.4799 161.166 70.1605 161.694 69.6113C162.223 69.062 162.512 68.3273 162.5 67.5668V39.6629L149.997 27.5ZM148.625 41.3214V30.3257L159.879 41.3214H148.625Z" fill="#38BF6E" fill-opacity="0.5"/>
<rect x="150.5" y="58.5" width="24" height="23" rx="11.5" fill="#6EB3DA"/>
<g clip-path="url(#clip0_339_122)">
<path d="M164.148 68.4419V72.9419H160.248V68.4419H156.998L162.198 62.4419L167.398 68.4419H164.148ZM155.698 74.4419H168.698V75.9419H155.698V74.4419Z" fill="white"/>
</g>
<path d="M48.6074 117.788C48.6074 118.385 48.4634 118.945 48.1754 119.468C47.898 119.991 47.4554 120.412 46.8474 120.732C46.25 121.052 45.4927 121.212 44.5754 121.212H42.7034V125.5H40.4634V114.332H44.5754C45.4394 114.332 46.1754 114.481 46.7834 114.78C47.3914 115.079 47.8447 115.489 48.1434 116.012C48.4527 116.535 48.6074 117.127 48.6074 117.788ZM44.4794 119.404C45.098 119.404 45.5567 119.265 45.8554 118.988C46.154 118.7 46.3034 118.3 46.3034 117.788C46.3034 116.7 45.6954 116.156 44.4794 116.156H42.7034V119.404H44.4794ZM51.3338 115.58C50.9391 115.58 50.6084 115.457 50.3418 115.212C50.0858 114.956 49.9578 114.641 49.9578 114.268C49.9578 113.895 50.0858 113.585 50.3418 113.34C50.6084 113.084 50.9391 112.956 51.3338 112.956C51.7284 112.956 52.0538 113.084 52.3098 113.34C52.5764 113.585 52.7098 113.895 52.7098 114.268C52.7098 114.641 52.5764 114.956 52.3098 115.212C52.0538 115.457 51.7284 115.58 51.3338 115.58ZM52.4378 116.636V125.5H50.1978V116.636H52.4378ZM56.8909 113.66V125.5H54.6509V113.66H56.8909ZM60.24 115.58C59.8453 115.58 59.5147 115.457 59.248 115.212C58.992 114.956 58.864 114.641 58.864 114.268C58.864 113.895 58.992 113.585 59.248 113.34C59.5147 113.084 59.8453 112.956 60.24 112.956C60.6347 112.956 60.96 113.084 61.216 113.34C61.4827 113.585 61.616 113.895 61.616 114.268C61.616 114.641 61.4827 114.956 61.216 115.212C60.96 115.457 60.6347 115.58 60.24 115.58ZM61.344 116.636V125.5H59.104V116.636H61.344ZM68.5491 116.508C69.2211 116.508 69.8185 116.657 70.3411 116.956C70.8638 117.244 71.2691 117.676 71.5571 118.252C71.8558 118.817 72.0051 119.5 72.0051 120.3V125.5H69.7651V120.604C69.7651 119.9 69.5891 119.361 69.2371 118.988C68.8851 118.604 68.4051 118.412 67.7971 118.412C67.1785 118.412 66.6878 118.604 66.3251 118.988C65.9731 119.361 65.7971 119.9 65.7971 120.604V125.5H63.5571V113.66H65.7971V117.74C66.0851 117.356 66.4691 117.057 66.9491 116.844C67.4291 116.62 67.9625 116.508 68.5491 116.508ZM82.0118 118.476H80.4598V125.5H78.1878V118.476H77.1798V116.636H78.1878V116.188C78.1878 115.1 78.4971 114.3 79.1158 113.788C79.7344 113.276 80.6678 113.036 81.9158 113.068V114.956C81.3718 114.945 80.9931 115.036 80.7798 115.228C80.5664 115.42 80.4598 115.767 80.4598 116.268V116.636H82.0118V118.476ZM84.5994 115.58C84.2047 115.58 83.874 115.457 83.6074 115.212C83.3514 114.956 83.2234 114.641 83.2234 114.268C83.2234 113.895 83.3514 113.585 83.6074 113.34C83.874 113.084 84.2047 112.956 84.5994 112.956C84.994 112.956 85.3194 113.084 85.5754 113.34C85.842 113.585 85.9754 113.895 85.9754 114.268C85.9754 114.641 85.842 114.956 85.5754 115.212C85.3194 115.457 84.994 115.58 84.5994 115.58ZM85.7034 116.636V125.5H83.4634V116.636H85.7034ZM90.1565 113.66V125.5H87.9165V113.66H90.1565ZM100.61 120.876C100.61 121.196 100.588 121.484 100.546 121.74H94.0656C94.119 122.38 94.343 122.881 94.7376 123.244C95.1323 123.607 95.6176 123.788 96.1936 123.788C97.0256 123.788 97.6176 123.431 97.9696 122.716H100.386C100.13 123.569 99.639 124.273 98.9136 124.828C98.1883 125.372 97.2976 125.644 96.2416 125.644C95.3883 125.644 94.6203 125.457 93.9376 125.084C93.2656 124.7 92.7376 124.161 92.3536 123.468C91.9803 122.775 91.7936 121.975 91.7936 121.068C91.7936 120.151 91.9803 119.345 92.3536 118.652C92.727 117.959 93.2496 117.425 93.9216 117.052C94.5936 116.679 95.367 116.492 96.2416 116.492C97.0843 116.492 97.8363 116.673 98.4976 117.036C99.1696 117.399 99.687 117.916 100.05 118.588C100.423 119.249 100.61 120.012 100.61 120.876ZM98.2896 120.236C98.279 119.66 98.071 119.201 97.6656 118.86C97.2603 118.508 96.7643 118.332 96.1776 118.332C95.623 118.332 95.1536 118.503 94.7696 118.844C94.3963 119.175 94.167 119.639 94.0816 120.236H98.2896ZM112.361 125.5L108.297 120.524V125.5H106.057V114.332H108.297V119.34L112.361 114.332H115.065L110.457 119.868L115.193 125.5H112.361ZM122.971 125.5L118.907 120.524V125.5H116.667V114.332H118.907V119.34L122.971 114.332H125.675L121.067 119.868L125.803 125.5H122.971ZM139.456 116.636V125.5H137.2V124.38C136.912 124.764 136.534 125.068 136.064 125.292C135.606 125.505 135.104 125.612 134.56 125.612C133.867 125.612 133.254 125.468 132.72 125.18C132.187 124.881 131.766 124.449 131.456 123.884C131.158 123.308 131.008 122.625 131.008 121.836V116.636H133.248V121.516C133.248 122.22 133.424 122.764 133.776 123.148C134.128 123.521 134.608 123.708 135.216 123.708C135.835 123.708 136.32 123.521 136.672 123.148C137.024 122.764 137.2 122.22 137.2 121.516V116.636H139.456ZM146.579 116.508C147.635 116.508 148.488 116.844 149.139 117.516C149.789 118.177 150.115 119.105 150.115 120.3V125.5H147.875V120.604C147.875 119.9 147.699 119.361 147.347 118.988C146.995 118.604 146.515 118.412 145.907 118.412C145.288 118.412 144.797 118.604 144.435 118.988C144.083 119.361 143.907 119.9 143.907 120.604V125.5H141.667V116.636H143.907V117.74C144.205 117.356 144.584 117.057 145.043 116.844C145.512 116.62 146.024 116.508 146.579 116.508ZM154.853 118.476V122.764C154.853 123.063 154.922 123.281 155.061 123.42C155.21 123.548 155.455 123.612 155.797 123.612H156.837V125.5H155.429C153.541 125.5 152.597 124.583 152.597 122.748V118.476H151.541V116.636H152.597V114.444H154.853V116.636H156.837V118.476H154.853ZM166.816 116.636V125.5H164.56V124.38C164.272 124.764 163.893 125.068 163.424 125.292C162.965 125.505 162.464 125.612 161.92 125.612C161.226 125.612 160.613 125.468 160.08 125.18C159.546 124.881 159.125 124.449 158.816 123.884C158.517 123.308 158.368 122.625 158.368 121.836V116.636H160.608V121.516C160.608 122.22 160.784 122.764 161.136 123.148C161.488 123.521 161.968 123.708 162.576 123.708C163.194 123.708 163.68 123.521 164.032 123.148C164.384 122.764 164.56 122.22 164.56 121.516V116.636H166.816ZM174.274 125.5L171.266 121.724V125.5H169.026V113.66H171.266V120.396L174.242 116.636H177.154L173.25 121.084L177.186 125.5H174.274ZM181.606 121.036C181.606 120.14 181.782 119.345 182.134 118.652C182.497 117.959 182.987 117.425 183.606 117.052C184.225 116.679 184.913 116.492 185.67 116.492C186.246 116.492 186.795 116.62 187.318 116.876C187.841 117.121 188.257 117.452 188.566 117.868V113.66H190.838V125.5H188.566V124.188C188.289 124.625 187.899 124.977 187.398 125.244C186.897 125.511 186.315 125.644 185.654 125.644C184.907 125.644 184.225 125.452 183.606 125.068C182.987 124.684 182.497 124.145 182.134 123.452C181.782 122.748 181.606 121.943 181.606 121.036ZM188.582 121.068C188.582 120.524 188.475 120.06 188.262 119.676C188.049 119.281 187.761 118.983 187.398 118.78C187.035 118.567 186.646 118.46 186.23 118.46C185.814 118.46 185.43 118.561 185.078 118.764C184.726 118.967 184.438 119.265 184.214 119.66C184.001 120.044 183.894 120.503 183.894 121.036C183.894 121.569 184.001 122.039 184.214 122.444C184.438 122.839 184.726 123.143 185.078 123.356C185.441 123.569 185.825 123.676 186.23 123.676C186.646 123.676 187.035 123.575 187.398 123.372C187.761 123.159 188.049 122.86 188.262 122.476C188.475 122.081 188.582 121.612 188.582 121.068ZM194.162 115.58C193.767 115.58 193.437 115.457 193.17 115.212C192.914 114.956 192.786 114.641 192.786 114.268C192.786 113.895 192.914 113.585 193.17 113.34C193.437 113.084 193.767 112.956 194.162 112.956C194.557 112.956 194.882 113.084 195.138 113.34C195.405 113.585 195.538 113.895 195.538 114.268C195.538 114.641 195.405 114.956 195.138 115.212C194.882 115.457 194.557 115.58 194.162 115.58ZM195.266 116.636V125.5H193.026V116.636H195.266ZM205.847 116.636V125.5H203.591V124.38C203.303 124.764 202.924 125.068 202.455 125.292C201.996 125.505 201.495 125.612 200.951 125.612C200.258 125.612 199.644 125.468 199.111 125.18C198.578 124.881 198.156 124.449 197.847 123.884C197.548 123.308 197.399 122.625 197.399 121.836V116.636H199.639V121.516C199.639 122.22 199.815 122.764 200.167 123.148C200.519 123.521 200.999 123.708 201.607 123.708C202.226 123.708 202.711 123.521 203.063 123.148C203.415 122.764 203.591 122.22 203.591 121.516V116.636H205.847ZM212.969 116.508C214.025 116.508 214.878 116.844 215.529 117.516C216.18 118.177 216.505 119.105 216.505 120.3V125.5H214.265V120.604C214.265 119.9 214.089 119.361 213.737 118.988C213.385 118.604 212.905 118.412 212.297 118.412C211.678 118.412 211.188 118.604 210.825 118.988C210.473 119.361 210.297 119.9 210.297 120.604V125.5H208.057V116.636H210.297V117.74C210.596 117.356 210.974 117.057 211.433 116.844C211.902 116.62 212.414 116.508 212.969 116.508ZM222.107 116.492C222.769 116.492 223.35 116.625 223.851 116.892C224.353 117.148 224.747 117.484 225.035 117.9V116.636H227.291V125.564C227.291 126.385 227.126 127.116 226.795 127.756C226.465 128.407 225.969 128.919 225.307 129.292C224.646 129.676 223.846 129.868 222.907 129.868C221.649 129.868 220.614 129.575 219.803 128.988C219.003 128.401 218.55 127.601 218.443 126.588H220.667C220.785 126.993 221.035 127.313 221.419 127.548C221.814 127.793 222.289 127.916 222.843 127.916C223.494 127.916 224.022 127.719 224.427 127.324C224.833 126.94 225.035 126.353 225.035 125.564V124.188C224.747 124.604 224.347 124.951 223.835 125.228C223.334 125.505 222.758 125.644 222.107 125.644C221.361 125.644 220.678 125.452 220.059 125.068C219.441 124.684 218.95 124.145 218.587 123.452C218.235 122.748 218.059 121.943 218.059 121.036C218.059 120.14 218.235 119.345 218.587 118.652C218.95 117.959 219.435 117.425 220.043 117.052C220.662 116.679 221.35 116.492 222.107 116.492ZM225.035 121.068C225.035 120.524 224.929 120.06 224.715 119.676C224.502 119.281 224.214 118.983 223.851 118.78C223.489 118.567 223.099 118.46 222.683 118.46C222.267 118.46 221.883 118.561 221.531 118.764C221.179 118.967 220.891 119.265 220.667 119.66C220.454 120.044 220.347 120.503 220.347 121.036C220.347 121.569 220.454 122.039 220.667 122.444C220.891 122.839 221.179 123.143 221.531 123.356C221.894 123.569 222.278 123.676 222.683 123.676C223.099 123.676 223.489 123.575 223.851 123.372C224.214 123.159 224.502 122.86 224.715 122.476C224.929 122.081 225.035 121.612 225.035 121.068ZM232.951 116.492C233.612 116.492 234.194 116.625 234.695 116.892C235.196 117.148 235.591 117.484 235.879 117.9V116.636H238.135V125.564C238.135 126.385 237.97 127.116 237.639 127.756C237.308 128.407 236.812 128.919 236.151 129.292C235.49 129.676 234.69 129.868 233.751 129.868C232.492 129.868 231.458 129.575 230.647 128.988C229.847 128.401 229.394 127.601 229.287 126.588H231.511C231.628 126.993 231.879 127.313 232.263 127.548C232.658 127.793 233.132 127.916 233.687 127.916C234.338 127.916 234.866 127.719 235.271 127.324C235.676 126.94 235.879 126.353 235.879 125.564V124.188C235.591 124.604 235.191 124.951 234.679 125.228C234.178 125.505 233.602 125.644 232.951 125.644C232.204 125.644 231.522 125.452 230.903 125.068C230.284 124.684 229.794 124.145 229.431 123.452C229.079 122.748 228.903 121.943 228.903 121.036C228.903 120.14 229.079 119.345 229.431 118.652C229.794 117.959 230.279 117.425 230.887 117.052C231.506 116.679 232.194 116.492 232.951 116.492ZM235.879 121.068C235.879 120.524 235.772 120.06 235.559 119.676C235.346 119.281 235.058 118.983 234.695 118.78C234.332 118.567 233.943 118.46 233.527 118.46C233.111 118.46 232.727 118.561 232.375 118.764C232.023 118.967 231.735 119.265 231.511 119.66C231.298 120.044 231.191 120.503 231.191 121.036C231.191 121.569 231.298 122.039 231.511 122.444C231.735 122.839 232.023 123.143 232.375 123.356C232.738 123.569 233.122 123.676 233.527 123.676C233.943 123.676 234.332 123.575 234.695 123.372C235.058 123.159 235.346 122.86 235.559 122.476C235.772 122.081 235.879 121.612 235.879 121.068ZM239.747 121.036C239.747 120.14 239.923 119.345 240.275 118.652C240.637 117.959 241.123 117.425 241.731 117.052C242.349 116.679 243.037 116.492 243.795 116.492C244.456 116.492 245.032 116.625 245.523 116.892C246.024 117.159 246.424 117.495 246.723 117.9V116.636H248.979V125.5H246.723V124.204C246.435 124.62 246.035 124.967 245.523 125.244C245.021 125.511 244.44 125.644 243.779 125.644C243.032 125.644 242.349 125.452 241.731 125.068C241.123 124.684 240.637 124.145 240.275 123.452C239.923 122.748 239.747 121.943 239.747 121.036ZM246.723 121.068C246.723 120.524 246.616 120.06 246.403 119.676C246.189 119.281 245.901 118.983 245.539 118.78C245.176 118.567 244.787 118.46 244.371 118.46C243.955 118.46 243.571 118.561 243.219 118.764C242.867 118.967 242.579 119.265 242.355 119.66C242.141 120.044 242.035 120.503 242.035 121.036C242.035 121.569 242.141 122.039 242.355 122.444C242.579 122.839 242.867 123.143 243.219 123.356C243.581 123.569 243.965 123.676 244.371 123.676C244.787 123.676 245.176 123.575 245.539 123.372C245.901 123.159 246.189 122.86 246.403 122.476C246.616 122.081 246.723 121.612 246.723 121.068ZM256.159 116.508C256.831 116.508 257.428 116.657 257.951 116.956C258.473 117.244 258.879 117.676 259.167 118.252C259.465 118.817 259.615 119.5 259.615 120.3V125.5H257.375V120.604C257.375 119.9 257.199 119.361 256.847 118.988C256.495 118.604 256.015 118.412 255.407 118.412C254.788 118.412 254.297 118.604 253.935 118.988C253.583 119.361 253.407 119.9 253.407 120.604V125.5H251.167V113.66H253.407V117.74C253.695 117.356 254.079 117.057 254.559 116.844C255.039 116.62 255.572 116.508 256.159 116.508Z" fill="#3B8659"/>
<path d="M80.5653 152.104C79.6506 151.227 78.946 150.111 78.4513 148.758C77.966 147.405 77.7233 145.953 77.7233 144.404C77.7233 142.817 77.9846 141.319 78.5073 139.91C79.0393 138.501 79.8186 137.339 80.8453 136.424H82.4973V136.578C81.424 137.567 80.6166 138.753 80.0753 140.134C79.534 141.515 79.2633 142.939 79.2633 144.404C79.2633 145.813 79.5153 147.176 80.0193 148.492C80.5233 149.808 81.256 150.961 82.2173 151.95V152.104H80.5653ZM89.6539 139.77V141.072H85.5239V143.942H88.7439V145.244H85.5239V149.5H83.9279V139.77H89.6539ZM94.479 149.626C93.751 149.626 93.093 149.463 92.505 149.136C91.917 148.8 91.455 148.333 91.119 147.736C90.783 147.129 90.615 146.429 90.615 145.636C90.615 144.852 90.7877 144.157 91.133 143.55C91.4783 142.943 91.9497 142.477 92.547 142.15C93.1443 141.823 93.8117 141.66 94.549 141.66C95.2863 141.66 95.9537 141.823 96.551 142.15C97.1483 142.477 97.6197 142.943 97.965 143.55C98.3103 144.157 98.483 144.852 98.483 145.636C98.483 146.42 98.3057 147.115 97.951 147.722C97.5963 148.329 97.111 148.8 96.495 149.136C95.8883 149.463 95.2163 149.626 94.479 149.626ZM94.479 148.24C94.8897 148.24 95.2723 148.142 95.627 147.946C95.991 147.75 96.285 147.456 96.509 147.064C96.733 146.672 96.845 146.196 96.845 145.636C96.845 145.076 96.7377 144.605 96.523 144.222C96.3083 143.83 96.0237 143.536 95.669 143.34C95.3143 143.144 94.9317 143.046 94.521 143.046C94.1103 143.046 93.7277 143.144 93.373 143.34C93.0277 143.536 92.7523 143.83 92.547 144.222C92.3417 144.605 92.239 145.076 92.239 145.636C92.239 146.467 92.449 147.111 92.869 147.568C93.2983 148.016 93.835 148.24 94.479 148.24ZM101.657 142.906C101.89 142.514 102.198 142.211 102.581 141.996C102.973 141.772 103.435 141.66 103.967 141.66V143.312H103.561C102.935 143.312 102.459 143.471 102.133 143.788C101.815 144.105 101.657 144.656 101.657 145.44V149.5H100.061V141.786H101.657V142.906ZM114.772 141.66C115.378 141.66 115.92 141.786 116.396 142.038C116.881 142.29 117.259 142.663 117.53 143.158C117.81 143.653 117.95 144.25 117.95 144.95V149.5H116.368V145.188C116.368 144.497 116.195 143.97 115.85 143.606C115.504 143.233 115.033 143.046 114.436 143.046C113.838 143.046 113.362 143.233 113.008 143.606C112.662 143.97 112.49 144.497 112.49 145.188V149.5H110.908V145.188C110.908 144.497 110.735 143.97 110.39 143.606C110.044 143.233 109.573 143.046 108.976 143.046C108.378 143.046 107.902 143.233 107.548 143.606C107.202 143.97 107.03 144.497 107.03 145.188V149.5H105.434V141.786H107.03V142.668C107.291 142.351 107.622 142.103 108.024 141.926C108.425 141.749 108.854 141.66 109.312 141.66C109.928 141.66 110.478 141.791 110.964 142.052C111.449 142.313 111.822 142.691 112.084 143.186C112.317 142.719 112.681 142.351 113.176 142.08C113.67 141.8 114.202 141.66 114.772 141.66ZM119.449 145.608C119.449 144.833 119.607 144.147 119.925 143.55C120.251 142.953 120.69 142.491 121.241 142.164C121.801 141.828 122.417 141.66 123.089 141.66C123.695 141.66 124.223 141.781 124.671 142.024C125.128 142.257 125.492 142.551 125.763 142.906V141.786H127.373V149.5H125.763V148.352C125.492 148.716 125.123 149.019 124.657 149.262C124.19 149.505 123.658 149.626 123.061 149.626C122.398 149.626 121.791 149.458 121.241 149.122C120.69 148.777 120.251 148.301 119.925 147.694C119.607 147.078 119.449 146.383 119.449 145.608ZM125.763 145.636C125.763 145.104 125.651 144.642 125.427 144.25C125.212 143.858 124.927 143.559 124.573 143.354C124.218 143.149 123.835 143.046 123.425 143.046C123.014 143.046 122.631 143.149 122.277 143.354C121.922 143.55 121.633 143.844 121.409 144.236C121.194 144.619 121.087 145.076 121.087 145.608C121.087 146.14 121.194 146.607 121.409 147.008C121.633 147.409 121.922 147.717 122.277 147.932C122.641 148.137 123.023 148.24 123.425 148.24C123.835 148.24 124.218 148.137 124.573 147.932C124.927 147.727 125.212 147.428 125.427 147.036C125.651 146.635 125.763 146.168 125.763 145.636ZM131.331 143.088V147.358C131.331 147.647 131.396 147.857 131.527 147.988C131.667 148.109 131.9 148.17 132.227 148.17H133.207V149.5H131.947C131.228 149.5 130.678 149.332 130.295 148.996C129.912 148.66 129.721 148.114 129.721 147.358V143.088H128.811V141.786H129.721V139.868H131.331V141.786H133.207V143.088H131.331ZM141.549 143.088H140.121V149.5H138.511V143.088H137.601V141.786H138.511V141.24C138.511 140.353 138.744 139.709 139.211 139.308C139.687 138.897 140.429 138.692 141.437 138.692V140.022C140.951 140.022 140.611 140.115 140.415 140.302C140.219 140.479 140.121 140.792 140.121 141.24V141.786H141.549V143.088ZM143.775 140.764C143.486 140.764 143.243 140.666 143.047 140.47C142.851 140.274 142.753 140.031 142.753 139.742C142.753 139.453 142.851 139.21 143.047 139.014C143.243 138.818 143.486 138.72 143.775 138.72C144.055 138.72 144.293 138.818 144.489 139.014C144.685 139.21 144.783 139.453 144.783 139.742C144.783 140.031 144.685 140.274 144.489 140.47C144.293 140.666 144.055 140.764 143.775 140.764ZM144.559 141.786V149.5H142.963V141.786H144.559ZM148.25 139.14V149.5H146.654V139.14H148.25ZM157.416 145.454C157.416 145.743 157.397 146.005 157.36 146.238H151.466C151.513 146.854 151.741 147.349 152.152 147.722C152.563 148.095 153.067 148.282 153.664 148.282C154.523 148.282 155.129 147.923 155.484 147.204H157.206C156.973 147.913 156.548 148.497 155.932 148.954C155.325 149.402 154.569 149.626 153.664 149.626C152.927 149.626 152.264 149.463 151.676 149.136C151.097 148.8 150.64 148.333 150.304 147.736C149.977 147.129 149.814 146.429 149.814 145.636C149.814 144.843 149.973 144.147 150.29 143.55C150.617 142.943 151.069 142.477 151.648 142.15C152.236 141.823 152.908 141.66 153.664 141.66C154.392 141.66 155.041 141.819 155.61 142.136C156.179 142.453 156.623 142.901 156.94 143.48C157.257 144.049 157.416 144.707 157.416 145.454ZM155.75 144.95C155.741 144.362 155.531 143.891 155.12 143.536C154.709 143.181 154.201 143.004 153.594 143.004C153.043 143.004 152.572 143.181 152.18 143.536C151.788 143.881 151.555 144.353 151.48 144.95H155.75ZM159.631 149.598C159.341 149.598 159.099 149.5 158.903 149.304C158.707 149.108 158.609 148.865 158.609 148.576C158.609 148.287 158.707 148.044 158.903 147.848C159.099 147.652 159.341 147.554 159.631 147.554C159.911 147.554 160.149 147.652 160.345 147.848C160.541 148.044 160.639 148.287 160.639 148.576C160.639 148.865 160.541 149.108 160.345 149.304C160.149 149.5 159.911 149.598 159.631 149.598ZM159.631 143.718C159.341 143.718 159.099 143.62 158.903 143.424C158.707 143.228 158.609 142.985 158.609 142.696C158.609 142.407 158.707 142.164 158.903 141.968C159.099 141.772 159.341 141.674 159.631 141.674C159.911 141.674 160.149 141.772 160.345 141.968C160.541 142.164 160.639 142.407 160.639 142.696C160.639 142.985 160.541 143.228 160.345 143.424C160.149 143.62 159.911 143.718 159.631 143.718ZM166.867 140.764C166.578 140.764 166.335 140.666 166.139 140.47C165.943 140.274 165.845 140.031 165.845 139.742C165.845 139.453 165.943 139.21 166.139 139.014C166.335 138.818 166.578 138.72 166.867 138.72C167.147 138.72 167.385 138.818 167.581 139.014C167.777 139.21 167.875 139.453 167.875 139.742C167.875 140.031 167.777 140.274 167.581 140.47C167.385 140.666 167.147 140.764 166.867 140.764ZM167.651 151.012C167.651 151.768 167.46 152.314 167.077 152.65C166.704 152.995 166.158 153.168 165.439 153.168H164.613V151.824H165.159C165.486 151.824 165.714 151.759 165.845 151.628C165.985 151.507 166.055 151.301 166.055 151.012V141.786H167.651V151.012ZM171.342 142.92C171.613 142.565 171.982 142.267 172.448 142.024C172.915 141.781 173.442 141.66 174.03 141.66C174.702 141.66 175.314 141.828 175.864 142.164C176.424 142.491 176.863 142.953 177.18 143.55C177.498 144.147 177.656 144.833 177.656 145.608C177.656 146.383 177.498 147.078 177.18 147.694C176.863 148.301 176.424 148.777 175.864 149.122C175.314 149.458 174.702 149.626 174.03 149.626C173.442 149.626 172.92 149.509 172.462 149.276C172.005 149.033 171.632 148.735 171.342 148.38V153.168H169.746V141.786H171.342V142.92ZM176.032 145.608C176.032 145.076 175.92 144.619 175.696 144.236C175.482 143.844 175.192 143.55 174.828 143.354C174.474 143.149 174.091 143.046 173.68 143.046C173.279 143.046 172.896 143.149 172.532 143.354C172.178 143.559 171.888 143.858 171.664 144.25C171.45 144.642 171.342 145.104 171.342 145.636C171.342 146.168 171.45 146.635 171.664 147.036C171.888 147.428 172.178 147.727 172.532 147.932C172.896 148.137 173.279 148.24 173.68 148.24C174.091 148.24 174.474 148.137 174.828 147.932C175.192 147.717 175.482 147.409 175.696 147.008C175.92 146.607 176.032 146.14 176.032 145.608ZM182.343 141.66C182.94 141.66 183.467 141.781 183.925 142.024C184.391 142.257 184.755 142.551 185.017 142.906V141.786H186.627V149.626C186.627 150.335 186.477 150.965 186.179 151.516C185.88 152.076 185.446 152.515 184.877 152.832C184.317 153.149 183.645 153.308 182.861 153.308C181.815 153.308 180.947 153.061 180.257 152.566C179.566 152.081 179.174 151.418 179.081 150.578H180.663C180.784 150.979 181.041 151.301 181.433 151.544C181.834 151.796 182.31 151.922 182.861 151.922C183.505 151.922 184.023 151.726 184.415 151.334C184.816 150.942 185.017 150.373 185.017 149.626V148.338C184.746 148.702 184.377 149.01 183.911 149.262C183.453 149.505 182.931 149.626 182.343 149.626C181.671 149.626 181.055 149.458 180.495 149.122C179.944 148.777 179.505 148.301 179.179 147.694C178.861 147.078 178.703 146.383 178.703 145.608C178.703 144.833 178.861 144.147 179.179 143.55C179.505 142.953 179.944 142.491 180.495 142.164C181.055 141.828 181.671 141.66 182.343 141.66ZM185.017 145.636C185.017 145.104 184.905 144.642 184.681 144.25C184.466 143.858 184.181 143.559 183.827 143.354C183.472 143.149 183.089 143.046 182.679 143.046C182.268 143.046 181.885 143.149 181.531 143.354C181.176 143.55 180.887 143.844 180.663 144.236C180.448 144.619 180.341 145.076 180.341 145.608C180.341 146.14 180.448 146.607 180.663 147.008C180.887 147.409 181.176 147.717 181.531 147.932C181.895 148.137 182.277 148.24 182.679 148.24C183.089 148.24 183.472 148.137 183.827 147.932C184.181 147.727 184.466 147.428 184.681 147.036C184.905 146.635 185.017 146.168 185.017 145.636ZM190.473 147.582L188.779 151.446H187.743L188.737 147.582H190.473ZM196.316 140.764C196.027 140.764 195.784 140.666 195.588 140.47C195.392 140.274 195.294 140.031 195.294 139.742C195.294 139.453 195.392 139.21 195.588 139.014C195.784 138.818 196.027 138.72 196.316 138.72C196.596 138.72 196.834 138.818 197.03 139.014C197.226 139.21 197.324 139.453 197.324 139.742C197.324 140.031 197.226 140.274 197.03 140.47C196.834 140.666 196.596 140.764 196.316 140.764ZM197.1 151.012C197.1 151.768 196.909 152.314 196.526 152.65C196.153 152.995 195.607 153.168 194.888 153.168H194.062V151.824H194.608C194.935 151.824 195.163 151.759 195.294 151.628C195.434 151.507 195.504 151.301 195.504 151.012V141.786H197.1V151.012ZM200.792 142.92C201.062 142.565 201.431 142.267 201.898 142.024C202.364 141.781 202.892 141.66 203.48 141.66C204.152 141.66 204.763 141.828 205.314 142.164C205.874 142.491 206.312 142.953 206.63 143.55C206.947 144.147 207.106 144.833 207.106 145.608C207.106 146.383 206.947 147.078 206.63 147.694C206.312 148.301 205.874 148.777 205.314 149.122C204.763 149.458 204.152 149.626 203.48 149.626C202.892 149.626 202.369 149.509 201.912 149.276C201.454 149.033 201.081 148.735 200.792 148.38V153.168H199.196V141.786H200.792V142.92ZM205.482 145.608C205.482 145.076 205.37 144.619 205.146 144.236C204.931 143.844 204.642 143.55 204.278 143.354C203.923 143.149 203.54 143.046 203.13 143.046C202.728 143.046 202.346 143.149 201.982 143.354C201.627 143.559 201.338 143.858 201.114 144.25C200.899 144.642 200.792 145.104 200.792 145.636C200.792 146.168 200.899 146.635 201.114 147.036C201.338 147.428 201.627 147.727 201.982 147.932C202.346 148.137 202.728 148.24 203.13 148.24C203.54 148.24 203.923 148.137 204.278 147.932C204.642 147.717 204.931 147.409 205.146 147.008C205.37 146.607 205.482 146.14 205.482 145.608ZM211.792 141.66C212.389 141.66 212.916 141.781 213.374 142.024C213.84 142.257 214.204 142.551 214.466 142.906V141.786H216.076V149.626C216.076 150.335 215.926 150.965 215.628 151.516C215.329 152.076 214.895 152.515 214.326 152.832C213.766 153.149 213.094 153.308 212.31 153.308C211.264 153.308 210.396 153.061 209.706 152.566C209.015 152.081 208.623 151.418 208.53 150.578H210.112C210.233 150.979 210.49 151.301 210.882 151.544C211.283 151.796 211.759 151.922 212.31 151.922C212.954 151.922 213.472 151.726 213.864 151.334C214.265 150.942 214.466 150.373 214.466 149.626V148.338C214.195 148.702 213.826 149.01 213.36 149.262C212.902 149.505 212.38 149.626 211.792 149.626C211.12 149.626 210.504 149.458 209.944 149.122C209.393 148.777 208.954 148.301 208.628 147.694C208.31 147.078 208.152 146.383 208.152 145.608C208.152 144.833 208.31 144.147 208.628 143.55C208.954 142.953 209.393 142.491 209.944 142.164C210.504 141.828 211.12 141.66 211.792 141.66ZM214.466 145.636C214.466 145.104 214.354 144.642 214.13 144.25C213.915 143.858 213.63 143.559 213.276 143.354C212.921 143.149 212.538 143.046 212.128 143.046C211.717 143.046 211.334 143.149 210.98 143.354C210.625 143.55 210.336 143.844 210.112 144.236C209.897 144.619 209.79 145.076 209.79 145.608C209.79 146.14 209.897 146.607 210.112 147.008C210.336 147.409 210.625 147.717 210.98 147.932C211.344 148.137 211.726 148.24 212.128 148.24C212.538 148.24 212.921 148.137 213.276 147.932C213.63 147.727 213.915 147.428 214.13 147.036C214.354 146.635 214.466 146.168 214.466 145.636ZM217.78 152.104V151.95C218.741 150.961 219.474 149.808 219.978 148.492C220.482 147.176 220.734 145.813 220.734 144.404C220.734 142.939 220.463 141.515 219.922 140.134C219.381 138.753 218.573 137.567 217.5 136.578V136.424H219.152C220.179 137.339 220.953 138.501 221.476 139.91C222.008 141.319 222.274 142.817 222.274 144.404C222.274 145.953 222.027 147.405 221.532 148.758C221.047 150.111 220.347 151.227 219.432 152.104H217.78Z" fill="#C4C4C4"/>
<rect x="0.75" y="0.75" width="298.5" height="183.5" rx="4.25" stroke="#38BF6E" stroke-width="1.5" stroke-dasharray="10 10"/>
<defs>
<clipPath id="clip0_339_122">
<rect width="13" height="15" fill="white" transform="translate(155.698 61.3706)"/>
</clipPath>
</defs>
</svg>
