<svg width="300" height="185" viewBox="0 0 300 185" fill="none" xmlns="http://www.w3.org/2000/svg">
<path d="M149.997 32.5H128.322C127.558 32.5201 126.834 32.8395 126.306 33.3887C125.777 33.938 125.488 34.6727 125.5 35.4332V72.5668C125.488 73.3273 125.777 74.062 126.306 74.6113C126.834 75.1605 127.558 75.4799 128.322 75.5H159.678C160.442 75.4799 161.166 75.1605 161.694 74.6113C162.223 74.062 162.512 73.3273 162.5 72.5668V44.6629L149.997 32.5ZM148.625 46.3214V35.3257L159.879 46.3214H148.625Z" fill="#59A7D3" fill-opacity="0.5"/>
<rect x="150.5" y="63.5" width="24" height="23" rx="11.5" fill="#6EB3DA"/>
<g clip-path="url(#clip0_339_146)">
<path d="M164.148 73.4419V77.9419H160.248V73.4419H156.998L162.198 67.4419L167.398 73.4419H164.148ZM155.698 79.4419H168.698V80.9419H155.698V79.4419Z" fill="white"/>
</g>
<path d="M26.3183 112.788C26.3183 113.385 26.1743 113.945 25.8863 114.468C25.609 114.991 25.1663 115.412 24.5583 115.732C23.961 116.052 23.2036 116.212 22.2863 116.212H20.4143V120.5H18.1743V109.332H22.2863C23.1503 109.332 23.8863 109.481 24.4943 109.78C25.1023 110.079 25.5556 110.489 25.8543 111.012C26.1636 111.535 26.3183 112.127 26.3183 112.788ZM22.1903 114.404C22.809 114.404 23.2676 114.265 23.5663 113.988C23.865 113.7 24.0143 113.3 24.0143 112.788C24.0143 111.7 23.4063 111.156 22.1903 111.156H20.4143V114.404H22.1903ZM29.0447 110.58C28.65 110.58 28.3194 110.457 28.0527 110.212C27.7967 109.956 27.6687 109.641 27.6687 109.268C27.6687 108.895 27.7967 108.585 28.0527 108.34C28.3194 108.084 28.65 107.956 29.0447 107.956C29.4394 107.956 29.7647 108.084 30.0207 108.34C30.2874 108.585 30.4207 108.895 30.4207 109.268C30.4207 109.641 30.2874 109.956 30.0207 110.212C29.7647 110.457 29.4394 110.58 29.0447 110.58ZM30.1487 111.636V120.5H27.9087V111.636H30.1487ZM34.6018 108.66V120.5H32.3618V108.66H34.6018ZM37.9509 110.58C37.5563 110.58 37.2256 110.457 36.9589 110.212C36.7029 109.956 36.5749 109.641 36.5749 109.268C36.5749 108.895 36.7029 108.585 36.9589 108.34C37.2256 108.084 37.5563 107.956 37.9509 107.956C38.3456 107.956 38.6709 108.084 38.9269 108.34C39.1936 108.585 39.3269 108.895 39.3269 109.268C39.3269 109.641 39.1936 109.956 38.9269 110.212C38.6709 110.457 38.3456 110.58 37.9509 110.58ZM39.0549 111.636V120.5H36.8149V111.636H39.0549ZM46.2601 111.508C46.9321 111.508 47.5294 111.657 48.0521 111.956C48.5747 112.244 48.9801 112.676 49.2681 113.252C49.5667 113.817 49.7161 114.5 49.7161 115.3V120.5H47.4761V115.604C47.4761 114.9 47.3001 114.361 46.9481 113.988C46.5961 113.604 46.1161 113.412 45.5081 113.412C44.8894 113.412 44.3987 113.604 44.0361 113.988C43.6841 114.361 43.5081 114.9 43.5081 115.604V120.5H41.2681V108.66H43.5081V112.74C43.7961 112.356 44.1801 112.057 44.6601 111.844C45.1401 111.62 45.6734 111.508 46.2601 111.508ZM59.7227 113.476H58.1707V120.5H55.8987V113.476H54.8907V111.636H55.8987V111.188C55.8987 110.1 56.208 109.3 56.8267 108.788C57.4454 108.276 58.3787 108.036 59.6267 108.068V109.956C59.0827 109.945 58.704 110.036 58.4907 110.228C58.2774 110.42 58.1707 110.767 58.1707 111.268V111.636H59.7227V113.476ZM62.3103 110.58C61.9156 110.58 61.585 110.457 61.3183 110.212C61.0623 109.956 60.9343 109.641 60.9343 109.268C60.9343 108.895 61.0623 108.585 61.3183 108.34C61.585 108.084 61.9156 107.956 62.3103 107.956C62.705 107.956 63.0303 108.084 63.2863 108.34C63.553 108.585 63.6863 108.895 63.6863 109.268C63.6863 109.641 63.553 109.956 63.2863 110.212C63.0303 110.457 62.705 110.58 62.3103 110.58ZM63.4143 111.636V120.5H61.1743V111.636H63.4143ZM67.8674 108.66V120.5H65.6274V108.66H67.8674ZM78.3206 115.876C78.3206 116.196 78.2992 116.484 78.2566 116.74H71.7766C71.8299 117.38 72.0539 117.881 72.4486 118.244C72.8432 118.607 73.3286 118.788 73.9046 118.788C74.7366 118.788 75.3286 118.431 75.6806 117.716H78.0966C77.8406 118.569 77.3499 119.273 76.6246 119.828C75.8992 120.372 75.0086 120.644 73.9526 120.644C73.0992 120.644 72.3312 120.457 71.6486 120.084C70.9766 119.7 70.4486 119.161 70.0646 118.468C69.6912 117.775 69.5046 116.975 69.5046 116.068C69.5046 115.151 69.6912 114.345 70.0646 113.652C70.4379 112.959 70.9606 112.425 71.6326 112.052C72.3046 111.679 73.0779 111.492 73.9526 111.492C74.7952 111.492 75.5472 111.673 76.2086 112.036C76.8806 112.399 77.3979 112.916 77.7606 113.588C78.1339 114.249 78.3206 115.012 78.3206 115.876ZM76.0006 115.236C75.9899 114.66 75.7819 114.201 75.3766 113.86C74.9712 113.508 74.4752 113.332 73.8886 113.332C73.3339 113.332 72.8646 113.503 72.4806 113.844C72.1072 114.175 71.8779 114.639 71.7926 115.236H76.0006ZM93.3201 120.5H91.0801L86.0081 112.836V120.5H83.7681V109.316H86.0081L91.0801 116.996V109.316H93.3201V120.5ZM97.7737 109.332V120.5H95.5337V109.332H97.7737ZM106.323 114.772C106.952 114.889 107.469 115.204 107.875 115.716C108.28 116.228 108.483 116.815 108.483 117.476C108.483 118.073 108.333 118.601 108.035 119.06C107.747 119.508 107.325 119.86 106.771 120.116C106.216 120.372 105.56 120.5 104.803 120.5H99.9868V109.332H104.595C105.352 109.332 106.003 109.455 106.547 109.7C107.101 109.945 107.517 110.287 107.795 110.724C108.083 111.161 108.227 111.657 108.227 112.212C108.227 112.863 108.051 113.407 107.699 113.844C107.357 114.281 106.899 114.591 106.323 114.772ZM102.227 113.94H104.275C104.808 113.94 105.219 113.823 105.507 113.588C105.795 113.343 105.939 112.996 105.939 112.548C105.939 112.1 105.795 111.753 105.507 111.508C105.219 111.263 104.808 111.14 104.275 111.14H102.227V113.94ZM104.483 118.676C105.027 118.676 105.448 118.548 105.747 118.292C106.056 118.036 106.211 117.673 106.211 117.204C106.211 116.724 106.051 116.351 105.731 116.084C105.411 115.807 104.979 115.668 104.435 115.668H102.227V118.676H104.483ZM116.268 105.348L111.948 123.396H109.756L114.076 105.348H116.268ZM121.905 120.612C121.127 120.612 120.423 120.479 119.793 120.212C119.175 119.945 118.684 119.561 118.321 119.06C117.959 118.559 117.772 117.967 117.761 117.284H120.161C120.193 117.743 120.353 118.105 120.641 118.372C120.94 118.639 121.345 118.772 121.857 118.772C122.38 118.772 122.791 118.649 123.089 118.404C123.388 118.148 123.537 117.817 123.537 117.412C123.537 117.081 123.436 116.809 123.233 116.596C123.031 116.383 122.775 116.217 122.465 116.1C122.167 115.972 121.751 115.833 121.217 115.684C120.492 115.471 119.9 115.263 119.441 115.06C118.993 114.847 118.604 114.532 118.273 114.116C117.953 113.689 117.793 113.124 117.793 112.42C117.793 111.759 117.959 111.183 118.289 110.692C118.62 110.201 119.084 109.828 119.681 109.572C120.279 109.305 120.961 109.172 121.729 109.172C122.881 109.172 123.815 109.455 124.529 110.02C125.255 110.575 125.655 111.353 125.729 112.356H123.265C123.244 111.972 123.079 111.657 122.769 111.412C122.471 111.156 122.071 111.028 121.569 111.028C121.132 111.028 120.78 111.14 120.513 111.364C120.257 111.588 120.129 111.913 120.129 112.34C120.129 112.639 120.225 112.889 120.417 113.092C120.62 113.284 120.865 113.444 121.153 113.572C121.452 113.689 121.868 113.828 122.401 113.988C123.127 114.201 123.719 114.415 124.177 114.628C124.636 114.841 125.031 115.161 125.361 115.588C125.692 116.015 125.857 116.575 125.857 117.268C125.857 117.865 125.703 118.42 125.393 118.932C125.084 119.444 124.631 119.855 124.033 120.164C123.436 120.463 122.727 120.612 121.905 120.612ZM134.103 120.5L130.039 115.524V120.5H127.799V109.332H130.039V114.34L134.103 109.332H136.807L132.199 114.868L136.935 120.5H134.103ZM140.617 109.332V116.244C140.617 117.001 140.814 117.583 141.209 117.988C141.603 118.383 142.158 118.58 142.873 118.58C143.598 118.58 144.158 118.383 144.553 117.988C144.947 117.583 145.145 117.001 145.145 116.244V109.332H147.401V116.228C147.401 117.177 147.193 117.983 146.777 118.644C146.371 119.295 145.822 119.785 145.129 120.116C144.446 120.447 143.683 120.612 142.841 120.612C142.009 120.612 141.251 120.447 140.569 120.116C139.897 119.785 139.363 119.295 138.969 118.644C138.574 117.983 138.377 117.177 138.377 116.228V109.332H140.617ZM161.745 111.636V120.5H159.489V119.38C159.201 119.764 158.823 120.068 158.353 120.292C157.895 120.505 157.393 120.612 156.849 120.612C156.156 120.612 155.543 120.468 155.009 120.18C154.476 119.881 154.055 119.449 153.745 118.884C153.447 118.308 153.297 117.625 153.297 116.836V111.636H155.537V116.516C155.537 117.22 155.713 117.764 156.065 118.148C156.417 118.521 156.897 118.708 157.505 118.708C158.124 118.708 158.609 118.521 158.961 118.148C159.313 117.764 159.489 117.22 159.489 116.516V111.636H161.745ZM168.868 111.508C169.924 111.508 170.777 111.844 171.428 112.516C172.078 113.177 172.404 114.105 172.404 115.3V120.5H170.164V115.604C170.164 114.9 169.988 114.361 169.636 113.988C169.284 113.604 168.804 113.412 168.196 113.412C167.577 113.412 167.086 113.604 166.724 113.988C166.372 114.361 166.196 114.9 166.196 115.604V120.5H163.956V111.636H166.196V112.74C166.494 112.356 166.873 112.057 167.332 111.844C167.801 111.62 168.313 111.508 168.868 111.508ZM177.142 113.476V117.764C177.142 118.063 177.211 118.281 177.35 118.42C177.499 118.548 177.744 118.612 178.086 118.612H179.126V120.5H177.718C175.83 120.5 174.886 119.583 174.886 117.748V113.476H173.83V111.636H174.886V109.444H177.142V111.636H179.126V113.476H177.142ZM189.105 111.636V120.5H186.849V119.38C186.561 119.764 186.182 120.068 185.713 120.292C185.254 120.505 184.753 120.612 184.209 120.612C183.515 120.612 182.902 120.468 182.369 120.18C181.835 119.881 181.414 119.449 181.105 118.884C180.806 118.308 180.657 117.625 180.657 116.836V111.636H182.897V116.516C182.897 117.22 183.073 117.764 183.425 118.148C183.777 118.521 184.257 118.708 184.865 118.708C185.483 118.708 185.969 118.521 186.321 118.148C186.673 117.764 186.849 117.22 186.849 116.516V111.636H189.105ZM196.563 120.5L193.555 116.724V120.5H191.315V108.66H193.555V115.396L196.531 111.636H199.443L195.539 116.084L199.475 120.5H196.563ZM203.895 116.036C203.895 115.14 204.071 114.345 204.423 113.652C204.786 112.959 205.277 112.425 205.895 112.052C206.514 111.679 207.202 111.492 207.959 111.492C208.535 111.492 209.085 111.62 209.607 111.876C210.13 112.121 210.546 112.452 210.855 112.868V108.66H213.127V120.5H210.855V119.188C210.578 119.625 210.189 119.977 209.687 120.244C209.186 120.511 208.605 120.644 207.943 120.644C207.197 120.644 206.514 120.452 205.895 120.068C205.277 119.684 204.786 119.145 204.423 118.452C204.071 117.748 203.895 116.943 203.895 116.036ZM210.871 116.068C210.871 115.524 210.765 115.06 210.551 114.676C210.338 114.281 210.05 113.983 209.687 113.78C209.325 113.567 208.935 113.46 208.519 113.46C208.103 113.46 207.719 113.561 207.367 113.764C207.015 113.967 206.727 114.265 206.503 114.66C206.29 115.044 206.183 115.503 206.183 116.036C206.183 116.569 206.29 117.039 206.503 117.444C206.727 117.839 207.015 118.143 207.367 118.356C207.73 118.569 208.114 118.676 208.519 118.676C208.935 118.676 209.325 118.575 209.687 118.372C210.05 118.159 210.338 117.86 210.551 117.476C210.765 117.081 210.871 116.612 210.871 116.068ZM216.451 110.58C216.056 110.58 215.726 110.457 215.459 110.212C215.203 109.956 215.075 109.641 215.075 109.268C215.075 108.895 215.203 108.585 215.459 108.34C215.726 108.084 216.056 107.956 216.451 107.956C216.846 107.956 217.171 108.084 217.427 108.34C217.694 108.585 217.827 108.895 217.827 109.268C217.827 109.641 217.694 109.956 217.427 110.212C217.171 110.457 216.846 110.58 216.451 110.58ZM217.555 111.636V120.5H215.315V111.636H217.555ZM228.136 111.636V120.5H225.88V119.38C225.592 119.764 225.213 120.068 224.744 120.292C224.285 120.505 223.784 120.612 223.24 120.612C222.547 120.612 221.933 120.468 221.4 120.18C220.867 119.881 220.445 119.449 220.136 118.884C219.837 118.308 219.688 117.625 219.688 116.836V111.636H221.928V116.516C221.928 117.22 222.104 117.764 222.456 118.148C222.808 118.521 223.288 118.708 223.896 118.708C224.515 118.708 225 118.521 225.352 118.148C225.704 117.764 225.88 117.22 225.88 116.516V111.636H228.136ZM235.258 111.508C236.314 111.508 237.168 111.844 237.818 112.516C238.469 113.177 238.794 114.105 238.794 115.3V120.5H236.554V115.604C236.554 114.9 236.378 114.361 236.026 113.988C235.674 113.604 235.194 113.412 234.586 113.412C233.968 113.412 233.477 113.604 233.114 113.988C232.762 114.361 232.586 114.9 232.586 115.604V120.5H230.346V111.636H232.586V112.74C232.885 112.356 233.264 112.057 233.722 111.844C234.192 111.62 234.704 111.508 235.258 111.508ZM244.396 111.492C245.058 111.492 245.639 111.625 246.14 111.892C246.642 112.148 247.036 112.484 247.324 112.9V111.636H249.58V120.564C249.58 121.385 249.415 122.116 249.084 122.756C248.754 123.407 248.258 123.919 247.596 124.292C246.935 124.676 246.135 124.868 245.196 124.868C243.938 124.868 242.903 124.575 242.092 123.988C241.292 123.401 240.839 122.601 240.732 121.588H242.956C243.074 121.993 243.324 122.313 243.708 122.548C244.103 122.793 244.578 122.916 245.132 122.916C245.783 122.916 246.311 122.719 246.716 122.324C247.122 121.94 247.324 121.353 247.324 120.564V119.188C247.036 119.604 246.636 119.951 246.124 120.228C245.623 120.505 245.047 120.644 244.396 120.644C243.65 120.644 242.967 120.452 242.348 120.068C241.73 119.684 241.239 119.145 240.876 118.452C240.524 117.748 240.348 116.943 240.348 116.036C240.348 115.14 240.524 114.345 240.876 113.652C241.239 112.959 241.724 112.425 242.332 112.052C242.951 111.679 243.639 111.492 244.396 111.492ZM247.324 116.068C247.324 115.524 247.218 115.06 247.004 114.676C246.791 114.281 246.503 113.983 246.14 113.78C245.778 113.567 245.388 113.46 244.972 113.46C244.556 113.46 244.172 113.561 243.82 113.764C243.468 113.967 243.18 114.265 242.956 114.66C242.743 115.044 242.636 115.503 242.636 116.036C242.636 116.569 242.743 117.039 242.956 117.444C243.18 117.839 243.468 118.143 243.82 118.356C244.183 118.569 244.567 118.676 244.972 118.676C245.388 118.676 245.778 118.575 246.14 118.372C246.503 118.159 246.791 117.86 247.004 117.476C247.218 117.081 247.324 116.612 247.324 116.068ZM255.24 111.492C255.901 111.492 256.483 111.625 256.984 111.892C257.485 112.148 257.88 112.484 258.168 112.9V111.636H260.424V120.564C260.424 121.385 260.259 122.116 259.928 122.756C259.597 123.407 259.101 123.919 258.44 124.292C257.779 124.676 256.979 124.868 256.04 124.868C254.781 124.868 253.747 124.575 252.936 123.988C252.136 123.401 251.683 122.601 251.576 121.588H253.8C253.917 121.993 254.168 122.313 254.552 122.548C254.947 122.793 255.421 122.916 255.976 122.916C256.627 122.916 257.155 122.719 257.56 122.324C257.965 121.94 258.168 121.353 258.168 120.564V119.188C257.88 119.604 257.48 119.951 256.968 120.228C256.467 120.505 255.891 120.644 255.24 120.644C254.493 120.644 253.811 120.452 253.192 120.068C252.573 119.684 252.083 119.145 251.72 118.452C251.368 117.748 251.192 116.943 251.192 116.036C251.192 115.14 251.368 114.345 251.72 113.652C252.083 112.959 252.568 112.425 253.176 112.052C253.795 111.679 254.483 111.492 255.24 111.492ZM258.168 116.068C258.168 115.524 258.061 115.06 257.848 114.676C257.635 114.281 257.347 113.983 256.984 113.78C256.621 113.567 256.232 113.46 255.816 113.46C255.4 113.46 255.016 113.561 254.664 113.764C254.312 113.967 254.024 114.265 253.8 114.66C253.587 115.044 253.48 115.503 253.48 116.036C253.48 116.569 253.587 117.039 253.8 117.444C254.024 117.839 254.312 118.143 254.664 118.356C255.027 118.569 255.411 118.676 255.816 118.676C256.232 118.676 256.621 118.575 256.984 118.372C257.347 118.159 257.635 117.86 257.848 117.476C258.061 117.081 258.168 116.612 258.168 116.068ZM262.036 116.036C262.036 115.14 262.212 114.345 262.564 113.652C262.926 112.959 263.412 112.425 264.02 112.052C264.638 111.679 265.326 111.492 266.084 111.492C266.745 111.492 267.321 111.625 267.812 111.892C268.313 112.159 268.713 112.495 269.012 112.9V111.636H271.268V120.5H269.012V119.204C268.724 119.62 268.324 119.967 267.812 120.244C267.31 120.511 266.729 120.644 266.068 120.644C265.321 120.644 264.638 120.452 264.02 120.068C263.412 119.684 262.926 119.145 262.564 118.452C262.212 117.748 262.036 116.943 262.036 116.036ZM269.012 116.068C269.012 115.524 268.905 115.06 268.692 114.676C268.478 114.281 268.19 113.983 267.828 113.78C267.465 113.567 267.076 113.46 266.66 113.46C266.244 113.46 265.86 113.561 265.508 113.764C265.156 113.967 264.868 114.265 264.644 114.66C264.43 115.044 264.324 115.503 264.324 116.036C264.324 116.569 264.43 117.039 264.644 117.444C264.868 117.839 265.156 118.143 265.508 118.356C265.87 118.569 266.254 118.676 266.66 118.676C267.076 118.676 267.465 118.575 267.828 118.372C268.19 118.159 268.478 117.86 268.692 117.476C268.905 117.081 269.012 116.612 269.012 116.068ZM278.448 111.508C279.12 111.508 279.717 111.657 280.24 111.956C280.762 112.244 281.168 112.676 281.456 113.252C281.754 113.817 281.904 114.5 281.904 115.3V120.5H279.664V115.604C279.664 114.9 279.488 114.361 279.136 113.988C278.784 113.604 278.304 113.412 277.696 113.412C277.077 113.412 276.586 113.604 276.224 113.988C275.872 114.361 275.696 114.9 275.696 115.604V120.5H273.456V108.66H275.696V112.74C275.984 112.356 276.368 112.057 276.848 111.844C277.328 111.62 277.861 111.508 278.448 111.508Z" fill="#498FB6"/>
<path d="M80.5653 147.104C79.6506 146.227 78.946 145.111 78.4513 143.758C77.966 142.405 77.7233 140.953 77.7233 139.404C77.7233 137.817 77.9846 136.319 78.5073 134.91C79.0393 133.501 79.8186 132.339 80.8453 131.424H82.4973V131.578C81.424 132.567 80.6166 133.753 80.0753 135.134C79.534 136.515 79.2633 137.939 79.2633 139.404C79.2633 140.813 79.5153 142.176 80.0193 143.492C80.5233 144.808 81.256 145.961 82.2173 146.95V147.104H80.5653ZM89.6539 134.77V136.072H85.5239V138.942H88.7439V140.244H85.5239V144.5H83.9279V134.77H89.6539ZM94.479 144.626C93.751 144.626 93.093 144.463 92.505 144.136C91.917 143.8 91.455 143.333 91.119 142.736C90.783 142.129 90.615 141.429 90.615 140.636C90.615 139.852 90.7877 139.157 91.133 138.55C91.4783 137.943 91.9497 137.477 92.547 137.15C93.1443 136.823 93.8117 136.66 94.549 136.66C95.2863 136.66 95.9537 136.823 96.551 137.15C97.1483 137.477 97.6197 137.943 97.965 138.55C98.3103 139.157 98.483 139.852 98.483 140.636C98.483 141.42 98.3057 142.115 97.951 142.722C97.5963 143.329 97.111 143.8 96.495 144.136C95.8883 144.463 95.2163 144.626 94.479 144.626ZM94.479 143.24C94.8897 143.24 95.2723 143.142 95.627 142.946C95.991 142.75 96.285 142.456 96.509 142.064C96.733 141.672 96.845 141.196 96.845 140.636C96.845 140.076 96.7377 139.605 96.523 139.222C96.3083 138.83 96.0237 138.536 95.669 138.34C95.3143 138.144 94.9317 138.046 94.521 138.046C94.1103 138.046 93.7277 138.144 93.373 138.34C93.0277 138.536 92.7523 138.83 92.547 139.222C92.3417 139.605 92.239 140.076 92.239 140.636C92.239 141.467 92.449 142.111 92.869 142.568C93.2983 143.016 93.835 143.24 94.479 143.24ZM101.657 137.906C101.89 137.514 102.198 137.211 102.581 136.996C102.973 136.772 103.435 136.66 103.967 136.66V138.312H103.561C102.935 138.312 102.459 138.471 102.133 138.788C101.815 139.105 101.657 139.656 101.657 140.44V144.5H100.061V136.786H101.657V137.906ZM114.772 136.66C115.378 136.66 115.92 136.786 116.396 137.038C116.881 137.29 117.259 137.663 117.53 138.158C117.81 138.653 117.95 139.25 117.95 139.95V144.5H116.368V140.188C116.368 139.497 116.195 138.97 115.85 138.606C115.504 138.233 115.033 138.046 114.436 138.046C113.838 138.046 113.362 138.233 113.008 138.606C112.662 138.97 112.49 139.497 112.49 140.188V144.5H110.908V140.188C110.908 139.497 110.735 138.97 110.39 138.606C110.044 138.233 109.573 138.046 108.976 138.046C108.378 138.046 107.902 138.233 107.548 138.606C107.202 138.97 107.03 139.497 107.03 140.188V144.5H105.434V136.786H107.03V137.668C107.291 137.351 107.622 137.103 108.024 136.926C108.425 136.749 108.854 136.66 109.312 136.66C109.928 136.66 110.478 136.791 110.964 137.052C111.449 137.313 111.822 137.691 112.084 138.186C112.317 137.719 112.681 137.351 113.176 137.08C113.67 136.8 114.202 136.66 114.772 136.66ZM119.449 140.608C119.449 139.833 119.607 139.147 119.925 138.55C120.251 137.953 120.69 137.491 121.241 137.164C121.801 136.828 122.417 136.66 123.089 136.66C123.695 136.66 124.223 136.781 124.671 137.024C125.128 137.257 125.492 137.551 125.763 137.906V136.786H127.373V144.5H125.763V143.352C125.492 143.716 125.123 144.019 124.657 144.262C124.19 144.505 123.658 144.626 123.061 144.626C122.398 144.626 121.791 144.458 121.241 144.122C120.69 143.777 120.251 143.301 119.925 142.694C119.607 142.078 119.449 141.383 119.449 140.608ZM125.763 140.636C125.763 140.104 125.651 139.642 125.427 139.25C125.212 138.858 124.927 138.559 124.573 138.354C124.218 138.149 123.835 138.046 123.425 138.046C123.014 138.046 122.631 138.149 122.277 138.354C121.922 138.55 121.633 138.844 121.409 139.236C121.194 139.619 121.087 140.076 121.087 140.608C121.087 141.14 121.194 141.607 121.409 142.008C121.633 142.409 121.922 142.717 122.277 142.932C122.641 143.137 123.023 143.24 123.425 143.24C123.835 143.24 124.218 143.137 124.573 142.932C124.927 142.727 125.212 142.428 125.427 142.036C125.651 141.635 125.763 141.168 125.763 140.636ZM131.331 138.088V142.358C131.331 142.647 131.396 142.857 131.527 142.988C131.667 143.109 131.9 143.17 132.227 143.17H133.207V144.5H131.947C131.228 144.5 130.678 144.332 130.295 143.996C129.912 143.66 129.721 143.114 129.721 142.358V138.088H128.811V136.786H129.721V134.868H131.331V136.786H133.207V138.088H131.331ZM141.549 138.088H140.121V144.5H138.511V138.088H137.601V136.786H138.511V136.24C138.511 135.353 138.744 134.709 139.211 134.308C139.687 133.897 140.429 133.692 141.437 133.692V135.022C140.951 135.022 140.611 135.115 140.415 135.302C140.219 135.479 140.121 135.792 140.121 136.24V136.786H141.549V138.088ZM143.775 135.764C143.486 135.764 143.243 135.666 143.047 135.47C142.851 135.274 142.753 135.031 142.753 134.742C142.753 134.453 142.851 134.21 143.047 134.014C143.243 133.818 143.486 133.72 143.775 133.72C144.055 133.72 144.293 133.818 144.489 134.014C144.685 134.21 144.783 134.453 144.783 134.742C144.783 135.031 144.685 135.274 144.489 135.47C144.293 135.666 144.055 135.764 143.775 135.764ZM144.559 136.786V144.5H142.963V136.786H144.559ZM148.25 134.14V144.5H146.654V134.14H148.25ZM157.416 140.454C157.416 140.743 157.397 141.005 157.36 141.238H151.466C151.513 141.854 151.741 142.349 152.152 142.722C152.563 143.095 153.067 143.282 153.664 143.282C154.523 143.282 155.129 142.923 155.484 142.204H157.206C156.973 142.913 156.548 143.497 155.932 143.954C155.325 144.402 154.569 144.626 153.664 144.626C152.927 144.626 152.264 144.463 151.676 144.136C151.097 143.8 150.64 143.333 150.304 142.736C149.977 142.129 149.814 141.429 149.814 140.636C149.814 139.843 149.973 139.147 150.29 138.55C150.617 137.943 151.069 137.477 151.648 137.15C152.236 136.823 152.908 136.66 153.664 136.66C154.392 136.66 155.041 136.819 155.61 137.136C156.179 137.453 156.623 137.901 156.94 138.48C157.257 139.049 157.416 139.707 157.416 140.454ZM155.75 139.95C155.741 139.362 155.531 138.891 155.12 138.536C154.709 138.181 154.201 138.004 153.594 138.004C153.043 138.004 152.572 138.181 152.18 138.536C151.788 138.881 151.555 139.353 151.48 139.95H155.75ZM159.631 144.598C159.341 144.598 159.099 144.5 158.903 144.304C158.707 144.108 158.609 143.865 158.609 143.576C158.609 143.287 158.707 143.044 158.903 142.848C159.099 142.652 159.341 142.554 159.631 142.554C159.911 142.554 160.149 142.652 160.345 142.848C160.541 143.044 160.639 143.287 160.639 143.576C160.639 143.865 160.541 144.108 160.345 144.304C160.149 144.5 159.911 144.598 159.631 144.598ZM159.631 138.718C159.341 138.718 159.099 138.62 158.903 138.424C158.707 138.228 158.609 137.985 158.609 137.696C158.609 137.407 158.707 137.164 158.903 136.968C159.099 136.772 159.341 136.674 159.631 136.674C159.911 136.674 160.149 136.772 160.345 136.968C160.541 137.164 160.639 137.407 160.639 137.696C160.639 137.985 160.541 138.228 160.345 138.424C160.149 138.62 159.911 138.718 159.631 138.718ZM166.867 135.764C166.578 135.764 166.335 135.666 166.139 135.47C165.943 135.274 165.845 135.031 165.845 134.742C165.845 134.453 165.943 134.21 166.139 134.014C166.335 133.818 166.578 133.72 166.867 133.72C167.147 133.72 167.385 133.818 167.581 134.014C167.777 134.21 167.875 134.453 167.875 134.742C167.875 135.031 167.777 135.274 167.581 135.47C167.385 135.666 167.147 135.764 166.867 135.764ZM167.651 146.012C167.651 146.768 167.46 147.314 167.077 147.65C166.704 147.995 166.158 148.168 165.439 148.168H164.613V146.824H165.159C165.486 146.824 165.714 146.759 165.845 146.628C165.985 146.507 166.055 146.301 166.055 146.012V136.786H167.651V146.012ZM171.342 137.92C171.613 137.565 171.982 137.267 172.448 137.024C172.915 136.781 173.442 136.66 174.03 136.66C174.702 136.66 175.314 136.828 175.864 137.164C176.424 137.491 176.863 137.953 177.18 138.55C177.498 139.147 177.656 139.833 177.656 140.608C177.656 141.383 177.498 142.078 177.18 142.694C176.863 143.301 176.424 143.777 175.864 144.122C175.314 144.458 174.702 144.626 174.03 144.626C173.442 144.626 172.92 144.509 172.462 144.276C172.005 144.033 171.632 143.735 171.342 143.38V148.168H169.746V136.786H171.342V137.92ZM176.032 140.608C176.032 140.076 175.92 139.619 175.696 139.236C175.482 138.844 175.192 138.55 174.828 138.354C174.474 138.149 174.091 138.046 173.68 138.046C173.279 138.046 172.896 138.149 172.532 138.354C172.178 138.559 171.888 138.858 171.664 139.25C171.45 139.642 171.342 140.104 171.342 140.636C171.342 141.168 171.45 141.635 171.664 142.036C171.888 142.428 172.178 142.727 172.532 142.932C172.896 143.137 173.279 143.24 173.68 143.24C174.091 143.24 174.474 143.137 174.828 142.932C175.192 142.717 175.482 142.409 175.696 142.008C175.92 141.607 176.032 141.14 176.032 140.608ZM182.343 136.66C182.94 136.66 183.467 136.781 183.925 137.024C184.391 137.257 184.755 137.551 185.017 137.906V136.786H186.627V144.626C186.627 145.335 186.477 145.965 186.179 146.516C185.88 147.076 185.446 147.515 184.877 147.832C184.317 148.149 183.645 148.308 182.861 148.308C181.815 148.308 180.947 148.061 180.257 147.566C179.566 147.081 179.174 146.418 179.081 145.578H180.663C180.784 145.979 181.041 146.301 181.433 146.544C181.834 146.796 182.31 146.922 182.861 146.922C183.505 146.922 184.023 146.726 184.415 146.334C184.816 145.942 185.017 145.373 185.017 144.626V143.338C184.746 143.702 184.377 144.01 183.911 144.262C183.453 144.505 182.931 144.626 182.343 144.626C181.671 144.626 181.055 144.458 180.495 144.122C179.944 143.777 179.505 143.301 179.179 142.694C178.861 142.078 178.703 141.383 178.703 140.608C178.703 139.833 178.861 139.147 179.179 138.55C179.505 137.953 179.944 137.491 180.495 137.164C181.055 136.828 181.671 136.66 182.343 136.66ZM185.017 140.636C185.017 140.104 184.905 139.642 184.681 139.25C184.466 138.858 184.181 138.559 183.827 138.354C183.472 138.149 183.089 138.046 182.679 138.046C182.268 138.046 181.885 138.149 181.531 138.354C181.176 138.55 180.887 138.844 180.663 139.236C180.448 139.619 180.341 140.076 180.341 140.608C180.341 141.14 180.448 141.607 180.663 142.008C180.887 142.409 181.176 142.717 181.531 142.932C181.895 143.137 182.277 143.24 182.679 143.24C183.089 143.24 183.472 143.137 183.827 142.932C184.181 142.727 184.466 142.428 184.681 142.036C184.905 141.635 185.017 141.168 185.017 140.636ZM190.473 142.582L188.779 146.446H187.743L188.737 142.582H190.473ZM196.316 135.764C196.027 135.764 195.784 135.666 195.588 135.47C195.392 135.274 195.294 135.031 195.294 134.742C195.294 134.453 195.392 134.21 195.588 134.014C195.784 133.818 196.027 133.72 196.316 133.72C196.596 133.72 196.834 133.818 197.03 134.014C197.226 134.21 197.324 134.453 197.324 134.742C197.324 135.031 197.226 135.274 197.03 135.47C196.834 135.666 196.596 135.764 196.316 135.764ZM197.1 146.012C197.1 146.768 196.909 147.314 196.526 147.65C196.153 147.995 195.607 148.168 194.888 148.168H194.062V146.824H194.608C194.935 146.824 195.163 146.759 195.294 146.628C195.434 146.507 195.504 146.301 195.504 146.012V136.786H197.1V146.012ZM200.792 137.92C201.062 137.565 201.431 137.267 201.898 137.024C202.364 136.781 202.892 136.66 203.48 136.66C204.152 136.66 204.763 136.828 205.314 137.164C205.874 137.491 206.312 137.953 206.63 138.55C206.947 139.147 207.106 139.833 207.106 140.608C207.106 141.383 206.947 142.078 206.63 142.694C206.312 143.301 205.874 143.777 205.314 144.122C204.763 144.458 204.152 144.626 203.48 144.626C202.892 144.626 202.369 144.509 201.912 144.276C201.454 144.033 201.081 143.735 200.792 143.38V148.168H199.196V136.786H200.792V137.92ZM205.482 140.608C205.482 140.076 205.37 139.619 205.146 139.236C204.931 138.844 204.642 138.55 204.278 138.354C203.923 138.149 203.54 138.046 203.13 138.046C202.728 138.046 202.346 138.149 201.982 138.354C201.627 138.559 201.338 138.858 201.114 139.25C200.899 139.642 200.792 140.104 200.792 140.636C200.792 141.168 200.899 141.635 201.114 142.036C201.338 142.428 201.627 142.727 201.982 142.932C202.346 143.137 202.728 143.24 203.13 143.24C203.54 143.24 203.923 143.137 204.278 142.932C204.642 142.717 204.931 142.409 205.146 142.008C205.37 141.607 205.482 141.14 205.482 140.608ZM211.792 136.66C212.389 136.66 212.916 136.781 213.374 137.024C213.84 137.257 214.204 137.551 214.466 137.906V136.786H216.076V144.626C216.076 145.335 215.926 145.965 215.628 146.516C215.329 147.076 214.895 147.515 214.326 147.832C213.766 148.149 213.094 148.308 212.31 148.308C211.264 148.308 210.396 148.061 209.706 147.566C209.015 147.081 208.623 146.418 208.53 145.578H210.112C210.233 145.979 210.49 146.301 210.882 146.544C211.283 146.796 211.759 146.922 212.31 146.922C212.954 146.922 213.472 146.726 213.864 146.334C214.265 145.942 214.466 145.373 214.466 144.626V143.338C214.195 143.702 213.826 144.01 213.36 144.262C212.902 144.505 212.38 144.626 211.792 144.626C211.12 144.626 210.504 144.458 209.944 144.122C209.393 143.777 208.954 143.301 208.628 142.694C208.31 142.078 208.152 141.383 208.152 140.608C208.152 139.833 208.31 139.147 208.628 138.55C208.954 137.953 209.393 137.491 209.944 137.164C210.504 136.828 211.12 136.66 211.792 136.66ZM214.466 140.636C214.466 140.104 214.354 139.642 214.13 139.25C213.915 138.858 213.63 138.559 213.276 138.354C212.921 138.149 212.538 138.046 212.128 138.046C211.717 138.046 211.334 138.149 210.98 138.354C210.625 138.55 210.336 138.844 210.112 139.236C209.897 139.619 209.79 140.076 209.79 140.608C209.79 141.14 209.897 141.607 210.112 142.008C210.336 142.409 210.625 142.717 210.98 142.932C211.344 143.137 211.726 143.24 212.128 143.24C212.538 143.24 212.921 143.137 213.276 142.932C213.63 142.727 213.915 142.428 214.13 142.036C214.354 141.635 214.466 141.168 214.466 140.636ZM217.78 147.104V146.95C218.741 145.961 219.474 144.808 219.978 143.492C220.482 142.176 220.734 140.813 220.734 139.404C220.734 137.939 220.463 136.515 219.922 135.134C219.381 133.753 218.573 132.567 217.5 131.578V131.424H219.152C220.179 132.339 220.953 133.501 221.476 134.91C222.008 136.319 222.274 137.817 222.274 139.404C222.274 140.953 222.027 142.405 221.532 143.758C221.047 145.111 220.347 146.227 219.432 147.104H217.78Z" fill="#C4C4C4"/>
<rect x="0.75" y="0.75" width="298.5" height="183.5" rx="4.25" stroke="#59A7D3" stroke-width="1.5" stroke-dasharray="10 10"/>
<defs>
<clipPath id="clip0_339_146">
<rect width="13" height="15" fill="white" transform="translate(155.698 66.3706)"/>
</clipPath>
</defs>
</svg>
