<svg width="30" height="30" viewBox="0 0 30 30" fill="none" xmlns="http://www.w3.org/2000/svg">
<path fill-rule="evenodd" clip-rule="evenodd" d="M18.1787 3.24738C17.8911 2.64842 17.4401 2.14291 16.8777 1.7891C16.3153 1.43528 15.6644 1.24756 15 1.24756C14.3356 1.24756 13.6846 1.43528 13.1222 1.7891C12.5599 2.14291 12.1089 2.64842 11.8212 3.24738L1.67624 23.2036C0.462492 25.5861 1.99624 28.7499 4.85374 28.7499H25.145C28.0037 28.7499 29.535 25.5874 28.3237 23.2036L18.1787 3.24738ZM15 9.99988C15.3315 9.99988 15.6495 10.1316 15.8839 10.366C16.1183 10.6004 16.25 10.9184 16.25 11.2499V17.4999C16.25 17.8314 16.1183 18.1493 15.8839 18.3838C15.6495 18.6182 15.3315 18.7499 15 18.7499C14.6685 18.7499 14.3505 18.6182 14.1161 18.3838C13.8817 18.1493 13.75 17.8314 13.75 17.4999V11.2499C13.75 10.9184 13.8817 10.6004 14.1161 10.366C14.3505 10.1316 14.6685 9.99988 15 9.99988ZM15 20.6249C15.3315 20.6249 15.6495 20.7566 15.8839 20.991C16.1183 21.2254 16.25 21.5434 16.25 21.8749V22.4999C16.25 22.8314 16.1183 23.1493 15.8839 23.3838C15.6495 23.6182 15.3315 23.7499 15 23.7499C14.6685 23.7499 14.3505 23.6182 14.1161 23.3838C13.8817 23.1493 13.75 22.8314 13.75 22.4999V21.8749C13.75 21.5434 13.8817 21.2254 14.1161 20.991C14.3505 20.7566 14.6685 20.6249 15 20.6249Z" fill="#3B8659"/>
</svg>
