<svg width="23" height="23" viewBox="0 0 23 23" fill="none" xmlns="http://www.w3.org/2000/svg">
<path fill-rule="evenodd" clip-rule="evenodd" d="M11.4997 0.958008C5.6778 0.958008 0.958008 5.6778 0.958008 11.4997C0.958008 17.3215 5.6778 22.0413 11.4997 22.0413C17.3215 22.0413 22.0413 17.3215 22.0413 11.4997C22.0413 5.6778 17.3215 0.958008 11.4997 0.958008ZM12.458 6.70801C12.458 6.45384 12.357 6.21009 12.1773 6.03036C11.9976 5.85064 11.7538 5.74967 11.4997 5.74967C11.2455 5.74967 11.0018 5.85064 10.822 6.03036C10.6423 6.21009 10.5413 6.45384 10.5413 6.70801V12.458C10.5413 12.7122 10.6423 12.9559 10.822 13.1357C11.0018 13.3154 11.2455 13.4163 11.4997 13.4163C11.7538 13.4163 11.9976 13.3154 12.1773 13.1357C12.357 12.9559 12.458 12.7122 12.458 12.458V6.70801ZM12.458 15.8122C12.458 15.558 12.357 15.3143 12.1773 15.1345C11.9976 14.9548 11.7538 14.8538 11.4997 14.8538C11.2455 14.8538 11.0018 14.9548 10.822 15.1345C10.6423 15.3143 10.5413 15.558 10.5413 15.8122V16.2913C10.5413 16.5455 10.6423 16.7893 10.822 16.969C11.0018 17.1487 11.2455 17.2497 11.4997 17.2497C11.7538 17.2497 11.9976 17.1487 12.1773 16.969C12.357 16.7893 12.458 16.5455 12.458 16.2913V15.8122Z" fill="#38BF6E"/>
</svg>
